%TF.GenerationSoftware,KiCad,Pcbnew,8.0.6*%
%TF.CreationDate,2024-12-19T09:14:43+01:00*%
%TF.ProjectId,Clicker_PCB,436c6963-6b65-4725-9f50-43422e6b6963,rev?*%
%TF.SameCoordinates,Original*%
%TF.FileFunction,Copper,L4,Bot*%
%TF.FilePolarity,Positive*%
%FSLAX46Y46*%
G04 Gerber Fmt 4.6, Leading zero omitted, Abs format (unit mm)*
G04 Created by KiCad (PCBNEW 8.0.6) date 2024-12-19 09:14:43*
%MOMM*%
%LPD*%
G01*
G04 APERTURE LIST*
%TA.AperFunction,ComponentPad*%
%ADD10C,0.700000*%
%TD*%
%TA.AperFunction,ComponentPad*%
%ADD11C,4.400000*%
%TD*%
%TA.AperFunction,ComponentPad*%
%ADD12R,1.700000X1.700000*%
%TD*%
%TA.AperFunction,ComponentPad*%
%ADD13O,1.700000X1.700000*%
%TD*%
%TA.AperFunction,HeatsinkPad*%
%ADD14C,0.500000*%
%TD*%
%TA.AperFunction,HeatsinkPad*%
%ADD15R,2.700000X2.700000*%
%TD*%
%TA.AperFunction,ComponentPad*%
%ADD16R,0.900000X0.500000*%
%TD*%
%TA.AperFunction,ComponentPad*%
%ADD17C,2.000000*%
%TD*%
%TA.AperFunction,ViaPad*%
%ADD18C,0.600000*%
%TD*%
%TA.AperFunction,Conductor*%
%ADD19C,0.600000*%
%TD*%
%TA.AperFunction,Conductor*%
%ADD20C,0.200000*%
%TD*%
%ADD21C,0.300000*%
%ADD22C,0.350000*%
%ADD23C,0.200000*%
G04 APERTURE END LIST*
D10*
%TO.P,H1,1,1*%
%TO.N,GND*%
X107650000Y-102275000D03*
X108133274Y-101108274D03*
X108133274Y-103441726D03*
X109300000Y-100625000D03*
D11*
X109300000Y-102275000D03*
D10*
X109300000Y-103925000D03*
X110466726Y-101108274D03*
X110466726Y-103441726D03*
X110950000Y-102275000D03*
%TD*%
D12*
%TO.P,BT1,1,+*%
%TO.N,/BAT*%
X124525000Y-130249999D03*
D13*
%TO.P,BT1,2,-*%
%TO.N,GND*%
X127065000Y-130249999D03*
%TD*%
D10*
%TO.P,H3,1,1*%
%TO.N,GND*%
X107650000Y-162275000D03*
X108133274Y-161108274D03*
X108133274Y-163441726D03*
X109300000Y-160625000D03*
D11*
X109300000Y-162275000D03*
D10*
X109300000Y-163925000D03*
X110466726Y-161108274D03*
X110466726Y-163441726D03*
X110950000Y-162275000D03*
%TD*%
D14*
%TO.P,U4,21,EPAD*%
%TO.N,GND*%
X131450000Y-136400000D03*
X131450000Y-134200000D03*
D15*
X130350000Y-135300000D03*
D14*
X129250000Y-136400000D03*
X129250000Y-134200000D03*
%TD*%
D16*
%TO.P,AE1,2*%
%TO.N,GND*%
X113650000Y-98775000D03*
%TD*%
D10*
%TO.P,H2,1,1*%
%TO.N,GND*%
X129650000Y-102275000D03*
X130133274Y-101108274D03*
X130133274Y-103441726D03*
X131300000Y-100625000D03*
D11*
X131300000Y-102275000D03*
D10*
X131300000Y-103925000D03*
X132466726Y-101108274D03*
X132466726Y-103441726D03*
X132950000Y-102275000D03*
%TD*%
D17*
%TO.P,TP5,1,1*%
%TO.N,/UWB_MISO*%
X113425000Y-140400000D03*
%TD*%
D12*
%TO.P,SW1,1,1*%
%TO.N,/CLICKER*%
X112975000Y-133800000D03*
D13*
%TO.P,SW1,2,2*%
%TO.N,GND*%
X115515000Y-133800000D03*
%TD*%
D12*
%TO.P,J1,1,Pin_1*%
%TO.N,/VIN*%
X131200000Y-117950000D03*
D13*
%TO.P,J1,2,Pin_2*%
%TO.N,/RX*%
X131200000Y-115410000D03*
%TO.P,J1,3,Pin_3*%
%TO.N,/SWDIO*%
X131200000Y-112870001D03*
%TO.P,J1,4,Pin_4*%
%TO.N,/SWCLK*%
X131200000Y-110330000D03*
%TO.P,J1,5,Pin_5*%
%TO.N,GND*%
X131200000Y-107790000D03*
%TD*%
D10*
%TO.P,H4,1,1*%
%TO.N,GND*%
X129650000Y-162275000D03*
X130133274Y-161108274D03*
X130133274Y-163441726D03*
X131300000Y-160625000D03*
D11*
X131300000Y-162275000D03*
D10*
X131300000Y-163925000D03*
X132466726Y-161108274D03*
X132466726Y-163441726D03*
X132950000Y-162275000D03*
%TD*%
D17*
%TO.P,TP7,1,1*%
%TO.N,/UWB_NSS*%
X124275000Y-140400000D03*
%TD*%
%TO.P,TP4,1,1*%
%TO.N,/UWB_MOSI*%
X117175000Y-140400000D03*
%TD*%
%TO.P,TP6,1,1*%
%TO.N,/UWB_SCK*%
X120925000Y-140400000D03*
%TD*%
D18*
%TO.N,/BAT*%
X128425000Y-129675000D03*
X131975000Y-130950000D03*
X128600000Y-116200000D03*
%TO.N,GND*%
X122675000Y-98875000D03*
X114200000Y-146925000D03*
X120925000Y-134150000D03*
X108000000Y-152025000D03*
X127050000Y-165150000D03*
X125175000Y-99400000D03*
X106300000Y-165150000D03*
X106100000Y-106150000D03*
X108300000Y-165150000D03*
X134050000Y-165150000D03*
X134500000Y-118150001D03*
X106100000Y-120149999D03*
X132050000Y-165150000D03*
X119675000Y-98875000D03*
X118175000Y-99400000D03*
X134500000Y-156150000D03*
X120875000Y-164850000D03*
X117575000Y-100725000D03*
X134500000Y-116150001D03*
X134175000Y-99400000D03*
X113650000Y-149675000D03*
X134500000Y-137650000D03*
X126575000Y-135400000D03*
X106100000Y-160899999D03*
X110425000Y-99400000D03*
X120925000Y-131650000D03*
X125050000Y-165150000D03*
X132675000Y-98850000D03*
X106100000Y-110150000D03*
X123050000Y-100900000D03*
X106100000Y-105149999D03*
X123050000Y-102875000D03*
X124700000Y-101875000D03*
X107425000Y-143150000D03*
X123050000Y-103650000D03*
X116300000Y-161000000D03*
X120925000Y-135400000D03*
X123675000Y-104400000D03*
X134500000Y-101150000D03*
X134500000Y-145650000D03*
X129175000Y-99400000D03*
X134500000Y-128150000D03*
X118500000Y-154075000D03*
X117975000Y-165025000D03*
X124300000Y-138400000D03*
X117675000Y-98875000D03*
X106100000Y-145899999D03*
X133575000Y-165600000D03*
X121050000Y-100950000D03*
X119850000Y-144600000D03*
X134500000Y-158150001D03*
X124300000Y-134150000D03*
X117525000Y-164275000D03*
X106525000Y-123950000D03*
X131050000Y-165150000D03*
X133175000Y-99400000D03*
X126106250Y-125718748D03*
X123700000Y-98875000D03*
X134500000Y-143650000D03*
X112775000Y-165650000D03*
X126300000Y-102900000D03*
X106100000Y-103149999D03*
X124200000Y-99400000D03*
X107425000Y-139124999D03*
X106100000Y-156899999D03*
X126175000Y-99400000D03*
X134500000Y-105150000D03*
X134500000Y-160150001D03*
X106100000Y-109149999D03*
X134550000Y-165600000D03*
X119700000Y-103675000D03*
X125550000Y-165625000D03*
X106100000Y-114150000D03*
X107425000Y-141124999D03*
X129550000Y-165600000D03*
X113050000Y-109925000D03*
X106100000Y-147900000D03*
X111300000Y-165150000D03*
X107300000Y-165150000D03*
X106100000Y-152900000D03*
X134500000Y-138650000D03*
X134500000Y-131150001D03*
X134500000Y-114150000D03*
X106424999Y-99399999D03*
X118650000Y-150625000D03*
X132550000Y-165600000D03*
X122100000Y-150475000D03*
X121900000Y-110588909D03*
X116075000Y-136475000D03*
X116675000Y-158025000D03*
X106100000Y-100149999D03*
X119250000Y-100950000D03*
X107925000Y-136150000D03*
X134500000Y-161150000D03*
X115675000Y-101525000D03*
X129675000Y-98850000D03*
X116925000Y-100150000D03*
X110925000Y-98900000D03*
X121175000Y-99400000D03*
X116300000Y-165150000D03*
X115299780Y-165148097D03*
X106100000Y-151899999D03*
X134500000Y-141650001D03*
X110300000Y-165150000D03*
X116550000Y-103025000D03*
X106100000Y-112149999D03*
X117325000Y-104025000D03*
X116675000Y-98875000D03*
X106512500Y-127300000D03*
X134500000Y-125150001D03*
X120200000Y-162625000D03*
X122550000Y-165625000D03*
X122000000Y-165125000D03*
X114800000Y-98875000D03*
X124675000Y-104400000D03*
X107425000Y-142125000D03*
X119950000Y-157225000D03*
X125050000Y-108025000D03*
X127175000Y-102525000D03*
X124237500Y-143837500D03*
X106100000Y-157900000D03*
X128550000Y-165600000D03*
X120200000Y-99400000D03*
X134500000Y-127150000D03*
X132225000Y-122150000D03*
X106100000Y-161899999D03*
X126300000Y-100900000D03*
X134500000Y-104150001D03*
X134500000Y-120150000D03*
X106925000Y-98900000D03*
X131550000Y-165600000D03*
X118675000Y-98875000D03*
X106100000Y-121149999D03*
X106100000Y-102149999D03*
X108925000Y-98900000D03*
X114200000Y-155175000D03*
X129050000Y-165150000D03*
X126300000Y-100150000D03*
X116350000Y-163450000D03*
X127175000Y-99400000D03*
X113800000Y-165650000D03*
X110325000Y-139300000D03*
X123575000Y-165625000D03*
X134500000Y-113150000D03*
X107425000Y-138125000D03*
X120200000Y-163450000D03*
X111425000Y-99400000D03*
X106100000Y-163900000D03*
X116275000Y-162675000D03*
X121900000Y-112875000D03*
X114800000Y-165650000D03*
X106100000Y-119149999D03*
X132175000Y-99400000D03*
X126300000Y-103675000D03*
X122250000Y-159075000D03*
X124237500Y-146900000D03*
X108800000Y-120775000D03*
X122100000Y-154075000D03*
X127175000Y-101275000D03*
X106100000Y-118150000D03*
X106100000Y-108149999D03*
X133050000Y-165150000D03*
X119175000Y-99400000D03*
X108000000Y-155150000D03*
X106950000Y-100025000D03*
X128050000Y-165150000D03*
X134500000Y-142650000D03*
X134500000Y-112150000D03*
X120675000Y-98875000D03*
X121025000Y-102775000D03*
X130675000Y-98850000D03*
X114925000Y-99900000D03*
X133250000Y-154887501D03*
X134500000Y-163150000D03*
X109300000Y-165150000D03*
X117675000Y-165650000D03*
X128675000Y-98850000D03*
X111125000Y-148900000D03*
X131175000Y-99400000D03*
X134500000Y-132150001D03*
X126550000Y-165625000D03*
X110225000Y-112375000D03*
X116150000Y-102275000D03*
X109925000Y-98900000D03*
X114200000Y-145375000D03*
X110800000Y-165650000D03*
X116300000Y-161850000D03*
X134500000Y-106150000D03*
X106100000Y-146899999D03*
X106100000Y-153900000D03*
X106100000Y-162900000D03*
X134500000Y-109150001D03*
X134500000Y-115150000D03*
X127050000Y-147175000D03*
X111925000Y-98900000D03*
X107425000Y-99425000D03*
X124675000Y-98875000D03*
X134500000Y-157150000D03*
X131675000Y-98850000D03*
X127300000Y-108025000D03*
X107800000Y-165650000D03*
X118350000Y-100775000D03*
X118550000Y-165650000D03*
X115150000Y-100775000D03*
X124237500Y-145400000D03*
X124075000Y-165150000D03*
X116950000Y-157250000D03*
X120175000Y-159925000D03*
X113300000Y-165150000D03*
X120175000Y-158925000D03*
X125675000Y-98875000D03*
X106100000Y-158900000D03*
X126850000Y-159075000D03*
X122050000Y-100950000D03*
X126106250Y-127243748D03*
X106100000Y-154899999D03*
X123075000Y-165150000D03*
X106575000Y-133775000D03*
X117525000Y-145375000D03*
X119075000Y-117825000D03*
X106100000Y-115149999D03*
X134500000Y-111150001D03*
X134500000Y-164150000D03*
X127825000Y-154125000D03*
X117925000Y-103525000D03*
X134500000Y-110150001D03*
X115900000Y-117825000D03*
X133550000Y-164525000D03*
X121425000Y-165625000D03*
X134500000Y-144650000D03*
X119675000Y-158000000D03*
X134500000Y-122150000D03*
X120925000Y-137900000D03*
X112425000Y-99400000D03*
X134500000Y-103150001D03*
X116325000Y-160025000D03*
X134500000Y-126150000D03*
X134500000Y-119150000D03*
X122050000Y-102775000D03*
X126675000Y-98875000D03*
X130050000Y-165150000D03*
X109025000Y-146650000D03*
X106100000Y-144899999D03*
X134500000Y-147650001D03*
X109425000Y-99400000D03*
X116325000Y-159025000D03*
X134500000Y-148650001D03*
X106575000Y-136025000D03*
X106512500Y-128825000D03*
X108425000Y-99400000D03*
X127550000Y-165625000D03*
X107925000Y-98900000D03*
X106100000Y-143900000D03*
X127675000Y-98875000D03*
X114300000Y-165150000D03*
X130150000Y-154887501D03*
X120925000Y-129150000D03*
X125675000Y-104400000D03*
X117325000Y-103025000D03*
X106100000Y-101149999D03*
X117175000Y-99400000D03*
X123050000Y-100150000D03*
X114200000Y-153600000D03*
X134500000Y-159150001D03*
X118696922Y-110588909D03*
X120175000Y-161800000D03*
X134500000Y-102150001D03*
X107425000Y-140124999D03*
X120175000Y-160850000D03*
X117225000Y-165100000D03*
X118700000Y-112875000D03*
X126050000Y-165150000D03*
X134500000Y-130150001D03*
X117450000Y-156550000D03*
X106800000Y-165650000D03*
X106100000Y-104149999D03*
X106100000Y-150899999D03*
X106100000Y-107149999D03*
X106575000Y-134875001D03*
X112300000Y-165150000D03*
X106100000Y-148900000D03*
X106100000Y-122150000D03*
X128175000Y-99400000D03*
X116550000Y-164250000D03*
X122175000Y-99400000D03*
X106512500Y-130400000D03*
X134500000Y-121150000D03*
X120050000Y-100950000D03*
X134500000Y-140650001D03*
X106100000Y-149899999D03*
X106575000Y-132000000D03*
X120925000Y-130400000D03*
X106100000Y-113149999D03*
X134500000Y-107150000D03*
X134500000Y-117150001D03*
X106100000Y-111149999D03*
X134500000Y-162150000D03*
X106100000Y-117149999D03*
X123175000Y-99400000D03*
X120925000Y-136650000D03*
X134500000Y-146650001D03*
X115800000Y-107525000D03*
X121537500Y-143837500D03*
X121675000Y-98875000D03*
X130550000Y-165600000D03*
X106100000Y-155899999D03*
X134500000Y-129150000D03*
X134500000Y-123150001D03*
X109800000Y-165650000D03*
X115800000Y-165650000D03*
X134500000Y-108150000D03*
X134500000Y-124150001D03*
X124550000Y-165625000D03*
X106100000Y-159899999D03*
X124550000Y-158525000D03*
X107925000Y-133650000D03*
X134500000Y-139650001D03*
X130175000Y-99400000D03*
X120925000Y-132900000D03*
X113650000Y-151225000D03*
X108800000Y-122250000D03*
X111800000Y-165650000D03*
X106100000Y-116149999D03*
X115800000Y-112800000D03*
X106800000Y-164525000D03*
X133700000Y-98850000D03*
X134500000Y-100150000D03*
X134500000Y-133150000D03*
X120350000Y-164275000D03*
X112550000Y-108225000D03*
X116800000Y-165650000D03*
X108800000Y-165650000D03*
%TO.N,+3V3*%
X127450000Y-137450000D03*
X117547229Y-114025000D03*
X127600000Y-158075000D03*
X127450000Y-138450000D03*
X128925000Y-137975000D03*
X106574999Y-141775000D03*
X106575000Y-139525000D03*
X121500000Y-158075000D03*
X128450000Y-138450000D03*
X106575000Y-140675000D03*
X110325000Y-134600000D03*
X127950000Y-137950000D03*
X115150000Y-109850000D03*
X128450000Y-137450000D03*
X123025000Y-158075000D03*
X117450000Y-116275000D03*
X112537500Y-136912500D03*
X126825000Y-150250000D03*
X119850000Y-146375000D03*
X115900000Y-116275000D03*
X130875000Y-146225000D03*
X111900000Y-124975000D03*
X117525000Y-146925000D03*
X120450000Y-104675000D03*
X126825000Y-154900000D03*
X117875000Y-106775000D03*
X127950000Y-136950000D03*
X129475000Y-138450000D03*
X126275000Y-146175000D03*
X126075000Y-158075000D03*
X118425000Y-119475000D03*
X115925000Y-155175000D03*
%TO.N,/NRST*%
X108725000Y-134875000D03*
%TO.N,/UWB/UWB_VDDLDOA*%
X130100000Y-147175000D03*
X126825000Y-153350000D03*
%TO.N,/UWB/UWB_VCOTUNE*%
X117350000Y-154900000D03*
X112125000Y-154375000D03*
%TO.N,/UWB/UWB_VDDCLK*%
X116175000Y-153500000D03*
X109800000Y-150450000D03*
%TO.N,/STATUS*%
X106525000Y-125500000D03*
X125300000Y-110025000D03*
%TO.N,Net-(U1-B3)*%
X123250000Y-113900000D03*
X124054940Y-115779941D03*
%TO.N,/BOOT0*%
X111973591Y-115723591D03*
X124536091Y-110038909D03*
X108725000Y-140674999D03*
%TO.N,/UWB_IRQ*%
X118913909Y-148311091D03*
X118900000Y-144375000D03*
X122575000Y-116275001D03*
%TO.N,/UWB_SYNC*%
X121050000Y-146656580D03*
X123487500Y-147550000D03*
X122126232Y-115160503D03*
X125169973Y-151905027D03*
%TO.N,/HSE_OUT*%
X117450000Y-108425000D03*
X114800000Y-108225000D03*
%TO.N,/UWB_NSS*%
X123050000Y-155025000D03*
X125300000Y-110775000D03*
%TO.N,/UWB_TXE_SPIPOL*%
X125425000Y-149700000D03*
X124050000Y-108525000D03*
%TO.N,/UWB_SCK*%
X122387500Y-139316916D03*
X125299611Y-111625000D03*
X121049999Y-148156585D03*
%TO.N,/UWB_NRST*%
X124800000Y-153275000D03*
X121050000Y-107150000D03*
%TO.N,/UWB_MOSI*%
X120162500Y-139166672D03*
X124905801Y-112285023D03*
X122025000Y-147425000D03*
%TO.N,/UWB_MISO*%
X124549608Y-111625000D03*
X120146659Y-138416837D03*
X121050000Y-147406583D03*
%TO.N,/UWB_RXE_SPIPHA*%
X123425000Y-107900000D03*
X125425001Y-151155025D03*
%TO.N,/UWB_WKUP*%
X123950000Y-155525000D03*
X121050000Y-106275000D03*
%TO.N,/UWB_FORCE_ON*%
X120176409Y-106276409D03*
X124715683Y-155495188D03*
%TO.N,/UWB/UWB_EXTON*%
X125300000Y-155025000D03*
X129250000Y-144974998D03*
%TD*%
D19*
%TO.N,/BAT*%
X128425000Y-129675000D02*
X129700000Y-130950000D01*
D20*
X128625000Y-116225000D02*
X128625000Y-129475000D01*
X128625000Y-129475000D02*
X128425000Y-129675000D01*
X128600000Y-116200000D02*
X128625000Y-116225000D01*
D19*
X129700000Y-130950000D02*
X131975000Y-130950000D01*
%TO.N,/UWB/UWB_VDDLDOA*%
X126825000Y-153350000D02*
X127532717Y-153350000D01*
X130100000Y-150782717D02*
X130100000Y-147175000D01*
X127532717Y-153350000D02*
X130100000Y-150782717D01*
D20*
%TO.N,/UWB/UWB_VCOTUNE*%
X116850000Y-154400000D02*
X112150000Y-154400000D01*
X117350000Y-154900000D02*
X116850000Y-154400000D01*
X112150000Y-154400000D02*
X112125000Y-154375000D01*
%TO.N,/UWB/UWB_VDDCLK*%
X115550000Y-152875000D02*
X113050000Y-152875000D01*
X116175000Y-153500000D02*
X115550000Y-152875000D01*
X113050000Y-152875000D02*
X110625000Y-150450000D01*
X110625000Y-150450000D02*
X109800000Y-150450000D01*
%TO.N,/STATUS*%
X124763909Y-109488909D02*
X117430455Y-109488909D01*
X107300000Y-119619364D02*
X107300000Y-124725000D01*
X107300000Y-124725000D02*
X106525000Y-125500000D01*
X125300000Y-110025000D02*
X124763909Y-109488909D01*
X117430455Y-109488909D02*
X107300000Y-119619364D01*
%TO.N,Net-(U1-B3)*%
X124054940Y-115779941D02*
X124054940Y-114679940D01*
X123275000Y-113900000D02*
X123250000Y-113900000D01*
X124054940Y-114679940D02*
X123275000Y-113900000D01*
%TO.N,/BOOT0*%
X111976409Y-115723591D02*
X117661091Y-110038909D01*
X117661091Y-110038909D02*
X124536091Y-110038909D01*
X111973591Y-115723591D02*
X111976409Y-115723591D01*
%TO.N,/UWB_IRQ*%
X118912500Y-144362500D02*
X118900000Y-144375000D01*
X118900000Y-148297182D02*
X118913909Y-148311091D01*
X118912500Y-128870467D02*
X118912500Y-144362500D01*
X124300000Y-118000001D02*
X124300000Y-123482968D01*
X124300000Y-123482968D02*
X122878984Y-124903983D01*
X122575000Y-116275001D02*
X124300000Y-118000001D01*
X118900000Y-144375000D02*
X118900000Y-148297182D01*
X122878984Y-124903983D02*
X118912500Y-128870467D01*
%TO.N,/UWB_SYNC*%
X124080027Y-151905027D02*
X125169973Y-151905027D01*
X121050000Y-145022182D02*
X119262500Y-143234682D01*
X123487500Y-151312500D02*
X124080027Y-151905027D01*
X124650000Y-123627942D02*
X124650000Y-117537500D01*
X123487500Y-147550000D02*
X123487500Y-151312500D01*
X119262500Y-143234682D02*
X119262500Y-129015442D01*
X119262500Y-129015442D02*
X124650000Y-123627942D01*
X122273003Y-115160503D02*
X122126232Y-115160503D01*
X121050000Y-146656580D02*
X121050000Y-145022182D01*
X124650000Y-117537500D02*
X122273003Y-115160503D01*
%TO.N,/HSE_OUT*%
X115000000Y-108425000D02*
X114800000Y-108225000D01*
X117450000Y-108425000D02*
X115000000Y-108425000D01*
%TO.N,/UWB_NSS*%
X123050000Y-154247182D02*
X121512500Y-152709682D01*
X126075000Y-124182842D02*
X126075000Y-111550000D01*
X121512500Y-152709682D02*
X121512500Y-149332475D01*
X126075000Y-111550000D02*
X125300000Y-110775000D01*
X121512500Y-149332475D02*
X122937500Y-147907475D01*
X122937500Y-127320342D02*
X126075000Y-124182842D01*
X122937500Y-147907475D02*
X122937500Y-140400000D01*
X122937500Y-139062500D02*
X122937500Y-138100000D01*
X124275000Y-140400000D02*
X122937500Y-140400000D01*
X122937500Y-140400000D02*
X122937500Y-127320342D01*
X123050000Y-155025000D02*
X123050000Y-154247182D01*
%TO.N,/UWB_TXE_SPIPOL*%
X123287500Y-131712500D02*
X123287500Y-127465316D01*
X123287500Y-127465316D02*
X126425000Y-124327816D01*
X126425000Y-124327816D02*
X126425000Y-110325000D01*
X125537500Y-149587500D02*
X125537500Y-133962500D01*
X126425000Y-110325000D02*
X124625000Y-108525000D01*
X125537500Y-133962500D02*
X123287500Y-131712500D01*
X125425000Y-149700000D02*
X125537500Y-149587500D01*
X124625000Y-108525000D02*
X124050000Y-108525000D01*
%TO.N,/UWB_SCK*%
X122193415Y-148156585D02*
X122587500Y-147762500D01*
X125700000Y-124062868D02*
X125700000Y-112025389D01*
X121049999Y-148156585D02*
X122193415Y-148156585D01*
X122587500Y-127175368D02*
X125700000Y-124062868D01*
X122587500Y-139116916D02*
X122387500Y-139316916D01*
X122587500Y-138987500D02*
X122587500Y-139116916D01*
X125700000Y-112025389D02*
X125299611Y-111625000D01*
X122587500Y-138987500D02*
X122587500Y-127175368D01*
X122587500Y-147762500D02*
X122587500Y-138987500D01*
%TO.N,/UWB_NRST*%
X124800000Y-153112260D02*
X125843630Y-152068630D01*
X125843630Y-152068628D02*
X126412258Y-151500000D01*
X122425000Y-105775000D02*
X121050000Y-107150000D01*
X126412258Y-151500000D02*
X127119974Y-151500000D01*
X127975000Y-150644974D02*
X127975000Y-143660052D01*
X125843630Y-152068630D02*
X125843630Y-152068628D01*
X131850000Y-105775000D02*
X122425000Y-105775000D01*
X133225000Y-138410052D02*
X133225000Y-107150000D01*
X124800000Y-153275000D02*
X124800000Y-153112260D01*
X133225000Y-107150000D02*
X131850000Y-105775000D01*
X127119974Y-151500000D02*
X127975000Y-150644974D01*
X127975000Y-143660052D02*
X133225000Y-138410052D01*
%TO.N,/UWB_MOSI*%
X125350000Y-112729222D02*
X125350000Y-123917894D01*
X122175000Y-139882233D02*
X122175000Y-147275000D01*
X124471447Y-124796447D02*
X124471445Y-124796447D01*
X121612500Y-139125000D02*
X121837500Y-139350000D01*
X121837500Y-139089098D02*
X121837500Y-139350000D01*
X122237500Y-138689098D02*
X121837500Y-139089098D01*
X121612500Y-139089098D02*
X121612500Y-139125000D01*
X120240074Y-139089098D02*
X120162500Y-139166672D01*
X122175000Y-147275000D02*
X122025000Y-147425000D01*
X124471445Y-124796447D02*
X122237500Y-127030392D01*
X121837500Y-139350000D02*
X121837500Y-139544733D01*
X124905801Y-112285023D02*
X125350000Y-112729222D01*
X125350000Y-123917894D02*
X124471447Y-124796447D01*
X121837500Y-139089098D02*
X121612500Y-139089098D01*
X121612500Y-139089098D02*
X120240074Y-139089098D01*
X121837500Y-139544733D02*
X122175000Y-139882233D01*
X122237500Y-127030392D02*
X122237500Y-138689098D01*
%TO.N,/UWB_MISO*%
X121600000Y-145077208D02*
X119612500Y-143089708D01*
X125000000Y-113157040D02*
X124355801Y-112512841D01*
X121600000Y-146884398D02*
X121600000Y-145077208D01*
X119612500Y-138087500D02*
X119612500Y-129160417D01*
X120146659Y-138416837D02*
X119945663Y-138416837D01*
X121050000Y-147406583D02*
X121077815Y-147406583D01*
X119612500Y-129160417D02*
X125000000Y-123772917D01*
X119654337Y-138416837D02*
X120146659Y-138416837D01*
X119945663Y-138416837D02*
X119612500Y-138750000D01*
X120877812Y-147206580D02*
X121277818Y-147206580D01*
X119612500Y-138375000D02*
X119612500Y-138087500D01*
X119612500Y-138375000D02*
X119654337Y-138416837D01*
X124355801Y-111818807D02*
X124549608Y-111625000D01*
X125000000Y-123772917D02*
X125000000Y-113157040D01*
X121277818Y-147206580D02*
X121600000Y-146884398D01*
X121077815Y-147406583D02*
X120877812Y-147206580D01*
X120146659Y-138416837D02*
X119941837Y-138416837D01*
X119941837Y-138416837D02*
X119612500Y-138087500D01*
X124355801Y-112512841D02*
X124355801Y-111818807D01*
X119612500Y-143089708D02*
X119612500Y-138750000D01*
X119612500Y-138750000D02*
X119612500Y-138375000D01*
%TO.N,/UWB_RXE_SPIPHA*%
X125425001Y-151155025D02*
X125430026Y-151150000D01*
X127625000Y-143515078D02*
X132875000Y-138265078D01*
X125200000Y-106125000D02*
X123425000Y-107900000D01*
X132875000Y-107294974D02*
X131705026Y-106125000D01*
X131705026Y-106125000D02*
X125200000Y-106125000D01*
X132875000Y-138265078D02*
X132875000Y-107294974D01*
X125430026Y-151150000D02*
X126975000Y-151150000D01*
X126975000Y-151150000D02*
X127625000Y-150500000D01*
X127625000Y-150500000D02*
X127625000Y-143515078D01*
%TO.N,/UWB_WKUP*%
X121900000Y-105425000D02*
X121050000Y-106275000D01*
X133575000Y-138555026D02*
X133575000Y-107000000D01*
X123950000Y-155102207D02*
X125525000Y-153527207D01*
X128325000Y-150789949D02*
X128325000Y-143805026D01*
X127264949Y-151850000D02*
X128325000Y-150789949D01*
X125525000Y-152882234D02*
X126091117Y-152316117D01*
X132000000Y-105425000D02*
X121900000Y-105425000D01*
X125525000Y-153527207D02*
X125525000Y-152882234D01*
X133575000Y-107000000D02*
X132000000Y-105425000D01*
X126091117Y-152316117D02*
X126102208Y-152305025D01*
X128325000Y-143805026D02*
X133575000Y-138555026D01*
X126102208Y-152305025D02*
X126557233Y-151850000D01*
X123950000Y-155525000D02*
X123950000Y-155102207D01*
X126557233Y-151850000D02*
X127264949Y-151850000D01*
%TO.N,/UWB_FORCE_ON*%
X121377818Y-105075000D02*
X120176409Y-106276409D01*
X128675000Y-143950001D02*
X133925000Y-138700001D01*
X133925000Y-138700001D02*
X133925000Y-106855025D01*
X124715683Y-154831499D02*
X125875000Y-153672182D01*
X125875000Y-153672182D02*
X125875000Y-153027208D01*
X126702208Y-152200000D02*
X127409924Y-152200000D01*
X133925000Y-106855025D02*
X132144975Y-105075000D01*
X128675000Y-150934924D02*
X128675000Y-143950001D01*
X124715683Y-155495188D02*
X124715683Y-154831499D01*
X125875000Y-153027208D02*
X126702208Y-152200000D01*
X132144975Y-105075000D02*
X121377818Y-105075000D01*
X127409924Y-152200000D02*
X128675000Y-150934924D01*
%TO.N,/UWB/UWB_EXTON*%
X126225000Y-153172183D02*
X126225000Y-154100000D01*
X127554899Y-152550000D02*
X126847183Y-152550000D01*
X126847183Y-152550000D02*
X126225000Y-153172183D01*
X129250000Y-144974998D02*
X129250000Y-150854899D01*
X126225000Y-154100000D02*
X125300000Y-155025000D01*
X129250000Y-150854899D02*
X127554899Y-152550000D01*
%TD*%
%TA.AperFunction,Conductor*%
%TO.N,GND*%
G36*
X123156334Y-148145416D02*
G01*
X123212267Y-148187288D01*
X123236684Y-148252752D01*
X123237000Y-148261598D01*
X123237000Y-151362329D01*
X123275136Y-151454397D01*
X123860592Y-152039852D01*
X123860595Y-152039856D01*
X123860596Y-152039856D01*
X123867662Y-152046922D01*
X123867663Y-152046924D01*
X123938130Y-152117391D01*
X123976267Y-152133187D01*
X124030200Y-152155528D01*
X124030201Y-152155528D01*
X124144289Y-152155528D01*
X124144297Y-152155527D01*
X124734306Y-152155527D01*
X124801345Y-152175212D01*
X124828019Y-152198324D01*
X124871924Y-152248994D01*
X124980904Y-152319031D01*
X124980907Y-152319032D01*
X124980909Y-152319033D01*
X124988976Y-152322718D01*
X124988318Y-152324158D01*
X125038643Y-152356498D01*
X125067670Y-152420053D01*
X125057729Y-152489212D01*
X125032615Y-152525383D01*
X124953184Y-152604815D01*
X124755159Y-152802839D01*
X124702413Y-152834134D01*
X124610932Y-152860994D01*
X124501950Y-152931033D01*
X124417118Y-153028937D01*
X124417117Y-153028938D01*
X124363302Y-153146774D01*
X124344867Y-153275000D01*
X124363302Y-153403225D01*
X124407497Y-153499996D01*
X124417118Y-153521063D01*
X124501951Y-153618967D01*
X124610931Y-153689004D01*
X124627834Y-153693967D01*
X124718075Y-153720464D01*
X124776853Y-153758237D01*
X124805879Y-153821793D01*
X124795936Y-153890951D01*
X124770822Y-153927122D01*
X123808103Y-154889843D01*
X123737637Y-154960308D01*
X123737636Y-154960310D01*
X123731109Y-154976067D01*
X123687266Y-155030469D01*
X123620971Y-155052532D01*
X123553272Y-155035251D01*
X123505663Y-154984112D01*
X123493811Y-154946256D01*
X123493096Y-154941285D01*
X123486697Y-154896774D01*
X123432882Y-154778937D01*
X123348049Y-154681033D01*
X123348048Y-154681032D01*
X123348047Y-154681031D01*
X123343296Y-154676914D01*
X123305523Y-154618136D01*
X123300500Y-154583202D01*
X123300500Y-154197355D01*
X123300499Y-154197352D01*
X123262364Y-154105285D01*
X123191897Y-154034818D01*
X121799319Y-152642240D01*
X121765834Y-152580917D01*
X121763000Y-152554559D01*
X121763000Y-149487598D01*
X121782685Y-149420559D01*
X121799319Y-149399917D01*
X123025319Y-148173917D01*
X123086642Y-148140432D01*
X123156334Y-148145416D01*
G37*
%TD.AperFunction*%
%TA.AperFunction,Conductor*%
G36*
X131616942Y-106395185D02*
G01*
X131637584Y-106411819D01*
X132588181Y-107362416D01*
X132621666Y-107423739D01*
X132624500Y-107450097D01*
X132624500Y-130711194D01*
X132604815Y-130778233D01*
X132552011Y-130823988D01*
X132482853Y-130833932D01*
X132419297Y-130804907D01*
X132393114Y-130773196D01*
X132378835Y-130748465D01*
X132373427Y-130737975D01*
X132357884Y-130703941D01*
X132357883Y-130703940D01*
X132357882Y-130703937D01*
X132351385Y-130696439D01*
X132337709Y-130677233D01*
X132335488Y-130673386D01*
X132308065Y-130645963D01*
X132302046Y-130639498D01*
X132273049Y-130606033D01*
X132273047Y-130606032D01*
X132273048Y-130606032D01*
X132270508Y-130604400D01*
X132258101Y-130594401D01*
X132258059Y-130594458D01*
X132251617Y-130589515D01*
X132251613Y-130589511D01*
X132234933Y-130579881D01*
X132212115Y-130566706D01*
X132207078Y-130563636D01*
X132164068Y-130535995D01*
X132162773Y-130535404D01*
X132153845Y-130532254D01*
X132148887Y-130530200D01*
X132098195Y-130516617D01*
X132095358Y-130515821D01*
X132039772Y-130499500D01*
X132039771Y-130499500D01*
X129937965Y-130499500D01*
X129870926Y-130479815D01*
X129850284Y-130463181D01*
X128911820Y-129524717D01*
X128878335Y-129463394D01*
X128875501Y-129437036D01*
X128875501Y-129415183D01*
X128875500Y-129415169D01*
X128875500Y-118814822D01*
X130199499Y-118814822D01*
X130208231Y-118858717D01*
X130208232Y-118858721D01*
X130208233Y-118858722D01*
X130241496Y-118908504D01*
X130291278Y-118941767D01*
X130291281Y-118941767D01*
X130291282Y-118941768D01*
X130335177Y-118950500D01*
X130335180Y-118950500D01*
X132064822Y-118950500D01*
X132108717Y-118941768D01*
X132108717Y-118941767D01*
X132108722Y-118941767D01*
X132158504Y-118908504D01*
X132191767Y-118858722D01*
X132200500Y-118814820D01*
X132200500Y-117085180D01*
X132200500Y-117085177D01*
X132191768Y-117041282D01*
X132191767Y-117041281D01*
X132191767Y-117041278D01*
X132158504Y-116991496D01*
X132146353Y-116983377D01*
X132108724Y-116958234D01*
X132108717Y-116958231D01*
X132064822Y-116949500D01*
X132064820Y-116949500D01*
X130335180Y-116949500D01*
X130335178Y-116949500D01*
X130291282Y-116958231D01*
X130291275Y-116958234D01*
X130241496Y-116991495D01*
X130241495Y-116991496D01*
X130208234Y-117041275D01*
X130208231Y-117041282D01*
X130199500Y-117085177D01*
X130199500Y-117085180D01*
X130199500Y-118814820D01*
X130199500Y-118814822D01*
X130199499Y-118814822D01*
X128875500Y-118814822D01*
X128875500Y-116616238D01*
X128895185Y-116549199D01*
X128905777Y-116535047D01*
X128982882Y-116446063D01*
X129036697Y-116328226D01*
X129055133Y-116200000D01*
X129036697Y-116071774D01*
X128982882Y-115953937D01*
X128898049Y-115856033D01*
X128789069Y-115785996D01*
X128789065Y-115785994D01*
X128789064Y-115785994D01*
X128664774Y-115749500D01*
X128664772Y-115749500D01*
X128535228Y-115749500D01*
X128535226Y-115749500D01*
X128410935Y-115785994D01*
X128410932Y-115785995D01*
X128410931Y-115785996D01*
X128359677Y-115818934D01*
X128301950Y-115856033D01*
X128217118Y-115953937D01*
X128217117Y-115953938D01*
X128163302Y-116071774D01*
X128144867Y-116200000D01*
X128163302Y-116328225D01*
X128215318Y-116442122D01*
X128217118Y-116446063D01*
X128301951Y-116543967D01*
X128317537Y-116553983D01*
X128363293Y-116606786D01*
X128374500Y-116658300D01*
X128374500Y-129126990D01*
X128354815Y-129194029D01*
X128302011Y-129239784D01*
X128282596Y-129246764D01*
X128251111Y-129255200D01*
X128246146Y-129257257D01*
X128237230Y-129260402D01*
X128235933Y-129260994D01*
X128192930Y-129288630D01*
X128187895Y-129291699D01*
X128148387Y-129314509D01*
X128141941Y-129319456D01*
X128141899Y-129319401D01*
X128129494Y-129329397D01*
X128126955Y-129331028D01*
X128126949Y-129331033D01*
X128097969Y-129364478D01*
X128091943Y-129370951D01*
X128064515Y-129398380D01*
X128064503Y-129398396D01*
X128062279Y-129402249D01*
X128048619Y-129421433D01*
X128042116Y-129428938D01*
X128042114Y-129428941D01*
X128026576Y-129462965D01*
X128021172Y-129473450D01*
X128005200Y-129501114D01*
X128002263Y-129512074D01*
X127995289Y-129531473D01*
X127988305Y-129546767D01*
X127988302Y-129546777D01*
X127983952Y-129577028D01*
X127980991Y-129591464D01*
X127974502Y-129615684D01*
X127974501Y-129615693D01*
X127974501Y-129633899D01*
X127973239Y-129651545D01*
X127969867Y-129674999D01*
X127973239Y-129698452D01*
X127974501Y-129716099D01*
X127974501Y-129734313D01*
X127980991Y-129758535D01*
X127983952Y-129772972D01*
X127988303Y-129803225D01*
X127988304Y-129803230D01*
X127995286Y-129818518D01*
X128002265Y-129837932D01*
X128005199Y-129848881D01*
X128005202Y-129848889D01*
X128021166Y-129876539D01*
X128026573Y-129887026D01*
X128042117Y-129921062D01*
X128042118Y-129921063D01*
X128048609Y-129928555D01*
X128062283Y-129947756D01*
X128064509Y-129951612D01*
X128064510Y-129951613D01*
X128064511Y-129951614D01*
X128091945Y-129979048D01*
X128097951Y-129985499D01*
X128126951Y-130018967D01*
X128129488Y-130020597D01*
X128150126Y-130037229D01*
X129423386Y-131310489D01*
X129423387Y-131310490D01*
X129423389Y-131310491D01*
X129466957Y-131335644D01*
X129466959Y-131335646D01*
X129466960Y-131335646D01*
X129526114Y-131369799D01*
X129640691Y-131400500D01*
X129640694Y-131400500D01*
X132039772Y-131400500D01*
X132095426Y-131384157D01*
X132098243Y-131383368D01*
X132148886Y-131369799D01*
X132148892Y-131369795D01*
X132153821Y-131367754D01*
X132162768Y-131364597D01*
X132164062Y-131364005D01*
X132164069Y-131364004D01*
X132207114Y-131336339D01*
X132212086Y-131333309D01*
X132251613Y-131310489D01*
X132251618Y-131310483D01*
X132258068Y-131305536D01*
X132258111Y-131305593D01*
X132270525Y-131295588D01*
X132273049Y-131293967D01*
X132302054Y-131260491D01*
X132308060Y-131254040D01*
X132335489Y-131226613D01*
X132337708Y-131222767D01*
X132351387Y-131203557D01*
X132357882Y-131196063D01*
X132373428Y-131162018D01*
X132378822Y-131151555D01*
X132393115Y-131126801D01*
X132443683Y-131078589D01*
X132512290Y-131065368D01*
X132577154Y-131091337D01*
X132617681Y-131148252D01*
X132624500Y-131188806D01*
X132624500Y-138109955D01*
X132604815Y-138176994D01*
X132588181Y-138197636D01*
X127412637Y-143373179D01*
X127412636Y-143373180D01*
X127374500Y-143465248D01*
X127374500Y-149863766D01*
X127354815Y-149930805D01*
X127302011Y-149976560D01*
X127232853Y-149986504D01*
X127169297Y-149957479D01*
X127156786Y-149944968D01*
X127123049Y-149906033D01*
X127014069Y-149835996D01*
X127014065Y-149835994D01*
X127014064Y-149835994D01*
X126889774Y-149799500D01*
X126889772Y-149799500D01*
X126760228Y-149799500D01*
X126760226Y-149799500D01*
X126635935Y-149835994D01*
X126635932Y-149835995D01*
X126635931Y-149835996D01*
X126592720Y-149863766D01*
X126526950Y-149906033D01*
X126442118Y-150003937D01*
X126442117Y-150003938D01*
X126388302Y-150121774D01*
X126369867Y-150250000D01*
X126388302Y-150378225D01*
X126396529Y-150396239D01*
X126442118Y-150496063D01*
X126526951Y-150593967D01*
X126635931Y-150664004D01*
X126635933Y-150664004D01*
X126643392Y-150668798D01*
X126642221Y-150670618D01*
X126685895Y-150708465D01*
X126705577Y-150775505D01*
X126685889Y-150842544D01*
X126633083Y-150888297D01*
X126581577Y-150899500D01*
X125856314Y-150899500D01*
X125789275Y-150879815D01*
X125762600Y-150856702D01*
X125723050Y-150811058D01*
X125614070Y-150741021D01*
X125614066Y-150741019D01*
X125614065Y-150741019D01*
X125489775Y-150704525D01*
X125489773Y-150704525D01*
X125360229Y-150704525D01*
X125360227Y-150704525D01*
X125235936Y-150741019D01*
X125235933Y-150741020D01*
X125235932Y-150741021D01*
X125220190Y-150751138D01*
X125126951Y-150811058D01*
X125042119Y-150908962D01*
X125042118Y-150908963D01*
X124988303Y-151026799D01*
X124969868Y-151155025D01*
X124988303Y-151283251D01*
X124988304Y-151283252D01*
X125015346Y-151342466D01*
X125025290Y-151411624D01*
X124996265Y-151475180D01*
X124969592Y-151498292D01*
X124871924Y-151561059D01*
X124828020Y-151611729D01*
X124769242Y-151649504D01*
X124734306Y-151654527D01*
X124235149Y-151654527D01*
X124168110Y-151634842D01*
X124147468Y-151618208D01*
X123774319Y-151245058D01*
X123740834Y-151183735D01*
X123738000Y-151157377D01*
X123738000Y-147991796D01*
X123757685Y-147924757D01*
X123780802Y-147898079D01*
X123785538Y-147893973D01*
X123785549Y-147893967D01*
X123870382Y-147796063D01*
X123924197Y-147678226D01*
X123942633Y-147550000D01*
X123924197Y-147421774D01*
X123870382Y-147303937D01*
X123785549Y-147206033D01*
X123676569Y-147135996D01*
X123676565Y-147135994D01*
X123676564Y-147135994D01*
X123552274Y-147099500D01*
X123552272Y-147099500D01*
X123422728Y-147099500D01*
X123346933Y-147121754D01*
X123277063Y-147121753D01*
X123218286Y-147083977D01*
X123189262Y-147020421D01*
X123188000Y-147002776D01*
X123188000Y-141239661D01*
X123207685Y-141172622D01*
X123260489Y-141126867D01*
X123329647Y-141116923D01*
X123393203Y-141145948D01*
X123410951Y-141164931D01*
X123421128Y-141178407D01*
X123578698Y-141322052D01*
X123759981Y-141434298D01*
X123958802Y-141511321D01*
X124168390Y-141550500D01*
X124168392Y-141550500D01*
X124381608Y-141550500D01*
X124381610Y-141550500D01*
X124591198Y-141511321D01*
X124790019Y-141434298D01*
X124971302Y-141322052D01*
X125079461Y-141223450D01*
X125142265Y-141192833D01*
X125211652Y-141201030D01*
X125265593Y-141245440D01*
X125286961Y-141311962D01*
X125287000Y-141315087D01*
X125287000Y-149185467D01*
X125267315Y-149252506D01*
X125230040Y-149289781D01*
X125187473Y-149317137D01*
X125126950Y-149356033D01*
X125042118Y-149453937D01*
X125042117Y-149453938D01*
X124988302Y-149571774D01*
X124969867Y-149700000D01*
X124988302Y-149828225D01*
X125035150Y-149930805D01*
X125042118Y-149946063D01*
X125126951Y-150043967D01*
X125235931Y-150114004D01*
X125262394Y-150121774D01*
X125360225Y-150150499D01*
X125360227Y-150150500D01*
X125360228Y-150150500D01*
X125489773Y-150150500D01*
X125489773Y-150150499D01*
X125614069Y-150114004D01*
X125723049Y-150043967D01*
X125807882Y-149946063D01*
X125861697Y-149828226D01*
X125880133Y-149700000D01*
X125861697Y-149571774D01*
X125807882Y-149453937D01*
X125807879Y-149453934D01*
X125807679Y-149453622D01*
X125807573Y-149453261D01*
X125804198Y-149445871D01*
X125805260Y-149445385D01*
X125788000Y-149386590D01*
X125788000Y-146624624D01*
X125807685Y-146557585D01*
X125860489Y-146511830D01*
X125929647Y-146501886D01*
X125979035Y-146520306D01*
X126085931Y-146589004D01*
X126085932Y-146589004D01*
X126085935Y-146589006D01*
X126210225Y-146625499D01*
X126210227Y-146625500D01*
X126210228Y-146625500D01*
X126339773Y-146625500D01*
X126339773Y-146625499D01*
X126464069Y-146589004D01*
X126573049Y-146518967D01*
X126657882Y-146421063D01*
X126711697Y-146303226D01*
X126730133Y-146175000D01*
X126711697Y-146046774D01*
X126657882Y-145928937D01*
X126573049Y-145831033D01*
X126464069Y-145760996D01*
X126464065Y-145760994D01*
X126464064Y-145760994D01*
X126339774Y-145724500D01*
X126339772Y-145724500D01*
X126210228Y-145724500D01*
X126210226Y-145724500D01*
X126085935Y-145760994D01*
X126085932Y-145760995D01*
X126085931Y-145760996D01*
X126061206Y-145776886D01*
X125979039Y-145829691D01*
X125911999Y-145849375D01*
X125844960Y-145829690D01*
X125799205Y-145776886D01*
X125788000Y-145725375D01*
X125788000Y-137450000D01*
X126994867Y-137450000D01*
X127013302Y-137578225D01*
X127037419Y-137631033D01*
X127067118Y-137696063D01*
X127151951Y-137793967D01*
X127232425Y-137845684D01*
X127278180Y-137898488D01*
X127288124Y-137967647D01*
X127259099Y-138031202D01*
X127232426Y-138054314D01*
X127203698Y-138072776D01*
X127151950Y-138106033D01*
X127067118Y-138203937D01*
X127067117Y-138203938D01*
X127013302Y-138321774D01*
X126994867Y-138450000D01*
X127013302Y-138578225D01*
X127033137Y-138621656D01*
X127067118Y-138696063D01*
X127151951Y-138793967D01*
X127260931Y-138864004D01*
X127385225Y-138900499D01*
X127385227Y-138900500D01*
X127385228Y-138900500D01*
X127514773Y-138900500D01*
X127514773Y-138900499D01*
X127639069Y-138864004D01*
X127748049Y-138793967D01*
X127832882Y-138696063D01*
X127837206Y-138686595D01*
X127882961Y-138633791D01*
X127950000Y-138614107D01*
X128017040Y-138633792D01*
X128062794Y-138686595D01*
X128067118Y-138696063D01*
X128151951Y-138793967D01*
X128260931Y-138864004D01*
X128385225Y-138900499D01*
X128385227Y-138900500D01*
X128385228Y-138900500D01*
X128514773Y-138900500D01*
X128514773Y-138900499D01*
X128639069Y-138864004D01*
X128748049Y-138793967D01*
X128832882Y-138696063D01*
X128849706Y-138659223D01*
X128895461Y-138606420D01*
X128962500Y-138586736D01*
X129029540Y-138606421D01*
X129075293Y-138659223D01*
X129092118Y-138696063D01*
X129176951Y-138793967D01*
X129285931Y-138864004D01*
X129410225Y-138900499D01*
X129410227Y-138900500D01*
X129410228Y-138900500D01*
X129539773Y-138900500D01*
X129539773Y-138900499D01*
X129664069Y-138864004D01*
X129773049Y-138793967D01*
X129857882Y-138696063D01*
X129911697Y-138578226D01*
X129930133Y-138450000D01*
X129911697Y-138321774D01*
X129857882Y-138203937D01*
X129773049Y-138106033D01*
X129664069Y-138035996D01*
X129664065Y-138035994D01*
X129664064Y-138035994D01*
X129539774Y-137999500D01*
X129539772Y-137999500D01*
X129491102Y-137999500D01*
X129424063Y-137979815D01*
X129378308Y-137927011D01*
X129368364Y-137893146D01*
X129361697Y-137846774D01*
X129361199Y-137845684D01*
X129307882Y-137728937D01*
X129223049Y-137631033D01*
X129114069Y-137560996D01*
X129114065Y-137560994D01*
X129114064Y-137560994D01*
X128989048Y-137524287D01*
X128930270Y-137486514D01*
X128901245Y-137422961D01*
X128886697Y-137321774D01*
X128832882Y-137203937D01*
X128748049Y-137106033D01*
X128639069Y-137035996D01*
X128639065Y-137035994D01*
X128639064Y-137035994D01*
X128514774Y-136999500D01*
X128505995Y-136998238D01*
X128506375Y-136995588D01*
X128452658Y-136979815D01*
X128406903Y-136927011D01*
X128396959Y-136893147D01*
X128386697Y-136821774D01*
X128332882Y-136703938D01*
X128332882Y-136703937D01*
X128248049Y-136606033D01*
X128139069Y-136535996D01*
X128139065Y-136535994D01*
X128139064Y-136535994D01*
X128014774Y-136499500D01*
X128014772Y-136499500D01*
X127885228Y-136499500D01*
X127885226Y-136499500D01*
X127760935Y-136535994D01*
X127760932Y-136535995D01*
X127760931Y-136535996D01*
X127710302Y-136568533D01*
X127651950Y-136606033D01*
X127567118Y-136703937D01*
X127567117Y-136703938D01*
X127513302Y-136821774D01*
X127503041Y-136893147D01*
X127474016Y-136956703D01*
X127415238Y-136994477D01*
X127393905Y-136997544D01*
X127394005Y-136998238D01*
X127385225Y-136999500D01*
X127260935Y-137035994D01*
X127260932Y-137035995D01*
X127260931Y-137035996D01*
X127209677Y-137068934D01*
X127151950Y-137106033D01*
X127067118Y-137203937D01*
X127067117Y-137203938D01*
X127013302Y-137321774D01*
X126994867Y-137450000D01*
X125788000Y-137450000D01*
X125788000Y-134026770D01*
X125788001Y-134026761D01*
X125788001Y-133912674D01*
X125788000Y-133912670D01*
X125749864Y-133820604D01*
X125749863Y-133820602D01*
X125672332Y-133743071D01*
X125672325Y-133743065D01*
X123574319Y-131645058D01*
X123540834Y-131583735D01*
X123538000Y-131557377D01*
X123538000Y-131374499D01*
X123557685Y-131307460D01*
X123610489Y-131261705D01*
X123662000Y-131250499D01*
X125389822Y-131250499D01*
X125433717Y-131241767D01*
X125433717Y-131241766D01*
X125433722Y-131241766D01*
X125483504Y-131208503D01*
X125516767Y-131158721D01*
X125518195Y-131151544D01*
X125525500Y-131114821D01*
X125525500Y-129385176D01*
X125516768Y-129341281D01*
X125516767Y-129341280D01*
X125516767Y-129341277D01*
X125483504Y-129291495D01*
X125481608Y-129290228D01*
X125433724Y-129258233D01*
X125433717Y-129258230D01*
X125389822Y-129249499D01*
X125389820Y-129249499D01*
X123662000Y-129249499D01*
X123594961Y-129229814D01*
X123549206Y-129177010D01*
X123538000Y-129125499D01*
X123538000Y-127620439D01*
X123557685Y-127553400D01*
X123574319Y-127532758D01*
X123966900Y-127140177D01*
X126637364Y-124469713D01*
X126675500Y-124377644D01*
X126675500Y-124277988D01*
X126675500Y-115410000D01*
X130194659Y-115410000D01*
X130213975Y-115606129D01*
X130213976Y-115606132D01*
X130268537Y-115785996D01*
X130271188Y-115794733D01*
X130364086Y-115968532D01*
X130364090Y-115968539D01*
X130489116Y-116120883D01*
X130641460Y-116245909D01*
X130641467Y-116245913D01*
X130815266Y-116338811D01*
X130815269Y-116338811D01*
X130815273Y-116338814D01*
X131003868Y-116396024D01*
X131200000Y-116415341D01*
X131396132Y-116396024D01*
X131584727Y-116338814D01*
X131758538Y-116245910D01*
X131910883Y-116120883D01*
X132035910Y-115968538D01*
X132109538Y-115830790D01*
X132128811Y-115794733D01*
X132128811Y-115794732D01*
X132128814Y-115794727D01*
X132186024Y-115606132D01*
X132205341Y-115410000D01*
X132186024Y-115213868D01*
X132128814Y-115025273D01*
X132128811Y-115025269D01*
X132128811Y-115025266D01*
X132035913Y-114851467D01*
X132035909Y-114851460D01*
X131910883Y-114699116D01*
X131758539Y-114574090D01*
X131758532Y-114574086D01*
X131584733Y-114481188D01*
X131584727Y-114481186D01*
X131396132Y-114423976D01*
X131396129Y-114423975D01*
X131200000Y-114404659D01*
X131003870Y-114423975D01*
X130815266Y-114481188D01*
X130641467Y-114574086D01*
X130641460Y-114574090D01*
X130489116Y-114699116D01*
X130364090Y-114851460D01*
X130364086Y-114851467D01*
X130271188Y-115025266D01*
X130213975Y-115213870D01*
X130194659Y-115410000D01*
X126675500Y-115410000D01*
X126675500Y-112870001D01*
X130194659Y-112870001D01*
X130213975Y-113066130D01*
X130271188Y-113254734D01*
X130364086Y-113428533D01*
X130364090Y-113428540D01*
X130489116Y-113580884D01*
X130641460Y-113705910D01*
X130641467Y-113705914D01*
X130815266Y-113798812D01*
X130815269Y-113798812D01*
X130815273Y-113798815D01*
X131003868Y-113856025D01*
X131200000Y-113875342D01*
X131396132Y-113856025D01*
X131584727Y-113798815D01*
X131758538Y-113705911D01*
X131910883Y-113580884D01*
X132035910Y-113428539D01*
X132128814Y-113254728D01*
X132186024Y-113066133D01*
X132205341Y-112870001D01*
X132186024Y-112673869D01*
X132128814Y-112485274D01*
X132128811Y-112485270D01*
X132128811Y-112485267D01*
X132035913Y-112311468D01*
X132035909Y-112311461D01*
X131910883Y-112159117D01*
X131758539Y-112034091D01*
X131758532Y-112034087D01*
X131584733Y-111941189D01*
X131584727Y-111941187D01*
X131396132Y-111883977D01*
X131396129Y-111883976D01*
X131200000Y-111864660D01*
X131003870Y-111883976D01*
X130815266Y-111941189D01*
X130641467Y-112034087D01*
X130641460Y-112034091D01*
X130489116Y-112159117D01*
X130364090Y-112311461D01*
X130364086Y-112311468D01*
X130271188Y-112485267D01*
X130213975Y-112673871D01*
X130194659Y-112870001D01*
X126675500Y-112870001D01*
X126675500Y-110330000D01*
X130194659Y-110330000D01*
X130213975Y-110526129D01*
X130213976Y-110526132D01*
X130243370Y-110623032D01*
X130271188Y-110714733D01*
X130364086Y-110888532D01*
X130364090Y-110888539D01*
X130489116Y-111040883D01*
X130641460Y-111165909D01*
X130641467Y-111165913D01*
X130815266Y-111258811D01*
X130815269Y-111258811D01*
X130815273Y-111258814D01*
X131003868Y-111316024D01*
X131200000Y-111335341D01*
X131396132Y-111316024D01*
X131584727Y-111258814D01*
X131758538Y-111165910D01*
X131910883Y-111040883D01*
X132035910Y-110888538D01*
X132128814Y-110714727D01*
X132186024Y-110526132D01*
X132205341Y-110330000D01*
X132186024Y-110133868D01*
X132128814Y-109945273D01*
X132128811Y-109945269D01*
X132128811Y-109945266D01*
X132035913Y-109771467D01*
X132035909Y-109771460D01*
X131910883Y-109619116D01*
X131758539Y-109494090D01*
X131758532Y-109494086D01*
X131584733Y-109401188D01*
X131584727Y-109401186D01*
X131406144Y-109347013D01*
X131396129Y-109343975D01*
X131200000Y-109324659D01*
X131003870Y-109343975D01*
X130815266Y-109401188D01*
X130641467Y-109494086D01*
X130641460Y-109494090D01*
X130489116Y-109619116D01*
X130364090Y-109771460D01*
X130364086Y-109771467D01*
X130271188Y-109945266D01*
X130213975Y-110133870D01*
X130194659Y-110330000D01*
X126675500Y-110330000D01*
X126675500Y-110275172D01*
X126637364Y-110183103D01*
X126566897Y-110112636D01*
X124766897Y-108312636D01*
X124728603Y-108296774D01*
X124674829Y-108274500D01*
X124674828Y-108274500D01*
X124485667Y-108274500D01*
X124418628Y-108254815D01*
X124391953Y-108231702D01*
X124348049Y-108181033D01*
X124344789Y-108178938D01*
X124239069Y-108110996D01*
X124239065Y-108110994D01*
X124239064Y-108110994D01*
X124114774Y-108074500D01*
X124114772Y-108074500D01*
X123998147Y-108074500D01*
X123931108Y-108054815D01*
X123885353Y-108002011D01*
X123875409Y-107932853D01*
X123880133Y-107900000D01*
X123876286Y-107873247D01*
X123886227Y-107804090D01*
X123911339Y-107767920D01*
X125267442Y-106411819D01*
X125328765Y-106378334D01*
X125355123Y-106375500D01*
X131549903Y-106375500D01*
X131616942Y-106395185D01*
G37*
%TD.AperFunction*%
%TA.AperFunction,Conductor*%
G36*
X120068203Y-141175793D02*
G01*
X120070539Y-141177869D01*
X120071125Y-141178403D01*
X120071128Y-141178407D01*
X120228698Y-141322052D01*
X120409981Y-141434298D01*
X120608802Y-141511321D01*
X120818390Y-141550500D01*
X120818392Y-141550500D01*
X121031608Y-141550500D01*
X121031610Y-141550500D01*
X121241198Y-141511321D01*
X121440019Y-141434298D01*
X121621302Y-141322052D01*
X121716962Y-141234845D01*
X121779765Y-141204229D01*
X121849153Y-141212426D01*
X121903093Y-141256836D01*
X121924461Y-141323358D01*
X121924500Y-141326483D01*
X121924500Y-144748085D01*
X121904815Y-144815124D01*
X121852011Y-144860879D01*
X121782853Y-144870823D01*
X121719297Y-144841798D01*
X121712819Y-144835766D01*
X119899319Y-143022266D01*
X119865834Y-142960943D01*
X119863000Y-142934585D01*
X119863000Y-141269506D01*
X119882685Y-141202467D01*
X119935489Y-141156712D01*
X120004647Y-141146768D01*
X120068203Y-141175793D01*
G37*
%TD.AperFunction*%
%TA.AperFunction,Conductor*%
G36*
X123393203Y-132172909D02*
G01*
X123399681Y-132178941D01*
X125250681Y-134029941D01*
X125284166Y-134091264D01*
X125287000Y-134117622D01*
X125287000Y-139484912D01*
X125267315Y-139551951D01*
X125214511Y-139597706D01*
X125145353Y-139607650D01*
X125081797Y-139578625D01*
X125079462Y-139576549D01*
X124977864Y-139483930D01*
X124971302Y-139477948D01*
X124790019Y-139365702D01*
X124790017Y-139365701D01*
X124690608Y-139327190D01*
X124591198Y-139288679D01*
X124381610Y-139249500D01*
X124168390Y-139249500D01*
X123958802Y-139288679D01*
X123958797Y-139288680D01*
X123834414Y-139336866D01*
X123826908Y-139339500D01*
X123806077Y-139346067D01*
X123806069Y-139346071D01*
X123802239Y-139348172D01*
X123787405Y-139355077D01*
X123759981Y-139365701D01*
X123682566Y-139413633D01*
X123676937Y-139416916D01*
X123570557Y-139475282D01*
X123563893Y-139479156D01*
X123562896Y-139479769D01*
X123556493Y-139483930D01*
X123382091Y-139603434D01*
X123315662Y-139625090D01*
X123248071Y-139607394D01*
X123200776Y-139555964D01*
X123188000Y-139501144D01*
X123188000Y-132266622D01*
X123207685Y-132199583D01*
X123260489Y-132153828D01*
X123329647Y-132143884D01*
X123393203Y-132172909D01*
G37*
%TD.AperFunction*%
%TA.AperFunction,Conductor*%
G36*
X121906334Y-127323357D02*
G01*
X121962267Y-127365229D01*
X121986684Y-127430693D01*
X121987000Y-127439539D01*
X121987000Y-138533975D01*
X121967315Y-138601014D01*
X121950681Y-138621656D01*
X121770058Y-138802279D01*
X121708735Y-138835764D01*
X121682377Y-138838598D01*
X120642250Y-138838598D01*
X120575211Y-138818913D01*
X120529456Y-138766109D01*
X120519512Y-138696951D01*
X120529456Y-138663086D01*
X120555335Y-138606420D01*
X120583356Y-138545063D01*
X120601792Y-138416837D01*
X120583356Y-138288611D01*
X120529541Y-138170774D01*
X120444708Y-138072870D01*
X120335728Y-138002833D01*
X120335724Y-138002831D01*
X120335723Y-138002831D01*
X120211433Y-137966337D01*
X120211431Y-137966337D01*
X120081887Y-137966337D01*
X120021933Y-137983940D01*
X119952063Y-137983939D01*
X119893286Y-137946163D01*
X119864262Y-137882607D01*
X119863000Y-137864962D01*
X119863000Y-129315539D01*
X119882685Y-129248500D01*
X119899319Y-129227858D01*
X121775319Y-127351858D01*
X121836642Y-127318373D01*
X121906334Y-127323357D01*
G37*
%TD.AperFunction*%
%TA.AperFunction,Conductor*%
G36*
X134842539Y-98544685D02*
G01*
X134888294Y-98597489D01*
X134899500Y-98649000D01*
X134899500Y-165901000D01*
X134879815Y-165968039D01*
X134827011Y-166013794D01*
X134775500Y-166025000D01*
X105824500Y-166025000D01*
X105757461Y-166005315D01*
X105711706Y-165952511D01*
X105700500Y-165901000D01*
X105700500Y-158075000D01*
X121044867Y-158075000D01*
X121063302Y-158203225D01*
X121117117Y-158321061D01*
X121117118Y-158321063D01*
X121201951Y-158418967D01*
X121310931Y-158489004D01*
X121435225Y-158525499D01*
X121435227Y-158525500D01*
X121435228Y-158525500D01*
X121564773Y-158525500D01*
X121564773Y-158525499D01*
X121689069Y-158489004D01*
X121798049Y-158418967D01*
X121882882Y-158321063D01*
X121936697Y-158203226D01*
X121955133Y-158075000D01*
X122569867Y-158075000D01*
X122588302Y-158203225D01*
X122642117Y-158321061D01*
X122642118Y-158321063D01*
X122726951Y-158418967D01*
X122835931Y-158489004D01*
X122960225Y-158525499D01*
X122960227Y-158525500D01*
X122960228Y-158525500D01*
X123089773Y-158525500D01*
X123089773Y-158525499D01*
X123214069Y-158489004D01*
X123323049Y-158418967D01*
X123407882Y-158321063D01*
X123461697Y-158203226D01*
X123480133Y-158075000D01*
X125619867Y-158075000D01*
X125638302Y-158203225D01*
X125692117Y-158321061D01*
X125692118Y-158321063D01*
X125776951Y-158418967D01*
X125885931Y-158489004D01*
X126010225Y-158525499D01*
X126010227Y-158525500D01*
X126010228Y-158525500D01*
X126139773Y-158525500D01*
X126139773Y-158525499D01*
X126264069Y-158489004D01*
X126373049Y-158418967D01*
X126457882Y-158321063D01*
X126511697Y-158203226D01*
X126530133Y-158075000D01*
X127144867Y-158075000D01*
X127163302Y-158203225D01*
X127217117Y-158321061D01*
X127217118Y-158321063D01*
X127301951Y-158418967D01*
X127410931Y-158489004D01*
X127535225Y-158525499D01*
X127535227Y-158525500D01*
X127535228Y-158525500D01*
X127664773Y-158525500D01*
X127664773Y-158525499D01*
X127789069Y-158489004D01*
X127898049Y-158418967D01*
X127982882Y-158321063D01*
X128036697Y-158203226D01*
X128055133Y-158075000D01*
X128036697Y-157946774D01*
X127982882Y-157828937D01*
X127898049Y-157731033D01*
X127789069Y-157660996D01*
X127789065Y-157660994D01*
X127789064Y-157660994D01*
X127664774Y-157624500D01*
X127664772Y-157624500D01*
X127535228Y-157624500D01*
X127535226Y-157624500D01*
X127410935Y-157660994D01*
X127410932Y-157660995D01*
X127410931Y-157660996D01*
X127359677Y-157693934D01*
X127301950Y-157731033D01*
X127217118Y-157828937D01*
X127217117Y-157828938D01*
X127163302Y-157946774D01*
X127144867Y-158075000D01*
X126530133Y-158075000D01*
X126511697Y-157946774D01*
X126457882Y-157828937D01*
X126373049Y-157731033D01*
X126264069Y-157660996D01*
X126264065Y-157660994D01*
X126264064Y-157660994D01*
X126139774Y-157624500D01*
X126139772Y-157624500D01*
X126010228Y-157624500D01*
X126010226Y-157624500D01*
X125885935Y-157660994D01*
X125885932Y-157660995D01*
X125885931Y-157660996D01*
X125834677Y-157693934D01*
X125776950Y-157731033D01*
X125692118Y-157828937D01*
X125692117Y-157828938D01*
X125638302Y-157946774D01*
X125619867Y-158075000D01*
X123480133Y-158075000D01*
X123461697Y-157946774D01*
X123407882Y-157828937D01*
X123323049Y-157731033D01*
X123214069Y-157660996D01*
X123214065Y-157660994D01*
X123214064Y-157660994D01*
X123089774Y-157624500D01*
X123089772Y-157624500D01*
X122960228Y-157624500D01*
X122960226Y-157624500D01*
X122835935Y-157660994D01*
X122835932Y-157660995D01*
X122835931Y-157660996D01*
X122784677Y-157693934D01*
X122726950Y-157731033D01*
X122642118Y-157828937D01*
X122642117Y-157828938D01*
X122588302Y-157946774D01*
X122569867Y-158075000D01*
X121955133Y-158075000D01*
X121936697Y-157946774D01*
X121882882Y-157828937D01*
X121798049Y-157731033D01*
X121689069Y-157660996D01*
X121689065Y-157660994D01*
X121689064Y-157660994D01*
X121564774Y-157624500D01*
X121564772Y-157624500D01*
X121435228Y-157624500D01*
X121435226Y-157624500D01*
X121310935Y-157660994D01*
X121310932Y-157660995D01*
X121310931Y-157660996D01*
X121259677Y-157693934D01*
X121201950Y-157731033D01*
X121117118Y-157828937D01*
X121117117Y-157828938D01*
X121063302Y-157946774D01*
X121044867Y-158075000D01*
X105700500Y-158075000D01*
X105700500Y-150450000D01*
X109344867Y-150450000D01*
X109363302Y-150578225D01*
X109417117Y-150696061D01*
X109417118Y-150696063D01*
X109501951Y-150793967D01*
X109610931Y-150864004D01*
X109735225Y-150900499D01*
X109735227Y-150900500D01*
X109735228Y-150900500D01*
X109864773Y-150900500D01*
X109864773Y-150900499D01*
X109989069Y-150864004D01*
X110098049Y-150793967D01*
X110141953Y-150743297D01*
X110200731Y-150705523D01*
X110235667Y-150700500D01*
X110469877Y-150700500D01*
X110536916Y-150720185D01*
X110557558Y-150736819D01*
X112830565Y-153009825D01*
X112830568Y-153009829D01*
X112837636Y-153016897D01*
X112908103Y-153087364D01*
X113000172Y-153125500D01*
X113099828Y-153125500D01*
X115394877Y-153125500D01*
X115461916Y-153145185D01*
X115482558Y-153161819D01*
X115688656Y-153367917D01*
X115722141Y-153429240D01*
X115723713Y-153473242D01*
X115719867Y-153499996D01*
X115719867Y-153499999D01*
X115738302Y-153628225D01*
X115775872Y-153710490D01*
X115792118Y-153746063D01*
X115876951Y-153843967D01*
X115985931Y-153914004D01*
X115985933Y-153914004D01*
X115993392Y-153918798D01*
X115992221Y-153920618D01*
X116035895Y-153958465D01*
X116055577Y-154025505D01*
X116035889Y-154092544D01*
X115983083Y-154138297D01*
X115931577Y-154149500D01*
X112582329Y-154149500D01*
X112515290Y-154129815D01*
X112488617Y-154106703D01*
X112423049Y-154031033D01*
X112314069Y-153960996D01*
X112314065Y-153960994D01*
X112314064Y-153960994D01*
X112189774Y-153924500D01*
X112189772Y-153924500D01*
X112060228Y-153924500D01*
X112060226Y-153924500D01*
X111935935Y-153960994D01*
X111935932Y-153960995D01*
X111935931Y-153960996D01*
X111884677Y-153993934D01*
X111826950Y-154031033D01*
X111742118Y-154128937D01*
X111742117Y-154128938D01*
X111688302Y-154246774D01*
X111669867Y-154375000D01*
X111688302Y-154503225D01*
X111712419Y-154556033D01*
X111742118Y-154621063D01*
X111826951Y-154718967D01*
X111935931Y-154789004D01*
X112013593Y-154811807D01*
X112060225Y-154825499D01*
X112060227Y-154825500D01*
X112060228Y-154825500D01*
X112189773Y-154825500D01*
X112189773Y-154825499D01*
X112314069Y-154789004D01*
X112423049Y-154718967D01*
X112445291Y-154693298D01*
X112504069Y-154655523D01*
X112539005Y-154650500D01*
X115511862Y-154650500D01*
X115578901Y-154670185D01*
X115624656Y-154722989D01*
X115634600Y-154792147D01*
X115605575Y-154855702D01*
X115542120Y-154928932D01*
X115542117Y-154928938D01*
X115488302Y-155046774D01*
X115469867Y-155175000D01*
X115488302Y-155303225D01*
X115530634Y-155395917D01*
X115542118Y-155421063D01*
X115626951Y-155518967D01*
X115735931Y-155589004D01*
X115853124Y-155623414D01*
X115860225Y-155625499D01*
X115860227Y-155625500D01*
X115860228Y-155625500D01*
X115989773Y-155625500D01*
X115989773Y-155625499D01*
X116114069Y-155589004D01*
X116223049Y-155518967D01*
X116307882Y-155421063D01*
X116361697Y-155303226D01*
X116380133Y-155175000D01*
X116361697Y-155046774D01*
X116307882Y-154928937D01*
X116307880Y-154928935D01*
X116307879Y-154928932D01*
X116244425Y-154855702D01*
X116215400Y-154792146D01*
X116225344Y-154722988D01*
X116271099Y-154670184D01*
X116338138Y-154650500D01*
X116694876Y-154650500D01*
X116761915Y-154670185D01*
X116782557Y-154686818D01*
X116863656Y-154767916D01*
X116897141Y-154829239D01*
X116898713Y-154873242D01*
X116894867Y-154899996D01*
X116894867Y-154899999D01*
X116913302Y-155028225D01*
X116924333Y-155052379D01*
X116967118Y-155146063D01*
X117051951Y-155243967D01*
X117160931Y-155314004D01*
X117285225Y-155350499D01*
X117285227Y-155350500D01*
X117285228Y-155350500D01*
X117414773Y-155350500D01*
X117414773Y-155350499D01*
X117539069Y-155314004D01*
X117648049Y-155243967D01*
X117732882Y-155146063D01*
X117786697Y-155028226D01*
X117805133Y-154900000D01*
X117786697Y-154771774D01*
X117732882Y-154653937D01*
X117648049Y-154556033D01*
X117539069Y-154485996D01*
X117539065Y-154485994D01*
X117539064Y-154485994D01*
X117414774Y-154449500D01*
X117414772Y-154449500D01*
X117305122Y-154449500D01*
X117238083Y-154429815D01*
X117217441Y-154413181D01*
X117118884Y-154314624D01*
X116991897Y-154187636D01*
X116899829Y-154149500D01*
X116899828Y-154149500D01*
X116418423Y-154149500D01*
X116351384Y-154129815D01*
X116305629Y-154077011D01*
X116295685Y-154007853D01*
X116324710Y-153944297D01*
X116357310Y-153919891D01*
X116356608Y-153918798D01*
X116364066Y-153914004D01*
X116364069Y-153914004D01*
X116473049Y-153843967D01*
X116557882Y-153746063D01*
X116611697Y-153628226D01*
X116630133Y-153500000D01*
X116611697Y-153371774D01*
X116557882Y-153253937D01*
X116473049Y-153156033D01*
X116364069Y-153085996D01*
X116364065Y-153085994D01*
X116364064Y-153085994D01*
X116239774Y-153049500D01*
X116239772Y-153049500D01*
X116130123Y-153049500D01*
X116063084Y-153029815D01*
X116042442Y-153013181D01*
X115691897Y-152662636D01*
X115599829Y-152624500D01*
X115599828Y-152624500D01*
X113205122Y-152624500D01*
X113138083Y-152604815D01*
X113117441Y-152588181D01*
X110766897Y-150237636D01*
X110674829Y-150199500D01*
X110674828Y-150199500D01*
X110235667Y-150199500D01*
X110168628Y-150179815D01*
X110141953Y-150156702D01*
X110098049Y-150106033D01*
X109989069Y-150035996D01*
X109989065Y-150035994D01*
X109989064Y-150035994D01*
X109864774Y-149999500D01*
X109864772Y-149999500D01*
X109735228Y-149999500D01*
X109735226Y-149999500D01*
X109610935Y-150035994D01*
X109610932Y-150035995D01*
X109610931Y-150035996D01*
X109559677Y-150068934D01*
X109501950Y-150106033D01*
X109417118Y-150203937D01*
X109417117Y-150203938D01*
X109363302Y-150321774D01*
X109344867Y-150450000D01*
X105700500Y-150450000D01*
X105700500Y-146925000D01*
X117069867Y-146925000D01*
X117088302Y-147053225D01*
X117135581Y-147156750D01*
X117142118Y-147171063D01*
X117226951Y-147268967D01*
X117335931Y-147339004D01*
X117460225Y-147375499D01*
X117460227Y-147375500D01*
X117460228Y-147375500D01*
X117589773Y-147375500D01*
X117589773Y-147375499D01*
X117714069Y-147339004D01*
X117823049Y-147268967D01*
X117907882Y-147171063D01*
X117961697Y-147053226D01*
X117980133Y-146925000D01*
X117961697Y-146796774D01*
X117907882Y-146678937D01*
X117823049Y-146581033D01*
X117714069Y-146510996D01*
X117714065Y-146510994D01*
X117714064Y-146510994D01*
X117589774Y-146474500D01*
X117589772Y-146474500D01*
X117460228Y-146474500D01*
X117460226Y-146474500D01*
X117335935Y-146510994D01*
X117335932Y-146510995D01*
X117335931Y-146510996D01*
X117284677Y-146543934D01*
X117226950Y-146581033D01*
X117142118Y-146678937D01*
X117142117Y-146678938D01*
X117088302Y-146796774D01*
X117069867Y-146925000D01*
X105700500Y-146925000D01*
X105700500Y-141775000D01*
X106119866Y-141775000D01*
X106138301Y-141903225D01*
X106192116Y-142021061D01*
X106192117Y-142021063D01*
X106276950Y-142118967D01*
X106385930Y-142189004D01*
X106510224Y-142225499D01*
X106510226Y-142225500D01*
X106510227Y-142225500D01*
X106639772Y-142225500D01*
X106639772Y-142225499D01*
X106764068Y-142189004D01*
X106873048Y-142118967D01*
X106957881Y-142021063D01*
X107011696Y-141903226D01*
X107030132Y-141775000D01*
X107011696Y-141646774D01*
X106957881Y-141528937D01*
X106873048Y-141431033D01*
X106764068Y-141360996D01*
X106764064Y-141360994D01*
X106764063Y-141360994D01*
X106706107Y-141343977D01*
X106647329Y-141306204D01*
X106618303Y-141242648D01*
X106628246Y-141173490D01*
X106674001Y-141120685D01*
X106706105Y-141106023D01*
X106764069Y-141089004D01*
X106873049Y-141018967D01*
X106957882Y-140921063D01*
X107011697Y-140803226D01*
X107030133Y-140675000D01*
X107030133Y-140674999D01*
X108269867Y-140674999D01*
X108288302Y-140803224D01*
X108308202Y-140846798D01*
X108342118Y-140921062D01*
X108426951Y-141018966D01*
X108535931Y-141089003D01*
X108643833Y-141120685D01*
X108660225Y-141125498D01*
X108660227Y-141125499D01*
X108660228Y-141125499D01*
X108789773Y-141125499D01*
X108789773Y-141125498D01*
X108914069Y-141089003D01*
X109023049Y-141018966D01*
X109107882Y-140921062D01*
X109161697Y-140803225D01*
X109180133Y-140674999D01*
X109161697Y-140546773D01*
X109107882Y-140428936D01*
X109082808Y-140399999D01*
X112269571Y-140399999D01*
X112269571Y-140400000D01*
X112289244Y-140612310D01*
X112347596Y-140817392D01*
X112347596Y-140817394D01*
X112442632Y-141008253D01*
X112571127Y-141178406D01*
X112571128Y-141178407D01*
X112728698Y-141322052D01*
X112909981Y-141434298D01*
X113108802Y-141511321D01*
X113318390Y-141550500D01*
X113318392Y-141550500D01*
X113531608Y-141550500D01*
X113531610Y-141550500D01*
X113741198Y-141511321D01*
X113940019Y-141434298D01*
X114121302Y-141322052D01*
X114278872Y-141178407D01*
X114407366Y-141008255D01*
X114407367Y-141008253D01*
X114502403Y-140817394D01*
X114502403Y-140817393D01*
X114502405Y-140817389D01*
X114560756Y-140612310D01*
X114580429Y-140400000D01*
X114580429Y-140399999D01*
X116019571Y-140399999D01*
X116019571Y-140400000D01*
X116039244Y-140612310D01*
X116097596Y-140817392D01*
X116097596Y-140817394D01*
X116192632Y-141008253D01*
X116321127Y-141178406D01*
X116321128Y-141178407D01*
X116478698Y-141322052D01*
X116659981Y-141434298D01*
X116858802Y-141511321D01*
X117068390Y-141550500D01*
X117068392Y-141550500D01*
X117281608Y-141550500D01*
X117281610Y-141550500D01*
X117491198Y-141511321D01*
X117690019Y-141434298D01*
X117871302Y-141322052D01*
X118028872Y-141178407D01*
X118157366Y-141008255D01*
X118157367Y-141008253D01*
X118252403Y-140817394D01*
X118252403Y-140817393D01*
X118252405Y-140817389D01*
X118310756Y-140612310D01*
X118330429Y-140400000D01*
X118310756Y-140187690D01*
X118252405Y-139982611D01*
X118252403Y-139982606D01*
X118252403Y-139982605D01*
X118157367Y-139791746D01*
X118028872Y-139621593D01*
X118013577Y-139607650D01*
X117871302Y-139477948D01*
X117690019Y-139365702D01*
X117690017Y-139365701D01*
X117590608Y-139327190D01*
X117491198Y-139288679D01*
X117281610Y-139249500D01*
X117068390Y-139249500D01*
X116858802Y-139288679D01*
X116858799Y-139288679D01*
X116858799Y-139288680D01*
X116659982Y-139365701D01*
X116659980Y-139365702D01*
X116478699Y-139477947D01*
X116321127Y-139621593D01*
X116192632Y-139791746D01*
X116097596Y-139982605D01*
X116097596Y-139982607D01*
X116039244Y-140187689D01*
X116019571Y-140399999D01*
X114580429Y-140399999D01*
X114560756Y-140187690D01*
X114502405Y-139982611D01*
X114502403Y-139982606D01*
X114502403Y-139982605D01*
X114407367Y-139791746D01*
X114278872Y-139621593D01*
X114263577Y-139607650D01*
X114121302Y-139477948D01*
X113940019Y-139365702D01*
X113940017Y-139365701D01*
X113840608Y-139327190D01*
X113741198Y-139288679D01*
X113531610Y-139249500D01*
X113318390Y-139249500D01*
X113108802Y-139288679D01*
X113108799Y-139288679D01*
X113108799Y-139288680D01*
X112909982Y-139365701D01*
X112909980Y-139365702D01*
X112728699Y-139477947D01*
X112571127Y-139621593D01*
X112442632Y-139791746D01*
X112347596Y-139982605D01*
X112347596Y-139982607D01*
X112289244Y-140187689D01*
X112269571Y-140399999D01*
X109082808Y-140399999D01*
X109023049Y-140331032D01*
X108914069Y-140260995D01*
X108914065Y-140260993D01*
X108914064Y-140260993D01*
X108789774Y-140224499D01*
X108789772Y-140224499D01*
X108660228Y-140224499D01*
X108660226Y-140224499D01*
X108535935Y-140260993D01*
X108535932Y-140260994D01*
X108535931Y-140260995D01*
X108484677Y-140293933D01*
X108426950Y-140331032D01*
X108342118Y-140428936D01*
X108342117Y-140428937D01*
X108288302Y-140546773D01*
X108269867Y-140674999D01*
X107030133Y-140674999D01*
X107011697Y-140546774D01*
X106957882Y-140428937D01*
X106873049Y-140331033D01*
X106764069Y-140260996D01*
X106764065Y-140260994D01*
X106764064Y-140260994D01*
X106639774Y-140224500D01*
X106639772Y-140224500D01*
X106510228Y-140224500D01*
X106510226Y-140224500D01*
X106385935Y-140260994D01*
X106385932Y-140260995D01*
X106385931Y-140260996D01*
X106334677Y-140293934D01*
X106276950Y-140331033D01*
X106192118Y-140428937D01*
X106192117Y-140428938D01*
X106138302Y-140546774D01*
X106119867Y-140675000D01*
X106138302Y-140803225D01*
X106163327Y-140858020D01*
X106192118Y-140921063D01*
X106276951Y-141018967D01*
X106385931Y-141089004D01*
X106443892Y-141106022D01*
X106502668Y-141143795D01*
X106531695Y-141207350D01*
X106521752Y-141276508D01*
X106475998Y-141329313D01*
X106443892Y-141343976D01*
X106385933Y-141360994D01*
X106276949Y-141431033D01*
X106192117Y-141528937D01*
X106192116Y-141528938D01*
X106138301Y-141646774D01*
X106119866Y-141775000D01*
X105700500Y-141775000D01*
X105700500Y-139525000D01*
X106119867Y-139525000D01*
X106138302Y-139653225D01*
X106169197Y-139720874D01*
X106192118Y-139771063D01*
X106276951Y-139868967D01*
X106385931Y-139939004D01*
X106429079Y-139951673D01*
X106510225Y-139975499D01*
X106510227Y-139975500D01*
X106510228Y-139975500D01*
X106639773Y-139975500D01*
X106639773Y-139975499D01*
X106764069Y-139939004D01*
X106873049Y-139868967D01*
X106957882Y-139771063D01*
X107011697Y-139653226D01*
X107030133Y-139525000D01*
X107011697Y-139396774D01*
X106957882Y-139278937D01*
X106873049Y-139181033D01*
X106764069Y-139110996D01*
X106764065Y-139110994D01*
X106764064Y-139110994D01*
X106639774Y-139074500D01*
X106639772Y-139074500D01*
X106510228Y-139074500D01*
X106510226Y-139074500D01*
X106385935Y-139110994D01*
X106385932Y-139110995D01*
X106385931Y-139110996D01*
X106334677Y-139143934D01*
X106276950Y-139181033D01*
X106192118Y-139278937D01*
X106192117Y-139278938D01*
X106138302Y-139396774D01*
X106119867Y-139525000D01*
X105700500Y-139525000D01*
X105700500Y-136912500D01*
X112082367Y-136912500D01*
X112100802Y-137040725D01*
X112130628Y-137106033D01*
X112154618Y-137158563D01*
X112239451Y-137256467D01*
X112348431Y-137326504D01*
X112472725Y-137362999D01*
X112472727Y-137363000D01*
X112472728Y-137363000D01*
X112602273Y-137363000D01*
X112602273Y-137362999D01*
X112726569Y-137326504D01*
X112835549Y-137256467D01*
X112920382Y-137158563D01*
X112974197Y-137040726D01*
X112992633Y-136912500D01*
X112974197Y-136784274D01*
X112920382Y-136666437D01*
X112835549Y-136568533D01*
X112726569Y-136498496D01*
X112726565Y-136498494D01*
X112726564Y-136498494D01*
X112602274Y-136462000D01*
X112602272Y-136462000D01*
X112472728Y-136462000D01*
X112472726Y-136462000D01*
X112348435Y-136498494D01*
X112348432Y-136498495D01*
X112348431Y-136498496D01*
X112297177Y-136531434D01*
X112239450Y-136568533D01*
X112154618Y-136666437D01*
X112154617Y-136666438D01*
X112100802Y-136784274D01*
X112082367Y-136912500D01*
X105700500Y-136912500D01*
X105700500Y-134875000D01*
X108269867Y-134875000D01*
X108288302Y-135003225D01*
X108342117Y-135121061D01*
X108342118Y-135121063D01*
X108426951Y-135218967D01*
X108535931Y-135289004D01*
X108660225Y-135325499D01*
X108660227Y-135325500D01*
X108660228Y-135325500D01*
X108789773Y-135325500D01*
X108789773Y-135325499D01*
X108914069Y-135289004D01*
X109023049Y-135218967D01*
X109107882Y-135121063D01*
X109161697Y-135003226D01*
X109180133Y-134875000D01*
X109161697Y-134746774D01*
X109107882Y-134628937D01*
X109082808Y-134600000D01*
X109869867Y-134600000D01*
X109888302Y-134728225D01*
X109917322Y-134791768D01*
X109942118Y-134846063D01*
X110026951Y-134943967D01*
X110135931Y-135014004D01*
X110260225Y-135050499D01*
X110260227Y-135050500D01*
X110260228Y-135050500D01*
X110389773Y-135050500D01*
X110389773Y-135050499D01*
X110514069Y-135014004D01*
X110623049Y-134943967D01*
X110707882Y-134846063D01*
X110761697Y-134728226D01*
X110770813Y-134664822D01*
X111974499Y-134664822D01*
X111983231Y-134708717D01*
X111983232Y-134708721D01*
X111983233Y-134708722D01*
X112016496Y-134758504D01*
X112066278Y-134791767D01*
X112066281Y-134791767D01*
X112066282Y-134791768D01*
X112110177Y-134800500D01*
X112110180Y-134800500D01*
X113839822Y-134800500D01*
X113883717Y-134791768D01*
X113883717Y-134791767D01*
X113883722Y-134791767D01*
X113933504Y-134758504D01*
X113966767Y-134708722D01*
X113975500Y-134664820D01*
X113975500Y-132935180D01*
X113975500Y-132935177D01*
X113966768Y-132891282D01*
X113966767Y-132891281D01*
X113966767Y-132891278D01*
X113933504Y-132841496D01*
X113933503Y-132841495D01*
X113883724Y-132808234D01*
X113883717Y-132808231D01*
X113839822Y-132799500D01*
X113839820Y-132799500D01*
X112110180Y-132799500D01*
X112110178Y-132799500D01*
X112066282Y-132808231D01*
X112066275Y-132808234D01*
X112016496Y-132841495D01*
X112016495Y-132841496D01*
X111983234Y-132891275D01*
X111983231Y-132891282D01*
X111974500Y-132935177D01*
X111974500Y-132935180D01*
X111974500Y-134664820D01*
X111974500Y-134664822D01*
X111974499Y-134664822D01*
X110770813Y-134664822D01*
X110780133Y-134600000D01*
X110761697Y-134471774D01*
X110707882Y-134353937D01*
X110623049Y-134256033D01*
X110514069Y-134185996D01*
X110514065Y-134185994D01*
X110514064Y-134185994D01*
X110389774Y-134149500D01*
X110389772Y-134149500D01*
X110260228Y-134149500D01*
X110260226Y-134149500D01*
X110135935Y-134185994D01*
X110135932Y-134185995D01*
X110135931Y-134185996D01*
X110084677Y-134218934D01*
X110026950Y-134256033D01*
X109942118Y-134353937D01*
X109942117Y-134353938D01*
X109888302Y-134471774D01*
X109869867Y-134600000D01*
X109082808Y-134600000D01*
X109023049Y-134531033D01*
X108914069Y-134460996D01*
X108914065Y-134460994D01*
X108914064Y-134460994D01*
X108789774Y-134424500D01*
X108789772Y-134424500D01*
X108660228Y-134424500D01*
X108660226Y-134424500D01*
X108535935Y-134460994D01*
X108535932Y-134460995D01*
X108535931Y-134460996D01*
X108484677Y-134493934D01*
X108426950Y-134531033D01*
X108342118Y-134628937D01*
X108342117Y-134628938D01*
X108288302Y-134746774D01*
X108269867Y-134875000D01*
X105700500Y-134875000D01*
X105700500Y-125500000D01*
X106069867Y-125500000D01*
X106088302Y-125628225D01*
X106142117Y-125746061D01*
X106142118Y-125746063D01*
X106226951Y-125843967D01*
X106335931Y-125914004D01*
X106460225Y-125950499D01*
X106460227Y-125950500D01*
X106460228Y-125950500D01*
X106589773Y-125950500D01*
X106589773Y-125950499D01*
X106714069Y-125914004D01*
X106823049Y-125843967D01*
X106907882Y-125746063D01*
X106961697Y-125628226D01*
X106980133Y-125500000D01*
X106976286Y-125473246D01*
X106986227Y-125404089D01*
X107011339Y-125367919D01*
X107404259Y-124975000D01*
X111444867Y-124975000D01*
X111463302Y-125103225D01*
X111487419Y-125156033D01*
X111517118Y-125221063D01*
X111601951Y-125318967D01*
X111710931Y-125389004D01*
X111788593Y-125411807D01*
X111835225Y-125425499D01*
X111835227Y-125425500D01*
X111835228Y-125425500D01*
X111964773Y-125425500D01*
X111964773Y-125425499D01*
X112089069Y-125389004D01*
X112198049Y-125318967D01*
X112282882Y-125221063D01*
X112336697Y-125103226D01*
X112355133Y-124975000D01*
X112336697Y-124846774D01*
X112282882Y-124728937D01*
X112198049Y-124631033D01*
X112089069Y-124560996D01*
X112089065Y-124560994D01*
X112089064Y-124560994D01*
X111964774Y-124524500D01*
X111964772Y-124524500D01*
X111835228Y-124524500D01*
X111835226Y-124524500D01*
X111710935Y-124560994D01*
X111710932Y-124560995D01*
X111710931Y-124560996D01*
X111659677Y-124593934D01*
X111601950Y-124631033D01*
X111517118Y-124728937D01*
X111517117Y-124728938D01*
X111463302Y-124846774D01*
X111444867Y-124975000D01*
X107404259Y-124975000D01*
X107441895Y-124937364D01*
X107441897Y-124937364D01*
X107512364Y-124866897D01*
X107528160Y-124828760D01*
X107550501Y-124774827D01*
X107550501Y-124675172D01*
X107550501Y-124665183D01*
X107550500Y-124665169D01*
X107550500Y-119774486D01*
X107570185Y-119707447D01*
X107586819Y-119686805D01*
X107798624Y-119475000D01*
X117969867Y-119475000D01*
X117988302Y-119603225D01*
X118035900Y-119707447D01*
X118042118Y-119721063D01*
X118126951Y-119818967D01*
X118235931Y-119889004D01*
X118360225Y-119925499D01*
X118360227Y-119925500D01*
X118360228Y-119925500D01*
X118489773Y-119925500D01*
X118489773Y-119925499D01*
X118614069Y-119889004D01*
X118723049Y-119818967D01*
X118807882Y-119721063D01*
X118861697Y-119603226D01*
X118880133Y-119475000D01*
X118861697Y-119346774D01*
X118807882Y-119228937D01*
X118723049Y-119131033D01*
X118614069Y-119060996D01*
X118614065Y-119060994D01*
X118614064Y-119060994D01*
X118489774Y-119024500D01*
X118489772Y-119024500D01*
X118360228Y-119024500D01*
X118360226Y-119024500D01*
X118235935Y-119060994D01*
X118235932Y-119060995D01*
X118235931Y-119060996D01*
X118184677Y-119093934D01*
X118126950Y-119131033D01*
X118042118Y-119228937D01*
X118042117Y-119228938D01*
X117988302Y-119346774D01*
X117969867Y-119475000D01*
X107798624Y-119475000D01*
X109206181Y-118067443D01*
X110998623Y-116275000D01*
X115444867Y-116275000D01*
X115463302Y-116403225D01*
X115482866Y-116446063D01*
X115517118Y-116521063D01*
X115601951Y-116618967D01*
X115710931Y-116689004D01*
X115710938Y-116689006D01*
X115835225Y-116725499D01*
X115835227Y-116725500D01*
X115835228Y-116725500D01*
X115964773Y-116725500D01*
X115964773Y-116725499D01*
X116089069Y-116689004D01*
X116198049Y-116618967D01*
X116282882Y-116521063D01*
X116336697Y-116403226D01*
X116355133Y-116275000D01*
X116994867Y-116275000D01*
X117013302Y-116403225D01*
X117032866Y-116446063D01*
X117067118Y-116521063D01*
X117151951Y-116618967D01*
X117260931Y-116689004D01*
X117260938Y-116689006D01*
X117385225Y-116725499D01*
X117385227Y-116725500D01*
X117385228Y-116725500D01*
X117514773Y-116725500D01*
X117514773Y-116725499D01*
X117639069Y-116689004D01*
X117748049Y-116618967D01*
X117832882Y-116521063D01*
X117886697Y-116403226D01*
X117905133Y-116275000D01*
X117886697Y-116146774D01*
X117832882Y-116028937D01*
X117748049Y-115931033D01*
X117639069Y-115860996D01*
X117639065Y-115860994D01*
X117639064Y-115860994D01*
X117514774Y-115824500D01*
X117514772Y-115824500D01*
X117385228Y-115824500D01*
X117385226Y-115824500D01*
X117260935Y-115860994D01*
X117260932Y-115860995D01*
X117260931Y-115860996D01*
X117211550Y-115892731D01*
X117151950Y-115931033D01*
X117067118Y-116028937D01*
X117067117Y-116028938D01*
X117013302Y-116146774D01*
X116994867Y-116275000D01*
X116355133Y-116275000D01*
X116336697Y-116146774D01*
X116282882Y-116028937D01*
X116198049Y-115931033D01*
X116089069Y-115860996D01*
X116089065Y-115860994D01*
X116089064Y-115860994D01*
X115964774Y-115824500D01*
X115964772Y-115824500D01*
X115835228Y-115824500D01*
X115835226Y-115824500D01*
X115710935Y-115860994D01*
X115710932Y-115860995D01*
X115710931Y-115860996D01*
X115661550Y-115892731D01*
X115601950Y-115931033D01*
X115517118Y-116028937D01*
X115517117Y-116028938D01*
X115463302Y-116146774D01*
X115444867Y-116275000D01*
X110998623Y-116275000D01*
X111374530Y-115899093D01*
X111435851Y-115865610D01*
X111505543Y-115870594D01*
X111561476Y-115912466D01*
X111575002Y-115935262D01*
X111590709Y-115969654D01*
X111675542Y-116067558D01*
X111784522Y-116137595D01*
X111908816Y-116174090D01*
X111908818Y-116174091D01*
X111908819Y-116174091D01*
X112038364Y-116174091D01*
X112038364Y-116174090D01*
X112162660Y-116137595D01*
X112271640Y-116067558D01*
X112356473Y-115969654D01*
X112410288Y-115851817D01*
X112428724Y-115723591D01*
X112425231Y-115699298D01*
X112435174Y-115630141D01*
X112460285Y-115593974D01*
X114029260Y-114025000D01*
X117092096Y-114025000D01*
X117110531Y-114153225D01*
X117164346Y-114271061D01*
X117164347Y-114271063D01*
X117249180Y-114368967D01*
X117358160Y-114439004D01*
X117455470Y-114467576D01*
X117482454Y-114475499D01*
X117482456Y-114475500D01*
X117482457Y-114475500D01*
X117612002Y-114475500D01*
X117612002Y-114475499D01*
X117736298Y-114439004D01*
X117845278Y-114368967D01*
X117930111Y-114271063D01*
X117983926Y-114153226D01*
X118002362Y-114025000D01*
X117983926Y-113896774D01*
X117930111Y-113778937D01*
X117845278Y-113681033D01*
X117736298Y-113610996D01*
X117736294Y-113610994D01*
X117736293Y-113610994D01*
X117612003Y-113574500D01*
X117612001Y-113574500D01*
X117482457Y-113574500D01*
X117482455Y-113574500D01*
X117358164Y-113610994D01*
X117358161Y-113610995D01*
X117358160Y-113610996D01*
X117306906Y-113643934D01*
X117249179Y-113681033D01*
X117164347Y-113778937D01*
X117164346Y-113778938D01*
X117110531Y-113896774D01*
X117092096Y-114025000D01*
X114029260Y-114025000D01*
X117728533Y-110325728D01*
X117789856Y-110292243D01*
X117816214Y-110289409D01*
X124100424Y-110289409D01*
X124167463Y-110309094D01*
X124194137Y-110332206D01*
X124238042Y-110382876D01*
X124347022Y-110452913D01*
X124471316Y-110489408D01*
X124471318Y-110489409D01*
X124471319Y-110489409D01*
X124600864Y-110489409D01*
X124600864Y-110489408D01*
X124725160Y-110452913D01*
X124725159Y-110452913D01*
X124726417Y-110452544D01*
X124796286Y-110452544D01*
X124855064Y-110490319D01*
X124884089Y-110553874D01*
X124874146Y-110623032D01*
X124863302Y-110646776D01*
X124844867Y-110775000D01*
X124863302Y-110903225D01*
X124905616Y-110995877D01*
X124917118Y-111021063D01*
X124934292Y-111040883D01*
X124947979Y-111056679D01*
X124977003Y-111120235D01*
X124967059Y-111189394D01*
X124921303Y-111242197D01*
X124854264Y-111261881D01*
X124787227Y-111242197D01*
X124738677Y-111210996D01*
X124738673Y-111210994D01*
X124738672Y-111210994D01*
X124614382Y-111174500D01*
X124614380Y-111174500D01*
X124484836Y-111174500D01*
X124484834Y-111174500D01*
X124360543Y-111210994D01*
X124360540Y-111210995D01*
X124360539Y-111210996D01*
X124311989Y-111242197D01*
X124251558Y-111281033D01*
X124166726Y-111378937D01*
X124166725Y-111378938D01*
X124112910Y-111496774D01*
X124094475Y-111625000D01*
X124108011Y-111719148D01*
X124106891Y-111760980D01*
X124105301Y-111768975D01*
X124105301Y-112562670D01*
X124143437Y-112654738D01*
X124713181Y-113224482D01*
X124746666Y-113285805D01*
X124749500Y-113312163D01*
X124749500Y-115711444D01*
X124729815Y-115778483D01*
X124725899Y-115781875D01*
X124748238Y-115830790D01*
X124749500Y-115848437D01*
X124749500Y-116983377D01*
X124729815Y-117050416D01*
X124677011Y-117096171D01*
X124607853Y-117106115D01*
X124544297Y-117077090D01*
X124537819Y-117071058D01*
X123908883Y-116442122D01*
X123875398Y-116380799D01*
X123880382Y-116311107D01*
X123922254Y-116255174D01*
X123987718Y-116230757D01*
X123996564Y-116230441D01*
X124119713Y-116230441D01*
X124119713Y-116230440D01*
X124244009Y-116193945D01*
X124352989Y-116123908D01*
X124437822Y-116026004D01*
X124491637Y-115908167D01*
X124502762Y-115830789D01*
X124526859Y-115778023D01*
X124506523Y-115746379D01*
X124502762Y-115729091D01*
X124491637Y-115651715D01*
X124465266Y-115593971D01*
X124437822Y-115533878D01*
X124352989Y-115435974D01*
X124352988Y-115435973D01*
X124352987Y-115435972D01*
X124348236Y-115431855D01*
X124310463Y-115373077D01*
X124305440Y-115338143D01*
X124305440Y-114744210D01*
X124305441Y-114744201D01*
X124305441Y-114630114D01*
X124305440Y-114630110D01*
X124267304Y-114538044D01*
X124267303Y-114538042D01*
X124189772Y-114460511D01*
X124189765Y-114460505D01*
X123739485Y-114010224D01*
X123706000Y-113948901D01*
X123704430Y-113904886D01*
X123705133Y-113900000D01*
X123686697Y-113771774D01*
X123632882Y-113653937D01*
X123548049Y-113556033D01*
X123439069Y-113485996D01*
X123439065Y-113485994D01*
X123439064Y-113485994D01*
X123314774Y-113449500D01*
X123314772Y-113449500D01*
X123185228Y-113449500D01*
X123185226Y-113449500D01*
X123060935Y-113485994D01*
X123060932Y-113485995D01*
X123060931Y-113485996D01*
X123009677Y-113518934D01*
X122951950Y-113556033D01*
X122867118Y-113653937D01*
X122867117Y-113653938D01*
X122813302Y-113771774D01*
X122794867Y-113900000D01*
X122813302Y-114028225D01*
X122867117Y-114146061D01*
X122867118Y-114146063D01*
X122951951Y-114243967D01*
X123060931Y-114314004D01*
X123185225Y-114350499D01*
X123185227Y-114350500D01*
X123319877Y-114350500D01*
X123386916Y-114370185D01*
X123407558Y-114386819D01*
X123768121Y-114747381D01*
X123801606Y-114808704D01*
X123804440Y-114835062D01*
X123804440Y-115338143D01*
X123784755Y-115405182D01*
X123761644Y-115431855D01*
X123756892Y-115435972D01*
X123672058Y-115533878D01*
X123672057Y-115533879D01*
X123618242Y-115651715D01*
X123599807Y-115779941D01*
X123606080Y-115823573D01*
X123596136Y-115892731D01*
X123550381Y-115945535D01*
X123483341Y-115965219D01*
X123416302Y-115945534D01*
X123395661Y-115928900D01*
X122602840Y-115136079D01*
X122569355Y-115074756D01*
X122567783Y-115066042D01*
X122562929Y-115032279D01*
X122562928Y-115032274D01*
X122509114Y-114914441D01*
X122509114Y-114914440D01*
X122424281Y-114816536D01*
X122315301Y-114746499D01*
X122315297Y-114746497D01*
X122315296Y-114746497D01*
X122191006Y-114710003D01*
X122191004Y-114710003D01*
X122061460Y-114710003D01*
X122061458Y-114710003D01*
X121937167Y-114746497D01*
X121937164Y-114746498D01*
X121937163Y-114746499D01*
X121935791Y-114747381D01*
X121828182Y-114816536D01*
X121743350Y-114914440D01*
X121743349Y-114914441D01*
X121689534Y-115032277D01*
X121671099Y-115160503D01*
X121689534Y-115288728D01*
X121712102Y-115338143D01*
X121743350Y-115406566D01*
X121828183Y-115504470D01*
X121937163Y-115574507D01*
X122061457Y-115611002D01*
X122061459Y-115611003D01*
X122061460Y-115611003D01*
X122191005Y-115611003D01*
X122191005Y-115611002D01*
X122219071Y-115602761D01*
X122258195Y-115591275D01*
X122328065Y-115591275D01*
X122380810Y-115622571D01*
X122419807Y-115661568D01*
X122453292Y-115722891D01*
X122448308Y-115792583D01*
X122406436Y-115848516D01*
X122392278Y-115856918D01*
X122276950Y-115931034D01*
X122192118Y-116028938D01*
X122192117Y-116028939D01*
X122138302Y-116146775D01*
X122119867Y-116275001D01*
X122138302Y-116403226D01*
X122192117Y-116521061D01*
X122192118Y-116521064D01*
X122276951Y-116618968D01*
X122385931Y-116689005D01*
X122510225Y-116725500D01*
X122510227Y-116725501D01*
X122619877Y-116725501D01*
X122686916Y-116745186D01*
X122707558Y-116761820D01*
X124013181Y-118067443D01*
X124046666Y-118128766D01*
X124049500Y-118155124D01*
X124049500Y-123327843D01*
X124029815Y-123394882D01*
X124013181Y-123415524D01*
X122719645Y-124709060D01*
X118770603Y-128658103D01*
X118700137Y-128728568D01*
X118700136Y-128728569D01*
X118662000Y-128820637D01*
X118662000Y-143924732D01*
X118642315Y-143991771D01*
X118605046Y-144029043D01*
X118601955Y-144031029D01*
X118601948Y-144031035D01*
X118517120Y-144128932D01*
X118517117Y-144128938D01*
X118463302Y-144246774D01*
X118444867Y-144375000D01*
X118463302Y-144503225D01*
X118517117Y-144621061D01*
X118517120Y-144621067D01*
X118586265Y-144700865D01*
X118601951Y-144718967D01*
X118601957Y-144718971D01*
X118606698Y-144723079D01*
X118644475Y-144781856D01*
X118649500Y-144816796D01*
X118649500Y-147882052D01*
X118629815Y-147949091D01*
X118619213Y-147963254D01*
X118531029Y-148065023D01*
X118531026Y-148065029D01*
X118477211Y-148182865D01*
X118458776Y-148311091D01*
X118477211Y-148439316D01*
X118482037Y-148449883D01*
X118531027Y-148557154D01*
X118615860Y-148655058D01*
X118724840Y-148725095D01*
X118849134Y-148761590D01*
X118849136Y-148761591D01*
X118849137Y-148761591D01*
X118978682Y-148761591D01*
X118978682Y-148761590D01*
X119102978Y-148725095D01*
X119211958Y-148655058D01*
X119296791Y-148557154D01*
X119350606Y-148439317D01*
X119369042Y-148311091D01*
X119350606Y-148182865D01*
X119296791Y-148065028D01*
X119211958Y-147967124D01*
X119211957Y-147967123D01*
X119207458Y-147964232D01*
X119161704Y-147911427D01*
X119150500Y-147859918D01*
X119150500Y-146409137D01*
X119160042Y-146376640D01*
X119157514Y-146371104D01*
X119391486Y-146371104D01*
X119393477Y-146374202D01*
X119397238Y-146391490D01*
X119413302Y-146503225D01*
X119452477Y-146589004D01*
X119467118Y-146621063D01*
X119551951Y-146718967D01*
X119660931Y-146789004D01*
X119773972Y-146822195D01*
X119785225Y-146825499D01*
X119785227Y-146825500D01*
X119785228Y-146825500D01*
X119914773Y-146825500D01*
X119914773Y-146825499D01*
X120039069Y-146789004D01*
X120148049Y-146718967D01*
X120232882Y-146621063D01*
X120286697Y-146503226D01*
X120305133Y-146375000D01*
X120286697Y-146246774D01*
X120232882Y-146128937D01*
X120148049Y-146031033D01*
X120039069Y-145960996D01*
X120039065Y-145960994D01*
X120039064Y-145960994D01*
X119914774Y-145924500D01*
X119914772Y-145924500D01*
X119785228Y-145924500D01*
X119785226Y-145924500D01*
X119660935Y-145960994D01*
X119660932Y-145960995D01*
X119660931Y-145960996D01*
X119633013Y-145978938D01*
X119551950Y-146031033D01*
X119467118Y-146128937D01*
X119467117Y-146128938D01*
X119413302Y-146246774D01*
X119397238Y-146358509D01*
X119391486Y-146371104D01*
X119157514Y-146371104D01*
X119151762Y-146358509D01*
X119150500Y-146340862D01*
X119150500Y-144816796D01*
X119170185Y-144749757D01*
X119193302Y-144723079D01*
X119198038Y-144718973D01*
X119198049Y-144718967D01*
X119282882Y-144621063D01*
X119336697Y-144503226D01*
X119355133Y-144375000D01*
X119336697Y-144246774D01*
X119282882Y-144128937D01*
X119198049Y-144031033D01*
X119193286Y-144025536D01*
X119164262Y-143961980D01*
X119163000Y-143944334D01*
X119163000Y-143788804D01*
X119182685Y-143721765D01*
X119235489Y-143676010D01*
X119304647Y-143666066D01*
X119368203Y-143695091D01*
X119374681Y-143701123D01*
X120763181Y-145089623D01*
X120796666Y-145150946D01*
X120799500Y-145177304D01*
X120799500Y-146214782D01*
X120779815Y-146281821D01*
X120756704Y-146308494D01*
X120751952Y-146312611D01*
X120667118Y-146410517D01*
X120667117Y-146410518D01*
X120613302Y-146528354D01*
X120594867Y-146656580D01*
X120613302Y-146784805D01*
X120667116Y-146902640D01*
X120671911Y-146910100D01*
X120670417Y-146911060D01*
X120694990Y-146964864D01*
X120685049Y-147034023D01*
X120671263Y-147053881D01*
X120672233Y-147054529D01*
X120665448Y-147064682D01*
X120627312Y-147156750D01*
X120627312Y-147220705D01*
X120616108Y-147272213D01*
X120613304Y-147278352D01*
X120613302Y-147278357D01*
X120594867Y-147406583D01*
X120613302Y-147534808D01*
X120667117Y-147652644D01*
X120667118Y-147652646D01*
X120689282Y-147678225D01*
X120708480Y-147700381D01*
X120737504Y-147763937D01*
X120727560Y-147833096D01*
X120708480Y-147862784D01*
X120667119Y-147910517D01*
X120667116Y-147910523D01*
X120613301Y-148028359D01*
X120594866Y-148156585D01*
X120613301Y-148284810D01*
X120667116Y-148402646D01*
X120667117Y-148402648D01*
X120751950Y-148500552D01*
X120860930Y-148570589D01*
X120985224Y-148607084D01*
X120985226Y-148607085D01*
X120985227Y-148607085D01*
X121114772Y-148607085D01*
X121114772Y-148607084D01*
X121239068Y-148570589D01*
X121348048Y-148500552D01*
X121391952Y-148449882D01*
X121450730Y-148412108D01*
X121485666Y-148407085D01*
X121784267Y-148407085D01*
X121851306Y-148426770D01*
X121897061Y-148479574D01*
X121907005Y-148548732D01*
X121877980Y-148612288D01*
X121871948Y-148618766D01*
X121300137Y-149190576D01*
X121300136Y-149190577D01*
X121262000Y-149282645D01*
X121262000Y-152759511D01*
X121300136Y-152851579D01*
X122763181Y-154314624D01*
X122796666Y-154375947D01*
X122799500Y-154402305D01*
X122799500Y-154583202D01*
X122779815Y-154650241D01*
X122756704Y-154676914D01*
X122751952Y-154681031D01*
X122667118Y-154778937D01*
X122667117Y-154778938D01*
X122613302Y-154896774D01*
X122594867Y-155025000D01*
X122613302Y-155153225D01*
X122657099Y-155249125D01*
X122667118Y-155271063D01*
X122751951Y-155368967D01*
X122860931Y-155439004D01*
X122985225Y-155475499D01*
X122985227Y-155475500D01*
X122985228Y-155475500D01*
X123114773Y-155475500D01*
X123114773Y-155475499D01*
X123239069Y-155439004D01*
X123306115Y-155395915D01*
X123373151Y-155376232D01*
X123440191Y-155395916D01*
X123485946Y-155448720D01*
X123495891Y-155517872D01*
X123494867Y-155524996D01*
X123494867Y-155524999D01*
X123513302Y-155653225D01*
X123553503Y-155741251D01*
X123567118Y-155771063D01*
X123651951Y-155868967D01*
X123760931Y-155939004D01*
X123885225Y-155975499D01*
X123885227Y-155975500D01*
X123885228Y-155975500D01*
X124014773Y-155975500D01*
X124014773Y-155975499D01*
X124139069Y-155939004D01*
X124248049Y-155868967D01*
X124254934Y-155861020D01*
X124313710Y-155823244D01*
X124383580Y-155823241D01*
X124415689Y-155837905D01*
X124526614Y-155909192D01*
X124526616Y-155909193D01*
X124650908Y-155945687D01*
X124650910Y-155945688D01*
X124650911Y-155945688D01*
X124780456Y-155945688D01*
X124780456Y-155945687D01*
X124904752Y-155909192D01*
X125013732Y-155839155D01*
X125098565Y-155741251D01*
X125152380Y-155623414D01*
X125157327Y-155589005D01*
X125158356Y-155581852D01*
X125187382Y-155518297D01*
X125246160Y-155480523D01*
X125281094Y-155475500D01*
X125364773Y-155475500D01*
X125364773Y-155475499D01*
X125489069Y-155439004D01*
X125598049Y-155368967D01*
X125682882Y-155271063D01*
X125736697Y-155153226D01*
X125755133Y-155025000D01*
X125751286Y-154998246D01*
X125761227Y-154929089D01*
X125781423Y-154900000D01*
X126369867Y-154900000D01*
X126388302Y-155028225D01*
X126399333Y-155052379D01*
X126442118Y-155146063D01*
X126526951Y-155243967D01*
X126635931Y-155314004D01*
X126760225Y-155350499D01*
X126760227Y-155350500D01*
X126760228Y-155350500D01*
X126889773Y-155350500D01*
X126889773Y-155350499D01*
X127014069Y-155314004D01*
X127123049Y-155243967D01*
X127207882Y-155146063D01*
X127261697Y-155028226D01*
X127280133Y-154900000D01*
X127261697Y-154771774D01*
X127207882Y-154653937D01*
X127123049Y-154556033D01*
X127014069Y-154485996D01*
X127014065Y-154485994D01*
X127014064Y-154485994D01*
X126889774Y-154449500D01*
X126889772Y-154449500D01*
X126760228Y-154449500D01*
X126760226Y-154449500D01*
X126635935Y-154485994D01*
X126635932Y-154485995D01*
X126635931Y-154485996D01*
X126609121Y-154503226D01*
X126526950Y-154556033D01*
X126442118Y-154653937D01*
X126442117Y-154653938D01*
X126388302Y-154771774D01*
X126369867Y-154900000D01*
X125781423Y-154900000D01*
X125786339Y-154892919D01*
X126349455Y-154329804D01*
X126349458Y-154329802D01*
X126366896Y-154312364D01*
X126366897Y-154312364D01*
X126437364Y-154241897D01*
X126470195Y-154162636D01*
X126475501Y-154149827D01*
X126475501Y-154050172D01*
X126475501Y-154040183D01*
X126475500Y-154040169D01*
X126475500Y-153882636D01*
X126495185Y-153815597D01*
X126547989Y-153769842D01*
X126617147Y-153759898D01*
X126646959Y-153768077D01*
X126651105Y-153769794D01*
X126651114Y-153769799D01*
X126675321Y-153776285D01*
X126701778Y-153783374D01*
X126704580Y-153784160D01*
X126760228Y-153800500D01*
X127592025Y-153800500D01*
X127592026Y-153800500D01*
X127682390Y-153776286D01*
X127706604Y-153769799D01*
X127809331Y-153710489D01*
X130460489Y-151059331D01*
X130479271Y-151026799D01*
X130503547Y-150984753D01*
X130503548Y-150984750D01*
X130519799Y-150956603D01*
X130550500Y-150842026D01*
X130550500Y-147216092D01*
X130551762Y-147198445D01*
X130555133Y-147174999D01*
X130551762Y-147151552D01*
X130550500Y-147133906D01*
X130550500Y-147115692D01*
X130546161Y-147099500D01*
X130544004Y-147091451D01*
X130541044Y-147077013D01*
X130536697Y-147046774D01*
X130529713Y-147031481D01*
X130522735Y-147012074D01*
X130519799Y-147001114D01*
X130503826Y-146973450D01*
X130498427Y-146962975D01*
X130482884Y-146928941D01*
X130482883Y-146928940D01*
X130482882Y-146928937D01*
X130476385Y-146921439D01*
X130462709Y-146902233D01*
X130460488Y-146898386D01*
X130433062Y-146870960D01*
X130427046Y-146864498D01*
X130426714Y-146864115D01*
X130398049Y-146831033D01*
X130398047Y-146831032D01*
X130398048Y-146831032D01*
X130395508Y-146829400D01*
X130383101Y-146819401D01*
X130383059Y-146819458D01*
X130376617Y-146814515D01*
X130376613Y-146814511D01*
X130359933Y-146804881D01*
X130337115Y-146791706D01*
X130332078Y-146788636D01*
X130289068Y-146760995D01*
X130287773Y-146760404D01*
X130278845Y-146757254D01*
X130273887Y-146755200D01*
X130223195Y-146741617D01*
X130220358Y-146740821D01*
X130164772Y-146724500D01*
X130035228Y-146724500D01*
X129979584Y-146740837D01*
X129976747Y-146741633D01*
X129926112Y-146755201D01*
X129921148Y-146757257D01*
X129912223Y-146760405D01*
X129910932Y-146760995D01*
X129885658Y-146777237D01*
X129873883Y-146784805D01*
X129867923Y-146788635D01*
X129862887Y-146791704D01*
X129823388Y-146814509D01*
X129816942Y-146819456D01*
X129816900Y-146819401D01*
X129804501Y-146829392D01*
X129801956Y-146831027D01*
X129801951Y-146831032D01*
X129772965Y-146864484D01*
X129766936Y-146870960D01*
X129739511Y-146898386D01*
X129737283Y-146902245D01*
X129723613Y-146921439D01*
X129718212Y-146927672D01*
X129659434Y-146965446D01*
X129589564Y-146965446D01*
X129530786Y-146927671D01*
X129501762Y-146864115D01*
X129500500Y-146846469D01*
X129500500Y-146225000D01*
X130419867Y-146225000D01*
X130438302Y-146353225D01*
X130469283Y-146421062D01*
X130492118Y-146471063D01*
X130576951Y-146568967D01*
X130685931Y-146639004D01*
X130745791Y-146656580D01*
X130810225Y-146675499D01*
X130810227Y-146675500D01*
X130810228Y-146675500D01*
X130939773Y-146675500D01*
X130939773Y-146675499D01*
X131064069Y-146639004D01*
X131173049Y-146568967D01*
X131257882Y-146471063D01*
X131311697Y-146353226D01*
X131330133Y-146225000D01*
X131311697Y-146096774D01*
X131257882Y-145978937D01*
X131173049Y-145881033D01*
X131064069Y-145810996D01*
X131064065Y-145810994D01*
X131064064Y-145810994D01*
X130939774Y-145774500D01*
X130939772Y-145774500D01*
X130810228Y-145774500D01*
X130810226Y-145774500D01*
X130685935Y-145810994D01*
X130685932Y-145810995D01*
X130685931Y-145810996D01*
X130656841Y-145829691D01*
X130576950Y-145881033D01*
X130492118Y-145978937D01*
X130492117Y-145978938D01*
X130438302Y-146096774D01*
X130419867Y-146225000D01*
X129500500Y-146225000D01*
X129500500Y-145416794D01*
X129520185Y-145349755D01*
X129543302Y-145323077D01*
X129548038Y-145318971D01*
X129548049Y-145318965D01*
X129632882Y-145221061D01*
X129686697Y-145103224D01*
X129705133Y-144974998D01*
X129686697Y-144846772D01*
X129632882Y-144728935D01*
X129548049Y-144631031D01*
X129439069Y-144560994D01*
X129439065Y-144560992D01*
X129439064Y-144560992D01*
X129314774Y-144524498D01*
X129314772Y-144524498D01*
X129185228Y-144524498D01*
X129185226Y-144524498D01*
X129084434Y-144554092D01*
X129014564Y-144554092D01*
X128955786Y-144516317D01*
X128926762Y-144452761D01*
X128925500Y-144435115D01*
X128925500Y-144105124D01*
X128945185Y-144038085D01*
X128961819Y-144017443D01*
X131548229Y-141431033D01*
X134137364Y-138841898D01*
X134175500Y-138749829D01*
X134175500Y-138650173D01*
X134175500Y-106805197D01*
X134137364Y-106713128D01*
X134066897Y-106642661D01*
X132286872Y-104862636D01*
X132194804Y-104824500D01*
X132194803Y-104824500D01*
X121327990Y-104824500D01*
X121327988Y-104824500D01*
X121235920Y-104862636D01*
X121235919Y-104862637D01*
X121177496Y-104921061D01*
X121165454Y-104933103D01*
X121165453Y-104933104D01*
X121079591Y-105018966D01*
X121028664Y-105069893D01*
X120967341Y-105103377D01*
X120897649Y-105098393D01*
X120861165Y-105071081D01*
X120885412Y-105099063D01*
X120895356Y-105168221D01*
X120866332Y-105231777D01*
X120860299Y-105238256D01*
X120308966Y-105789590D01*
X120247643Y-105823075D01*
X120221285Y-105825909D01*
X120111635Y-105825909D01*
X119987344Y-105862403D01*
X119987341Y-105862404D01*
X119987340Y-105862405D01*
X119936086Y-105895343D01*
X119878359Y-105932442D01*
X119793527Y-106030346D01*
X119793526Y-106030347D01*
X119739711Y-106148183D01*
X119721276Y-106276409D01*
X119739711Y-106404634D01*
X119793526Y-106522470D01*
X119793527Y-106522472D01*
X119878360Y-106620376D01*
X119987340Y-106690413D01*
X120111634Y-106726908D01*
X120111636Y-106726909D01*
X120111637Y-106726909D01*
X120241182Y-106726909D01*
X120241182Y-106726908D01*
X120365478Y-106690413D01*
X120474458Y-106620376D01*
X120520102Y-106567698D01*
X120578877Y-106529926D01*
X120648746Y-106529924D01*
X120707525Y-106567697D01*
X120707527Y-106567700D01*
X120757758Y-106625670D01*
X120756735Y-106626555D01*
X120789517Y-106677566D01*
X120789517Y-106747435D01*
X120756736Y-106798443D01*
X120757759Y-106799330D01*
X120667118Y-106903937D01*
X120667117Y-106903938D01*
X120613302Y-107021774D01*
X120594867Y-107150000D01*
X120613302Y-107278225D01*
X120651752Y-107362416D01*
X120667118Y-107396063D01*
X120751951Y-107493967D01*
X120860931Y-107564004D01*
X120985225Y-107600499D01*
X120985227Y-107600500D01*
X120985228Y-107600500D01*
X121114773Y-107600500D01*
X121114773Y-107600499D01*
X121239069Y-107564004D01*
X121348049Y-107493967D01*
X121432882Y-107396063D01*
X121486697Y-107278226D01*
X121505133Y-107150000D01*
X121501286Y-107123246D01*
X121511227Y-107054089D01*
X121536339Y-107017919D01*
X122492441Y-106061819D01*
X122553764Y-106028334D01*
X122580122Y-106025500D01*
X124645877Y-106025500D01*
X124712916Y-106045185D01*
X124758671Y-106097989D01*
X124768615Y-106167147D01*
X124739590Y-106230703D01*
X124733560Y-106237178D01*
X124067513Y-106903225D01*
X123557557Y-107413181D01*
X123496234Y-107446666D01*
X123469876Y-107449500D01*
X123360226Y-107449500D01*
X123235935Y-107485994D01*
X123235932Y-107485995D01*
X123235931Y-107485996D01*
X123184677Y-107518934D01*
X123126950Y-107556033D01*
X123042118Y-107653937D01*
X123042117Y-107653938D01*
X122988302Y-107771774D01*
X122969867Y-107900000D01*
X122988302Y-108028225D01*
X123009436Y-108074500D01*
X123042118Y-108146063D01*
X123126951Y-108243967D01*
X123235931Y-108314004D01*
X123360225Y-108350499D01*
X123360227Y-108350500D01*
X123476853Y-108350500D01*
X123543892Y-108370185D01*
X123589647Y-108422989D01*
X123599590Y-108492145D01*
X123594867Y-108525000D01*
X123613302Y-108653225D01*
X123666160Y-108768966D01*
X123667118Y-108771063D01*
X123751951Y-108868967D01*
X123860931Y-108939004D01*
X123985225Y-108975499D01*
X123985227Y-108975500D01*
X123985228Y-108975500D01*
X124114773Y-108975500D01*
X124114773Y-108975499D01*
X124239069Y-108939004D01*
X124348049Y-108868967D01*
X124384622Y-108826757D01*
X124443398Y-108788983D01*
X124513268Y-108788981D01*
X124566017Y-108820278D01*
X124772467Y-109026728D01*
X124805952Y-109088051D01*
X124800968Y-109157743D01*
X124759096Y-109213676D01*
X124693632Y-109238093D01*
X124684786Y-109238409D01*
X117380625Y-109238409D01*
X117288557Y-109276545D01*
X117288556Y-109276546D01*
X117218090Y-109347013D01*
X107140662Y-119424440D01*
X107140661Y-119424440D01*
X107140662Y-119424441D01*
X107087636Y-119477467D01*
X107049500Y-119569534D01*
X107049500Y-124569877D01*
X107029815Y-124636916D01*
X107013181Y-124657558D01*
X106657558Y-125013181D01*
X106596235Y-125046666D01*
X106569877Y-125049500D01*
X106460226Y-125049500D01*
X106335935Y-125085994D01*
X106335932Y-125085995D01*
X106335931Y-125085996D01*
X106309121Y-125103226D01*
X106226950Y-125156033D01*
X106142118Y-125253937D01*
X106142117Y-125253938D01*
X106088302Y-125371774D01*
X106069867Y-125500000D01*
X105700500Y-125500000D01*
X105700500Y-109850000D01*
X114694867Y-109850000D01*
X114713302Y-109978225D01*
X114726340Y-110006773D01*
X114767118Y-110096063D01*
X114851951Y-110193967D01*
X114960931Y-110264004D01*
X115047455Y-110289409D01*
X115085225Y-110300499D01*
X115085227Y-110300500D01*
X115085228Y-110300500D01*
X115214773Y-110300500D01*
X115214773Y-110300499D01*
X115339069Y-110264004D01*
X115448049Y-110193967D01*
X115532882Y-110096063D01*
X115586697Y-109978226D01*
X115605133Y-109850000D01*
X115586697Y-109721774D01*
X115532882Y-109603937D01*
X115448049Y-109506033D01*
X115339069Y-109435996D01*
X115339065Y-109435994D01*
X115339064Y-109435994D01*
X115214774Y-109399500D01*
X115214772Y-109399500D01*
X115085228Y-109399500D01*
X115085226Y-109399500D01*
X114960935Y-109435994D01*
X114960932Y-109435995D01*
X114960931Y-109435996D01*
X114909677Y-109468934D01*
X114851950Y-109506033D01*
X114767118Y-109603937D01*
X114767117Y-109603938D01*
X114713302Y-109721774D01*
X114694867Y-109850000D01*
X105700500Y-109850000D01*
X105700500Y-108225000D01*
X114344867Y-108225000D01*
X114363302Y-108353225D01*
X114371048Y-108370185D01*
X114417118Y-108471063D01*
X114501951Y-108568967D01*
X114610931Y-108639004D01*
X114733883Y-108675105D01*
X114735225Y-108675499D01*
X114735227Y-108675500D01*
X114735228Y-108675500D01*
X114864770Y-108675500D01*
X114864772Y-108675500D01*
X114872768Y-108673151D01*
X114938189Y-108673147D01*
X114938195Y-108673118D01*
X114938342Y-108673147D01*
X114942635Y-108673147D01*
X114948184Y-108675105D01*
X114950172Y-108675500D01*
X114950173Y-108675501D01*
X114950174Y-108675501D01*
X115064262Y-108675501D01*
X115064270Y-108675500D01*
X117014333Y-108675500D01*
X117081372Y-108695185D01*
X117108046Y-108718297D01*
X117151951Y-108768967D01*
X117260931Y-108839004D01*
X117385225Y-108875499D01*
X117385227Y-108875500D01*
X117385228Y-108875500D01*
X117514773Y-108875500D01*
X117514773Y-108875499D01*
X117639069Y-108839004D01*
X117748049Y-108768967D01*
X117832882Y-108671063D01*
X117886697Y-108553226D01*
X117905133Y-108425000D01*
X117886697Y-108296774D01*
X117832882Y-108178937D01*
X117748049Y-108081033D01*
X117639069Y-108010996D01*
X117639065Y-108010994D01*
X117639064Y-108010994D01*
X117514774Y-107974500D01*
X117514772Y-107974500D01*
X117385228Y-107974500D01*
X117385226Y-107974500D01*
X117260935Y-108010994D01*
X117260932Y-108010995D01*
X117260931Y-108010996D01*
X117234121Y-108028226D01*
X117151950Y-108081033D01*
X117108047Y-108131702D01*
X117049269Y-108169477D01*
X117014333Y-108174500D01*
X115351883Y-108174500D01*
X115284844Y-108154815D01*
X115239089Y-108102012D01*
X115229508Y-108081033D01*
X115182882Y-107978937D01*
X115098049Y-107881033D01*
X114989069Y-107810996D01*
X114989065Y-107810994D01*
X114989064Y-107810994D01*
X114864774Y-107774500D01*
X114864772Y-107774500D01*
X114735228Y-107774500D01*
X114735226Y-107774500D01*
X114610935Y-107810994D01*
X114610932Y-107810995D01*
X114610931Y-107810996D01*
X114559677Y-107843934D01*
X114501950Y-107881033D01*
X114417118Y-107978937D01*
X114417117Y-107978938D01*
X114363302Y-108096774D01*
X114344867Y-108225000D01*
X105700500Y-108225000D01*
X105700500Y-106775000D01*
X117419867Y-106775000D01*
X117438302Y-106903225D01*
X117438628Y-106903938D01*
X117492118Y-107021063D01*
X117576951Y-107118967D01*
X117685931Y-107189004D01*
X117810225Y-107225499D01*
X117810227Y-107225500D01*
X117810228Y-107225500D01*
X117939773Y-107225500D01*
X117939773Y-107225499D01*
X118064069Y-107189004D01*
X118173049Y-107118967D01*
X118257882Y-107021063D01*
X118311697Y-106903226D01*
X118330133Y-106775000D01*
X118311697Y-106646774D01*
X118257882Y-106528937D01*
X118173049Y-106431033D01*
X118064069Y-106360996D01*
X118064065Y-106360994D01*
X118064064Y-106360994D01*
X117939774Y-106324500D01*
X117939772Y-106324500D01*
X117810228Y-106324500D01*
X117810226Y-106324500D01*
X117685935Y-106360994D01*
X117685932Y-106360995D01*
X117685931Y-106360996D01*
X117634677Y-106393934D01*
X117576950Y-106431033D01*
X117492118Y-106528937D01*
X117492117Y-106528938D01*
X117438302Y-106646774D01*
X117419867Y-106775000D01*
X105700500Y-106775000D01*
X105700500Y-104675000D01*
X119994867Y-104675000D01*
X120013302Y-104803225D01*
X120040435Y-104862636D01*
X120067118Y-104921063D01*
X120151951Y-105018967D01*
X120260931Y-105089004D01*
X120385225Y-105125499D01*
X120385227Y-105125500D01*
X120385228Y-105125500D01*
X120514773Y-105125500D01*
X120514773Y-105125499D01*
X120639069Y-105089004D01*
X120705581Y-105046258D01*
X120772617Y-105026575D01*
X120837670Y-105045675D01*
X120817299Y-104991057D01*
X120830628Y-104929783D01*
X120829198Y-104929130D01*
X120841133Y-104902994D01*
X120886697Y-104803226D01*
X120905133Y-104675000D01*
X120886697Y-104546774D01*
X120832882Y-104428937D01*
X120748049Y-104331033D01*
X120639069Y-104260996D01*
X120639065Y-104260994D01*
X120639064Y-104260994D01*
X120514774Y-104224500D01*
X120514772Y-104224500D01*
X120385228Y-104224500D01*
X120385226Y-104224500D01*
X120260935Y-104260994D01*
X120260932Y-104260995D01*
X120260931Y-104260996D01*
X120209677Y-104293934D01*
X120151950Y-104331033D01*
X120067118Y-104428937D01*
X120067117Y-104428938D01*
X120013302Y-104546774D01*
X119994867Y-104675000D01*
X105700500Y-104675000D01*
X105700500Y-98649000D01*
X105720185Y-98581961D01*
X105772989Y-98536206D01*
X105824500Y-98525000D01*
X134775500Y-98525000D01*
X134842539Y-98544685D01*
G37*
%TD.AperFunction*%
%TD*%
%TA.AperFunction,Conductor*%
%TO.N,/UWB_NSS*%
G36*
X123896756Y-139487030D02*
G01*
X123897309Y-139488185D01*
X124193139Y-140203157D01*
X124270524Y-140390182D01*
X124270521Y-140399137D01*
X124264186Y-140405466D01*
X124264180Y-140405469D01*
X123360901Y-140778642D01*
X123351947Y-140778633D01*
X123346121Y-140773354D01*
X123212136Y-140523306D01*
X123212135Y-140523305D01*
X123114651Y-140401000D01*
X123074063Y-140350077D01*
X122955043Y-140203157D01*
X122953505Y-140200682D01*
X122929169Y-140147790D01*
X122870306Y-140019851D01*
X122869312Y-140016293D01*
X122838986Y-139750525D01*
X122841453Y-139741918D01*
X122849285Y-139737575D01*
X122850611Y-139737500D01*
X123028847Y-139737500D01*
X123037120Y-139740927D01*
X123040034Y-139745774D01*
X123086759Y-139898360D01*
X123086760Y-139898361D01*
X123086760Y-139898360D01*
X123086761Y-139898361D01*
X123153117Y-139893096D01*
X123219474Y-139887831D01*
X123413039Y-139770733D01*
X123644380Y-139612211D01*
X123645349Y-139611615D01*
X123880870Y-139482399D01*
X123889772Y-139481425D01*
X123896756Y-139487030D01*
G37*
%TD.AperFunction*%
%TD*%
D21*
X128425000Y-129675000D03*
X131975000Y-130950000D03*
X128600000Y-116200000D03*
X122675000Y-98875000D03*
X114200000Y-146925000D03*
X120925000Y-134150000D03*
X108000000Y-152025000D03*
X127050000Y-165150000D03*
X125175000Y-99400000D03*
X106300000Y-165150000D03*
X106100000Y-106150000D03*
X108300000Y-165150000D03*
X134050000Y-165150000D03*
X134500000Y-118150001D03*
X106100000Y-120149999D03*
X132050000Y-165150000D03*
X119675000Y-98875000D03*
X118175000Y-99400000D03*
X134500000Y-156150000D03*
X120875000Y-164850000D03*
X117575000Y-100725000D03*
X134500000Y-116150001D03*
X134175000Y-99400000D03*
X113650000Y-149675000D03*
X134500000Y-137650000D03*
X126575000Y-135400000D03*
X106100000Y-160899999D03*
X110425000Y-99400000D03*
X120925000Y-131650000D03*
X125050000Y-165150000D03*
X132675000Y-98850000D03*
X106100000Y-110150000D03*
X123050000Y-100900000D03*
X106100000Y-105149999D03*
X123050000Y-102875000D03*
X124700000Y-101875000D03*
X107425000Y-143150000D03*
X123050000Y-103650000D03*
X116300000Y-161000000D03*
X120925000Y-135400000D03*
X123675000Y-104400000D03*
X134500000Y-101150000D03*
X134500000Y-145650000D03*
X129175000Y-99400000D03*
X134500000Y-128150000D03*
X118500000Y-154075000D03*
X117975000Y-165025000D03*
X124300000Y-138400000D03*
X117675000Y-98875000D03*
X106100000Y-145899999D03*
X133575000Y-165600000D03*
X121050000Y-100950000D03*
X119850000Y-144600000D03*
X134500000Y-158150001D03*
X124300000Y-134150000D03*
X117525000Y-164275000D03*
X106525000Y-123950000D03*
X131050000Y-165150000D03*
X133175000Y-99400000D03*
X126106250Y-125718748D03*
X123700000Y-98875000D03*
X134500000Y-143650000D03*
X112775000Y-165650000D03*
X126300000Y-102900000D03*
X106100000Y-103149999D03*
X124200000Y-99400000D03*
X107425000Y-139124999D03*
X106100000Y-156899999D03*
X126175000Y-99400000D03*
X134500000Y-105150000D03*
X134500000Y-160150001D03*
X106100000Y-109149999D03*
X134550000Y-165600000D03*
X119700000Y-103675000D03*
X125550000Y-165625000D03*
X106100000Y-114150000D03*
X107425000Y-141124999D03*
X129550000Y-165600000D03*
X113050000Y-109925000D03*
X106100000Y-147900000D03*
X111300000Y-165150000D03*
X107300000Y-165150000D03*
X106100000Y-152900000D03*
X134500000Y-138650000D03*
X134500000Y-131150001D03*
X134500000Y-114150000D03*
X106424999Y-99399999D03*
X118650000Y-150625000D03*
X132550000Y-165600000D03*
X122100000Y-150475000D03*
X121900000Y-110588909D03*
X116075000Y-136475000D03*
X116675000Y-158025000D03*
X106100000Y-100149999D03*
X119250000Y-100950000D03*
X107925000Y-136150000D03*
X134500000Y-161150000D03*
X115675000Y-101525000D03*
X129675000Y-98850000D03*
X116925000Y-100150000D03*
X110925000Y-98900000D03*
X121175000Y-99400000D03*
X116300000Y-165150000D03*
X115299780Y-165148097D03*
X106100000Y-151899999D03*
X134500000Y-141650001D03*
X110300000Y-165150000D03*
X116550000Y-103025000D03*
X106100000Y-112149999D03*
X117325000Y-104025000D03*
X116675000Y-98875000D03*
X106512500Y-127300000D03*
X134500000Y-125150001D03*
X120200000Y-162625000D03*
X122550000Y-165625000D03*
X122000000Y-165125000D03*
X114800000Y-98875000D03*
X124675000Y-104400000D03*
X107425000Y-142125000D03*
X119950000Y-157225000D03*
X125050000Y-108025000D03*
X127175000Y-102525000D03*
X124237500Y-143837500D03*
X106100000Y-157900000D03*
X128550000Y-165600000D03*
X120200000Y-99400000D03*
X134500000Y-127150000D03*
X132225000Y-122150000D03*
X106100000Y-161899999D03*
X126300000Y-100900000D03*
X134500000Y-104150001D03*
X134500000Y-120150000D03*
X106925000Y-98900000D03*
X131550000Y-165600000D03*
X118675000Y-98875000D03*
X106100000Y-121149999D03*
X106100000Y-102149999D03*
X108925000Y-98900000D03*
X114200000Y-155175000D03*
X129050000Y-165150000D03*
X126300000Y-100150000D03*
X116350000Y-163450000D03*
X127175000Y-99400000D03*
X113800000Y-165650000D03*
X110325000Y-139300000D03*
X123575000Y-165625000D03*
X134500000Y-113150000D03*
X107425000Y-138125000D03*
X120200000Y-163450000D03*
X111425000Y-99400000D03*
X106100000Y-163900000D03*
X116275000Y-162675000D03*
X121900000Y-112875000D03*
X114800000Y-165650000D03*
X106100000Y-119149999D03*
X132175000Y-99400000D03*
X126300000Y-103675000D03*
X122250000Y-159075000D03*
X124237500Y-146900000D03*
X108800000Y-120775000D03*
X122100000Y-154075000D03*
X127175000Y-101275000D03*
X106100000Y-118150000D03*
X106100000Y-108149999D03*
X133050000Y-165150000D03*
X119175000Y-99400000D03*
X108000000Y-155150000D03*
X106950000Y-100025000D03*
X128050000Y-165150000D03*
X134500000Y-142650000D03*
X134500000Y-112150000D03*
X120675000Y-98875000D03*
X121025000Y-102775000D03*
X130675000Y-98850000D03*
X114925000Y-99900000D03*
X133250000Y-154887501D03*
X134500000Y-163150000D03*
X109300000Y-165150000D03*
X117675000Y-165650000D03*
X128675000Y-98850000D03*
X111125000Y-148900000D03*
X131175000Y-99400000D03*
X134500000Y-132150001D03*
X126550000Y-165625000D03*
X110225000Y-112375000D03*
X116150000Y-102275000D03*
X109925000Y-98900000D03*
X114200000Y-145375000D03*
X110800000Y-165650000D03*
X116300000Y-161850000D03*
X134500000Y-106150000D03*
X106100000Y-146899999D03*
X106100000Y-153900000D03*
X106100000Y-162900000D03*
X134500000Y-109150001D03*
X134500000Y-115150000D03*
X127050000Y-147175000D03*
X111925000Y-98900000D03*
X107425000Y-99425000D03*
X124675000Y-98875000D03*
X134500000Y-157150000D03*
X131675000Y-98850000D03*
X127300000Y-108025000D03*
X107800000Y-165650000D03*
X118350000Y-100775000D03*
X118550000Y-165650000D03*
X115150000Y-100775000D03*
X124237500Y-145400000D03*
X124075000Y-165150000D03*
X116950000Y-157250000D03*
X120175000Y-159925000D03*
X113300000Y-165150000D03*
X120175000Y-158925000D03*
X125675000Y-98875000D03*
X106100000Y-158900000D03*
X126850000Y-159075000D03*
X122050000Y-100950000D03*
X126106250Y-127243748D03*
X106100000Y-154899999D03*
X123075000Y-165150000D03*
X106575000Y-133775000D03*
X117525000Y-145375000D03*
X119075000Y-117825000D03*
X106100000Y-115149999D03*
X134500000Y-111150001D03*
X134500000Y-164150000D03*
X127825000Y-154125000D03*
X117925000Y-103525000D03*
X134500000Y-110150001D03*
X115900000Y-117825000D03*
X133550000Y-164525000D03*
X121425000Y-165625000D03*
X134500000Y-144650000D03*
X119675000Y-158000000D03*
X134500000Y-122150000D03*
X120925000Y-137900000D03*
X112425000Y-99400000D03*
X134500000Y-103150001D03*
X116325000Y-160025000D03*
X134500000Y-126150000D03*
X134500000Y-119150000D03*
X122050000Y-102775000D03*
X126675000Y-98875000D03*
X130050000Y-165150000D03*
X109025000Y-146650000D03*
X106100000Y-144899999D03*
X134500000Y-147650001D03*
X109425000Y-99400000D03*
X116325000Y-159025000D03*
X134500000Y-148650001D03*
X106575000Y-136025000D03*
X106512500Y-128825000D03*
X108425000Y-99400000D03*
X127550000Y-165625000D03*
X107925000Y-98900000D03*
X106100000Y-143900000D03*
X127675000Y-98875000D03*
X114300000Y-165150000D03*
X130150000Y-154887501D03*
X120925000Y-129150000D03*
X125675000Y-104400000D03*
X117325000Y-103025000D03*
X106100000Y-101149999D03*
X117175000Y-99400000D03*
X123050000Y-100150000D03*
X114200000Y-153600000D03*
X134500000Y-159150001D03*
X118696922Y-110588909D03*
X120175000Y-161800000D03*
X134500000Y-102150001D03*
X107425000Y-140124999D03*
X120175000Y-160850000D03*
X117225000Y-165100000D03*
X118700000Y-112875000D03*
X126050000Y-165150000D03*
X134500000Y-130150001D03*
X117450000Y-156550000D03*
X106800000Y-165650000D03*
X106100000Y-104149999D03*
X106100000Y-150899999D03*
X106100000Y-107149999D03*
X106575000Y-134875001D03*
X112300000Y-165150000D03*
X106100000Y-148900000D03*
X106100000Y-122150000D03*
X128175000Y-99400000D03*
X116550000Y-164250000D03*
X122175000Y-99400000D03*
X106512500Y-130400000D03*
X134500000Y-121150000D03*
X120050000Y-100950000D03*
X134500000Y-140650001D03*
X106100000Y-149899999D03*
X106575000Y-132000000D03*
X120925000Y-130400000D03*
X106100000Y-113149999D03*
X134500000Y-107150000D03*
X134500000Y-117150001D03*
X106100000Y-111149999D03*
X134500000Y-162150000D03*
X106100000Y-117149999D03*
X123175000Y-99400000D03*
X120925000Y-136650000D03*
X134500000Y-146650001D03*
X115800000Y-107525000D03*
X121537500Y-143837500D03*
X121675000Y-98875000D03*
X130550000Y-165600000D03*
X106100000Y-155899999D03*
X134500000Y-129150000D03*
X134500000Y-123150001D03*
X109800000Y-165650000D03*
X115800000Y-165650000D03*
X134500000Y-108150000D03*
X134500000Y-124150001D03*
X124550000Y-165625000D03*
X106100000Y-159899999D03*
X124550000Y-158525000D03*
X107925000Y-133650000D03*
X134500000Y-139650001D03*
X130175000Y-99400000D03*
X120925000Y-132900000D03*
X113650000Y-151225000D03*
X108800000Y-122250000D03*
X111800000Y-165650000D03*
X106100000Y-116149999D03*
X115800000Y-112800000D03*
X106800000Y-164525000D03*
X133700000Y-98850000D03*
X134500000Y-100150000D03*
X134500000Y-133150000D03*
X120350000Y-164275000D03*
X112550000Y-108225000D03*
X116800000Y-165650000D03*
X108800000Y-165650000D03*
X127450000Y-137450000D03*
X117547229Y-114025000D03*
X127600000Y-158075000D03*
X127450000Y-138450000D03*
X128925000Y-137975000D03*
X106574999Y-141775000D03*
X106575000Y-139525000D03*
X121500000Y-158075000D03*
X128450000Y-138450000D03*
X106575000Y-140675000D03*
X110325000Y-134600000D03*
X127950000Y-137950000D03*
X115150000Y-109850000D03*
X128450000Y-137450000D03*
X123025000Y-158075000D03*
X117450000Y-116275000D03*
X112537500Y-136912500D03*
X126825000Y-150250000D03*
X119850000Y-146375000D03*
X115900000Y-116275000D03*
X130875000Y-146225000D03*
X111900000Y-124975000D03*
X117525000Y-146925000D03*
X120450000Y-104675000D03*
X126825000Y-154900000D03*
X117875000Y-106775000D03*
X127950000Y-136950000D03*
X129475000Y-138450000D03*
X126275000Y-146175000D03*
X126075000Y-158075000D03*
X118425000Y-119475000D03*
X115925000Y-155175000D03*
X108725000Y-134875000D03*
X130100000Y-147175000D03*
X126825000Y-153350000D03*
X117350000Y-154900000D03*
X112125000Y-154375000D03*
X116175000Y-153500000D03*
X109800000Y-150450000D03*
X106525000Y-125500000D03*
X125300000Y-110025000D03*
X123250000Y-113900000D03*
X124054940Y-115779941D03*
X111973591Y-115723591D03*
X124536091Y-110038909D03*
X108725000Y-140674999D03*
X118913909Y-148311091D03*
X118900000Y-144375000D03*
X122575000Y-116275001D03*
X121050000Y-146656580D03*
X123487500Y-147550000D03*
X122126232Y-115160503D03*
X125169973Y-151905027D03*
X117450000Y-108425000D03*
X114800000Y-108225000D03*
X123050000Y-155025000D03*
X125300000Y-110775000D03*
X125425000Y-149700000D03*
X124050000Y-108525000D03*
X122387500Y-139316916D03*
X125299611Y-111625000D03*
X121049999Y-148156585D03*
X124800000Y-153275000D03*
X121050000Y-107150000D03*
X120162500Y-139166672D03*
X124905801Y-112285023D03*
X122025000Y-147425000D03*
X124549608Y-111625000D03*
X120146659Y-138416837D03*
X121050000Y-147406583D03*
X123425000Y-107900000D03*
X125425001Y-151155025D03*
X123950000Y-155525000D03*
X121050000Y-106275000D03*
X120176409Y-106276409D03*
X124715683Y-155495188D03*
X125300000Y-155025000D03*
X129250000Y-144974998D03*
D22*
X107650000Y-102275000D03*
X108133274Y-101108274D03*
X108133274Y-103441726D03*
X109300000Y-100625000D03*
X109300000Y-102275000D03*
X109300000Y-103925000D03*
X110466726Y-101108274D03*
X110466726Y-103441726D03*
X110950000Y-102275000D03*
X124525000Y-130249999D03*
X127065000Y-130249999D03*
X107650000Y-162275000D03*
X108133274Y-161108274D03*
X108133274Y-163441726D03*
X109300000Y-160625000D03*
X109300000Y-162275000D03*
X109300000Y-163925000D03*
X110466726Y-161108274D03*
X110466726Y-163441726D03*
X110950000Y-162275000D03*
D23*
X131450000Y-136400000D03*
X131450000Y-134200000D03*
X129250000Y-136400000D03*
X129250000Y-134200000D03*
D21*
X113650000Y-98775000D03*
D22*
X129650000Y-102275000D03*
X130133274Y-101108274D03*
X130133274Y-103441726D03*
X131300000Y-100625000D03*
X131300000Y-102275000D03*
X131300000Y-103925000D03*
X132466726Y-101108274D03*
X132466726Y-103441726D03*
X132950000Y-102275000D03*
X113425000Y-140400000D03*
X112975000Y-133800000D03*
X115515000Y-133800000D03*
X131200000Y-117950000D03*
X131200000Y-115410000D03*
X131200000Y-112870001D03*
X131200000Y-110330000D03*
X131200000Y-107790000D03*
X129650000Y-162275000D03*
X130133274Y-161108274D03*
X130133274Y-163441726D03*
X131300000Y-160625000D03*
X131300000Y-162275000D03*
X131300000Y-163925000D03*
X132466726Y-161108274D03*
X132466726Y-163441726D03*
X132950000Y-162275000D03*
X124275000Y-140400000D03*
X117175000Y-140400000D03*
X120925000Y-140400000D03*
M02*
