M48
; DRILL file {KiCad 8.0.6} date 2024-12-19T09:14:43+0100
; FORMAT={-:-/ absolute / metric / decimal}
; #@! TF.CreationDate,2024-12-19T09:14:43+01:00
; #@! TF.GenerationSoftware,Kicad,Pcbnew,8.0.6
; #@! TF.FileFunction,Plated,1,4,PTH
FMAT,2
METRIC
; #@! TA.AperFunction,Plated,PTH,ComponentDrill
T1C0.200
; #@! TA.AperFunction,Plated,PTH,ViaDrill
T2C0.300
; #@! TA.AperFunction,Plated,PTH,ComponentDrill
T3C0.300
; #@! TA.AperFunction,Plated,PTH,ComponentDrill
T4C0.400
; #@! TA.AperFunction,Plated,PTH,ComponentDrill
T5C1.000
; #@! TA.AperFunction,Plated,PTH,ComponentDrill
T6C2.200
%
G90
G05
T1
X129.25Y-134.2
X129.25Y-136.4
X131.45Y-134.2
X131.45Y-136.4
T2
X106.1Y-100.15
X106.1Y-101.15
X106.1Y-102.15
X106.1Y-103.15
X106.1Y-104.15
X106.1Y-105.15
X106.1Y-106.15
X106.1Y-107.15
X106.1Y-108.15
X106.1Y-109.15
X106.1Y-110.15
X106.1Y-111.15
X106.1Y-112.15
X106.1Y-113.15
X106.1Y-114.15
X106.1Y-115.15
X106.1Y-116.15
X106.1Y-117.15
X106.1Y-118.15
X106.1Y-119.15
X106.1Y-120.15
X106.1Y-121.15
X106.1Y-122.15
X106.1Y-143.9
X106.1Y-144.9
X106.1Y-145.9
X106.1Y-146.9
X106.1Y-147.9
X106.1Y-148.9
X106.1Y-149.9
X106.1Y-150.9
X106.1Y-151.9
X106.1Y-152.9
X106.1Y-153.9
X106.1Y-154.9
X106.1Y-155.9
X106.1Y-156.9
X106.1Y-157.9
X106.1Y-158.9
X106.1Y-159.9
X106.1Y-160.9
X106.1Y-161.9
X106.1Y-162.9
X106.1Y-163.9
X106.3Y-165.15
X106.425Y-99.4
X106.512Y-127.3
X106.512Y-128.825
X106.512Y-130.4
X106.525Y-123.95
X106.525Y-125.5
X106.575Y-141.775
X106.575Y-132.0
X106.575Y-133.775
X106.575Y-134.875
X106.575Y-136.025
X106.575Y-139.525
X106.575Y-140.675
X106.8Y-164.525
X106.8Y-165.65
X106.925Y-98.9
X106.95Y-100.025
X107.3Y-165.15
X107.425Y-99.425
X107.425Y-138.125
X107.425Y-139.125
X107.425Y-140.125
X107.425Y-141.125
X107.425Y-142.125
X107.425Y-143.15
X107.8Y-165.65
X107.925Y-98.9
X107.925Y-133.65
X107.925Y-136.15
X108.0Y-152.025
X108.0Y-155.15
X108.3Y-165.15
X108.425Y-99.4
X108.725Y-134.875
X108.725Y-140.675
X108.8Y-120.775
X108.8Y-122.25
X108.8Y-165.65
X108.925Y-98.9
X109.025Y-146.65
X109.3Y-165.15
X109.425Y-99.4
X109.8Y-150.45
X109.8Y-165.65
X109.925Y-98.9
X110.225Y-112.375
X110.3Y-165.15
X110.325Y-134.6
X110.325Y-139.3
X110.425Y-99.4
X110.8Y-165.65
X110.925Y-98.9
X111.125Y-148.9
X111.3Y-165.15
X111.425Y-99.4
X111.8Y-165.65
X111.9Y-124.975
X111.925Y-98.9
X111.974Y-115.724
X112.125Y-154.375
X112.3Y-165.15
X112.425Y-99.4
X112.537Y-136.912
X112.55Y-108.225
X112.775Y-165.65
X113.05Y-109.925
X113.3Y-165.15
X113.65Y-149.675
X113.65Y-151.225
X113.8Y-165.65
X114.2Y-145.375
X114.2Y-146.925
X114.2Y-153.6
X114.2Y-155.175
X114.3Y-165.15
X114.8Y-98.875
X114.8Y-108.225
X114.8Y-165.65
X114.925Y-99.9
X115.15Y-100.775
X115.15Y-109.85
X115.3Y-165.148
X115.675Y-101.525
X115.8Y-107.525
X115.8Y-112.8
X115.8Y-165.65
X115.9Y-116.275
X115.9Y-117.825
X115.925Y-155.175
X116.075Y-136.475
X116.15Y-102.275
X116.175Y-153.5
X116.275Y-162.675
X116.3Y-161.0
X116.3Y-161.85
X116.3Y-165.15
X116.325Y-159.025
X116.325Y-160.025
X116.35Y-163.45
X116.55Y-103.025
X116.55Y-164.25
X116.675Y-98.875
X116.675Y-158.025
X116.8Y-165.65
X116.925Y-100.15
X116.95Y-157.25
X117.175Y-99.4
X117.225Y-165.1
X117.325Y-103.025
X117.325Y-104.025
X117.35Y-154.9
X117.45Y-108.425
X117.45Y-116.275
X117.45Y-156.55
X117.525Y-145.375
X117.525Y-146.925
X117.525Y-164.275
X117.547Y-114.025
X117.575Y-100.725
X117.675Y-98.875
X117.675Y-165.65
X117.875Y-106.775
X117.925Y-103.525
X117.975Y-165.025
X118.175Y-99.4
X118.35Y-100.775
X118.425Y-119.475
X118.5Y-154.075
X118.55Y-165.65
X118.65Y-150.625
X118.675Y-98.875
X118.697Y-110.589
X118.7Y-112.875
X118.9Y-144.375
X118.914Y-148.311
X119.075Y-117.825
X119.175Y-99.4
X119.25Y-100.95
X119.675Y-98.875
X119.675Y-158.0
X119.7Y-103.675
X119.85Y-144.6
X119.85Y-146.375
X119.95Y-157.225
X120.05Y-100.95
X120.147Y-138.417
X120.162Y-139.167
X120.175Y-158.925
X120.175Y-159.925
X120.175Y-160.85
X120.175Y-161.8
X120.176Y-106.276
X120.2Y-99.4
X120.2Y-162.625
X120.2Y-163.45
X120.35Y-164.275
X120.45Y-104.675
X120.675Y-98.875
X120.875Y-164.85
X120.925Y-129.15
X120.925Y-130.4
X120.925Y-131.65
X120.925Y-132.9
X120.925Y-134.15
X120.925Y-135.4
X120.925Y-136.65
X120.925Y-137.9
X121.025Y-102.775
X121.05Y-148.157
X121.05Y-100.95
X121.05Y-106.275
X121.05Y-107.15
X121.05Y-146.657
X121.05Y-147.407
X121.175Y-99.4
X121.425Y-165.625
X121.5Y-158.075
X121.537Y-143.838
X121.675Y-98.875
X121.9Y-110.589
X121.9Y-112.875
X122.0Y-165.125
X122.025Y-147.425
X122.05Y-100.95
X122.05Y-102.775
X122.1Y-150.475
X122.1Y-154.075
X122.126Y-115.161
X122.175Y-99.4
X122.25Y-159.075
X122.387Y-139.317
X122.55Y-165.625
X122.575Y-116.275
X122.675Y-98.875
X123.025Y-158.075
X123.05Y-100.15
X123.05Y-100.9
X123.05Y-102.875
X123.05Y-103.65
X123.05Y-155.025
X123.075Y-165.15
X123.175Y-99.4
X123.25Y-113.9
X123.425Y-107.9
X123.487Y-147.55
X123.575Y-165.625
X123.675Y-104.4
X123.7Y-98.875
X123.95Y-155.525
X124.05Y-108.525
X124.055Y-115.78
X124.075Y-165.15
X124.2Y-99.4
X124.237Y-143.838
X124.237Y-145.4
X124.237Y-146.9
X124.3Y-134.15
X124.3Y-138.4
X124.536Y-110.039
X124.55Y-111.625
X124.55Y-158.525
X124.55Y-165.625
X124.675Y-98.875
X124.675Y-104.4
X124.7Y-101.875
X124.716Y-155.495
X124.8Y-153.275
X124.906Y-112.285
X125.05Y-108.025
X125.05Y-165.15
X125.17Y-151.905
X125.175Y-99.4
X125.3Y-111.625
X125.3Y-110.025
X125.3Y-110.775
X125.3Y-155.025
X125.425Y-149.7
X125.425Y-151.155
X125.55Y-165.625
X125.675Y-98.875
X125.675Y-104.4
X126.05Y-165.15
X126.075Y-158.075
X126.106Y-125.719
X126.106Y-127.244
X126.175Y-99.4
X126.275Y-146.175
X126.3Y-100.15
X126.3Y-100.9
X126.3Y-102.9
X126.3Y-103.675
X126.55Y-165.625
X126.575Y-135.4
X126.675Y-98.875
X126.825Y-150.25
X126.825Y-153.35
X126.825Y-154.9
X126.85Y-159.075
X127.05Y-147.175
X127.05Y-165.15
X127.175Y-99.4
X127.175Y-101.275
X127.175Y-102.525
X127.3Y-108.025
X127.45Y-137.45
X127.45Y-138.45
X127.55Y-165.625
X127.6Y-158.075
X127.675Y-98.875
X127.825Y-154.125
X127.95Y-136.95
X127.95Y-137.95
X128.05Y-165.15
X128.175Y-99.4
X128.425Y-129.675
X128.45Y-137.45
X128.45Y-138.45
X128.55Y-165.6
X128.6Y-116.2
X128.675Y-98.85
X128.925Y-137.975
X129.05Y-165.15
X129.175Y-99.4
X129.25Y-144.975
X129.475Y-138.45
X129.55Y-165.6
X129.675Y-98.85
X130.05Y-165.15
X130.1Y-147.175
X130.15Y-154.888
X130.175Y-99.4
X130.55Y-165.6
X130.675Y-98.85
X130.875Y-146.225
X131.05Y-165.15
X131.175Y-99.4
X131.55Y-165.6
X131.675Y-98.85
X131.975Y-130.95
X132.05Y-165.15
X132.175Y-99.4
X132.225Y-122.15
X132.55Y-165.6
X132.675Y-98.85
X133.05Y-165.15
X133.175Y-99.4
X133.25Y-154.888
X133.55Y-164.525
X133.575Y-165.6
X133.7Y-98.85
X134.05Y-165.15
X134.175Y-99.4
X134.5Y-100.15
X134.5Y-101.15
X134.5Y-102.15
X134.5Y-103.15
X134.5Y-104.15
X134.5Y-105.15
X134.5Y-106.15
X134.5Y-107.15
X134.5Y-108.15
X134.5Y-109.15
X134.5Y-110.15
X134.5Y-111.15
X134.5Y-112.15
X134.5Y-113.15
X134.5Y-114.15
X134.5Y-115.15
X134.5Y-116.15
X134.5Y-117.15
X134.5Y-118.15
X134.5Y-119.15
X134.5Y-120.15
X134.5Y-121.15
X134.5Y-122.15
X134.5Y-123.15
X134.5Y-124.15
X134.5Y-125.15
X134.5Y-126.15
X134.5Y-127.15
X134.5Y-128.15
X134.5Y-129.15
X134.5Y-130.15
X134.5Y-131.15
X134.5Y-132.15
X134.5Y-133.15
X134.5Y-137.65
X134.5Y-138.65
X134.5Y-139.65
X134.5Y-140.65
X134.5Y-141.65
X134.5Y-142.65
X134.5Y-143.65
X134.5Y-144.65
X134.5Y-145.65
X134.5Y-146.65
X134.5Y-147.65
X134.5Y-148.65
X134.5Y-156.15
X134.5Y-157.15
X134.5Y-158.15
X134.5Y-159.15
X134.5Y-160.15
X134.5Y-161.15
X134.5Y-162.15
X134.5Y-163.15
X134.5Y-164.15
X134.55Y-165.6
T3
X113.65Y-98.775
T4
X107.65Y-102.275
X107.65Y-162.275
X108.133Y-101.108
X108.133Y-103.442
X108.133Y-161.108
X108.133Y-163.442
X109.3Y-100.625
X109.3Y-103.925
X109.3Y-160.625
X109.3Y-163.925
X110.467Y-101.108
X110.467Y-103.442
X110.467Y-161.108
X110.467Y-163.442
X110.95Y-102.275
X110.95Y-162.275
X129.65Y-102.275
X129.65Y-162.275
X130.133Y-101.108
X130.133Y-103.442
X130.133Y-161.108
X130.133Y-163.442
X131.3Y-100.625
X131.3Y-103.925
X131.3Y-160.625
X131.3Y-163.925
X132.467Y-101.108
X132.467Y-103.442
X132.467Y-161.108
X132.467Y-163.442
X132.95Y-102.275
X132.95Y-162.275
T5
X112.975Y-133.8
X113.425Y-140.4
X115.515Y-133.8
X117.175Y-140.4
X120.925Y-140.4
X124.275Y-140.4
X124.525Y-130.25
X127.065Y-130.25
X131.2Y-107.79
X131.2Y-110.33
X131.2Y-112.87
X131.2Y-115.41
X131.2Y-117.95
T6
X109.3Y-102.275
X109.3Y-162.275
X131.3Y-102.275
X131.3Y-162.275
M30
