%TF.GenerationSoftware,KiCad,Pcbnew,8.0.5*%
%TF.CreationDate,2024-12-06T11:43:31+01:00*%
%TF.ProjectId,Clicker_PCB,436c6963-6b65-4725-9f50-43422e6b6963,rev?*%
%TF.SameCoordinates,Original*%
%TF.FileFunction,Copper,L2,Inr*%
%TF.FilePolarity,Positive*%
%FSLAX46Y46*%
G04 Gerber Fmt 4.6, Leading zero omitted, Abs format (unit mm)*
G04 Created by KiCad (PCBNEW 8.0.5) date 2024-12-06 11:43:31*
%MOMM*%
%LPD*%
G01*
G04 APERTURE LIST*
%TA.AperFunction,ComponentPad*%
%ADD10C,0.700000*%
%TD*%
%TA.AperFunction,ComponentPad*%
%ADD11C,4.400000*%
%TD*%
%TA.AperFunction,ComponentPad*%
%ADD12R,1.700000X1.700000*%
%TD*%
%TA.AperFunction,ComponentPad*%
%ADD13O,1.700000X1.700000*%
%TD*%
%TA.AperFunction,HeatsinkPad*%
%ADD14C,0.500000*%
%TD*%
%TA.AperFunction,ComponentPad*%
%ADD15R,0.900000X0.500000*%
%TD*%
%TA.AperFunction,ComponentPad*%
%ADD16C,2.000000*%
%TD*%
%TA.AperFunction,ViaPad*%
%ADD17C,0.600000*%
%TD*%
%ADD18C,0.300000*%
%ADD19C,0.350000*%
%ADD20C,0.200000*%
G04 APERTURE END LIST*
D10*
%TO.N,GND*%
%TO.C,H1*%
X107650000Y-102275000D03*
X108133274Y-101108274D03*
X108133274Y-103441726D03*
X109300000Y-100625000D03*
D11*
X109300000Y-102275000D03*
D10*
X109300000Y-103925000D03*
X110466726Y-101108274D03*
X110466726Y-103441726D03*
X110950000Y-102275000D03*
%TD*%
D12*
%TO.N,/BAT*%
%TO.C,BT1*%
X124525000Y-130249999D03*
D13*
%TO.N,GND*%
X127065000Y-130249999D03*
%TD*%
D10*
%TO.N,GND*%
%TO.C,H3*%
X107650000Y-162275000D03*
X108133274Y-161108274D03*
X108133274Y-163441726D03*
X109300000Y-160625000D03*
D11*
X109300000Y-162275000D03*
D10*
X109300000Y-163925000D03*
X110466726Y-161108274D03*
X110466726Y-163441726D03*
X110950000Y-162275000D03*
%TD*%
D14*
%TO.N,GND*%
%TO.C,U4*%
X131450000Y-136400000D03*
X131450000Y-134200000D03*
X129250000Y-136400000D03*
X129250000Y-134200000D03*
%TD*%
D15*
%TO.N,GND*%
%TO.C,AE1*%
X113650000Y-98775000D03*
%TD*%
D10*
%TO.N,GND*%
%TO.C,H2*%
X129650000Y-102275000D03*
X130133274Y-101108274D03*
X130133274Y-103441726D03*
X131300000Y-100625000D03*
D11*
X131300000Y-102275000D03*
D10*
X131300000Y-103925000D03*
X132466726Y-101108274D03*
X132466726Y-103441726D03*
X132950000Y-102275000D03*
%TD*%
D16*
%TO.N,/UWB_MISO*%
%TO.C,TP5*%
X113425000Y-140400000D03*
%TD*%
D12*
%TO.N,/CLICKER*%
%TO.C,SW1*%
X112975000Y-133800000D03*
D13*
%TO.N,GND*%
X115515000Y-133800000D03*
%TD*%
D12*
%TO.N,/VIN*%
%TO.C,J1*%
X131200000Y-117950000D03*
D13*
%TO.N,/RX*%
X131200000Y-115410000D03*
%TO.N,/SWDIO*%
X131200000Y-112870001D03*
%TO.N,/SWCLK*%
X131200000Y-110330000D03*
%TO.N,GND*%
X131200000Y-107790000D03*
%TD*%
D10*
%TO.N,GND*%
%TO.C,H4*%
X129650000Y-162275000D03*
X130133274Y-161108274D03*
X130133274Y-163441726D03*
X131300000Y-160625000D03*
D11*
X131300000Y-162275000D03*
D10*
X131300000Y-163925000D03*
X132466726Y-161108274D03*
X132466726Y-163441726D03*
X132950000Y-162275000D03*
%TD*%
D16*
%TO.N,/UWB_NSS*%
%TO.C,TP7*%
X124275000Y-140400000D03*
%TD*%
%TO.N,/UWB_MOSI*%
%TO.C,TP4*%
X117175000Y-140400000D03*
%TD*%
%TO.N,/UWB_SCK*%
%TO.C,TP6*%
X120925000Y-140400000D03*
%TD*%
D17*
%TO.N,/BAT*%
X128425000Y-129675000D03*
X131975000Y-130950000D03*
X128600000Y-116200000D03*
%TO.N,GND*%
X122675000Y-98875000D03*
X114200000Y-146925000D03*
X120925000Y-134150000D03*
X108000000Y-152025000D03*
X127050000Y-165150000D03*
X125175000Y-99400000D03*
X106300000Y-165150000D03*
X106100000Y-106150000D03*
X108300000Y-165150000D03*
X134050000Y-165150000D03*
X134500000Y-118150001D03*
X106100000Y-120149999D03*
X132050000Y-165150000D03*
X119675000Y-98875000D03*
X118175000Y-99400000D03*
X134500000Y-156150000D03*
X120875000Y-164850000D03*
X117575000Y-100725000D03*
X134500000Y-116150001D03*
X134175000Y-99400000D03*
X113650000Y-149675000D03*
X134500000Y-137650000D03*
X126575000Y-135400000D03*
X106100000Y-160899999D03*
X110425000Y-99400000D03*
X120925000Y-131650000D03*
X125050000Y-165150000D03*
X132675000Y-98850000D03*
X106100000Y-110150000D03*
X123050000Y-100900000D03*
X106100000Y-105149999D03*
X123050000Y-102875000D03*
X124700000Y-101875000D03*
X107425000Y-143150000D03*
X123050000Y-103650000D03*
X116300000Y-161000000D03*
X120925000Y-135400000D03*
X123675000Y-104400000D03*
X134500000Y-101150000D03*
X134500000Y-145650000D03*
X129175000Y-99400000D03*
X134500000Y-128150000D03*
X118500000Y-154075000D03*
X117975000Y-165025000D03*
X124300000Y-138400000D03*
X117675000Y-98875000D03*
X106100000Y-145899999D03*
X133575000Y-165600000D03*
X121050000Y-100950000D03*
X119850000Y-144600000D03*
X134500000Y-158150001D03*
X124300000Y-134150000D03*
X117525000Y-164275000D03*
X106525000Y-123950000D03*
X131050000Y-165150000D03*
X133175000Y-99400000D03*
X126106250Y-125718748D03*
X123700000Y-98875000D03*
X134500000Y-143650000D03*
X112775000Y-165650000D03*
X126300000Y-102900000D03*
X106100000Y-103149999D03*
X124200000Y-99400000D03*
X107425000Y-139124999D03*
X106100000Y-156899999D03*
X126175000Y-99400000D03*
X134500000Y-105150000D03*
X134500000Y-160150001D03*
X106100000Y-109149999D03*
X134550000Y-165600000D03*
X119700000Y-103675000D03*
X125550000Y-165625000D03*
X106100000Y-114150000D03*
X107425000Y-141124999D03*
X129550000Y-165600000D03*
X113050000Y-109925000D03*
X106100000Y-147900000D03*
X111300000Y-165150000D03*
X107300000Y-165150000D03*
X106100000Y-152900000D03*
X134500000Y-138650000D03*
X134500000Y-131150001D03*
X134500000Y-114150000D03*
X106424999Y-99399999D03*
X118650000Y-150625000D03*
X132550000Y-165600000D03*
X122100000Y-150475000D03*
X121900000Y-110588909D03*
X116075000Y-136475000D03*
X116675000Y-158025000D03*
X106100000Y-100149999D03*
X119250000Y-100950000D03*
X107925000Y-136150000D03*
X134500000Y-161150000D03*
X115675000Y-101525000D03*
X129675000Y-98850000D03*
X116925000Y-100150000D03*
X110925000Y-98900000D03*
X121175000Y-99400000D03*
X116300000Y-165150000D03*
X115299780Y-165148097D03*
X106100000Y-151899999D03*
X134500000Y-141650001D03*
X110300000Y-165150000D03*
X116550000Y-103025000D03*
X106100000Y-112149999D03*
X117325000Y-104025000D03*
X116675000Y-98875000D03*
X106512500Y-127300000D03*
X134500000Y-125150001D03*
X120200000Y-162625000D03*
X122550000Y-165625000D03*
X122000000Y-165125000D03*
X114800000Y-98875000D03*
X124675000Y-104400000D03*
X107425000Y-142125000D03*
X119950000Y-157225000D03*
X125050000Y-108025000D03*
X127175000Y-102525000D03*
X124237500Y-143837500D03*
X106100000Y-157900000D03*
X128550000Y-165600000D03*
X120200000Y-99400000D03*
X134500000Y-127150000D03*
X132225000Y-122150000D03*
X106100000Y-161899999D03*
X126300000Y-100900000D03*
X134500000Y-104150001D03*
X134500000Y-120150000D03*
X106925000Y-98900000D03*
X131550000Y-165600000D03*
X118675000Y-98875000D03*
X106100000Y-121149999D03*
X106100000Y-102149999D03*
X108925000Y-98900000D03*
X114200000Y-155175000D03*
X129050000Y-165150000D03*
X126300000Y-100150000D03*
X116350000Y-163450000D03*
X127175000Y-99400000D03*
X113800000Y-165650000D03*
X110325000Y-139300000D03*
X123575000Y-165625000D03*
X134500000Y-113150000D03*
X107425000Y-138125000D03*
X120200000Y-163450000D03*
X111425000Y-99400000D03*
X106100000Y-163900000D03*
X116275000Y-162675000D03*
X121900000Y-112875000D03*
X114800000Y-165650000D03*
X106100000Y-119149999D03*
X132175000Y-99400000D03*
X126300000Y-103675000D03*
X122250000Y-159075000D03*
X124237500Y-146900000D03*
X108800000Y-120775000D03*
X122100000Y-154075000D03*
X127175000Y-101275000D03*
X106100000Y-118150000D03*
X106100000Y-108149999D03*
X133050000Y-165150000D03*
X119175000Y-99400000D03*
X108000000Y-155150000D03*
X106950000Y-100025000D03*
X128050000Y-165150000D03*
X134500000Y-142650000D03*
X134500000Y-112150000D03*
X120675000Y-98875000D03*
X121025000Y-102775000D03*
X130675000Y-98850000D03*
X114925000Y-99900000D03*
X133250000Y-154887501D03*
X134500000Y-163150000D03*
X109300000Y-165150000D03*
X117675000Y-165650000D03*
X128675000Y-98850000D03*
X111125000Y-148900000D03*
X131175000Y-99400000D03*
X134500000Y-132150001D03*
X126550000Y-165625000D03*
X110225000Y-112375000D03*
X116150000Y-102275000D03*
X109925000Y-98900000D03*
X114200000Y-145375000D03*
X110800000Y-165650000D03*
X116300000Y-161850000D03*
X134500000Y-106150000D03*
X106100000Y-146899999D03*
X106100000Y-153900000D03*
X106100000Y-162900000D03*
X134500000Y-109150001D03*
X134500000Y-115150000D03*
X127050000Y-147175000D03*
X111925000Y-98900000D03*
X107425000Y-99425000D03*
X124675000Y-98875000D03*
X134500000Y-157150000D03*
X131675000Y-98850000D03*
X127300000Y-108025000D03*
X107800000Y-165650000D03*
X118350000Y-100775000D03*
X118550000Y-165650000D03*
X115150000Y-100775000D03*
X124237500Y-145400000D03*
X124075000Y-165150000D03*
X116950000Y-157250000D03*
X120175000Y-159925000D03*
X113300000Y-165150000D03*
X120175000Y-158925000D03*
X125675000Y-98875000D03*
X106100000Y-158900000D03*
X126850000Y-159075000D03*
X122050000Y-100950000D03*
X126106250Y-127243748D03*
X106100000Y-154899999D03*
X123075000Y-165150000D03*
X106575000Y-133775000D03*
X117525000Y-145375000D03*
X119075000Y-117825000D03*
X106100000Y-115149999D03*
X134500000Y-111150001D03*
X134500000Y-164150000D03*
X127825000Y-154125000D03*
X117925000Y-103525000D03*
X134500000Y-110150001D03*
X115900000Y-117825000D03*
X133550000Y-164525000D03*
X121425000Y-165625000D03*
X134500000Y-144650000D03*
X119675000Y-158000000D03*
X134500000Y-122150000D03*
X120925000Y-137900000D03*
X112425000Y-99400000D03*
X134500000Y-103150001D03*
X116325000Y-160025000D03*
X134500000Y-126150000D03*
X134500000Y-119150000D03*
X122050000Y-102775000D03*
X126675000Y-98875000D03*
X130050000Y-165150000D03*
X109025000Y-146650000D03*
X106100000Y-144899999D03*
X134500000Y-147650001D03*
X109425000Y-99400000D03*
X116325000Y-159025000D03*
X134500000Y-148650001D03*
X106575000Y-136025000D03*
X106512500Y-128825000D03*
X108425000Y-99400000D03*
X127550000Y-165625000D03*
X107925000Y-98900000D03*
X106100000Y-143900000D03*
X127675000Y-98875000D03*
X114300000Y-165150000D03*
X130150000Y-154887501D03*
X120925000Y-129150000D03*
X125675000Y-104400000D03*
X117325000Y-103025000D03*
X106100000Y-101149999D03*
X117175000Y-99400000D03*
X123050000Y-100150000D03*
X114200000Y-153600000D03*
X134500000Y-159150001D03*
X118696922Y-110588909D03*
X120175000Y-161800000D03*
X134500000Y-102150001D03*
X107425000Y-140124999D03*
X120175000Y-160850000D03*
X117225000Y-165100000D03*
X118700000Y-112875000D03*
X126050000Y-165150000D03*
X134500000Y-130150001D03*
X117450000Y-156550000D03*
X106800000Y-165650000D03*
X106100000Y-104149999D03*
X106100000Y-150899999D03*
X106100000Y-107149999D03*
X106575000Y-134875001D03*
X112300000Y-165150000D03*
X106100000Y-148900000D03*
X106100000Y-122150000D03*
X128175000Y-99400000D03*
X116550000Y-164250000D03*
X122175000Y-99400000D03*
X106512500Y-130400000D03*
X134500000Y-121150000D03*
X120050000Y-100950000D03*
X134500000Y-140650001D03*
X106100000Y-149899999D03*
X106575000Y-132000000D03*
X120925000Y-130400000D03*
X106100000Y-113149999D03*
X134500000Y-107150000D03*
X134500000Y-117150001D03*
X106100000Y-111149999D03*
X134500000Y-162150000D03*
X106100000Y-117149999D03*
X123175000Y-99400000D03*
X120925000Y-136650000D03*
X134500000Y-146650001D03*
X115800000Y-107525000D03*
X121537500Y-143837500D03*
X121675000Y-98875000D03*
X130550000Y-165600000D03*
X106100000Y-155899999D03*
X134500000Y-129150000D03*
X134500000Y-123150001D03*
X109800000Y-165650000D03*
X115800000Y-165650000D03*
X134500000Y-108150000D03*
X134500000Y-124150001D03*
X124550000Y-165625000D03*
X106100000Y-159899999D03*
X124550000Y-158525000D03*
X107925000Y-133650000D03*
X134500000Y-139650001D03*
X130175000Y-99400000D03*
X120925000Y-132900000D03*
X113650000Y-151225000D03*
X108800000Y-122250000D03*
X111800000Y-165650000D03*
X106100000Y-116149999D03*
X115800000Y-112800000D03*
X106800000Y-164525000D03*
X133700000Y-98850000D03*
X134500000Y-100150000D03*
X134500000Y-133150000D03*
X120350000Y-164275000D03*
X112550000Y-108225000D03*
X116800000Y-165650000D03*
X108800000Y-165650000D03*
%TO.N,+3V3*%
X127450000Y-137450000D03*
X117547229Y-114025000D03*
X127600000Y-158075000D03*
X127450000Y-138450000D03*
X128925000Y-137975000D03*
X106574999Y-141775000D03*
X106575000Y-139525000D03*
X121500000Y-158075000D03*
X128450000Y-138450000D03*
X106575000Y-140675000D03*
X110325000Y-134600000D03*
X127950000Y-137950000D03*
X115150000Y-109850000D03*
X128450000Y-137450000D03*
X123025000Y-158075000D03*
X117450000Y-116275000D03*
X112537500Y-136912500D03*
X126825000Y-150250000D03*
X119850000Y-146375000D03*
X115900000Y-116275000D03*
X130875000Y-146225000D03*
X111900000Y-124975000D03*
X117525000Y-146925000D03*
X120450000Y-104675000D03*
X126825000Y-154900000D03*
X117875000Y-106775000D03*
X127950000Y-136950000D03*
X129475000Y-138450000D03*
X126275000Y-146175000D03*
X126075000Y-158075000D03*
X118425000Y-119475000D03*
X115925000Y-155175000D03*
%TO.N,/NRST*%
X108725000Y-134875000D03*
%TO.N,/UWB/UWB_VDDLDOA*%
X130100000Y-147175000D03*
X126825000Y-153350000D03*
%TO.N,/UWB/UWB_VCOTUNE*%
X117350000Y-154900000D03*
X112125000Y-154375000D03*
%TO.N,/UWB/UWB_VDDCLK*%
X116175000Y-153500000D03*
X109800000Y-150450000D03*
%TO.N,/STATUS*%
X106525000Y-125500000D03*
X125300000Y-110025000D03*
%TO.N,Net-(U1-B3)*%
X123250000Y-113900000D03*
X124054940Y-115779941D03*
%TO.N,/BOOT0*%
X111973591Y-115723591D03*
X124536091Y-110038909D03*
X108725000Y-140674999D03*
%TO.N,/UWB_IRQ*%
X118913909Y-148311091D03*
X118900000Y-144375000D03*
X122575000Y-116275001D03*
%TO.N,/UWB_SYNC*%
X121050000Y-146656580D03*
X123487500Y-147550000D03*
X122126232Y-115160503D03*
X125169973Y-151905027D03*
%TO.N,/HSE_OUT*%
X117450000Y-108425000D03*
X114800000Y-108225000D03*
%TO.N,/UWB_NSS*%
X123050000Y-155025000D03*
X125300000Y-110775000D03*
%TO.N,/UWB_TXE_SPIPOL*%
X125425000Y-149700000D03*
X124050000Y-108525000D03*
%TO.N,/UWB_SCK*%
X122387500Y-139316916D03*
X125299611Y-111625000D03*
X121049999Y-148156585D03*
%TO.N,/UWB_NRST*%
X124800000Y-153275000D03*
X121050000Y-107150000D03*
%TO.N,/UWB_MOSI*%
X120162500Y-139166672D03*
X124905801Y-112285023D03*
X122025000Y-147425000D03*
%TO.N,/UWB_MISO*%
X124549608Y-111625000D03*
X120146659Y-138416837D03*
X121050000Y-147406583D03*
%TO.N,/UWB_RXE_SPIPHA*%
X123425000Y-107900000D03*
X125425001Y-151155025D03*
%TO.N,/UWB_WKUP*%
X123950000Y-155525000D03*
X121050000Y-106275000D03*
%TO.N,/UWB_FORCE_ON*%
X120176409Y-106276409D03*
X124715683Y-155495188D03*
%TO.N,/UWB/UWB_EXTON*%
X125300000Y-155025000D03*
X129250000Y-144974998D03*
%TD*%
%TA.AperFunction,Conductor*%
%TO.N,GND*%
G36*
X134842539Y-98544685D02*
G01*
X134888294Y-98597489D01*
X134899500Y-98649000D01*
X134899500Y-165901000D01*
X134879815Y-165968039D01*
X134827011Y-166013794D01*
X134775500Y-166025000D01*
X105824500Y-166025000D01*
X105757461Y-166005315D01*
X105711706Y-165952511D01*
X105700500Y-165901000D01*
X105700500Y-158075000D01*
X121044867Y-158075000D01*
X121063302Y-158203225D01*
X121117117Y-158321061D01*
X121117118Y-158321063D01*
X121201951Y-158418967D01*
X121310931Y-158489004D01*
X121435225Y-158525499D01*
X121435227Y-158525500D01*
X121435228Y-158525500D01*
X121564773Y-158525500D01*
X121564773Y-158525499D01*
X121689069Y-158489004D01*
X121798049Y-158418967D01*
X121882882Y-158321063D01*
X121936697Y-158203226D01*
X121955133Y-158075000D01*
X122569867Y-158075000D01*
X122588302Y-158203225D01*
X122642117Y-158321061D01*
X122642118Y-158321063D01*
X122726951Y-158418967D01*
X122835931Y-158489004D01*
X122960225Y-158525499D01*
X122960227Y-158525500D01*
X122960228Y-158525500D01*
X123089773Y-158525500D01*
X123089773Y-158525499D01*
X123214069Y-158489004D01*
X123323049Y-158418967D01*
X123407882Y-158321063D01*
X123461697Y-158203226D01*
X123480133Y-158075000D01*
X125619867Y-158075000D01*
X125638302Y-158203225D01*
X125692117Y-158321061D01*
X125692118Y-158321063D01*
X125776951Y-158418967D01*
X125885931Y-158489004D01*
X126010225Y-158525499D01*
X126010227Y-158525500D01*
X126010228Y-158525500D01*
X126139773Y-158525500D01*
X126139773Y-158525499D01*
X126264069Y-158489004D01*
X126373049Y-158418967D01*
X126457882Y-158321063D01*
X126511697Y-158203226D01*
X126530133Y-158075000D01*
X127144867Y-158075000D01*
X127163302Y-158203225D01*
X127217117Y-158321061D01*
X127217118Y-158321063D01*
X127301951Y-158418967D01*
X127410931Y-158489004D01*
X127535225Y-158525499D01*
X127535227Y-158525500D01*
X127535228Y-158525500D01*
X127664773Y-158525500D01*
X127664773Y-158525499D01*
X127789069Y-158489004D01*
X127898049Y-158418967D01*
X127982882Y-158321063D01*
X128036697Y-158203226D01*
X128055133Y-158075000D01*
X128036697Y-157946774D01*
X127982882Y-157828937D01*
X127898049Y-157731033D01*
X127789069Y-157660996D01*
X127789065Y-157660994D01*
X127789064Y-157660994D01*
X127664774Y-157624500D01*
X127664772Y-157624500D01*
X127535228Y-157624500D01*
X127535226Y-157624500D01*
X127410935Y-157660994D01*
X127410932Y-157660995D01*
X127410931Y-157660996D01*
X127359677Y-157693934D01*
X127301950Y-157731033D01*
X127217118Y-157828937D01*
X127217117Y-157828938D01*
X127163302Y-157946774D01*
X127144867Y-158075000D01*
X126530133Y-158075000D01*
X126511697Y-157946774D01*
X126457882Y-157828937D01*
X126373049Y-157731033D01*
X126264069Y-157660996D01*
X126264065Y-157660994D01*
X126264064Y-157660994D01*
X126139774Y-157624500D01*
X126139772Y-157624500D01*
X126010228Y-157624500D01*
X126010226Y-157624500D01*
X125885935Y-157660994D01*
X125885932Y-157660995D01*
X125885931Y-157660996D01*
X125834677Y-157693934D01*
X125776950Y-157731033D01*
X125692118Y-157828937D01*
X125692117Y-157828938D01*
X125638302Y-157946774D01*
X125619867Y-158075000D01*
X123480133Y-158075000D01*
X123461697Y-157946774D01*
X123407882Y-157828937D01*
X123323049Y-157731033D01*
X123214069Y-157660996D01*
X123214065Y-157660994D01*
X123214064Y-157660994D01*
X123089774Y-157624500D01*
X123089772Y-157624500D01*
X122960228Y-157624500D01*
X122960226Y-157624500D01*
X122835935Y-157660994D01*
X122835932Y-157660995D01*
X122835931Y-157660996D01*
X122784677Y-157693934D01*
X122726950Y-157731033D01*
X122642118Y-157828937D01*
X122642117Y-157828938D01*
X122588302Y-157946774D01*
X122569867Y-158075000D01*
X121955133Y-158075000D01*
X121936697Y-157946774D01*
X121882882Y-157828937D01*
X121798049Y-157731033D01*
X121689069Y-157660996D01*
X121689065Y-157660994D01*
X121689064Y-157660994D01*
X121564774Y-157624500D01*
X121564772Y-157624500D01*
X121435228Y-157624500D01*
X121435226Y-157624500D01*
X121310935Y-157660994D01*
X121310932Y-157660995D01*
X121310931Y-157660996D01*
X121259677Y-157693934D01*
X121201950Y-157731033D01*
X121117118Y-157828937D01*
X121117117Y-157828938D01*
X121063302Y-157946774D01*
X121044867Y-158075000D01*
X105700500Y-158075000D01*
X105700500Y-155175000D01*
X115469867Y-155175000D01*
X115488302Y-155303225D01*
X115530634Y-155395917D01*
X115542118Y-155421063D01*
X115626951Y-155518967D01*
X115735931Y-155589004D01*
X115853124Y-155623414D01*
X115860225Y-155625499D01*
X115860227Y-155625500D01*
X115860228Y-155625500D01*
X115989773Y-155625500D01*
X115989773Y-155625499D01*
X116114069Y-155589004D01*
X116223049Y-155518967D01*
X116307882Y-155421063D01*
X116361697Y-155303226D01*
X116380133Y-155175000D01*
X116361697Y-155046774D01*
X116307882Y-154928937D01*
X116282808Y-154900000D01*
X116894867Y-154900000D01*
X116913302Y-155028225D01*
X116951102Y-155110993D01*
X116967118Y-155146063D01*
X117051951Y-155243967D01*
X117160931Y-155314004D01*
X117285225Y-155350499D01*
X117285227Y-155350500D01*
X117285228Y-155350500D01*
X117414773Y-155350500D01*
X117414773Y-155350499D01*
X117539069Y-155314004D01*
X117648049Y-155243967D01*
X117732882Y-155146063D01*
X117786697Y-155028226D01*
X117787161Y-155025000D01*
X122594867Y-155025000D01*
X122613302Y-155153225D01*
X122657099Y-155249125D01*
X122667118Y-155271063D01*
X122751951Y-155368967D01*
X122860931Y-155439004D01*
X122985225Y-155475499D01*
X122985227Y-155475500D01*
X122985228Y-155475500D01*
X123114773Y-155475500D01*
X123114773Y-155475499D01*
X123239069Y-155439004D01*
X123306115Y-155395915D01*
X123373151Y-155376232D01*
X123440191Y-155395916D01*
X123485946Y-155448720D01*
X123495891Y-155517872D01*
X123494867Y-155524996D01*
X123494867Y-155524999D01*
X123513302Y-155653225D01*
X123553503Y-155741251D01*
X123567118Y-155771063D01*
X123651951Y-155868967D01*
X123760931Y-155939004D01*
X123885225Y-155975499D01*
X123885227Y-155975500D01*
X123885228Y-155975500D01*
X124014773Y-155975500D01*
X124014773Y-155975499D01*
X124139069Y-155939004D01*
X124248049Y-155868967D01*
X124254934Y-155861020D01*
X124313710Y-155823244D01*
X124383580Y-155823241D01*
X124415689Y-155837905D01*
X124526614Y-155909192D01*
X124526616Y-155909193D01*
X124650908Y-155945687D01*
X124650910Y-155945688D01*
X124650911Y-155945688D01*
X124780456Y-155945688D01*
X124780456Y-155945687D01*
X124904752Y-155909192D01*
X125013732Y-155839155D01*
X125098565Y-155741251D01*
X125152380Y-155623414D01*
X125157327Y-155589005D01*
X125158356Y-155581852D01*
X125187382Y-155518297D01*
X125246160Y-155480523D01*
X125281094Y-155475500D01*
X125364773Y-155475500D01*
X125364773Y-155475499D01*
X125489069Y-155439004D01*
X125598049Y-155368967D01*
X125682882Y-155271063D01*
X125736697Y-155153226D01*
X125755133Y-155025000D01*
X125737161Y-154900000D01*
X126369867Y-154900000D01*
X126388302Y-155028225D01*
X126426102Y-155110993D01*
X126442118Y-155146063D01*
X126526951Y-155243967D01*
X126635931Y-155314004D01*
X126760225Y-155350499D01*
X126760227Y-155350500D01*
X126760228Y-155350500D01*
X126889773Y-155350500D01*
X126889773Y-155350499D01*
X127014069Y-155314004D01*
X127123049Y-155243967D01*
X127207882Y-155146063D01*
X127261697Y-155028226D01*
X127280133Y-154900000D01*
X127261697Y-154771774D01*
X127207882Y-154653937D01*
X127123049Y-154556033D01*
X127014069Y-154485996D01*
X127014065Y-154485994D01*
X127014064Y-154485994D01*
X126889774Y-154449500D01*
X126889772Y-154449500D01*
X126760228Y-154449500D01*
X126760226Y-154449500D01*
X126635935Y-154485994D01*
X126635932Y-154485995D01*
X126635931Y-154485996D01*
X126609121Y-154503226D01*
X126526950Y-154556033D01*
X126442118Y-154653937D01*
X126442117Y-154653938D01*
X126388302Y-154771774D01*
X126369867Y-154900000D01*
X125737161Y-154900000D01*
X125736697Y-154896774D01*
X125682882Y-154778937D01*
X125598049Y-154681033D01*
X125489069Y-154610996D01*
X125489065Y-154610994D01*
X125489064Y-154610994D01*
X125364774Y-154574500D01*
X125364772Y-154574500D01*
X125235228Y-154574500D01*
X125235226Y-154574500D01*
X125110935Y-154610994D01*
X125110932Y-154610995D01*
X125110931Y-154610996D01*
X125059677Y-154643934D01*
X125001950Y-154681033D01*
X124917118Y-154778937D01*
X124917117Y-154778938D01*
X124863302Y-154896774D01*
X124857327Y-154938336D01*
X124828301Y-155001891D01*
X124769523Y-155039665D01*
X124734589Y-155044688D01*
X124650909Y-155044688D01*
X124526618Y-155081182D01*
X124526615Y-155081183D01*
X124526614Y-155081184D01*
X124495349Y-155101277D01*
X124417631Y-155151222D01*
X124410742Y-155159173D01*
X124351963Y-155196945D01*
X124282093Y-155196943D01*
X124249993Y-155182283D01*
X124248050Y-155181034D01*
X124248049Y-155181033D01*
X124139069Y-155110996D01*
X124139068Y-155110995D01*
X124139064Y-155110993D01*
X124014774Y-155074500D01*
X124014772Y-155074500D01*
X123885228Y-155074500D01*
X123885226Y-155074500D01*
X123760933Y-155110994D01*
X123760932Y-155110994D01*
X123693885Y-155154083D01*
X123626846Y-155173767D01*
X123559806Y-155154082D01*
X123514052Y-155101277D01*
X123504109Y-155032119D01*
X123505133Y-155025000D01*
X123486697Y-154896774D01*
X123432882Y-154778937D01*
X123348049Y-154681033D01*
X123239069Y-154610996D01*
X123239065Y-154610994D01*
X123239064Y-154610994D01*
X123114774Y-154574500D01*
X123114772Y-154574500D01*
X122985228Y-154574500D01*
X122985226Y-154574500D01*
X122860935Y-154610994D01*
X122860932Y-154610995D01*
X122860931Y-154610996D01*
X122809677Y-154643934D01*
X122751950Y-154681033D01*
X122667118Y-154778937D01*
X122667117Y-154778938D01*
X122613302Y-154896774D01*
X122594867Y-155025000D01*
X117787161Y-155025000D01*
X117805133Y-154900000D01*
X117786697Y-154771774D01*
X117732882Y-154653937D01*
X117648049Y-154556033D01*
X117539069Y-154485996D01*
X117539065Y-154485994D01*
X117539064Y-154485994D01*
X117414774Y-154449500D01*
X117414772Y-154449500D01*
X117285228Y-154449500D01*
X117285226Y-154449500D01*
X117160935Y-154485994D01*
X117160932Y-154485995D01*
X117160931Y-154485996D01*
X117134121Y-154503226D01*
X117051950Y-154556033D01*
X116967118Y-154653937D01*
X116967117Y-154653938D01*
X116913302Y-154771774D01*
X116894867Y-154900000D01*
X116282808Y-154900000D01*
X116223049Y-154831033D01*
X116114069Y-154760996D01*
X116114065Y-154760994D01*
X116114064Y-154760994D01*
X115989774Y-154724500D01*
X115989772Y-154724500D01*
X115860228Y-154724500D01*
X115860226Y-154724500D01*
X115735935Y-154760994D01*
X115735932Y-154760995D01*
X115735931Y-154760996D01*
X115708013Y-154778938D01*
X115626950Y-154831033D01*
X115542118Y-154928937D01*
X115542117Y-154928938D01*
X115488302Y-155046774D01*
X115469867Y-155175000D01*
X105700500Y-155175000D01*
X105700500Y-154375000D01*
X111669867Y-154375000D01*
X111688302Y-154503225D01*
X111742117Y-154621061D01*
X111742118Y-154621063D01*
X111826951Y-154718967D01*
X111935931Y-154789004D01*
X112060225Y-154825499D01*
X112060227Y-154825500D01*
X112060228Y-154825500D01*
X112189773Y-154825500D01*
X112189773Y-154825499D01*
X112314069Y-154789004D01*
X112423049Y-154718967D01*
X112507882Y-154621063D01*
X112561697Y-154503226D01*
X112580133Y-154375000D01*
X112561697Y-154246774D01*
X112507882Y-154128937D01*
X112423049Y-154031033D01*
X112314069Y-153960996D01*
X112314065Y-153960994D01*
X112314064Y-153960994D01*
X112189774Y-153924500D01*
X112189772Y-153924500D01*
X112060228Y-153924500D01*
X112060226Y-153924500D01*
X111935935Y-153960994D01*
X111935932Y-153960995D01*
X111935931Y-153960996D01*
X111884677Y-153993934D01*
X111826950Y-154031033D01*
X111742118Y-154128937D01*
X111742117Y-154128938D01*
X111688302Y-154246774D01*
X111669867Y-154375000D01*
X105700500Y-154375000D01*
X105700500Y-153500000D01*
X115719867Y-153500000D01*
X115738302Y-153628225D01*
X115782727Y-153725500D01*
X115792118Y-153746063D01*
X115876951Y-153843967D01*
X115985931Y-153914004D01*
X116110225Y-153950499D01*
X116110227Y-153950500D01*
X116110228Y-153950500D01*
X116239773Y-153950500D01*
X116239773Y-153950499D01*
X116364069Y-153914004D01*
X116473049Y-153843967D01*
X116557882Y-153746063D01*
X116611697Y-153628226D01*
X116630133Y-153500000D01*
X116611697Y-153371774D01*
X116567501Y-153275000D01*
X124344867Y-153275000D01*
X124363302Y-153403225D01*
X124397554Y-153478225D01*
X124417118Y-153521063D01*
X124501951Y-153618967D01*
X124610931Y-153689004D01*
X124627834Y-153693967D01*
X124735225Y-153725499D01*
X124735227Y-153725500D01*
X124735228Y-153725500D01*
X124864773Y-153725500D01*
X124864773Y-153725499D01*
X124989069Y-153689004D01*
X125098049Y-153618967D01*
X125182882Y-153521063D01*
X125236697Y-153403226D01*
X125244350Y-153350000D01*
X126369867Y-153350000D01*
X126388302Y-153478225D01*
X126407866Y-153521063D01*
X126442118Y-153596063D01*
X126526951Y-153693967D01*
X126635931Y-153764004D01*
X126760225Y-153800499D01*
X126760227Y-153800500D01*
X126760228Y-153800500D01*
X126889773Y-153800500D01*
X126889773Y-153800499D01*
X127014069Y-153764004D01*
X127123049Y-153693967D01*
X127207882Y-153596063D01*
X127261697Y-153478226D01*
X127280133Y-153350000D01*
X127261697Y-153221774D01*
X127207882Y-153103937D01*
X127123049Y-153006033D01*
X127014069Y-152935996D01*
X127014065Y-152935994D01*
X127014064Y-152935994D01*
X126889774Y-152899500D01*
X126889772Y-152899500D01*
X126760228Y-152899500D01*
X126760226Y-152899500D01*
X126635935Y-152935994D01*
X126635932Y-152935995D01*
X126635931Y-152935996D01*
X126584677Y-152968934D01*
X126526950Y-153006033D01*
X126442118Y-153103937D01*
X126442117Y-153103938D01*
X126388302Y-153221774D01*
X126369867Y-153350000D01*
X125244350Y-153350000D01*
X125255133Y-153275000D01*
X125236697Y-153146774D01*
X125182882Y-153028937D01*
X125098049Y-152931033D01*
X124989069Y-152860996D01*
X124989065Y-152860994D01*
X124989064Y-152860994D01*
X124864774Y-152824500D01*
X124864772Y-152824500D01*
X124735228Y-152824500D01*
X124735226Y-152824500D01*
X124610935Y-152860994D01*
X124610932Y-152860995D01*
X124610931Y-152860996D01*
X124559677Y-152893934D01*
X124501950Y-152931033D01*
X124417118Y-153028937D01*
X124417117Y-153028938D01*
X124363302Y-153146774D01*
X124344867Y-153275000D01*
X116567501Y-153275000D01*
X116557882Y-153253937D01*
X116473049Y-153156033D01*
X116364069Y-153085996D01*
X116364065Y-153085994D01*
X116364064Y-153085994D01*
X116239774Y-153049500D01*
X116239772Y-153049500D01*
X116110228Y-153049500D01*
X116110226Y-153049500D01*
X115985935Y-153085994D01*
X115985932Y-153085995D01*
X115985931Y-153085996D01*
X115958013Y-153103938D01*
X115876950Y-153156033D01*
X115792118Y-153253937D01*
X115792117Y-153253938D01*
X115738302Y-153371774D01*
X115719867Y-153500000D01*
X105700500Y-153500000D01*
X105700500Y-151905027D01*
X124714840Y-151905027D01*
X124733275Y-152033252D01*
X124787090Y-152151088D01*
X124787091Y-152151090D01*
X124871924Y-152248994D01*
X124980904Y-152319031D01*
X125105198Y-152355526D01*
X125105200Y-152355527D01*
X125105201Y-152355527D01*
X125234746Y-152355527D01*
X125234746Y-152355526D01*
X125359042Y-152319031D01*
X125468022Y-152248994D01*
X125552855Y-152151090D01*
X125606670Y-152033253D01*
X125625106Y-151905027D01*
X125606670Y-151776801D01*
X125579626Y-151717585D01*
X125569683Y-151648427D01*
X125598708Y-151584872D01*
X125625376Y-151561762D01*
X125723050Y-151498992D01*
X125807883Y-151401088D01*
X125861698Y-151283251D01*
X125880134Y-151155025D01*
X125861698Y-151026799D01*
X125807883Y-150908962D01*
X125723050Y-150811058D01*
X125614070Y-150741021D01*
X125614066Y-150741019D01*
X125614065Y-150741019D01*
X125489775Y-150704525D01*
X125489773Y-150704525D01*
X125360229Y-150704525D01*
X125360227Y-150704525D01*
X125235936Y-150741019D01*
X125235933Y-150741020D01*
X125235932Y-150741021D01*
X125184678Y-150773959D01*
X125126951Y-150811058D01*
X125042119Y-150908962D01*
X125042118Y-150908963D01*
X124988303Y-151026799D01*
X124969868Y-151155025D01*
X124988303Y-151283251D01*
X124988304Y-151283252D01*
X125015346Y-151342466D01*
X125025290Y-151411624D01*
X124996265Y-151475180D01*
X124969592Y-151498292D01*
X124871924Y-151561059D01*
X124787091Y-151658964D01*
X124787090Y-151658965D01*
X124733275Y-151776801D01*
X124714840Y-151905027D01*
X105700500Y-151905027D01*
X105700500Y-150450000D01*
X109344867Y-150450000D01*
X109363302Y-150578225D01*
X109402477Y-150664004D01*
X109417118Y-150696063D01*
X109501951Y-150793967D01*
X109610931Y-150864004D01*
X109735225Y-150900499D01*
X109735227Y-150900500D01*
X109735228Y-150900500D01*
X109864773Y-150900500D01*
X109864773Y-150900499D01*
X109989069Y-150864004D01*
X110098049Y-150793967D01*
X110182882Y-150696063D01*
X110236697Y-150578226D01*
X110255133Y-150450000D01*
X110236697Y-150321774D01*
X110203919Y-150250000D01*
X126369867Y-150250000D01*
X126388302Y-150378225D01*
X126421081Y-150450000D01*
X126442118Y-150496063D01*
X126526951Y-150593967D01*
X126635931Y-150664004D01*
X126745117Y-150696063D01*
X126760225Y-150700499D01*
X126760227Y-150700500D01*
X126760228Y-150700500D01*
X126889773Y-150700500D01*
X126889773Y-150700499D01*
X127014069Y-150664004D01*
X127123049Y-150593967D01*
X127207882Y-150496063D01*
X127261697Y-150378226D01*
X127280133Y-150250000D01*
X127261697Y-150121774D01*
X127207882Y-150003937D01*
X127123049Y-149906033D01*
X127014069Y-149835996D01*
X127014065Y-149835994D01*
X127014064Y-149835994D01*
X126889774Y-149799500D01*
X126889772Y-149799500D01*
X126760228Y-149799500D01*
X126760226Y-149799500D01*
X126635935Y-149835994D01*
X126635932Y-149835995D01*
X126635931Y-149835996D01*
X126584677Y-149868934D01*
X126526950Y-149906033D01*
X126442118Y-150003937D01*
X126442117Y-150003938D01*
X126388302Y-150121774D01*
X126369867Y-150250000D01*
X110203919Y-150250000D01*
X110182882Y-150203937D01*
X110098049Y-150106033D01*
X109989069Y-150035996D01*
X109989065Y-150035994D01*
X109989064Y-150035994D01*
X109864774Y-149999500D01*
X109864772Y-149999500D01*
X109735228Y-149999500D01*
X109735226Y-149999500D01*
X109610935Y-150035994D01*
X109610932Y-150035995D01*
X109610931Y-150035996D01*
X109559677Y-150068934D01*
X109501950Y-150106033D01*
X109417118Y-150203937D01*
X109417117Y-150203938D01*
X109363302Y-150321774D01*
X109344867Y-150450000D01*
X105700500Y-150450000D01*
X105700500Y-149700000D01*
X124969867Y-149700000D01*
X124988302Y-149828225D01*
X125042117Y-149946061D01*
X125042118Y-149946063D01*
X125126951Y-150043967D01*
X125235931Y-150114004D01*
X125262394Y-150121774D01*
X125360225Y-150150499D01*
X125360227Y-150150500D01*
X125360228Y-150150500D01*
X125489773Y-150150500D01*
X125489773Y-150150499D01*
X125614069Y-150114004D01*
X125723049Y-150043967D01*
X125807882Y-149946063D01*
X125861697Y-149828226D01*
X125880133Y-149700000D01*
X125861697Y-149571774D01*
X125807882Y-149453937D01*
X125723049Y-149356033D01*
X125614069Y-149285996D01*
X125614065Y-149285994D01*
X125614064Y-149285994D01*
X125489774Y-149249500D01*
X125489772Y-149249500D01*
X125360228Y-149249500D01*
X125360226Y-149249500D01*
X125235935Y-149285994D01*
X125235932Y-149285995D01*
X125235931Y-149285996D01*
X125184677Y-149318934D01*
X125126950Y-149356033D01*
X125042118Y-149453937D01*
X125042117Y-149453938D01*
X124988302Y-149571774D01*
X124969867Y-149700000D01*
X105700500Y-149700000D01*
X105700500Y-148311091D01*
X118458776Y-148311091D01*
X118477211Y-148439316D01*
X118505177Y-148500551D01*
X118531027Y-148557154D01*
X118615860Y-148655058D01*
X118724840Y-148725095D01*
X118849134Y-148761590D01*
X118849136Y-148761591D01*
X118849137Y-148761591D01*
X118978682Y-148761591D01*
X118978682Y-148761590D01*
X119102978Y-148725095D01*
X119211958Y-148655058D01*
X119296791Y-148557154D01*
X119350606Y-148439317D01*
X119369042Y-148311091D01*
X119350606Y-148182865D01*
X119338604Y-148156585D01*
X120594866Y-148156585D01*
X120613301Y-148284810D01*
X120667116Y-148402646D01*
X120667117Y-148402648D01*
X120751950Y-148500552D01*
X120860930Y-148570589D01*
X120985224Y-148607084D01*
X120985226Y-148607085D01*
X120985227Y-148607085D01*
X121114772Y-148607085D01*
X121114772Y-148607084D01*
X121239068Y-148570589D01*
X121348048Y-148500552D01*
X121432881Y-148402648D01*
X121486696Y-148284811D01*
X121505132Y-148156585D01*
X121486696Y-148028359D01*
X121432881Y-147910522D01*
X121391517Y-147862785D01*
X121362494Y-147799230D01*
X121372438Y-147730072D01*
X121391514Y-147700387D01*
X121432882Y-147652646D01*
X121432883Y-147652643D01*
X121438039Y-147646693D01*
X121496817Y-147608918D01*
X121566687Y-147608918D01*
X121625465Y-147646691D01*
X121636624Y-147664052D01*
X121637324Y-147663603D01*
X121642116Y-147671059D01*
X121642118Y-147671063D01*
X121648325Y-147678226D01*
X121722592Y-147763937D01*
X121726951Y-147768967D01*
X121835931Y-147839004D01*
X121960225Y-147875499D01*
X121960227Y-147875500D01*
X121960228Y-147875500D01*
X122089773Y-147875500D01*
X122089773Y-147875499D01*
X122214069Y-147839004D01*
X122323049Y-147768967D01*
X122407882Y-147671063D01*
X122461697Y-147553226D01*
X122462161Y-147550000D01*
X123032367Y-147550000D01*
X123050802Y-147678225D01*
X123104617Y-147796061D01*
X123104618Y-147796063D01*
X123189451Y-147893967D01*
X123298431Y-147964004D01*
X123422725Y-148000499D01*
X123422727Y-148000500D01*
X123422728Y-148000500D01*
X123552273Y-148000500D01*
X123552273Y-148000499D01*
X123676569Y-147964004D01*
X123785549Y-147893967D01*
X123870382Y-147796063D01*
X123924197Y-147678226D01*
X123942633Y-147550000D01*
X123924197Y-147421774D01*
X123870382Y-147303937D01*
X123785549Y-147206033D01*
X123737261Y-147175000D01*
X129644867Y-147175000D01*
X129663302Y-147303225D01*
X129663628Y-147303938D01*
X129717118Y-147421063D01*
X129801951Y-147518967D01*
X129910931Y-147589004D01*
X129978754Y-147608918D01*
X130035225Y-147625499D01*
X130035227Y-147625500D01*
X130035228Y-147625500D01*
X130164773Y-147625500D01*
X130164773Y-147625499D01*
X130289069Y-147589004D01*
X130398049Y-147518967D01*
X130482882Y-147421063D01*
X130536697Y-147303226D01*
X130555133Y-147175000D01*
X130536697Y-147046774D01*
X130482882Y-146928937D01*
X130398049Y-146831033D01*
X130289069Y-146760996D01*
X130289065Y-146760994D01*
X130289064Y-146760994D01*
X130164774Y-146724500D01*
X130164772Y-146724500D01*
X130035228Y-146724500D01*
X130035226Y-146724500D01*
X129910935Y-146760994D01*
X129910932Y-146760995D01*
X129910931Y-146760996D01*
X129873882Y-146784806D01*
X129801950Y-146831033D01*
X129717118Y-146928937D01*
X129717117Y-146928938D01*
X129663302Y-147046774D01*
X129644867Y-147175000D01*
X123737261Y-147175000D01*
X123676569Y-147135996D01*
X123676565Y-147135994D01*
X123676564Y-147135994D01*
X123552274Y-147099500D01*
X123552272Y-147099500D01*
X123422728Y-147099500D01*
X123422726Y-147099500D01*
X123298435Y-147135994D01*
X123298432Y-147135995D01*
X123298431Y-147135996D01*
X123260279Y-147160515D01*
X123189450Y-147206033D01*
X123104618Y-147303937D01*
X123104617Y-147303938D01*
X123050802Y-147421774D01*
X123032367Y-147550000D01*
X122462161Y-147550000D01*
X122480133Y-147425000D01*
X122461697Y-147296774D01*
X122407882Y-147178937D01*
X122323049Y-147081033D01*
X122214069Y-147010996D01*
X122214065Y-147010994D01*
X122214064Y-147010994D01*
X122089774Y-146974500D01*
X122089772Y-146974500D01*
X121960228Y-146974500D01*
X121960226Y-146974500D01*
X121835935Y-147010994D01*
X121835932Y-147010995D01*
X121835931Y-147010996D01*
X121726951Y-147081033D01*
X121726948Y-147081035D01*
X121636959Y-147184889D01*
X121578181Y-147222664D01*
X121508312Y-147222664D01*
X121449533Y-147184890D01*
X121438376Y-147167529D01*
X121437676Y-147167980D01*
X121432882Y-147160521D01*
X121432882Y-147160520D01*
X121391517Y-147112782D01*
X121362494Y-147049227D01*
X121372438Y-146980069D01*
X121391516Y-146950382D01*
X121432882Y-146902643D01*
X121486697Y-146784806D01*
X121505133Y-146656580D01*
X121486697Y-146528354D01*
X121432882Y-146410517D01*
X121348049Y-146312613D01*
X121239069Y-146242576D01*
X121239065Y-146242574D01*
X121239064Y-146242574D01*
X121114774Y-146206080D01*
X121114772Y-146206080D01*
X120985228Y-146206080D01*
X120985226Y-146206080D01*
X120860935Y-146242574D01*
X120860932Y-146242575D01*
X120860931Y-146242576D01*
X120809677Y-146275514D01*
X120751950Y-146312613D01*
X120667118Y-146410517D01*
X120667117Y-146410518D01*
X120613302Y-146528354D01*
X120594867Y-146656580D01*
X120613302Y-146784805D01*
X120634414Y-146831033D01*
X120667118Y-146902643D01*
X120708480Y-146950378D01*
X120708481Y-146950379D01*
X120737505Y-147013935D01*
X120727561Y-147083093D01*
X120708481Y-147112782D01*
X120667120Y-147160515D01*
X120667117Y-147160521D01*
X120613302Y-147278357D01*
X120594867Y-147406583D01*
X120613302Y-147534808D01*
X120664398Y-147646691D01*
X120667118Y-147652646D01*
X120689282Y-147678225D01*
X120708480Y-147700381D01*
X120737504Y-147763937D01*
X120727560Y-147833096D01*
X120708480Y-147862784D01*
X120667119Y-147910517D01*
X120667116Y-147910523D01*
X120613301Y-148028359D01*
X120594866Y-148156585D01*
X119338604Y-148156585D01*
X119296791Y-148065028D01*
X119211958Y-147967124D01*
X119102978Y-147897087D01*
X119102974Y-147897085D01*
X119102973Y-147897085D01*
X118978683Y-147860591D01*
X118978681Y-147860591D01*
X118849137Y-147860591D01*
X118849135Y-147860591D01*
X118724844Y-147897085D01*
X118724841Y-147897086D01*
X118724840Y-147897087D01*
X118673586Y-147930025D01*
X118615859Y-147967124D01*
X118531027Y-148065028D01*
X118531026Y-148065029D01*
X118477211Y-148182865D01*
X118458776Y-148311091D01*
X105700500Y-148311091D01*
X105700500Y-146925000D01*
X117069867Y-146925000D01*
X117088302Y-147053225D01*
X117140504Y-147167529D01*
X117142118Y-147171063D01*
X117226951Y-147268967D01*
X117335931Y-147339004D01*
X117460225Y-147375499D01*
X117460227Y-147375500D01*
X117460228Y-147375500D01*
X117589773Y-147375500D01*
X117589773Y-147375499D01*
X117714069Y-147339004D01*
X117823049Y-147268967D01*
X117907882Y-147171063D01*
X117961697Y-147053226D01*
X117980133Y-146925000D01*
X117961697Y-146796774D01*
X117907882Y-146678937D01*
X117823049Y-146581033D01*
X117714069Y-146510996D01*
X117714065Y-146510994D01*
X117714064Y-146510994D01*
X117589774Y-146474500D01*
X117589772Y-146474500D01*
X117460228Y-146474500D01*
X117460226Y-146474500D01*
X117335935Y-146510994D01*
X117335932Y-146510995D01*
X117335931Y-146510996D01*
X117284677Y-146543934D01*
X117226950Y-146581033D01*
X117142118Y-146678937D01*
X117142117Y-146678938D01*
X117088302Y-146796774D01*
X117069867Y-146925000D01*
X105700500Y-146925000D01*
X105700500Y-146375000D01*
X119394867Y-146375000D01*
X119413302Y-146503225D01*
X119452477Y-146589004D01*
X119467118Y-146621063D01*
X119551951Y-146718967D01*
X119660931Y-146789004D01*
X119687394Y-146796774D01*
X119785225Y-146825499D01*
X119785227Y-146825500D01*
X119785228Y-146825500D01*
X119914773Y-146825500D01*
X119914773Y-146825499D01*
X120039069Y-146789004D01*
X120148049Y-146718967D01*
X120232882Y-146621063D01*
X120286697Y-146503226D01*
X120305133Y-146375000D01*
X120286697Y-146246774D01*
X120253919Y-146175000D01*
X125819867Y-146175000D01*
X125838302Y-146303225D01*
X125871081Y-146375000D01*
X125892118Y-146421063D01*
X125976951Y-146518967D01*
X126085931Y-146589004D01*
X126195117Y-146621063D01*
X126210225Y-146625499D01*
X126210227Y-146625500D01*
X126210228Y-146625500D01*
X126339773Y-146625500D01*
X126339773Y-146625499D01*
X126464069Y-146589004D01*
X126573049Y-146518967D01*
X126657882Y-146421063D01*
X126711697Y-146303226D01*
X126722944Y-146225000D01*
X130419867Y-146225000D01*
X130438302Y-146353225D01*
X130469283Y-146421062D01*
X130492118Y-146471063D01*
X130576951Y-146568967D01*
X130685931Y-146639004D01*
X130745791Y-146656580D01*
X130810225Y-146675499D01*
X130810227Y-146675500D01*
X130810228Y-146675500D01*
X130939773Y-146675500D01*
X130939773Y-146675499D01*
X131064069Y-146639004D01*
X131173049Y-146568967D01*
X131257882Y-146471063D01*
X131311697Y-146353226D01*
X131330133Y-146225000D01*
X131311697Y-146096774D01*
X131257882Y-145978937D01*
X131173049Y-145881033D01*
X131064069Y-145810996D01*
X131064065Y-145810994D01*
X131064064Y-145810994D01*
X130939774Y-145774500D01*
X130939772Y-145774500D01*
X130810228Y-145774500D01*
X130810226Y-145774500D01*
X130685935Y-145810994D01*
X130685932Y-145810995D01*
X130685931Y-145810996D01*
X130654753Y-145831033D01*
X130576950Y-145881033D01*
X130492118Y-145978937D01*
X130492117Y-145978938D01*
X130438302Y-146096774D01*
X130419867Y-146225000D01*
X126722944Y-146225000D01*
X126730133Y-146175000D01*
X126711697Y-146046774D01*
X126657882Y-145928937D01*
X126573049Y-145831033D01*
X126464069Y-145760996D01*
X126464065Y-145760994D01*
X126464064Y-145760994D01*
X126339774Y-145724500D01*
X126339772Y-145724500D01*
X126210228Y-145724500D01*
X126210226Y-145724500D01*
X126085935Y-145760994D01*
X126085932Y-145760995D01*
X126085931Y-145760996D01*
X126034677Y-145793934D01*
X125976950Y-145831033D01*
X125892118Y-145928937D01*
X125892117Y-145928938D01*
X125838302Y-146046774D01*
X125819867Y-146175000D01*
X120253919Y-146175000D01*
X120232882Y-146128937D01*
X120148049Y-146031033D01*
X120039069Y-145960996D01*
X120039065Y-145960994D01*
X120039064Y-145960994D01*
X119914774Y-145924500D01*
X119914772Y-145924500D01*
X119785228Y-145924500D01*
X119785226Y-145924500D01*
X119660935Y-145960994D01*
X119660932Y-145960995D01*
X119660931Y-145960996D01*
X119633013Y-145978938D01*
X119551950Y-146031033D01*
X119467118Y-146128937D01*
X119467117Y-146128938D01*
X119413302Y-146246774D01*
X119394867Y-146375000D01*
X105700500Y-146375000D01*
X105700500Y-144974998D01*
X128794867Y-144974998D01*
X128813302Y-145103223D01*
X128867117Y-145221059D01*
X128867118Y-145221061D01*
X128951951Y-145318965D01*
X129060931Y-145389002D01*
X129185225Y-145425497D01*
X129185227Y-145425498D01*
X129185228Y-145425498D01*
X129314773Y-145425498D01*
X129314773Y-145425497D01*
X129439069Y-145389002D01*
X129548049Y-145318965D01*
X129632882Y-145221061D01*
X129686697Y-145103224D01*
X129705133Y-144974998D01*
X129686697Y-144846772D01*
X129632882Y-144728935D01*
X129548049Y-144631031D01*
X129439069Y-144560994D01*
X129439065Y-144560992D01*
X129439064Y-144560992D01*
X129314774Y-144524498D01*
X129314772Y-144524498D01*
X129185228Y-144524498D01*
X129185226Y-144524498D01*
X129060935Y-144560992D01*
X129060932Y-144560993D01*
X129060931Y-144560994D01*
X129009677Y-144593932D01*
X128951950Y-144631031D01*
X128867118Y-144728935D01*
X128867117Y-144728936D01*
X128813302Y-144846772D01*
X128794867Y-144974998D01*
X105700500Y-144974998D01*
X105700500Y-144375000D01*
X118444867Y-144375000D01*
X118463302Y-144503225D01*
X118489684Y-144560992D01*
X118517118Y-144621063D01*
X118601951Y-144718967D01*
X118710931Y-144789004D01*
X118835225Y-144825499D01*
X118835227Y-144825500D01*
X118835228Y-144825500D01*
X118964773Y-144825500D01*
X118964773Y-144825499D01*
X119089069Y-144789004D01*
X119198049Y-144718967D01*
X119282882Y-144621063D01*
X119336697Y-144503226D01*
X119355133Y-144375000D01*
X119336697Y-144246774D01*
X119282882Y-144128937D01*
X119198049Y-144031033D01*
X119089069Y-143960996D01*
X119089065Y-143960994D01*
X119089064Y-143960994D01*
X118964774Y-143924500D01*
X118964772Y-143924500D01*
X118835228Y-143924500D01*
X118835226Y-143924500D01*
X118710935Y-143960994D01*
X118710932Y-143960995D01*
X118710931Y-143960996D01*
X118659677Y-143993934D01*
X118601950Y-144031033D01*
X118517118Y-144128937D01*
X118517117Y-144128938D01*
X118463302Y-144246774D01*
X118444867Y-144375000D01*
X105700500Y-144375000D01*
X105700500Y-141775000D01*
X106119866Y-141775000D01*
X106138301Y-141903225D01*
X106192116Y-142021061D01*
X106192117Y-142021063D01*
X106276950Y-142118967D01*
X106385930Y-142189004D01*
X106510224Y-142225499D01*
X106510226Y-142225500D01*
X106510227Y-142225500D01*
X106639772Y-142225500D01*
X106639772Y-142225499D01*
X106764068Y-142189004D01*
X106873048Y-142118967D01*
X106957881Y-142021063D01*
X107011696Y-141903226D01*
X107030132Y-141775000D01*
X107011696Y-141646774D01*
X106957881Y-141528937D01*
X106873048Y-141431033D01*
X106764068Y-141360996D01*
X106764064Y-141360994D01*
X106764063Y-141360994D01*
X106706107Y-141343977D01*
X106647329Y-141306204D01*
X106618303Y-141242648D01*
X106628246Y-141173490D01*
X106674001Y-141120685D01*
X106706105Y-141106023D01*
X106764069Y-141089004D01*
X106873049Y-141018967D01*
X106957882Y-140921063D01*
X107011697Y-140803226D01*
X107030133Y-140675000D01*
X107030133Y-140674999D01*
X108269867Y-140674999D01*
X108288302Y-140803224D01*
X108342117Y-140921060D01*
X108342118Y-140921062D01*
X108426951Y-141018966D01*
X108535931Y-141089003D01*
X108593894Y-141106022D01*
X108660225Y-141125498D01*
X108660227Y-141125499D01*
X108660228Y-141125499D01*
X108789773Y-141125499D01*
X108789773Y-141125498D01*
X108914069Y-141089003D01*
X109023049Y-141018966D01*
X109107882Y-140921062D01*
X109161697Y-140803225D01*
X109180133Y-140674999D01*
X109161697Y-140546773D01*
X109107882Y-140428936D01*
X109082808Y-140399999D01*
X112269571Y-140399999D01*
X112269571Y-140400000D01*
X112289244Y-140612310D01*
X112347596Y-140817392D01*
X112347596Y-140817394D01*
X112442632Y-141008253D01*
X112531173Y-141125499D01*
X112571128Y-141178407D01*
X112728698Y-141322052D01*
X112909981Y-141434298D01*
X113108802Y-141511321D01*
X113318390Y-141550500D01*
X113318392Y-141550500D01*
X113531608Y-141550500D01*
X113531610Y-141550500D01*
X113741198Y-141511321D01*
X113940019Y-141434298D01*
X114121302Y-141322052D01*
X114278872Y-141178407D01*
X114407366Y-141008255D01*
X114502405Y-140817389D01*
X114560756Y-140612310D01*
X114580429Y-140400000D01*
X114580429Y-140399999D01*
X116019571Y-140399999D01*
X116019571Y-140400000D01*
X116039244Y-140612310D01*
X116097596Y-140817392D01*
X116097596Y-140817394D01*
X116192632Y-141008253D01*
X116281173Y-141125499D01*
X116321128Y-141178407D01*
X116478698Y-141322052D01*
X116659981Y-141434298D01*
X116858802Y-141511321D01*
X117068390Y-141550500D01*
X117068392Y-141550500D01*
X117281608Y-141550500D01*
X117281610Y-141550500D01*
X117491198Y-141511321D01*
X117690019Y-141434298D01*
X117871302Y-141322052D01*
X118028872Y-141178407D01*
X118157366Y-141008255D01*
X118252405Y-140817389D01*
X118310756Y-140612310D01*
X118330429Y-140400000D01*
X118310756Y-140187690D01*
X118252405Y-139982611D01*
X118252403Y-139982606D01*
X118252403Y-139982605D01*
X118157367Y-139791746D01*
X118028872Y-139621593D01*
X118013121Y-139607234D01*
X117871302Y-139477948D01*
X117690019Y-139365702D01*
X117690017Y-139365701D01*
X117507251Y-139294898D01*
X117491198Y-139288679D01*
X117281610Y-139249500D01*
X117068390Y-139249500D01*
X116858802Y-139288679D01*
X116858799Y-139288679D01*
X116858799Y-139288680D01*
X116659982Y-139365701D01*
X116659980Y-139365702D01*
X116478699Y-139477947D01*
X116321127Y-139621593D01*
X116192632Y-139791746D01*
X116097596Y-139982605D01*
X116097596Y-139982607D01*
X116039244Y-140187689D01*
X116019571Y-140399999D01*
X114580429Y-140399999D01*
X114560756Y-140187690D01*
X114502405Y-139982611D01*
X114502403Y-139982606D01*
X114502403Y-139982605D01*
X114407367Y-139791746D01*
X114278872Y-139621593D01*
X114263121Y-139607234D01*
X114121302Y-139477948D01*
X113940019Y-139365702D01*
X113940017Y-139365701D01*
X113757251Y-139294898D01*
X113741198Y-139288679D01*
X113531610Y-139249500D01*
X113318390Y-139249500D01*
X113108802Y-139288679D01*
X113108799Y-139288679D01*
X113108799Y-139288680D01*
X112909982Y-139365701D01*
X112909980Y-139365702D01*
X112728699Y-139477947D01*
X112571127Y-139621593D01*
X112442632Y-139791746D01*
X112347596Y-139982605D01*
X112347596Y-139982607D01*
X112289244Y-140187689D01*
X112269571Y-140399999D01*
X109082808Y-140399999D01*
X109023049Y-140331032D01*
X108914069Y-140260995D01*
X108914065Y-140260993D01*
X108914064Y-140260993D01*
X108789774Y-140224499D01*
X108789772Y-140224499D01*
X108660228Y-140224499D01*
X108660226Y-140224499D01*
X108535935Y-140260993D01*
X108535932Y-140260994D01*
X108535931Y-140260995D01*
X108484677Y-140293933D01*
X108426950Y-140331032D01*
X108342118Y-140428936D01*
X108342117Y-140428937D01*
X108288302Y-140546773D01*
X108269867Y-140674999D01*
X107030133Y-140674999D01*
X107011697Y-140546774D01*
X106957882Y-140428937D01*
X106873049Y-140331033D01*
X106764069Y-140260996D01*
X106764065Y-140260994D01*
X106764064Y-140260994D01*
X106639774Y-140224500D01*
X106639772Y-140224500D01*
X106510228Y-140224500D01*
X106510226Y-140224500D01*
X106385935Y-140260994D01*
X106385932Y-140260995D01*
X106385931Y-140260996D01*
X106334677Y-140293934D01*
X106276950Y-140331033D01*
X106192118Y-140428937D01*
X106192117Y-140428938D01*
X106138302Y-140546774D01*
X106119867Y-140675000D01*
X106138302Y-140803225D01*
X106144771Y-140817389D01*
X106192118Y-140921063D01*
X106276951Y-141018967D01*
X106385931Y-141089004D01*
X106443892Y-141106022D01*
X106502668Y-141143795D01*
X106531695Y-141207350D01*
X106521752Y-141276508D01*
X106475998Y-141329313D01*
X106443892Y-141343976D01*
X106385933Y-141360994D01*
X106276949Y-141431033D01*
X106192117Y-141528937D01*
X106192116Y-141528938D01*
X106138301Y-141646774D01*
X106119866Y-141775000D01*
X105700500Y-141775000D01*
X105700500Y-139525000D01*
X106119867Y-139525000D01*
X106138302Y-139653225D01*
X106179323Y-139743046D01*
X106192118Y-139771063D01*
X106276951Y-139868967D01*
X106385931Y-139939004D01*
X106510225Y-139975499D01*
X106510227Y-139975500D01*
X106510228Y-139975500D01*
X106639773Y-139975500D01*
X106639773Y-139975499D01*
X106764069Y-139939004D01*
X106873049Y-139868967D01*
X106957882Y-139771063D01*
X107011697Y-139653226D01*
X107030133Y-139525000D01*
X107011697Y-139396774D01*
X106957882Y-139278937D01*
X106873049Y-139181033D01*
X106764069Y-139110996D01*
X106764065Y-139110994D01*
X106764064Y-139110994D01*
X106639774Y-139074500D01*
X106639772Y-139074500D01*
X106510228Y-139074500D01*
X106510226Y-139074500D01*
X106385935Y-139110994D01*
X106385932Y-139110995D01*
X106385931Y-139110996D01*
X106334677Y-139143934D01*
X106276950Y-139181033D01*
X106192118Y-139278937D01*
X106192117Y-139278938D01*
X106138302Y-139396774D01*
X106119867Y-139525000D01*
X105700500Y-139525000D01*
X105700500Y-138416837D01*
X119691526Y-138416837D01*
X119709961Y-138545062D01*
X119763776Y-138662898D01*
X119763779Y-138662904D01*
X119812987Y-138719693D01*
X119842012Y-138783249D01*
X119832068Y-138852407D01*
X119812988Y-138882096D01*
X119779620Y-138920604D01*
X119779617Y-138920610D01*
X119725802Y-139038446D01*
X119707367Y-139166672D01*
X119725802Y-139294897D01*
X119735858Y-139316916D01*
X119779618Y-139412735D01*
X119864451Y-139510639D01*
X119947494Y-139564007D01*
X119993247Y-139616809D01*
X120003191Y-139685967D01*
X119979408Y-139743046D01*
X119942634Y-139791743D01*
X119847596Y-139982605D01*
X119847596Y-139982607D01*
X119789244Y-140187689D01*
X119769571Y-140399999D01*
X119769571Y-140400000D01*
X119789244Y-140612310D01*
X119847596Y-140817392D01*
X119847596Y-140817394D01*
X119942632Y-141008253D01*
X120031173Y-141125499D01*
X120071128Y-141178407D01*
X120228698Y-141322052D01*
X120409981Y-141434298D01*
X120608802Y-141511321D01*
X120818390Y-141550500D01*
X120818392Y-141550500D01*
X121031608Y-141550500D01*
X121031610Y-141550500D01*
X121241198Y-141511321D01*
X121440019Y-141434298D01*
X121621302Y-141322052D01*
X121778872Y-141178407D01*
X121907366Y-141008255D01*
X122002405Y-140817389D01*
X122060756Y-140612310D01*
X122080429Y-140400000D01*
X122080429Y-140399999D01*
X123119571Y-140399999D01*
X123119571Y-140400000D01*
X123139244Y-140612310D01*
X123197596Y-140817392D01*
X123197596Y-140817394D01*
X123292632Y-141008253D01*
X123381173Y-141125499D01*
X123421128Y-141178407D01*
X123578698Y-141322052D01*
X123759981Y-141434298D01*
X123958802Y-141511321D01*
X124168390Y-141550500D01*
X124168392Y-141550500D01*
X124381608Y-141550500D01*
X124381610Y-141550500D01*
X124591198Y-141511321D01*
X124790019Y-141434298D01*
X124971302Y-141322052D01*
X125128872Y-141178407D01*
X125257366Y-141008255D01*
X125352405Y-140817389D01*
X125410756Y-140612310D01*
X125430429Y-140400000D01*
X125410756Y-140187690D01*
X125352405Y-139982611D01*
X125352403Y-139982606D01*
X125352403Y-139982605D01*
X125257367Y-139791746D01*
X125128872Y-139621593D01*
X125113121Y-139607234D01*
X124971302Y-139477948D01*
X124790019Y-139365702D01*
X124790017Y-139365701D01*
X124607251Y-139294898D01*
X124591198Y-139288679D01*
X124381610Y-139249500D01*
X124168390Y-139249500D01*
X123958802Y-139288679D01*
X123958799Y-139288679D01*
X123958799Y-139288680D01*
X123759982Y-139365701D01*
X123759980Y-139365702D01*
X123578699Y-139477947D01*
X123421127Y-139621593D01*
X123292632Y-139791746D01*
X123197596Y-139982605D01*
X123197596Y-139982607D01*
X123139244Y-140187689D01*
X123119571Y-140399999D01*
X122080429Y-140399999D01*
X122060756Y-140187690D01*
X122002405Y-139982611D01*
X122002403Y-139982607D01*
X121970754Y-139919047D01*
X121926495Y-139830162D01*
X121914235Y-139761379D01*
X121941108Y-139696884D01*
X121998584Y-139657157D01*
X122068414Y-139654809D01*
X122104535Y-139670577D01*
X122198431Y-139730920D01*
X122322725Y-139767415D01*
X122322727Y-139767416D01*
X122322728Y-139767416D01*
X122452273Y-139767416D01*
X122452273Y-139767415D01*
X122576569Y-139730920D01*
X122685549Y-139660883D01*
X122770382Y-139562979D01*
X122824197Y-139445142D01*
X122842633Y-139316916D01*
X122824197Y-139188690D01*
X122770382Y-139070853D01*
X122685549Y-138972949D01*
X122576569Y-138902912D01*
X122576565Y-138902910D01*
X122576564Y-138902910D01*
X122452274Y-138866416D01*
X122452272Y-138866416D01*
X122322728Y-138866416D01*
X122322726Y-138866416D01*
X122198435Y-138902910D01*
X122198432Y-138902911D01*
X122198431Y-138902912D01*
X122147177Y-138935850D01*
X122089450Y-138972949D01*
X122004618Y-139070853D01*
X122004617Y-139070854D01*
X121950802Y-139188690D01*
X121932367Y-139316916D01*
X121950802Y-139445142D01*
X121950803Y-139445143D01*
X121959454Y-139464086D01*
X121969398Y-139533244D01*
X121940373Y-139596800D01*
X121881595Y-139634574D01*
X121811725Y-139634574D01*
X121763122Y-139607234D01*
X121621303Y-139477949D01*
X121621302Y-139477948D01*
X121440019Y-139365702D01*
X121440017Y-139365701D01*
X121257251Y-139294898D01*
X121241198Y-139288679D01*
X121031610Y-139249500D01*
X120818390Y-139249500D01*
X120804451Y-139252105D01*
X120761602Y-139260115D01*
X120692087Y-139253083D01*
X120637409Y-139209585D01*
X120616080Y-139155873D01*
X120603856Y-139070854D01*
X120599197Y-139038446D01*
X120545382Y-138920609D01*
X120545380Y-138920607D01*
X120545379Y-138920604D01*
X120496171Y-138863815D01*
X120467146Y-138800259D01*
X120477090Y-138731101D01*
X120496168Y-138701414D01*
X120529541Y-138662900D01*
X120583356Y-138545063D01*
X120601792Y-138416837D01*
X120583356Y-138288611D01*
X120529541Y-138170774D01*
X120444708Y-138072870D01*
X120335728Y-138002833D01*
X120335724Y-138002831D01*
X120335723Y-138002831D01*
X120211433Y-137966337D01*
X120211431Y-137966337D01*
X120081887Y-137966337D01*
X120081885Y-137966337D01*
X119957594Y-138002831D01*
X119957591Y-138002832D01*
X119957590Y-138002833D01*
X119913447Y-138031202D01*
X119848609Y-138072870D01*
X119763777Y-138170774D01*
X119763776Y-138170775D01*
X119709961Y-138288611D01*
X119691526Y-138416837D01*
X105700500Y-138416837D01*
X105700500Y-137450000D01*
X126994867Y-137450000D01*
X127013302Y-137578225D01*
X127037419Y-137631033D01*
X127067118Y-137696063D01*
X127151951Y-137793967D01*
X127232425Y-137845684D01*
X127278180Y-137898488D01*
X127288124Y-137967647D01*
X127259099Y-138031202D01*
X127232426Y-138054314D01*
X127203698Y-138072776D01*
X127151950Y-138106033D01*
X127067118Y-138203937D01*
X127067117Y-138203938D01*
X127013302Y-138321774D01*
X126994867Y-138450000D01*
X127013302Y-138578225D01*
X127062794Y-138686595D01*
X127067118Y-138696063D01*
X127151951Y-138793967D01*
X127260931Y-138864004D01*
X127385225Y-138900499D01*
X127385227Y-138900500D01*
X127385228Y-138900500D01*
X127514773Y-138900500D01*
X127514773Y-138900499D01*
X127639069Y-138864004D01*
X127748049Y-138793967D01*
X127832882Y-138696063D01*
X127837206Y-138686595D01*
X127882961Y-138633791D01*
X127950000Y-138614107D01*
X128017040Y-138633792D01*
X128062794Y-138686595D01*
X128067118Y-138696063D01*
X128151951Y-138793967D01*
X128260931Y-138864004D01*
X128385225Y-138900499D01*
X128385227Y-138900500D01*
X128385228Y-138900500D01*
X128514773Y-138900500D01*
X128514773Y-138900499D01*
X128639069Y-138864004D01*
X128748049Y-138793967D01*
X128832882Y-138696063D01*
X128849706Y-138659223D01*
X128895461Y-138606420D01*
X128962500Y-138586736D01*
X129029540Y-138606421D01*
X129075293Y-138659223D01*
X129092118Y-138696063D01*
X129176951Y-138793967D01*
X129285931Y-138864004D01*
X129410225Y-138900499D01*
X129410227Y-138900500D01*
X129410228Y-138900500D01*
X129539773Y-138900500D01*
X129539773Y-138900499D01*
X129664069Y-138864004D01*
X129773049Y-138793967D01*
X129857882Y-138696063D01*
X129911697Y-138578226D01*
X129930133Y-138450000D01*
X129911697Y-138321774D01*
X129857882Y-138203937D01*
X129773049Y-138106033D01*
X129664069Y-138035996D01*
X129664065Y-138035994D01*
X129664064Y-138035994D01*
X129539774Y-137999500D01*
X129539772Y-137999500D01*
X129491102Y-137999500D01*
X129424063Y-137979815D01*
X129378308Y-137927011D01*
X129368364Y-137893146D01*
X129361697Y-137846774D01*
X129361199Y-137845684D01*
X129307882Y-137728937D01*
X129223049Y-137631033D01*
X129114069Y-137560996D01*
X129114065Y-137560994D01*
X129114064Y-137560994D01*
X128989048Y-137524287D01*
X128930270Y-137486514D01*
X128901245Y-137422961D01*
X128886697Y-137321774D01*
X128832882Y-137203937D01*
X128748049Y-137106033D01*
X128639069Y-137035996D01*
X128639065Y-137035994D01*
X128639064Y-137035994D01*
X128514774Y-136999500D01*
X128505995Y-136998238D01*
X128506375Y-136995588D01*
X128452658Y-136979815D01*
X128406903Y-136927011D01*
X128396959Y-136893147D01*
X128386697Y-136821774D01*
X128332882Y-136703938D01*
X128332882Y-136703937D01*
X128248049Y-136606033D01*
X128139069Y-136535996D01*
X128139065Y-136535994D01*
X128139064Y-136535994D01*
X128014774Y-136499500D01*
X128014772Y-136499500D01*
X127885228Y-136499500D01*
X127885226Y-136499500D01*
X127760935Y-136535994D01*
X127760932Y-136535995D01*
X127760931Y-136535996D01*
X127710302Y-136568533D01*
X127651950Y-136606033D01*
X127567118Y-136703937D01*
X127567117Y-136703938D01*
X127513302Y-136821774D01*
X127503041Y-136893147D01*
X127474016Y-136956703D01*
X127415238Y-136994477D01*
X127393905Y-136997544D01*
X127394005Y-136998238D01*
X127385225Y-136999500D01*
X127260935Y-137035994D01*
X127260932Y-137035995D01*
X127260931Y-137035996D01*
X127209677Y-137068934D01*
X127151950Y-137106033D01*
X127067118Y-137203937D01*
X127067117Y-137203938D01*
X127013302Y-137321774D01*
X126994867Y-137450000D01*
X105700500Y-137450000D01*
X105700500Y-136912500D01*
X112082367Y-136912500D01*
X112100802Y-137040725D01*
X112130628Y-137106033D01*
X112154618Y-137158563D01*
X112239451Y-137256467D01*
X112348431Y-137326504D01*
X112472725Y-137362999D01*
X112472727Y-137363000D01*
X112472728Y-137363000D01*
X112602273Y-137363000D01*
X112602273Y-137362999D01*
X112726569Y-137326504D01*
X112835549Y-137256467D01*
X112920382Y-137158563D01*
X112974197Y-137040726D01*
X112992633Y-136912500D01*
X112974197Y-136784274D01*
X112920382Y-136666437D01*
X112835549Y-136568533D01*
X112726569Y-136498496D01*
X112726565Y-136498494D01*
X112726564Y-136498494D01*
X112602274Y-136462000D01*
X112602272Y-136462000D01*
X112472728Y-136462000D01*
X112472726Y-136462000D01*
X112348435Y-136498494D01*
X112348432Y-136498495D01*
X112348431Y-136498496D01*
X112297177Y-136531434D01*
X112239450Y-136568533D01*
X112154618Y-136666437D01*
X112154617Y-136666438D01*
X112100802Y-136784274D01*
X112082367Y-136912500D01*
X105700500Y-136912500D01*
X105700500Y-134875000D01*
X108269867Y-134875000D01*
X108288302Y-135003225D01*
X108342117Y-135121061D01*
X108342118Y-135121063D01*
X108426951Y-135218967D01*
X108535931Y-135289004D01*
X108660225Y-135325499D01*
X108660227Y-135325500D01*
X108660228Y-135325500D01*
X108789773Y-135325500D01*
X108789773Y-135325499D01*
X108914069Y-135289004D01*
X109023049Y-135218967D01*
X109107882Y-135121063D01*
X109161697Y-135003226D01*
X109180133Y-134875000D01*
X109161697Y-134746774D01*
X109107882Y-134628937D01*
X109082808Y-134600000D01*
X109869867Y-134600000D01*
X109888302Y-134728225D01*
X109917322Y-134791768D01*
X109942118Y-134846063D01*
X110026951Y-134943967D01*
X110135931Y-135014004D01*
X110260225Y-135050499D01*
X110260227Y-135050500D01*
X110260228Y-135050500D01*
X110389773Y-135050500D01*
X110389773Y-135050499D01*
X110514069Y-135014004D01*
X110623049Y-134943967D01*
X110707882Y-134846063D01*
X110761697Y-134728226D01*
X110770813Y-134664822D01*
X111974499Y-134664822D01*
X111983231Y-134708717D01*
X111983232Y-134708721D01*
X111983233Y-134708722D01*
X112016496Y-134758504D01*
X112066278Y-134791767D01*
X112066281Y-134791767D01*
X112066282Y-134791768D01*
X112110177Y-134800500D01*
X112110180Y-134800500D01*
X113839822Y-134800500D01*
X113883717Y-134791768D01*
X113883717Y-134791767D01*
X113883722Y-134791767D01*
X113933504Y-134758504D01*
X113966767Y-134708722D01*
X113975500Y-134664820D01*
X113975500Y-132935180D01*
X113975500Y-132935177D01*
X113966768Y-132891282D01*
X113966767Y-132891281D01*
X113966767Y-132891278D01*
X113933504Y-132841496D01*
X113933503Y-132841495D01*
X113883724Y-132808234D01*
X113883717Y-132808231D01*
X113839822Y-132799500D01*
X113839820Y-132799500D01*
X112110180Y-132799500D01*
X112110178Y-132799500D01*
X112066282Y-132808231D01*
X112066275Y-132808234D01*
X112016496Y-132841495D01*
X112016495Y-132841496D01*
X111983234Y-132891275D01*
X111983231Y-132891282D01*
X111974500Y-132935177D01*
X111974500Y-132935180D01*
X111974500Y-134664820D01*
X111974500Y-134664822D01*
X111974499Y-134664822D01*
X110770813Y-134664822D01*
X110780133Y-134600000D01*
X110761697Y-134471774D01*
X110707882Y-134353937D01*
X110623049Y-134256033D01*
X110514069Y-134185996D01*
X110514065Y-134185994D01*
X110514064Y-134185994D01*
X110389774Y-134149500D01*
X110389772Y-134149500D01*
X110260228Y-134149500D01*
X110260226Y-134149500D01*
X110135935Y-134185994D01*
X110135932Y-134185995D01*
X110135931Y-134185996D01*
X110084677Y-134218934D01*
X110026950Y-134256033D01*
X109942118Y-134353937D01*
X109942117Y-134353938D01*
X109888302Y-134471774D01*
X109869867Y-134600000D01*
X109082808Y-134600000D01*
X109023049Y-134531033D01*
X108914069Y-134460996D01*
X108914065Y-134460994D01*
X108914064Y-134460994D01*
X108789774Y-134424500D01*
X108789772Y-134424500D01*
X108660228Y-134424500D01*
X108660226Y-134424500D01*
X108535935Y-134460994D01*
X108535932Y-134460995D01*
X108535931Y-134460996D01*
X108484677Y-134493934D01*
X108426950Y-134531033D01*
X108342118Y-134628937D01*
X108342117Y-134628938D01*
X108288302Y-134746774D01*
X108269867Y-134875000D01*
X105700500Y-134875000D01*
X105700500Y-131114821D01*
X123524499Y-131114821D01*
X123533231Y-131158716D01*
X123533234Y-131158723D01*
X123558183Y-131196062D01*
X123566496Y-131208503D01*
X123616278Y-131241766D01*
X123616281Y-131241766D01*
X123616282Y-131241767D01*
X123660177Y-131250499D01*
X123660180Y-131250499D01*
X125389822Y-131250499D01*
X125433717Y-131241767D01*
X125433717Y-131241766D01*
X125433722Y-131241766D01*
X125483504Y-131208503D01*
X125516767Y-131158721D01*
X125525500Y-131114819D01*
X125525500Y-130950000D01*
X131519867Y-130950000D01*
X131538302Y-131078225D01*
X131575062Y-131158716D01*
X131592118Y-131196063D01*
X131676951Y-131293967D01*
X131785931Y-131364004D01*
X131910225Y-131400499D01*
X131910227Y-131400500D01*
X131910228Y-131400500D01*
X132039773Y-131400500D01*
X132039773Y-131400499D01*
X132164069Y-131364004D01*
X132273049Y-131293967D01*
X132357882Y-131196063D01*
X132411697Y-131078226D01*
X132430133Y-130950000D01*
X132411697Y-130821774D01*
X132357882Y-130703937D01*
X132273049Y-130606033D01*
X132164069Y-130535996D01*
X132164065Y-130535994D01*
X132164064Y-130535994D01*
X132039774Y-130499500D01*
X132039772Y-130499500D01*
X131910228Y-130499500D01*
X131910226Y-130499500D01*
X131785935Y-130535994D01*
X131785932Y-130535995D01*
X131785931Y-130535996D01*
X131734677Y-130568934D01*
X131676950Y-130606033D01*
X131592118Y-130703937D01*
X131592117Y-130703938D01*
X131538302Y-130821774D01*
X131519867Y-130950000D01*
X125525500Y-130950000D01*
X125525500Y-129675000D01*
X127969867Y-129675000D01*
X127988302Y-129803225D01*
X128042117Y-129921061D01*
X128042118Y-129921063D01*
X128126951Y-130018967D01*
X128235931Y-130089004D01*
X128360225Y-130125499D01*
X128360227Y-130125500D01*
X128360228Y-130125500D01*
X128489773Y-130125500D01*
X128489773Y-130125499D01*
X128614069Y-130089004D01*
X128723049Y-130018967D01*
X128807882Y-129921063D01*
X128861697Y-129803226D01*
X128880133Y-129675000D01*
X128861697Y-129546774D01*
X128807882Y-129428937D01*
X128723049Y-129331033D01*
X128614069Y-129260996D01*
X128614065Y-129260994D01*
X128614064Y-129260994D01*
X128489774Y-129224500D01*
X128489772Y-129224500D01*
X128360228Y-129224500D01*
X128360226Y-129224500D01*
X128235935Y-129260994D01*
X128235932Y-129260995D01*
X128235931Y-129260996D01*
X128184677Y-129293934D01*
X128126950Y-129331033D01*
X128042118Y-129428937D01*
X128042117Y-129428938D01*
X127988302Y-129546774D01*
X127969867Y-129675000D01*
X125525500Y-129675000D01*
X125525500Y-129385179D01*
X125525500Y-129385176D01*
X125516768Y-129341281D01*
X125516767Y-129341280D01*
X125516767Y-129341277D01*
X125483504Y-129291495D01*
X125437856Y-129260994D01*
X125433724Y-129258233D01*
X125433717Y-129258230D01*
X125389822Y-129249499D01*
X125389820Y-129249499D01*
X123660180Y-129249499D01*
X123660178Y-129249499D01*
X123616282Y-129258230D01*
X123616275Y-129258233D01*
X123566496Y-129291494D01*
X123566495Y-129291495D01*
X123533234Y-129341274D01*
X123533231Y-129341281D01*
X123524500Y-129385176D01*
X123524500Y-129385179D01*
X123524500Y-131114819D01*
X123524500Y-131114821D01*
X123524499Y-131114821D01*
X105700500Y-131114821D01*
X105700500Y-125500000D01*
X106069867Y-125500000D01*
X106088302Y-125628225D01*
X106142117Y-125746061D01*
X106142118Y-125746063D01*
X106226951Y-125843967D01*
X106335931Y-125914004D01*
X106460225Y-125950499D01*
X106460227Y-125950500D01*
X106460228Y-125950500D01*
X106589773Y-125950500D01*
X106589773Y-125950499D01*
X106714069Y-125914004D01*
X106823049Y-125843967D01*
X106907882Y-125746063D01*
X106961697Y-125628226D01*
X106980133Y-125500000D01*
X106961697Y-125371774D01*
X106907882Y-125253937D01*
X106823049Y-125156033D01*
X106714069Y-125085996D01*
X106714065Y-125085994D01*
X106714064Y-125085994D01*
X106589774Y-125049500D01*
X106589772Y-125049500D01*
X106460228Y-125049500D01*
X106460226Y-125049500D01*
X106335935Y-125085994D01*
X106335932Y-125085995D01*
X106335931Y-125085996D01*
X106309121Y-125103226D01*
X106226950Y-125156033D01*
X106142118Y-125253937D01*
X106142117Y-125253938D01*
X106088302Y-125371774D01*
X106069867Y-125500000D01*
X105700500Y-125500000D01*
X105700500Y-124975000D01*
X111444867Y-124975000D01*
X111463302Y-125103225D01*
X111487419Y-125156033D01*
X111517118Y-125221063D01*
X111601951Y-125318967D01*
X111710931Y-125389004D01*
X111835225Y-125425499D01*
X111835227Y-125425500D01*
X111835228Y-125425500D01*
X111964773Y-125425500D01*
X111964773Y-125425499D01*
X112089069Y-125389004D01*
X112198049Y-125318967D01*
X112282882Y-125221063D01*
X112336697Y-125103226D01*
X112355133Y-124975000D01*
X112336697Y-124846774D01*
X112282882Y-124728937D01*
X112198049Y-124631033D01*
X112089069Y-124560996D01*
X112089065Y-124560994D01*
X112089064Y-124560994D01*
X111964774Y-124524500D01*
X111964772Y-124524500D01*
X111835228Y-124524500D01*
X111835226Y-124524500D01*
X111710935Y-124560994D01*
X111710932Y-124560995D01*
X111710931Y-124560996D01*
X111659677Y-124593934D01*
X111601950Y-124631033D01*
X111517118Y-124728937D01*
X111517117Y-124728938D01*
X111463302Y-124846774D01*
X111444867Y-124975000D01*
X105700500Y-124975000D01*
X105700500Y-119475000D01*
X117969867Y-119475000D01*
X117988302Y-119603225D01*
X118042117Y-119721061D01*
X118042118Y-119721063D01*
X118126951Y-119818967D01*
X118235931Y-119889004D01*
X118360225Y-119925499D01*
X118360227Y-119925500D01*
X118360228Y-119925500D01*
X118489773Y-119925500D01*
X118489773Y-119925499D01*
X118614069Y-119889004D01*
X118723049Y-119818967D01*
X118807882Y-119721063D01*
X118861697Y-119603226D01*
X118880133Y-119475000D01*
X118861697Y-119346774D01*
X118807882Y-119228937D01*
X118723049Y-119131033D01*
X118614069Y-119060996D01*
X118614065Y-119060994D01*
X118614064Y-119060994D01*
X118489774Y-119024500D01*
X118489772Y-119024500D01*
X118360228Y-119024500D01*
X118360226Y-119024500D01*
X118235935Y-119060994D01*
X118235932Y-119060995D01*
X118235931Y-119060996D01*
X118184677Y-119093934D01*
X118126950Y-119131033D01*
X118042118Y-119228937D01*
X118042117Y-119228938D01*
X117988302Y-119346774D01*
X117969867Y-119475000D01*
X105700500Y-119475000D01*
X105700500Y-118814822D01*
X130199499Y-118814822D01*
X130208231Y-118858717D01*
X130208232Y-118858721D01*
X130208233Y-118858722D01*
X130241496Y-118908504D01*
X130291278Y-118941767D01*
X130291281Y-118941767D01*
X130291282Y-118941768D01*
X130335177Y-118950500D01*
X130335180Y-118950500D01*
X132064822Y-118950500D01*
X132108717Y-118941768D01*
X132108717Y-118941767D01*
X132108722Y-118941767D01*
X132158504Y-118908504D01*
X132191767Y-118858722D01*
X132200500Y-118814820D01*
X132200500Y-117085180D01*
X132200500Y-117085177D01*
X132191768Y-117041282D01*
X132191767Y-117041281D01*
X132191767Y-117041278D01*
X132158504Y-116991496D01*
X132158503Y-116991495D01*
X132108724Y-116958234D01*
X132108717Y-116958231D01*
X132064822Y-116949500D01*
X132064820Y-116949500D01*
X130335180Y-116949500D01*
X130335178Y-116949500D01*
X130291282Y-116958231D01*
X130291275Y-116958234D01*
X130241496Y-116991495D01*
X130241495Y-116991496D01*
X130208234Y-117041275D01*
X130208231Y-117041282D01*
X130199500Y-117085177D01*
X130199500Y-117085180D01*
X130199500Y-118814820D01*
X130199500Y-118814822D01*
X130199499Y-118814822D01*
X105700500Y-118814822D01*
X105700500Y-116275000D01*
X115444867Y-116275000D01*
X115463302Y-116403225D01*
X115482866Y-116446063D01*
X115517118Y-116521063D01*
X115601951Y-116618967D01*
X115710931Y-116689004D01*
X115710938Y-116689006D01*
X115835225Y-116725499D01*
X115835227Y-116725500D01*
X115835228Y-116725500D01*
X115964773Y-116725500D01*
X115964773Y-116725499D01*
X116089069Y-116689004D01*
X116198049Y-116618967D01*
X116282882Y-116521063D01*
X116336697Y-116403226D01*
X116355133Y-116275000D01*
X116994867Y-116275000D01*
X117013302Y-116403225D01*
X117032866Y-116446063D01*
X117067118Y-116521063D01*
X117151951Y-116618967D01*
X117260931Y-116689004D01*
X117260938Y-116689006D01*
X117385225Y-116725499D01*
X117385227Y-116725500D01*
X117385228Y-116725500D01*
X117514773Y-116725500D01*
X117514773Y-116725499D01*
X117639069Y-116689004D01*
X117748049Y-116618967D01*
X117832882Y-116521063D01*
X117886697Y-116403226D01*
X117905133Y-116275001D01*
X122119867Y-116275001D01*
X122138302Y-116403226D01*
X122192117Y-116521061D01*
X122192118Y-116521064D01*
X122276951Y-116618968D01*
X122385931Y-116689005D01*
X122510225Y-116725500D01*
X122510227Y-116725501D01*
X122510228Y-116725501D01*
X122639773Y-116725501D01*
X122639773Y-116725500D01*
X122764069Y-116689005D01*
X122873049Y-116618968D01*
X122957882Y-116521064D01*
X123011697Y-116403227D01*
X123030133Y-116275001D01*
X123011697Y-116146775D01*
X122957882Y-116028938D01*
X122873049Y-115931034D01*
X122764069Y-115860997D01*
X122764065Y-115860995D01*
X122764064Y-115860995D01*
X122639774Y-115824501D01*
X122639772Y-115824501D01*
X122510228Y-115824501D01*
X122510226Y-115824501D01*
X122385935Y-115860995D01*
X122385932Y-115860996D01*
X122385931Y-115860997D01*
X122334677Y-115893935D01*
X122276950Y-115931034D01*
X122192118Y-116028938D01*
X122192117Y-116028939D01*
X122138302Y-116146775D01*
X122119867Y-116275001D01*
X117905133Y-116275001D01*
X117905133Y-116275000D01*
X117886697Y-116146774D01*
X117832882Y-116028937D01*
X117748049Y-115931033D01*
X117639069Y-115860996D01*
X117639065Y-115860994D01*
X117639064Y-115860994D01*
X117514774Y-115824500D01*
X117514772Y-115824500D01*
X117385228Y-115824500D01*
X117385226Y-115824500D01*
X117260935Y-115860994D01*
X117260932Y-115860995D01*
X117260931Y-115860996D01*
X117209677Y-115893934D01*
X117151950Y-115931033D01*
X117067118Y-116028937D01*
X117067117Y-116028938D01*
X117013302Y-116146774D01*
X116994867Y-116275000D01*
X116355133Y-116275000D01*
X116336697Y-116146774D01*
X116282882Y-116028937D01*
X116198049Y-115931033D01*
X116089069Y-115860996D01*
X116089065Y-115860994D01*
X116089064Y-115860994D01*
X115964774Y-115824500D01*
X115964772Y-115824500D01*
X115835228Y-115824500D01*
X115835226Y-115824500D01*
X115710935Y-115860994D01*
X115710932Y-115860995D01*
X115710931Y-115860996D01*
X115659677Y-115893934D01*
X115601950Y-115931033D01*
X115517118Y-116028937D01*
X115517117Y-116028938D01*
X115463302Y-116146774D01*
X115444867Y-116275000D01*
X105700500Y-116275000D01*
X105700500Y-115723591D01*
X111518458Y-115723591D01*
X111536893Y-115851816D01*
X111583531Y-115953937D01*
X111590709Y-115969654D01*
X111675542Y-116067558D01*
X111784522Y-116137595D01*
X111908816Y-116174090D01*
X111908818Y-116174091D01*
X111908819Y-116174091D01*
X112038364Y-116174091D01*
X112038364Y-116174090D01*
X112162660Y-116137595D01*
X112271640Y-116067558D01*
X112356473Y-115969654D01*
X112410288Y-115851817D01*
X112420622Y-115779941D01*
X123599807Y-115779941D01*
X123618242Y-115908166D01*
X123672057Y-116026002D01*
X123672058Y-116026004D01*
X123756891Y-116123908D01*
X123865871Y-116193945D01*
X123990165Y-116230440D01*
X123990167Y-116230441D01*
X123990168Y-116230441D01*
X124119713Y-116230441D01*
X124119713Y-116230440D01*
X124223387Y-116200000D01*
X128144867Y-116200000D01*
X128163302Y-116328225D01*
X128217117Y-116446061D01*
X128217118Y-116446063D01*
X128301951Y-116543967D01*
X128410931Y-116614004D01*
X128535225Y-116650499D01*
X128535227Y-116650500D01*
X128535228Y-116650500D01*
X128664773Y-116650500D01*
X128664773Y-116650499D01*
X128789069Y-116614004D01*
X128898049Y-116543967D01*
X128982882Y-116446063D01*
X129036697Y-116328226D01*
X129055133Y-116200000D01*
X129036697Y-116071774D01*
X128982882Y-115953937D01*
X128898049Y-115856033D01*
X128789069Y-115785996D01*
X128789065Y-115785994D01*
X128789064Y-115785994D01*
X128664774Y-115749500D01*
X128664772Y-115749500D01*
X128535228Y-115749500D01*
X128535226Y-115749500D01*
X128410935Y-115785994D01*
X128410932Y-115785995D01*
X128410931Y-115785996D01*
X128359677Y-115818934D01*
X128301950Y-115856033D01*
X128217118Y-115953937D01*
X128217117Y-115953938D01*
X128163302Y-116071774D01*
X128144867Y-116200000D01*
X124223387Y-116200000D01*
X124244009Y-116193945D01*
X124352989Y-116123908D01*
X124437822Y-116026004D01*
X124491637Y-115908167D01*
X124510073Y-115779941D01*
X124491637Y-115651715D01*
X124437822Y-115533878D01*
X124352989Y-115435974D01*
X124312573Y-115410000D01*
X130194659Y-115410000D01*
X130213975Y-115606129D01*
X130213976Y-115606132D01*
X130268537Y-115785996D01*
X130271188Y-115794733D01*
X130364086Y-115968532D01*
X130364090Y-115968539D01*
X130489116Y-116120883D01*
X130641460Y-116245909D01*
X130641467Y-116245913D01*
X130815266Y-116338811D01*
X130815269Y-116338811D01*
X130815273Y-116338814D01*
X131003868Y-116396024D01*
X131200000Y-116415341D01*
X131396132Y-116396024D01*
X131584727Y-116338814D01*
X131758538Y-116245910D01*
X131910883Y-116120883D01*
X132035910Y-115968538D01*
X132098299Y-115851816D01*
X132128811Y-115794733D01*
X132128811Y-115794732D01*
X132128814Y-115794727D01*
X132186024Y-115606132D01*
X132205341Y-115410000D01*
X132186024Y-115213868D01*
X132128814Y-115025273D01*
X132128811Y-115025269D01*
X132128811Y-115025266D01*
X132035913Y-114851467D01*
X132035909Y-114851460D01*
X131910883Y-114699116D01*
X131758539Y-114574090D01*
X131758532Y-114574086D01*
X131584733Y-114481188D01*
X131584727Y-114481186D01*
X131396132Y-114423976D01*
X131396129Y-114423975D01*
X131200000Y-114404659D01*
X131003870Y-114423975D01*
X130815266Y-114481188D01*
X130641467Y-114574086D01*
X130641460Y-114574090D01*
X130489116Y-114699116D01*
X130364090Y-114851460D01*
X130364086Y-114851467D01*
X130271188Y-115025266D01*
X130213975Y-115213870D01*
X130194659Y-115410000D01*
X124312573Y-115410000D01*
X124244009Y-115365937D01*
X124244005Y-115365935D01*
X124244004Y-115365935D01*
X124119714Y-115329441D01*
X124119712Y-115329441D01*
X123990168Y-115329441D01*
X123990166Y-115329441D01*
X123865875Y-115365935D01*
X123865872Y-115365936D01*
X123865871Y-115365937D01*
X123844574Y-115379624D01*
X123756890Y-115435974D01*
X123672058Y-115533878D01*
X123672057Y-115533879D01*
X123618242Y-115651715D01*
X123599807Y-115779941D01*
X112420622Y-115779941D01*
X112428724Y-115723591D01*
X112410288Y-115595365D01*
X112356473Y-115477528D01*
X112271640Y-115379624D01*
X112162660Y-115309587D01*
X112162656Y-115309585D01*
X112162655Y-115309585D01*
X112038365Y-115273091D01*
X112038363Y-115273091D01*
X111908819Y-115273091D01*
X111908817Y-115273091D01*
X111784526Y-115309585D01*
X111784523Y-115309586D01*
X111784522Y-115309587D01*
X111733268Y-115342525D01*
X111675541Y-115379624D01*
X111590709Y-115477528D01*
X111590708Y-115477529D01*
X111536893Y-115595365D01*
X111518458Y-115723591D01*
X105700500Y-115723591D01*
X105700500Y-115160503D01*
X121671099Y-115160503D01*
X121689534Y-115288728D01*
X121724794Y-115365935D01*
X121743350Y-115406566D01*
X121828183Y-115504470D01*
X121937163Y-115574507D01*
X122061457Y-115611002D01*
X122061459Y-115611003D01*
X122061460Y-115611003D01*
X122191005Y-115611003D01*
X122191005Y-115611002D01*
X122315301Y-115574507D01*
X122424281Y-115504470D01*
X122509114Y-115406566D01*
X122562929Y-115288729D01*
X122581365Y-115160503D01*
X122562929Y-115032277D01*
X122509114Y-114914440D01*
X122424281Y-114816536D01*
X122315301Y-114746499D01*
X122315297Y-114746497D01*
X122315296Y-114746497D01*
X122191006Y-114710003D01*
X122191004Y-114710003D01*
X122061460Y-114710003D01*
X122061458Y-114710003D01*
X121937167Y-114746497D01*
X121937164Y-114746498D01*
X121937163Y-114746499D01*
X121885909Y-114779437D01*
X121828182Y-114816536D01*
X121743350Y-114914440D01*
X121743349Y-114914441D01*
X121689534Y-115032277D01*
X121671099Y-115160503D01*
X105700500Y-115160503D01*
X105700500Y-114025000D01*
X117092096Y-114025000D01*
X117110531Y-114153225D01*
X117164346Y-114271061D01*
X117164347Y-114271063D01*
X117249180Y-114368967D01*
X117358160Y-114439004D01*
X117482454Y-114475499D01*
X117482456Y-114475500D01*
X117482457Y-114475500D01*
X117612002Y-114475500D01*
X117612002Y-114475499D01*
X117736298Y-114439004D01*
X117845278Y-114368967D01*
X117930111Y-114271063D01*
X117983926Y-114153226D01*
X118002362Y-114025000D01*
X117984390Y-113900000D01*
X122794867Y-113900000D01*
X122813302Y-114028225D01*
X122867117Y-114146061D01*
X122867118Y-114146063D01*
X122951951Y-114243967D01*
X123060931Y-114314004D01*
X123185225Y-114350499D01*
X123185227Y-114350500D01*
X123185228Y-114350500D01*
X123314773Y-114350500D01*
X123314773Y-114350499D01*
X123439069Y-114314004D01*
X123548049Y-114243967D01*
X123632882Y-114146063D01*
X123686697Y-114028226D01*
X123705133Y-113900000D01*
X123686697Y-113771774D01*
X123632882Y-113653937D01*
X123548049Y-113556033D01*
X123439069Y-113485996D01*
X123439065Y-113485994D01*
X123439064Y-113485994D01*
X123314774Y-113449500D01*
X123314772Y-113449500D01*
X123185228Y-113449500D01*
X123185226Y-113449500D01*
X123060935Y-113485994D01*
X123060932Y-113485995D01*
X123060931Y-113485996D01*
X123009677Y-113518934D01*
X122951950Y-113556033D01*
X122867118Y-113653937D01*
X122867117Y-113653938D01*
X122813302Y-113771774D01*
X122794867Y-113900000D01*
X117984390Y-113900000D01*
X117983926Y-113896774D01*
X117930111Y-113778937D01*
X117845278Y-113681033D01*
X117736298Y-113610996D01*
X117736294Y-113610994D01*
X117736293Y-113610994D01*
X117612003Y-113574500D01*
X117612001Y-113574500D01*
X117482457Y-113574500D01*
X117482455Y-113574500D01*
X117358164Y-113610994D01*
X117358161Y-113610995D01*
X117358160Y-113610996D01*
X117306906Y-113643934D01*
X117249179Y-113681033D01*
X117164347Y-113778937D01*
X117164346Y-113778938D01*
X117110531Y-113896774D01*
X117092096Y-114025000D01*
X105700500Y-114025000D01*
X105700500Y-112870001D01*
X130194659Y-112870001D01*
X130213975Y-113066130D01*
X130271188Y-113254734D01*
X130364086Y-113428533D01*
X130364090Y-113428540D01*
X130489116Y-113580884D01*
X130641460Y-113705910D01*
X130641467Y-113705914D01*
X130815266Y-113798812D01*
X130815269Y-113798812D01*
X130815273Y-113798815D01*
X131003868Y-113856025D01*
X131200000Y-113875342D01*
X131396132Y-113856025D01*
X131584727Y-113798815D01*
X131758538Y-113705911D01*
X131910883Y-113580884D01*
X132035910Y-113428539D01*
X132128814Y-113254728D01*
X132186024Y-113066133D01*
X132205341Y-112870001D01*
X132186024Y-112673869D01*
X132128814Y-112485274D01*
X132128811Y-112485270D01*
X132128811Y-112485267D01*
X132035913Y-112311468D01*
X132035909Y-112311461D01*
X131910883Y-112159117D01*
X131758539Y-112034091D01*
X131758532Y-112034087D01*
X131584733Y-111941189D01*
X131584727Y-111941187D01*
X131396132Y-111883977D01*
X131396129Y-111883976D01*
X131200000Y-111864660D01*
X131003870Y-111883976D01*
X130815266Y-111941189D01*
X130641467Y-112034087D01*
X130641460Y-112034091D01*
X130489116Y-112159117D01*
X130364090Y-112311461D01*
X130364086Y-112311468D01*
X130271188Y-112485267D01*
X130213975Y-112673871D01*
X130194659Y-112870001D01*
X105700500Y-112870001D01*
X105700500Y-109850000D01*
X114694867Y-109850000D01*
X114713302Y-109978225D01*
X114734664Y-110025000D01*
X114767118Y-110096063D01*
X114851951Y-110193967D01*
X114960931Y-110264004D01*
X115085225Y-110300499D01*
X115085227Y-110300500D01*
X115085228Y-110300500D01*
X115214773Y-110300500D01*
X115214773Y-110300499D01*
X115339069Y-110264004D01*
X115448049Y-110193967D01*
X115532882Y-110096063D01*
X115558984Y-110038909D01*
X124080958Y-110038909D01*
X124099393Y-110167134D01*
X124146856Y-110271061D01*
X124153209Y-110284972D01*
X124238042Y-110382876D01*
X124347022Y-110452913D01*
X124471316Y-110489408D01*
X124471318Y-110489409D01*
X124471319Y-110489409D01*
X124600864Y-110489409D01*
X124600864Y-110489408D01*
X124725160Y-110452913D01*
X124725159Y-110452913D01*
X124726417Y-110452544D01*
X124796286Y-110452544D01*
X124855064Y-110490319D01*
X124884089Y-110553874D01*
X124874146Y-110623032D01*
X124863302Y-110646776D01*
X124844867Y-110775000D01*
X124863302Y-110903225D01*
X124917117Y-111021061D01*
X124917118Y-111021063D01*
X124934292Y-111040883D01*
X124947979Y-111056679D01*
X124977003Y-111120235D01*
X124967059Y-111189394D01*
X124921303Y-111242197D01*
X124854264Y-111261881D01*
X124787227Y-111242197D01*
X124738677Y-111210996D01*
X124738673Y-111210994D01*
X124738672Y-111210994D01*
X124614382Y-111174500D01*
X124614380Y-111174500D01*
X124484836Y-111174500D01*
X124484834Y-111174500D01*
X124360543Y-111210994D01*
X124360540Y-111210995D01*
X124360539Y-111210996D01*
X124311989Y-111242197D01*
X124251558Y-111281033D01*
X124166726Y-111378937D01*
X124166725Y-111378938D01*
X124112910Y-111496774D01*
X124094475Y-111625000D01*
X124112910Y-111753225D01*
X124163802Y-111864660D01*
X124166726Y-111871063D01*
X124251559Y-111968967D01*
X124360539Y-112039004D01*
X124377858Y-112044089D01*
X124436637Y-112081861D01*
X124465664Y-112145416D01*
X124465665Y-112180714D01*
X124450668Y-112285022D01*
X124469103Y-112413248D01*
X124501994Y-112485267D01*
X124522919Y-112531086D01*
X124607752Y-112628990D01*
X124716732Y-112699027D01*
X124841026Y-112735522D01*
X124841028Y-112735523D01*
X124841029Y-112735523D01*
X124970574Y-112735523D01*
X124970574Y-112735522D01*
X125094870Y-112699027D01*
X125203850Y-112628990D01*
X125288683Y-112531086D01*
X125342498Y-112413249D01*
X125360934Y-112285023D01*
X125347460Y-112191310D01*
X125357403Y-112122154D01*
X125403158Y-112069350D01*
X125435260Y-112054688D01*
X125488680Y-112039004D01*
X125597660Y-111968967D01*
X125682493Y-111871063D01*
X125736308Y-111753226D01*
X125754744Y-111625000D01*
X125736308Y-111496774D01*
X125682493Y-111378937D01*
X125598001Y-111281426D01*
X125568977Y-111217870D01*
X125578921Y-111148711D01*
X125598001Y-111119022D01*
X125598049Y-111118967D01*
X125682882Y-111021063D01*
X125736697Y-110903226D01*
X125755133Y-110775000D01*
X125736697Y-110646774D01*
X125682882Y-110528937D01*
X125641519Y-110481200D01*
X125612495Y-110417647D01*
X125622439Y-110348489D01*
X125634320Y-110330000D01*
X130194659Y-110330000D01*
X130213975Y-110526129D01*
X130213976Y-110526132D01*
X130243370Y-110623032D01*
X130271188Y-110714733D01*
X130364086Y-110888532D01*
X130364090Y-110888539D01*
X130489116Y-111040883D01*
X130641460Y-111165909D01*
X130641467Y-111165913D01*
X130815266Y-111258811D01*
X130815269Y-111258811D01*
X130815273Y-111258814D01*
X131003868Y-111316024D01*
X131200000Y-111335341D01*
X131396132Y-111316024D01*
X131584727Y-111258814D01*
X131758538Y-111165910D01*
X131910883Y-111040883D01*
X132035910Y-110888538D01*
X132128814Y-110714727D01*
X132186024Y-110526132D01*
X132205341Y-110330000D01*
X132186024Y-110133868D01*
X132128814Y-109945273D01*
X132128811Y-109945269D01*
X132128811Y-109945266D01*
X132035913Y-109771467D01*
X132035909Y-109771460D01*
X131910883Y-109619116D01*
X131758539Y-109494090D01*
X131758532Y-109494086D01*
X131584733Y-109401188D01*
X131584727Y-109401186D01*
X131396132Y-109343976D01*
X131396129Y-109343975D01*
X131200000Y-109324659D01*
X131003870Y-109343975D01*
X130815266Y-109401188D01*
X130641467Y-109494086D01*
X130641460Y-109494090D01*
X130489116Y-109619116D01*
X130364090Y-109771460D01*
X130364086Y-109771467D01*
X130271188Y-109945266D01*
X130213975Y-110133870D01*
X130194659Y-110330000D01*
X125634320Y-110330000D01*
X125641517Y-110318800D01*
X125682882Y-110271063D01*
X125736697Y-110153226D01*
X125755133Y-110025000D01*
X125736697Y-109896774D01*
X125682882Y-109778937D01*
X125598049Y-109681033D01*
X125489069Y-109610996D01*
X125489065Y-109610994D01*
X125489064Y-109610994D01*
X125364774Y-109574500D01*
X125364772Y-109574500D01*
X125235228Y-109574500D01*
X125235226Y-109574500D01*
X125110935Y-109610994D01*
X125110932Y-109610995D01*
X125110931Y-109610996D01*
X125089288Y-109624905D01*
X125001946Y-109681035D01*
X124995246Y-109686842D01*
X124993741Y-109685106D01*
X124945512Y-109716093D01*
X124875643Y-109716085D01*
X124842666Y-109698078D01*
X124841601Y-109699737D01*
X124821536Y-109686842D01*
X124725160Y-109624905D01*
X124725156Y-109624903D01*
X124725155Y-109624903D01*
X124600865Y-109588409D01*
X124600863Y-109588409D01*
X124471319Y-109588409D01*
X124471317Y-109588409D01*
X124347026Y-109624903D01*
X124347023Y-109624904D01*
X124347022Y-109624905D01*
X124295768Y-109657843D01*
X124238041Y-109694942D01*
X124153209Y-109792846D01*
X124153208Y-109792847D01*
X124099393Y-109910683D01*
X124080958Y-110038909D01*
X115558984Y-110038909D01*
X115586697Y-109978226D01*
X115605133Y-109850000D01*
X115586697Y-109721774D01*
X115532882Y-109603937D01*
X115448049Y-109506033D01*
X115339069Y-109435996D01*
X115339065Y-109435994D01*
X115339064Y-109435994D01*
X115214774Y-109399500D01*
X115214772Y-109399500D01*
X115085228Y-109399500D01*
X115085226Y-109399500D01*
X114960935Y-109435994D01*
X114960932Y-109435995D01*
X114960931Y-109435996D01*
X114909677Y-109468934D01*
X114851950Y-109506033D01*
X114767118Y-109603937D01*
X114767117Y-109603938D01*
X114713302Y-109721774D01*
X114694867Y-109850000D01*
X105700500Y-109850000D01*
X105700500Y-108225000D01*
X114344867Y-108225000D01*
X114363302Y-108353225D01*
X114371048Y-108370185D01*
X114417118Y-108471063D01*
X114501951Y-108568967D01*
X114610931Y-108639004D01*
X114720117Y-108671063D01*
X114735225Y-108675499D01*
X114735227Y-108675500D01*
X114735228Y-108675500D01*
X114864773Y-108675500D01*
X114864773Y-108675499D01*
X114989069Y-108639004D01*
X115098049Y-108568967D01*
X115182882Y-108471063D01*
X115203919Y-108425000D01*
X116994867Y-108425000D01*
X117013302Y-108553225D01*
X117058972Y-108653226D01*
X117067118Y-108671063D01*
X117151951Y-108768967D01*
X117260931Y-108839004D01*
X117385225Y-108875499D01*
X117385227Y-108875500D01*
X117385228Y-108875500D01*
X117514773Y-108875500D01*
X117514773Y-108875499D01*
X117639069Y-108839004D01*
X117748049Y-108768967D01*
X117832882Y-108671063D01*
X117886697Y-108553226D01*
X117905133Y-108425000D01*
X117886697Y-108296774D01*
X117832882Y-108178937D01*
X117748049Y-108081033D01*
X117639069Y-108010996D01*
X117639065Y-108010994D01*
X117639064Y-108010994D01*
X117514774Y-107974500D01*
X117514772Y-107974500D01*
X117385228Y-107974500D01*
X117385226Y-107974500D01*
X117260935Y-108010994D01*
X117260932Y-108010995D01*
X117260931Y-108010996D01*
X117234121Y-108028226D01*
X117151950Y-108081033D01*
X117067118Y-108178937D01*
X117067117Y-108178938D01*
X117013302Y-108296774D01*
X116994867Y-108425000D01*
X115203919Y-108425000D01*
X115236697Y-108353226D01*
X115255133Y-108225000D01*
X115236697Y-108096774D01*
X115182882Y-107978937D01*
X115114484Y-107900000D01*
X122969867Y-107900000D01*
X122988302Y-108028225D01*
X123009436Y-108074500D01*
X123042118Y-108146063D01*
X123126951Y-108243967D01*
X123235931Y-108314004D01*
X123360225Y-108350499D01*
X123360227Y-108350500D01*
X123476853Y-108350500D01*
X123543892Y-108370185D01*
X123589647Y-108422989D01*
X123599590Y-108492145D01*
X123594867Y-108525000D01*
X123613302Y-108653225D01*
X123623475Y-108675500D01*
X123667118Y-108771063D01*
X123751951Y-108868967D01*
X123860931Y-108939004D01*
X123985225Y-108975499D01*
X123985227Y-108975500D01*
X123985228Y-108975500D01*
X124114773Y-108975500D01*
X124114773Y-108975499D01*
X124239069Y-108939004D01*
X124348049Y-108868967D01*
X124432882Y-108771063D01*
X124486697Y-108653226D01*
X124505133Y-108525000D01*
X124486697Y-108396774D01*
X124432882Y-108278937D01*
X124348049Y-108181033D01*
X124239069Y-108110996D01*
X124239065Y-108110994D01*
X124239064Y-108110994D01*
X124114774Y-108074500D01*
X124114772Y-108074500D01*
X123998147Y-108074500D01*
X123931108Y-108054815D01*
X123885353Y-108002011D01*
X123875409Y-107932853D01*
X123880133Y-107900000D01*
X123861697Y-107771774D01*
X123807882Y-107653937D01*
X123723049Y-107556033D01*
X123614069Y-107485996D01*
X123614065Y-107485994D01*
X123614064Y-107485994D01*
X123489774Y-107449500D01*
X123489772Y-107449500D01*
X123360228Y-107449500D01*
X123360226Y-107449500D01*
X123235935Y-107485994D01*
X123235932Y-107485995D01*
X123235931Y-107485996D01*
X123184677Y-107518934D01*
X123126950Y-107556033D01*
X123042118Y-107653937D01*
X123042117Y-107653938D01*
X122988302Y-107771774D01*
X122969867Y-107900000D01*
X115114484Y-107900000D01*
X115098049Y-107881033D01*
X114989069Y-107810996D01*
X114989065Y-107810994D01*
X114989064Y-107810994D01*
X114864774Y-107774500D01*
X114864772Y-107774500D01*
X114735228Y-107774500D01*
X114735226Y-107774500D01*
X114610935Y-107810994D01*
X114610932Y-107810995D01*
X114610931Y-107810996D01*
X114559677Y-107843934D01*
X114501950Y-107881033D01*
X114417118Y-107978937D01*
X114417117Y-107978938D01*
X114363302Y-108096774D01*
X114344867Y-108225000D01*
X105700500Y-108225000D01*
X105700500Y-106775000D01*
X117419867Y-106775000D01*
X117438302Y-106903225D01*
X117438628Y-106903938D01*
X117492118Y-107021063D01*
X117576951Y-107118967D01*
X117685931Y-107189004D01*
X117810225Y-107225499D01*
X117810227Y-107225500D01*
X117810228Y-107225500D01*
X117939773Y-107225500D01*
X117939773Y-107225499D01*
X118064069Y-107189004D01*
X118173049Y-107118967D01*
X118257882Y-107021063D01*
X118311697Y-106903226D01*
X118330133Y-106775000D01*
X118311697Y-106646774D01*
X118257882Y-106528937D01*
X118173049Y-106431033D01*
X118064069Y-106360996D01*
X118064065Y-106360994D01*
X118064064Y-106360994D01*
X117939774Y-106324500D01*
X117939772Y-106324500D01*
X117810228Y-106324500D01*
X117810226Y-106324500D01*
X117685935Y-106360994D01*
X117685932Y-106360995D01*
X117685931Y-106360996D01*
X117634677Y-106393934D01*
X117576950Y-106431033D01*
X117492118Y-106528937D01*
X117492117Y-106528938D01*
X117438302Y-106646774D01*
X117419867Y-106775000D01*
X105700500Y-106775000D01*
X105700500Y-106276409D01*
X119721276Y-106276409D01*
X119739711Y-106404634D01*
X119793526Y-106522470D01*
X119793527Y-106522472D01*
X119878360Y-106620376D01*
X119987340Y-106690413D01*
X120111634Y-106726908D01*
X120111636Y-106726909D01*
X120111637Y-106726909D01*
X120241182Y-106726909D01*
X120241182Y-106726908D01*
X120365478Y-106690413D01*
X120474458Y-106620376D01*
X120520102Y-106567698D01*
X120578877Y-106529926D01*
X120648746Y-106529924D01*
X120707525Y-106567697D01*
X120707527Y-106567700D01*
X120757758Y-106625670D01*
X120756735Y-106626555D01*
X120789517Y-106677566D01*
X120789517Y-106747435D01*
X120756736Y-106798443D01*
X120757759Y-106799330D01*
X120667118Y-106903937D01*
X120667117Y-106903938D01*
X120613302Y-107021774D01*
X120594867Y-107150000D01*
X120613302Y-107278225D01*
X120667117Y-107396061D01*
X120667118Y-107396063D01*
X120751951Y-107493967D01*
X120860931Y-107564004D01*
X120985225Y-107600499D01*
X120985227Y-107600500D01*
X120985228Y-107600500D01*
X121114773Y-107600500D01*
X121114773Y-107600499D01*
X121239069Y-107564004D01*
X121348049Y-107493967D01*
X121432882Y-107396063D01*
X121486697Y-107278226D01*
X121505133Y-107150000D01*
X121486697Y-107021774D01*
X121432882Y-106903937D01*
X121348049Y-106806033D01*
X121342241Y-106799330D01*
X121343264Y-106798442D01*
X121310484Y-106747443D01*
X121310479Y-106677574D01*
X121343262Y-106626554D01*
X121342241Y-106625670D01*
X121348049Y-106618967D01*
X121432882Y-106521063D01*
X121486697Y-106403226D01*
X121505133Y-106275000D01*
X121486697Y-106146774D01*
X121432882Y-106028937D01*
X121348049Y-105931033D01*
X121239069Y-105860996D01*
X121239065Y-105860994D01*
X121239064Y-105860994D01*
X121114774Y-105824500D01*
X121114772Y-105824500D01*
X120985228Y-105824500D01*
X120985226Y-105824500D01*
X120860935Y-105860994D01*
X120860932Y-105860995D01*
X120860931Y-105860996D01*
X120858739Y-105862405D01*
X120751948Y-105931035D01*
X120706307Y-105983708D01*
X120647529Y-106021483D01*
X120577660Y-106021483D01*
X120518881Y-105983709D01*
X120518881Y-105983708D01*
X120474460Y-105932444D01*
X120474459Y-105932443D01*
X120474458Y-105932442D01*
X120365478Y-105862405D01*
X120365474Y-105862403D01*
X120365473Y-105862403D01*
X120241183Y-105825909D01*
X120241181Y-105825909D01*
X120111637Y-105825909D01*
X120111635Y-105825909D01*
X119987344Y-105862403D01*
X119987341Y-105862404D01*
X119987340Y-105862405D01*
X119936086Y-105895343D01*
X119878359Y-105932442D01*
X119793527Y-106030346D01*
X119793526Y-106030347D01*
X119739711Y-106148183D01*
X119721276Y-106276409D01*
X105700500Y-106276409D01*
X105700500Y-104675000D01*
X119994867Y-104675000D01*
X120013302Y-104803225D01*
X120067117Y-104921061D01*
X120067118Y-104921063D01*
X120151951Y-105018967D01*
X120260931Y-105089004D01*
X120385225Y-105125499D01*
X120385227Y-105125500D01*
X120385228Y-105125500D01*
X120514773Y-105125500D01*
X120514773Y-105125499D01*
X120639069Y-105089004D01*
X120748049Y-105018967D01*
X120832882Y-104921063D01*
X120886697Y-104803226D01*
X120905133Y-104675000D01*
X120886697Y-104546774D01*
X120832882Y-104428937D01*
X120748049Y-104331033D01*
X120639069Y-104260996D01*
X120639065Y-104260994D01*
X120639064Y-104260994D01*
X120514774Y-104224500D01*
X120514772Y-104224500D01*
X120385228Y-104224500D01*
X120385226Y-104224500D01*
X120260935Y-104260994D01*
X120260932Y-104260995D01*
X120260931Y-104260996D01*
X120209677Y-104293934D01*
X120151950Y-104331033D01*
X120067118Y-104428937D01*
X120067117Y-104428938D01*
X120013302Y-104546774D01*
X119994867Y-104675000D01*
X105700500Y-104675000D01*
X105700500Y-98649000D01*
X105720185Y-98581961D01*
X105772989Y-98536206D01*
X105824500Y-98525000D01*
X134775500Y-98525000D01*
X134842539Y-98544685D01*
G37*
%TD.AperFunction*%
%TD*%
D18*
X128425000Y-129675000D03*
X131975000Y-130950000D03*
X128600000Y-116200000D03*
X122675000Y-98875000D03*
X114200000Y-146925000D03*
X120925000Y-134150000D03*
X108000000Y-152025000D03*
X127050000Y-165150000D03*
X125175000Y-99400000D03*
X106300000Y-165150000D03*
X106100000Y-106150000D03*
X108300000Y-165150000D03*
X134050000Y-165150000D03*
X134500000Y-118150001D03*
X106100000Y-120149999D03*
X132050000Y-165150000D03*
X119675000Y-98875000D03*
X118175000Y-99400000D03*
X134500000Y-156150000D03*
X120875000Y-164850000D03*
X117575000Y-100725000D03*
X134500000Y-116150001D03*
X134175000Y-99400000D03*
X113650000Y-149675000D03*
X134500000Y-137650000D03*
X126575000Y-135400000D03*
X106100000Y-160899999D03*
X110425000Y-99400000D03*
X120925000Y-131650000D03*
X125050000Y-165150000D03*
X132675000Y-98850000D03*
X106100000Y-110150000D03*
X123050000Y-100900000D03*
X106100000Y-105149999D03*
X123050000Y-102875000D03*
X124700000Y-101875000D03*
X107425000Y-143150000D03*
X123050000Y-103650000D03*
X116300000Y-161000000D03*
X120925000Y-135400000D03*
X123675000Y-104400000D03*
X134500000Y-101150000D03*
X134500000Y-145650000D03*
X129175000Y-99400000D03*
X134500000Y-128150000D03*
X118500000Y-154075000D03*
X117975000Y-165025000D03*
X124300000Y-138400000D03*
X117675000Y-98875000D03*
X106100000Y-145899999D03*
X133575000Y-165600000D03*
X121050000Y-100950000D03*
X119850000Y-144600000D03*
X134500000Y-158150001D03*
X124300000Y-134150000D03*
X117525000Y-164275000D03*
X106525000Y-123950000D03*
X131050000Y-165150000D03*
X133175000Y-99400000D03*
X126106250Y-125718748D03*
X123700000Y-98875000D03*
X134500000Y-143650000D03*
X112775000Y-165650000D03*
X126300000Y-102900000D03*
X106100000Y-103149999D03*
X124200000Y-99400000D03*
X107425000Y-139124999D03*
X106100000Y-156899999D03*
X126175000Y-99400000D03*
X134500000Y-105150000D03*
X134500000Y-160150001D03*
X106100000Y-109149999D03*
X134550000Y-165600000D03*
X119700000Y-103675000D03*
X125550000Y-165625000D03*
X106100000Y-114150000D03*
X107425000Y-141124999D03*
X129550000Y-165600000D03*
X113050000Y-109925000D03*
X106100000Y-147900000D03*
X111300000Y-165150000D03*
X107300000Y-165150000D03*
X106100000Y-152900000D03*
X134500000Y-138650000D03*
X134500000Y-131150001D03*
X134500000Y-114150000D03*
X106424999Y-99399999D03*
X118650000Y-150625000D03*
X132550000Y-165600000D03*
X122100000Y-150475000D03*
X121900000Y-110588909D03*
X116075000Y-136475000D03*
X116675000Y-158025000D03*
X106100000Y-100149999D03*
X119250000Y-100950000D03*
X107925000Y-136150000D03*
X134500000Y-161150000D03*
X115675000Y-101525000D03*
X129675000Y-98850000D03*
X116925000Y-100150000D03*
X110925000Y-98900000D03*
X121175000Y-99400000D03*
X116300000Y-165150000D03*
X115299780Y-165148097D03*
X106100000Y-151899999D03*
X134500000Y-141650001D03*
X110300000Y-165150000D03*
X116550000Y-103025000D03*
X106100000Y-112149999D03*
X117325000Y-104025000D03*
X116675000Y-98875000D03*
X106512500Y-127300000D03*
X134500000Y-125150001D03*
X120200000Y-162625000D03*
X122550000Y-165625000D03*
X122000000Y-165125000D03*
X114800000Y-98875000D03*
X124675000Y-104400000D03*
X107425000Y-142125000D03*
X119950000Y-157225000D03*
X125050000Y-108025000D03*
X127175000Y-102525000D03*
X124237500Y-143837500D03*
X106100000Y-157900000D03*
X128550000Y-165600000D03*
X120200000Y-99400000D03*
X134500000Y-127150000D03*
X132225000Y-122150000D03*
X106100000Y-161899999D03*
X126300000Y-100900000D03*
X134500000Y-104150001D03*
X134500000Y-120150000D03*
X106925000Y-98900000D03*
X131550000Y-165600000D03*
X118675000Y-98875000D03*
X106100000Y-121149999D03*
X106100000Y-102149999D03*
X108925000Y-98900000D03*
X114200000Y-155175000D03*
X129050000Y-165150000D03*
X126300000Y-100150000D03*
X116350000Y-163450000D03*
X127175000Y-99400000D03*
X113800000Y-165650000D03*
X110325000Y-139300000D03*
X123575000Y-165625000D03*
X134500000Y-113150000D03*
X107425000Y-138125000D03*
X120200000Y-163450000D03*
X111425000Y-99400000D03*
X106100000Y-163900000D03*
X116275000Y-162675000D03*
X121900000Y-112875000D03*
X114800000Y-165650000D03*
X106100000Y-119149999D03*
X132175000Y-99400000D03*
X126300000Y-103675000D03*
X122250000Y-159075000D03*
X124237500Y-146900000D03*
X108800000Y-120775000D03*
X122100000Y-154075000D03*
X127175000Y-101275000D03*
X106100000Y-118150000D03*
X106100000Y-108149999D03*
X133050000Y-165150000D03*
X119175000Y-99400000D03*
X108000000Y-155150000D03*
X106950000Y-100025000D03*
X128050000Y-165150000D03*
X134500000Y-142650000D03*
X134500000Y-112150000D03*
X120675000Y-98875000D03*
X121025000Y-102775000D03*
X130675000Y-98850000D03*
X114925000Y-99900000D03*
X133250000Y-154887501D03*
X134500000Y-163150000D03*
X109300000Y-165150000D03*
X117675000Y-165650000D03*
X128675000Y-98850000D03*
X111125000Y-148900000D03*
X131175000Y-99400000D03*
X134500000Y-132150001D03*
X126550000Y-165625000D03*
X110225000Y-112375000D03*
X116150000Y-102275000D03*
X109925000Y-98900000D03*
X114200000Y-145375000D03*
X110800000Y-165650000D03*
X116300000Y-161850000D03*
X134500000Y-106150000D03*
X106100000Y-146899999D03*
X106100000Y-153900000D03*
X106100000Y-162900000D03*
X134500000Y-109150001D03*
X134500000Y-115150000D03*
X127050000Y-147175000D03*
X111925000Y-98900000D03*
X107425000Y-99425000D03*
X124675000Y-98875000D03*
X134500000Y-157150000D03*
X131675000Y-98850000D03*
X127300000Y-108025000D03*
X107800000Y-165650000D03*
X118350000Y-100775000D03*
X118550000Y-165650000D03*
X115150000Y-100775000D03*
X124237500Y-145400000D03*
X124075000Y-165150000D03*
X116950000Y-157250000D03*
X120175000Y-159925000D03*
X113300000Y-165150000D03*
X120175000Y-158925000D03*
X125675000Y-98875000D03*
X106100000Y-158900000D03*
X126850000Y-159075000D03*
X122050000Y-100950000D03*
X126106250Y-127243748D03*
X106100000Y-154899999D03*
X123075000Y-165150000D03*
X106575000Y-133775000D03*
X117525000Y-145375000D03*
X119075000Y-117825000D03*
X106100000Y-115149999D03*
X134500000Y-111150001D03*
X134500000Y-164150000D03*
X127825000Y-154125000D03*
X117925000Y-103525000D03*
X134500000Y-110150001D03*
X115900000Y-117825000D03*
X133550000Y-164525000D03*
X121425000Y-165625000D03*
X134500000Y-144650000D03*
X119675000Y-158000000D03*
X134500000Y-122150000D03*
X120925000Y-137900000D03*
X112425000Y-99400000D03*
X134500000Y-103150001D03*
X116325000Y-160025000D03*
X134500000Y-126150000D03*
X134500000Y-119150000D03*
X122050000Y-102775000D03*
X126675000Y-98875000D03*
X130050000Y-165150000D03*
X109025000Y-146650000D03*
X106100000Y-144899999D03*
X134500000Y-147650001D03*
X109425000Y-99400000D03*
X116325000Y-159025000D03*
X134500000Y-148650001D03*
X106575000Y-136025000D03*
X106512500Y-128825000D03*
X108425000Y-99400000D03*
X127550000Y-165625000D03*
X107925000Y-98900000D03*
X106100000Y-143900000D03*
X127675000Y-98875000D03*
X114300000Y-165150000D03*
X130150000Y-154887501D03*
X120925000Y-129150000D03*
X125675000Y-104400000D03*
X117325000Y-103025000D03*
X106100000Y-101149999D03*
X117175000Y-99400000D03*
X123050000Y-100150000D03*
X114200000Y-153600000D03*
X134500000Y-159150001D03*
X118696922Y-110588909D03*
X120175000Y-161800000D03*
X134500000Y-102150001D03*
X107425000Y-140124999D03*
X120175000Y-160850000D03*
X117225000Y-165100000D03*
X118700000Y-112875000D03*
X126050000Y-165150000D03*
X134500000Y-130150001D03*
X117450000Y-156550000D03*
X106800000Y-165650000D03*
X106100000Y-104149999D03*
X106100000Y-150899999D03*
X106100000Y-107149999D03*
X106575000Y-134875001D03*
X112300000Y-165150000D03*
X106100000Y-148900000D03*
X106100000Y-122150000D03*
X128175000Y-99400000D03*
X116550000Y-164250000D03*
X122175000Y-99400000D03*
X106512500Y-130400000D03*
X134500000Y-121150000D03*
X120050000Y-100950000D03*
X134500000Y-140650001D03*
X106100000Y-149899999D03*
X106575000Y-132000000D03*
X120925000Y-130400000D03*
X106100000Y-113149999D03*
X134500000Y-107150000D03*
X134500000Y-117150001D03*
X106100000Y-111149999D03*
X134500000Y-162150000D03*
X106100000Y-117149999D03*
X123175000Y-99400000D03*
X120925000Y-136650000D03*
X134500000Y-146650001D03*
X115800000Y-107525000D03*
X121537500Y-143837500D03*
X121675000Y-98875000D03*
X130550000Y-165600000D03*
X106100000Y-155899999D03*
X134500000Y-129150000D03*
X134500000Y-123150001D03*
X109800000Y-165650000D03*
X115800000Y-165650000D03*
X134500000Y-108150000D03*
X134500000Y-124150001D03*
X124550000Y-165625000D03*
X106100000Y-159899999D03*
X124550000Y-158525000D03*
X107925000Y-133650000D03*
X134500000Y-139650001D03*
X130175000Y-99400000D03*
X120925000Y-132900000D03*
X113650000Y-151225000D03*
X108800000Y-122250000D03*
X111800000Y-165650000D03*
X106100000Y-116149999D03*
X115800000Y-112800000D03*
X106800000Y-164525000D03*
X133700000Y-98850000D03*
X134500000Y-100150000D03*
X134500000Y-133150000D03*
X120350000Y-164275000D03*
X112550000Y-108225000D03*
X116800000Y-165650000D03*
X108800000Y-165650000D03*
X127450000Y-137450000D03*
X117547229Y-114025000D03*
X127600000Y-158075000D03*
X127450000Y-138450000D03*
X128925000Y-137975000D03*
X106574999Y-141775000D03*
X106575000Y-139525000D03*
X121500000Y-158075000D03*
X128450000Y-138450000D03*
X106575000Y-140675000D03*
X110325000Y-134600000D03*
X127950000Y-137950000D03*
X115150000Y-109850000D03*
X128450000Y-137450000D03*
X123025000Y-158075000D03*
X117450000Y-116275000D03*
X112537500Y-136912500D03*
X126825000Y-150250000D03*
X119850000Y-146375000D03*
X115900000Y-116275000D03*
X130875000Y-146225000D03*
X111900000Y-124975000D03*
X117525000Y-146925000D03*
X120450000Y-104675000D03*
X126825000Y-154900000D03*
X117875000Y-106775000D03*
X127950000Y-136950000D03*
X129475000Y-138450000D03*
X126275000Y-146175000D03*
X126075000Y-158075000D03*
X118425000Y-119475000D03*
X115925000Y-155175000D03*
X108725000Y-134875000D03*
X130100000Y-147175000D03*
X126825000Y-153350000D03*
X117350000Y-154900000D03*
X112125000Y-154375000D03*
X116175000Y-153500000D03*
X109800000Y-150450000D03*
X106525000Y-125500000D03*
X125300000Y-110025000D03*
X123250000Y-113900000D03*
X124054940Y-115779941D03*
X111973591Y-115723591D03*
X124536091Y-110038909D03*
X108725000Y-140674999D03*
X118913909Y-148311091D03*
X118900000Y-144375000D03*
X122575000Y-116275001D03*
X121050000Y-146656580D03*
X123487500Y-147550000D03*
X122126232Y-115160503D03*
X125169973Y-151905027D03*
X117450000Y-108425000D03*
X114800000Y-108225000D03*
X123050000Y-155025000D03*
X125300000Y-110775000D03*
X125425000Y-149700000D03*
X124050000Y-108525000D03*
X122387500Y-139316916D03*
X125299611Y-111625000D03*
X121049999Y-148156585D03*
X124800000Y-153275000D03*
X121050000Y-107150000D03*
X120162500Y-139166672D03*
X124905801Y-112285023D03*
X122025000Y-147425000D03*
X124549608Y-111625000D03*
X120146659Y-138416837D03*
X121050000Y-147406583D03*
X123425000Y-107900000D03*
X125425001Y-151155025D03*
X123950000Y-155525000D03*
X121050000Y-106275000D03*
X120176409Y-106276409D03*
X124715683Y-155495188D03*
X125300000Y-155025000D03*
X129250000Y-144974998D03*
D19*
X107650000Y-102275000D03*
X108133274Y-101108274D03*
X108133274Y-103441726D03*
X109300000Y-100625000D03*
X109300000Y-102275000D03*
X109300000Y-103925000D03*
X110466726Y-101108274D03*
X110466726Y-103441726D03*
X110950000Y-102275000D03*
X124525000Y-130249999D03*
X127065000Y-130249999D03*
X107650000Y-162275000D03*
X108133274Y-161108274D03*
X108133274Y-163441726D03*
X109300000Y-160625000D03*
X109300000Y-162275000D03*
X109300000Y-163925000D03*
X110466726Y-161108274D03*
X110466726Y-163441726D03*
X110950000Y-162275000D03*
D20*
X131450000Y-136400000D03*
X131450000Y-134200000D03*
X129250000Y-136400000D03*
X129250000Y-134200000D03*
D18*
X113650000Y-98775000D03*
D19*
X129650000Y-102275000D03*
X130133274Y-101108274D03*
X130133274Y-103441726D03*
X131300000Y-100625000D03*
X131300000Y-102275000D03*
X131300000Y-103925000D03*
X132466726Y-101108274D03*
X132466726Y-103441726D03*
X132950000Y-102275000D03*
X113425000Y-140400000D03*
X112975000Y-133800000D03*
X115515000Y-133800000D03*
X131200000Y-117950000D03*
X131200000Y-115410000D03*
X131200000Y-112870001D03*
X131200000Y-110330000D03*
X131200000Y-107790000D03*
X129650000Y-162275000D03*
X130133274Y-161108274D03*
X130133274Y-163441726D03*
X131300000Y-160625000D03*
X131300000Y-162275000D03*
X131300000Y-163925000D03*
X132466726Y-161108274D03*
X132466726Y-163441726D03*
X132950000Y-162275000D03*
X124275000Y-140400000D03*
X117175000Y-140400000D03*
X120925000Y-140400000D03*
M02*
