%TF.GenerationSoftware,KiCad,Pcbnew,8.0.6*%
%TF.CreationDate,2024-12-19T09:14:43+01:00*%
%TF.ProjectId,Clicker_PCB,436c6963-6b65-4725-9f50-43422e6b6963,rev?*%
%TF.SameCoordinates,Original*%
%TF.FileFunction,Soldermask,Bot*%
%TF.FilePolarity,Negative*%
%FSLAX46Y46*%
G04 Gerber Fmt 4.6, Leading zero omitted, Abs format (unit mm)*
G04 Created by KiCad (PCBNEW 8.0.6) date 2024-12-19 09:14:43*
%MOMM*%
%LPD*%
G01*
G04 APERTURE LIST*
%ADD10C,0.700000*%
%ADD11C,4.400000*%
%ADD12R,1.700000X1.700000*%
%ADD13O,1.700000X1.700000*%
%ADD14C,2.000000*%
G04 APERTURE END LIST*
D10*
%TO.C,H1*%
X107650000Y-102275000D03*
X108133274Y-101108274D03*
X108133274Y-103441726D03*
X109300000Y-100625000D03*
D11*
X109300000Y-102275000D03*
D10*
X109300000Y-103925000D03*
X110466726Y-101108274D03*
X110466726Y-103441726D03*
X110950000Y-102275000D03*
%TD*%
D12*
%TO.C,BT1*%
X124525000Y-130249999D03*
D13*
X127065000Y-130249999D03*
%TD*%
D10*
%TO.C,H3*%
X107650000Y-162275000D03*
X108133274Y-161108274D03*
X108133274Y-163441726D03*
X109300000Y-160625000D03*
D11*
X109300000Y-162275000D03*
D10*
X109300000Y-163925000D03*
X110466726Y-161108274D03*
X110466726Y-163441726D03*
X110950000Y-162275000D03*
%TD*%
%TO.C,H2*%
X129650000Y-102275000D03*
X130133274Y-101108274D03*
X130133274Y-103441726D03*
X131300000Y-100625000D03*
D11*
X131300000Y-102275000D03*
D10*
X131300000Y-103925000D03*
X132466726Y-101108274D03*
X132466726Y-103441726D03*
X132950000Y-102275000D03*
%TD*%
D14*
%TO.C,TP5*%
X113425000Y-140400000D03*
%TD*%
D12*
%TO.C,SW1*%
X112975000Y-133800000D03*
D13*
X115515000Y-133800000D03*
%TD*%
D12*
%TO.C,J1*%
X131200000Y-117950000D03*
D13*
X131200000Y-115410000D03*
X131200000Y-112870001D03*
X131200000Y-110330000D03*
X131200000Y-107790000D03*
%TD*%
D10*
%TO.C,H4*%
X129650000Y-162275000D03*
X130133274Y-161108274D03*
X130133274Y-163441726D03*
X131300000Y-160625000D03*
D11*
X131300000Y-162275000D03*
D10*
X131300000Y-163925000D03*
X132466726Y-161108274D03*
X132466726Y-163441726D03*
X132950000Y-162275000D03*
%TD*%
D14*
%TO.C,TP7*%
X124275000Y-140400000D03*
%TD*%
%TO.C,TP4*%
X117175000Y-140400000D03*
%TD*%
%TO.C,TP6*%
X120925000Y-140400000D03*
%TD*%
M02*
