%TF.GenerationSoftware,KiCad,Pcbnew,8.0.6*%
%TF.CreationDate,2024-12-19T09:16:50+01:00*%
%TF.ProjectId,Clicker_PCB,436c6963-6b65-4725-9f50-43422e6b6963,rev?*%
%TF.SameCoordinates,Original*%
%TF.FileFunction,Soldermask,Top*%
%TF.FilePolarity,Negative*%
%FSLAX46Y46*%
G04 Gerber Fmt 4.6, Leading zero omitted, Abs format (unit mm)*
G04 Created by KiCad (PCBNEW 8.0.6) date 2024-12-19 09:16:50*
%MOMM*%
%LPD*%
G01*
G04 APERTURE LIST*
G04 Aperture macros list*
%AMRoundRect*
0 Rectangle with rounded corners*
0 $1 Rounding radius*
0 $2 $3 $4 $5 $6 $7 $8 $9 X,Y pos of 4 corners*
0 Add a 4 corners polygon primitive as box body*
4,1,4,$2,$3,$4,$5,$6,$7,$8,$9,$2,$3,0*
0 Add four circle primitives for the rounded corners*
1,1,$1+$1,$2,$3*
1,1,$1+$1,$4,$5*
1,1,$1+$1,$6,$7*
1,1,$1+$1,$8,$9*
0 Add four rect primitives between the rounded corners*
20,1,$1+$1,$2,$3,$4,$5,0*
20,1,$1+$1,$4,$5,$6,$7,0*
20,1,$1+$1,$6,$7,$8,$9,0*
20,1,$1+$1,$8,$9,$2,$3,0*%
%AMOutline5P*
0 Free polygon, 5 corners , with rotation*
0 The origin of the aperture is its center*
0 number of corners: always 5*
0 $1 to $10 corner X, Y*
0 $11 Rotation angle, in degrees counterclockwise*
0 create outline with 5 corners*
4,1,5,$1,$2,$3,$4,$5,$6,$7,$8,$9,$10,$1,$2,$11*%
%AMOutline6P*
0 Free polygon, 6 corners , with rotation*
0 The origin of the aperture is its center*
0 number of corners: always 6*
0 $1 to $12 corner X, Y*
0 $13 Rotation angle, in degrees counterclockwise*
0 create outline with 6 corners*
4,1,6,$1,$2,$3,$4,$5,$6,$7,$8,$9,$10,$11,$12,$1,$2,$13*%
%AMOutline7P*
0 Free polygon, 7 corners , with rotation*
0 The origin of the aperture is its center*
0 number of corners: always 7*
0 $1 to $14 corner X, Y*
0 $15 Rotation angle, in degrees counterclockwise*
0 create outline with 7 corners*
4,1,7,$1,$2,$3,$4,$5,$6,$7,$8,$9,$10,$11,$12,$13,$14,$1,$2,$15*%
%AMOutline8P*
0 Free polygon, 8 corners , with rotation*
0 The origin of the aperture is its center*
0 number of corners: always 8*
0 $1 to $16 corner X, Y*
0 $17 Rotation angle, in degrees counterclockwise*
0 create outline with 8 corners*
4,1,8,$1,$2,$3,$4,$5,$6,$7,$8,$9,$10,$11,$12,$13,$14,$15,$16,$1,$2,$17*%
%AMFreePoly0*
4,1,6,1.000000,0.000000,0.500000,-0.750000,-0.500000,-0.750000,-0.500000,0.750000,0.500000,0.750000,1.000000,0.000000,1.000000,0.000000,$1*%
%AMFreePoly1*
4,1,6,0.500000,-0.750000,-0.650000,-0.750000,-0.150000,0.000000,-0.650000,0.750000,0.500000,0.750000,0.500000,-0.750000,0.500000,-0.750000,$1*%
G04 Aperture macros list end*
%ADD10C,0.200000*%
%ADD11C,0.100000*%
%ADD12RoundRect,0.225000X-0.250000X0.225000X-0.250000X-0.225000X0.250000X-0.225000X0.250000X0.225000X0*%
%ADD13C,0.700000*%
%ADD14C,4.400000*%
%ADD15RoundRect,0.218750X-0.381250X0.218750X-0.381250X-0.218750X0.381250X-0.218750X0.381250X0.218750X0*%
%ADD16RoundRect,0.200000X0.275000X-0.200000X0.275000X0.200000X-0.275000X0.200000X-0.275000X-0.200000X0*%
%ADD17RoundRect,0.200000X-0.275000X0.200000X-0.275000X-0.200000X0.275000X-0.200000X0.275000X0.200000X0*%
%ADD18RoundRect,0.225000X0.225000X0.250000X-0.225000X0.250000X-0.225000X-0.250000X0.225000X-0.250000X0*%
%ADD19RoundRect,0.225000X0.375000X-0.225000X0.375000X0.225000X-0.375000X0.225000X-0.375000X-0.225000X0*%
%ADD20RoundRect,0.225000X-0.225000X-0.250000X0.225000X-0.250000X0.225000X0.250000X-0.225000X0.250000X0*%
%ADD21Outline5P,-0.425000X0.300000X0.425000X0.300000X0.425000X-0.030000X0.155000X-0.300000X-0.425000X-0.300000X0.000000*%
%ADD22R,0.850000X0.600000*%
%ADD23RoundRect,0.218750X-0.218750X-0.256250X0.218750X-0.256250X0.218750X0.256250X-0.218750X0.256250X0*%
%ADD24RoundRect,0.250000X-0.625000X0.375000X-0.625000X-0.375000X0.625000X-0.375000X0.625000X0.375000X0*%
%ADD25R,1.700000X1.700000*%
%ADD26O,1.700000X1.700000*%
%ADD27RoundRect,0.218750X0.256250X-0.218750X0.256250X0.218750X-0.256250X0.218750X-0.256250X-0.218750X0*%
%ADD28R,1.100000X1.100000*%
%ADD29RoundRect,0.225000X0.250000X-0.225000X0.250000X0.225000X-0.250000X0.225000X-0.250000X-0.225000X0*%
%ADD30RoundRect,0.062500X0.337500X0.062500X-0.337500X0.062500X-0.337500X-0.062500X0.337500X-0.062500X0*%
%ADD31RoundRect,0.062500X0.062500X0.337500X-0.062500X0.337500X-0.062500X-0.337500X0.062500X-0.337500X0*%
%ADD32R,2.700000X2.700000*%
%ADD33RoundRect,0.200000X-0.200000X-0.275000X0.200000X-0.275000X0.200000X0.275000X-0.200000X0.275000X0*%
%ADD34C,0.255000*%
%ADD35FreePoly0,90.000000*%
%ADD36FreePoly1,90.000000*%
%ADD37R,1.400000X1.200000*%
%ADD38R,0.650000X1.050000*%
%ADD39R,1.000000X1.150000*%
%ADD40RoundRect,0.200000X0.200000X0.275000X-0.200000X0.275000X-0.200000X-0.275000X0.200000X-0.275000X0*%
%ADD41C,2.000000*%
%ADD42R,1.800000X1.000000*%
%ADD43C,1.500000*%
%ADD44R,1.000000X1.000000*%
%ADD45R,2.200000X1.050000*%
%ADD46RoundRect,0.150000X0.587500X0.150000X-0.587500X0.150000X-0.587500X-0.150000X0.587500X-0.150000X0*%
%ADD47RoundRect,0.050000X-0.375000X-0.050000X0.375000X-0.050000X0.375000X0.050000X-0.375000X0.050000X0*%
%ADD48RoundRect,0.050000X-0.050000X-0.375000X0.050000X-0.375000X0.050000X0.375000X-0.050000X0.375000X0*%
%ADD49R,4.200000X4.200000*%
%ADD50RoundRect,0.050000X0.350000X0.050000X-0.350000X0.050000X-0.350000X-0.050000X0.350000X-0.050000X0*%
%ADD51RoundRect,0.050000X0.050000X0.350000X-0.050000X0.350000X-0.050000X-0.350000X0.050000X-0.350000X0*%
%ADD52R,4.300000X4.300000*%
%ADD53R,1.000000X0.300000*%
%ADD54RoundRect,0.218750X-0.218750X-0.381250X0.218750X-0.381250X0.218750X0.381250X-0.218750X0.381250X0*%
%ADD55RoundRect,0.062500X0.350000X0.062500X-0.350000X0.062500X-0.350000X-0.062500X0.350000X-0.062500X0*%
%ADD56R,1.580000X2.350000*%
G04 APERTURE END LIST*
D10*
X119350249Y-155144649D02*
X119377839Y-155172239D01*
X119392771Y-155208287D01*
X119394692Y-155227796D01*
X119394692Y-155516458D01*
X119400563Y-155524105D01*
X119414825Y-155558498D01*
X119416836Y-155573707D01*
X119417771Y-155575964D01*
X119419626Y-155594811D01*
X119419706Y-155595410D01*
X119419692Y-155595410D01*
X119419687Y-155595426D01*
X119419692Y-155595473D01*
X119419692Y-155729052D01*
X119419690Y-155729062D01*
X119419692Y-155729066D01*
X119418796Y-155738147D01*
X119417771Y-155748561D01*
X119417768Y-155748566D01*
X119410743Y-155819809D01*
X119384264Y-155907062D01*
X119341274Y-155987475D01*
X119295922Y-156042728D01*
X119295885Y-156042819D01*
X119283448Y-156057972D01*
X118557973Y-156783448D01*
X118557632Y-156783727D01*
X118488594Y-156852770D01*
X118369185Y-157008398D01*
X118271111Y-157178280D01*
X118196050Y-157359510D01*
X118145286Y-157548987D01*
X118119689Y-157743469D01*
X118119692Y-157841549D01*
X118119692Y-158096210D01*
X118106374Y-158265407D01*
X118066753Y-158430437D01*
X118001803Y-158587238D01*
X117913124Y-158731947D01*
X117803017Y-158860863D01*
X117802902Y-158861005D01*
X117533080Y-159130829D01*
X117533045Y-159130856D01*
X117533039Y-159130869D01*
X117532921Y-159130958D01*
X117517927Y-159143265D01*
X117515621Y-159144220D01*
X117499829Y-159156325D01*
X117461165Y-159172324D01*
X117441549Y-159174902D01*
X117439201Y-159175875D01*
X117419692Y-159177796D01*
X117394692Y-159177796D01*
X117375183Y-159175875D01*
X117339135Y-159160943D01*
X117311545Y-159133353D01*
X117296613Y-159097305D01*
X117296613Y-159058287D01*
X117311545Y-159022239D01*
X117339135Y-158994649D01*
X117375183Y-158979717D01*
X117394692Y-158977796D01*
X117403269Y-158977796D01*
X117661480Y-158719584D01*
X117661480Y-158719583D01*
X117661478Y-158719581D01*
X117710539Y-158670521D01*
X117792103Y-158558258D01*
X117855101Y-158434619D01*
X117897983Y-158302646D01*
X117919691Y-158165590D01*
X117919692Y-158096208D01*
X117919692Y-157841546D01*
X117934198Y-157620129D01*
X117977481Y-157402491D01*
X118048802Y-157192364D01*
X118146940Y-156993344D01*
X118270215Y-156808837D01*
X118416519Y-156641998D01*
X118416549Y-156642029D01*
X118416551Y-156642026D01*
X119142027Y-155916551D01*
X119142030Y-155916548D01*
X119142010Y-155916528D01*
X119166696Y-155891845D01*
X119201610Y-155831384D01*
X119219687Y-155763947D01*
X119219692Y-155729038D01*
X119219692Y-155614126D01*
X119213808Y-155606457D01*
X119199559Y-155572066D01*
X119197558Y-155556909D01*
X119196613Y-155554627D01*
X119194720Y-155535402D01*
X119194688Y-155535160D01*
X119194692Y-155535160D01*
X119194695Y-155535148D01*
X119194692Y-155535118D01*
X119194692Y-155227796D01*
X119196613Y-155208287D01*
X119211545Y-155172239D01*
X119239135Y-155144649D01*
X119275183Y-155129717D01*
X119314201Y-155129717D01*
X119350249Y-155144649D01*
G36*
X119350249Y-155144649D02*
G01*
X119377839Y-155172239D01*
X119392771Y-155208287D01*
X119394692Y-155227796D01*
X119394692Y-155516458D01*
X119400563Y-155524105D01*
X119414825Y-155558498D01*
X119416836Y-155573707D01*
X119417771Y-155575964D01*
X119419626Y-155594811D01*
X119419706Y-155595410D01*
X119419692Y-155595410D01*
X119419687Y-155595426D01*
X119419692Y-155595473D01*
X119419692Y-155729052D01*
X119419690Y-155729062D01*
X119419692Y-155729066D01*
X119418796Y-155738147D01*
X119417771Y-155748561D01*
X119417768Y-155748566D01*
X119410743Y-155819809D01*
X119384264Y-155907062D01*
X119341274Y-155987475D01*
X119295922Y-156042728D01*
X119295885Y-156042819D01*
X119283448Y-156057972D01*
X118557973Y-156783448D01*
X118557632Y-156783727D01*
X118488594Y-156852770D01*
X118369185Y-157008398D01*
X118271111Y-157178280D01*
X118196050Y-157359510D01*
X118145286Y-157548987D01*
X118119689Y-157743469D01*
X118119692Y-157841549D01*
X118119692Y-158096210D01*
X118106374Y-158265407D01*
X118066753Y-158430437D01*
X118001803Y-158587238D01*
X117913124Y-158731947D01*
X117803017Y-158860863D01*
X117802902Y-158861005D01*
X117533080Y-159130829D01*
X117533045Y-159130856D01*
X117533039Y-159130869D01*
X117532921Y-159130958D01*
X117517927Y-159143265D01*
X117515621Y-159144220D01*
X117499829Y-159156325D01*
X117461165Y-159172324D01*
X117441549Y-159174902D01*
X117439201Y-159175875D01*
X117419692Y-159177796D01*
X117394692Y-159177796D01*
X117375183Y-159175875D01*
X117339135Y-159160943D01*
X117311545Y-159133353D01*
X117296613Y-159097305D01*
X117296613Y-159058287D01*
X117311545Y-159022239D01*
X117339135Y-158994649D01*
X117375183Y-158979717D01*
X117394692Y-158977796D01*
X117403269Y-158977796D01*
X117661480Y-158719584D01*
X117661480Y-158719583D01*
X117661478Y-158719581D01*
X117710539Y-158670521D01*
X117792103Y-158558258D01*
X117855101Y-158434619D01*
X117897983Y-158302646D01*
X117919691Y-158165590D01*
X117919692Y-158096208D01*
X117919692Y-157841546D01*
X117934198Y-157620129D01*
X117977481Y-157402491D01*
X118048802Y-157192364D01*
X118146940Y-156993344D01*
X118270215Y-156808837D01*
X118416519Y-156641998D01*
X118416549Y-156642029D01*
X118416551Y-156642026D01*
X119142027Y-155916551D01*
X119142030Y-155916548D01*
X119142010Y-155916528D01*
X119166696Y-155891845D01*
X119201610Y-155831384D01*
X119219687Y-155763947D01*
X119219692Y-155729038D01*
X119219692Y-155614126D01*
X119213808Y-155606457D01*
X119199559Y-155572066D01*
X119197558Y-155556909D01*
X119196613Y-155554627D01*
X119194720Y-155535402D01*
X119194688Y-155535160D01*
X119194692Y-155535160D01*
X119194695Y-155535148D01*
X119194692Y-155535118D01*
X119194692Y-155227796D01*
X119196613Y-155208287D01*
X119211545Y-155172239D01*
X119239135Y-155144649D01*
X119275183Y-155129717D01*
X119314201Y-155129717D01*
X119350249Y-155144649D01*
G37*
D11*
X118719446Y-104000066D02*
X118753934Y-104034554D01*
X118772598Y-104079614D01*
X118775000Y-104104000D01*
X118775000Y-104975000D01*
X118772598Y-104999386D01*
X118753934Y-105044446D01*
X118719446Y-105078934D01*
X118674386Y-105097598D01*
X118625614Y-105097598D01*
X118580554Y-105078934D01*
X118546066Y-105044446D01*
X118527402Y-104999386D01*
X118525000Y-104975000D01*
X118525000Y-104104000D01*
X118527402Y-104079614D01*
X118546066Y-104034554D01*
X118580554Y-104000066D01*
X118625614Y-103981402D01*
X118674386Y-103981402D01*
X118719446Y-104000066D01*
G36*
X118719446Y-104000066D02*
G01*
X118753934Y-104034554D01*
X118772598Y-104079614D01*
X118775000Y-104104000D01*
X118775000Y-104975000D01*
X118772598Y-104999386D01*
X118753934Y-105044446D01*
X118719446Y-105078934D01*
X118674386Y-105097598D01*
X118625614Y-105097598D01*
X118580554Y-105078934D01*
X118546066Y-105044446D01*
X118527402Y-104999386D01*
X118525000Y-104975000D01*
X118525000Y-104104000D01*
X118527402Y-104079614D01*
X118546066Y-104034554D01*
X118580554Y-104000066D01*
X118625614Y-103981402D01*
X118674386Y-103981402D01*
X118719446Y-104000066D01*
G37*
X118200000Y-96264879D02*
X118199944Y-96264935D01*
X118200010Y-96265001D01*
X120199936Y-96265001D01*
X120200000Y-96264937D01*
X120200000Y-93625000D01*
X122900000Y-93625000D01*
X122900057Y-93625057D01*
X122900057Y-96264886D01*
X124900022Y-96264886D01*
X124900046Y-96264862D01*
X124900046Y-93625046D01*
X124900000Y-93625000D01*
X127600000Y-93625000D01*
X127600000Y-98062500D01*
X127100000Y-98062500D01*
X127100000Y-94125000D01*
X125400000Y-94125000D01*
X125400000Y-96764974D01*
X125400038Y-96765012D01*
X122400074Y-96765012D01*
X122399963Y-96764901D01*
X122399963Y-94125037D01*
X122400000Y-94125000D01*
X120700000Y-94125000D01*
X120700000Y-96764816D01*
X120700121Y-96764937D01*
X120700010Y-96765048D01*
X117699903Y-96765048D01*
X117699903Y-94125097D01*
X117700000Y-94125000D01*
X116000000Y-94125000D01*
X116000000Y-99025000D01*
X115500000Y-99025000D01*
X115500000Y-94125000D01*
X114100000Y-94125000D01*
X114100000Y-98525000D01*
X113200000Y-98525000D01*
X113200000Y-93625000D01*
X118200000Y-93625000D01*
X118200000Y-96264879D01*
G36*
X118200000Y-96264879D02*
G01*
X118199944Y-96264935D01*
X118200010Y-96265001D01*
X120199936Y-96265001D01*
X120200000Y-96264937D01*
X120200000Y-93625000D01*
X122900000Y-93625000D01*
X122900057Y-93625057D01*
X122900057Y-96264886D01*
X124900022Y-96264886D01*
X124900046Y-96264862D01*
X124900046Y-93625046D01*
X124900000Y-93625000D01*
X127600000Y-93625000D01*
X127600000Y-98062500D01*
X127100000Y-98062500D01*
X127100000Y-94125000D01*
X125400000Y-94125000D01*
X125400000Y-96764974D01*
X125400038Y-96765012D01*
X122400074Y-96765012D01*
X122399963Y-96764901D01*
X122399963Y-94125037D01*
X122400000Y-94125000D01*
X120700000Y-94125000D01*
X120700000Y-96764816D01*
X120700121Y-96764937D01*
X120700010Y-96765048D01*
X117699903Y-96765048D01*
X117699903Y-94125097D01*
X117700000Y-94125000D01*
X116000000Y-94125000D01*
X116000000Y-99025000D01*
X115500000Y-99025000D01*
X115500000Y-94125000D01*
X114100000Y-94125000D01*
X114100000Y-98525000D01*
X113200000Y-98525000D01*
X113200000Y-93625000D01*
X118200000Y-93625000D01*
X118200000Y-96264879D01*
G37*
D10*
X119047225Y-163154492D02*
X119095507Y-163202774D01*
X119121637Y-163265858D01*
X119125000Y-163299999D01*
X119125000Y-163849999D01*
X119124995Y-163850049D01*
X119124995Y-163940728D01*
X119153381Y-164119952D01*
X119209455Y-164292528D01*
X119291836Y-164454208D01*
X119398496Y-164601010D01*
X119462652Y-164665164D01*
X119748744Y-164951256D01*
X119748765Y-164951281D01*
X119934030Y-165158593D01*
X120094938Y-165385371D01*
X120229443Y-165628739D01*
X120335854Y-165885636D01*
X120412832Y-166152832D01*
X120459410Y-166426967D01*
X120475002Y-166704594D01*
X120475000Y-166704594D01*
X120475000Y-168325000D01*
X120471637Y-168359141D01*
X120445507Y-168422225D01*
X120397225Y-168470507D01*
X120334141Y-168496637D01*
X120265859Y-168496637D01*
X120202775Y-168470507D01*
X120154493Y-168422225D01*
X120128363Y-168359141D01*
X120125000Y-168325000D01*
X120125000Y-166704594D01*
X120125002Y-166704573D01*
X120125002Y-166584999D01*
X120098221Y-166347312D01*
X120044995Y-166114118D01*
X119965995Y-165888350D01*
X119862214Y-165672846D01*
X119734956Y-165470317D01*
X119585823Y-165283310D01*
X119501256Y-165198744D01*
X119215165Y-164912653D01*
X119215148Y-164912633D01*
X119085552Y-164764859D01*
X118976337Y-164601410D01*
X118889392Y-164425105D01*
X118826203Y-164238958D01*
X118787852Y-164046157D01*
X118774995Y-163849999D01*
X118775000Y-163849999D01*
X118775000Y-163299999D01*
X118778363Y-163265858D01*
X118804493Y-163202774D01*
X118852775Y-163154492D01*
X118915859Y-163128362D01*
X118984141Y-163128362D01*
X119047225Y-163154492D01*
G36*
X119047225Y-163154492D02*
G01*
X119095507Y-163202774D01*
X119121637Y-163265858D01*
X119125000Y-163299999D01*
X119125000Y-163849999D01*
X119124995Y-163850049D01*
X119124995Y-163940728D01*
X119153381Y-164119952D01*
X119209455Y-164292528D01*
X119291836Y-164454208D01*
X119398496Y-164601010D01*
X119462652Y-164665164D01*
X119748744Y-164951256D01*
X119748765Y-164951281D01*
X119934030Y-165158593D01*
X120094938Y-165385371D01*
X120229443Y-165628739D01*
X120335854Y-165885636D01*
X120412832Y-166152832D01*
X120459410Y-166426967D01*
X120475002Y-166704594D01*
X120475000Y-166704594D01*
X120475000Y-168325000D01*
X120471637Y-168359141D01*
X120445507Y-168422225D01*
X120397225Y-168470507D01*
X120334141Y-168496637D01*
X120265859Y-168496637D01*
X120202775Y-168470507D01*
X120154493Y-168422225D01*
X120128363Y-168359141D01*
X120125000Y-168325000D01*
X120125000Y-166704594D01*
X120125002Y-166704573D01*
X120125002Y-166584999D01*
X120098221Y-166347312D01*
X120044995Y-166114118D01*
X119965995Y-165888350D01*
X119862214Y-165672846D01*
X119734956Y-165470317D01*
X119585823Y-165283310D01*
X119501256Y-165198744D01*
X119215165Y-164912653D01*
X119215148Y-164912633D01*
X119085552Y-164764859D01*
X118976337Y-164601410D01*
X118889392Y-164425105D01*
X118826203Y-164238958D01*
X118787852Y-164046157D01*
X118774995Y-163849999D01*
X118775000Y-163849999D01*
X118775000Y-163299999D01*
X118778363Y-163265858D01*
X118804493Y-163202774D01*
X118852775Y-163154492D01*
X118915859Y-163128362D01*
X118984141Y-163128362D01*
X119047225Y-163154492D01*
G37*
D11*
X115847225Y-98629493D02*
X115895507Y-98677775D01*
X115921637Y-98740859D01*
X115925000Y-98775000D01*
X115925000Y-99575000D01*
X115925009Y-99575000D01*
X115925009Y-99690118D01*
X115955060Y-99918385D01*
X116014649Y-100140777D01*
X116102755Y-100353489D01*
X116217872Y-100552880D01*
X116358030Y-100735541D01*
X116439429Y-100816941D01*
X117373744Y-101751256D01*
X117395507Y-101777776D01*
X117421637Y-101840860D01*
X117421637Y-101909141D01*
X117395507Y-101972224D01*
X117347224Y-102020507D01*
X117284141Y-102046637D01*
X117215860Y-102046637D01*
X117152776Y-102020507D01*
X117126256Y-101998744D01*
X116191941Y-101064429D01*
X116191932Y-101064418D01*
X116034545Y-100888298D01*
X115897859Y-100695654D01*
X115783602Y-100488917D01*
X115693209Y-100270687D01*
X115627819Y-100043710D01*
X115588253Y-99810838D01*
X115575020Y-99575212D01*
X115575000Y-99575000D01*
X115575000Y-98775000D01*
X115578363Y-98740859D01*
X115604493Y-98677775D01*
X115652775Y-98629493D01*
X115715859Y-98603363D01*
X115784141Y-98603363D01*
X115847225Y-98629493D01*
G36*
X115847225Y-98629493D02*
G01*
X115895507Y-98677775D01*
X115921637Y-98740859D01*
X115925000Y-98775000D01*
X115925000Y-99575000D01*
X115925009Y-99575000D01*
X115925009Y-99690118D01*
X115955060Y-99918385D01*
X116014649Y-100140777D01*
X116102755Y-100353489D01*
X116217872Y-100552880D01*
X116358030Y-100735541D01*
X116439429Y-100816941D01*
X117373744Y-101751256D01*
X117395507Y-101777776D01*
X117421637Y-101840860D01*
X117421637Y-101909141D01*
X117395507Y-101972224D01*
X117347224Y-102020507D01*
X117284141Y-102046637D01*
X117215860Y-102046637D01*
X117152776Y-102020507D01*
X117126256Y-101998744D01*
X116191941Y-101064429D01*
X116191932Y-101064418D01*
X116034545Y-100888298D01*
X115897859Y-100695654D01*
X115783602Y-100488917D01*
X115693209Y-100270687D01*
X115627819Y-100043710D01*
X115588253Y-99810838D01*
X115575020Y-99575212D01*
X115575000Y-99575000D01*
X115575000Y-98775000D01*
X115578363Y-98740859D01*
X115604493Y-98677775D01*
X115652775Y-98629493D01*
X115715859Y-98603363D01*
X115784141Y-98603363D01*
X115847225Y-98629493D01*
G37*
X117455557Y-160541853D02*
X117483147Y-160569443D01*
X117498079Y-160605491D01*
X117500000Y-160625000D01*
X117500000Y-161914645D01*
X117498079Y-161934154D01*
X117483147Y-161970202D01*
X117455557Y-161997792D01*
X117419509Y-162012724D01*
X117380491Y-162012724D01*
X117344443Y-161997792D01*
X117316853Y-161970202D01*
X117301921Y-161934154D01*
X117300000Y-161914645D01*
X117300000Y-160625000D01*
X117301921Y-160605491D01*
X117316853Y-160569443D01*
X117344443Y-160541853D01*
X117380491Y-160526921D01*
X117419509Y-160526921D01*
X117455557Y-160541853D01*
G36*
X117455557Y-160541853D02*
G01*
X117483147Y-160569443D01*
X117498079Y-160605491D01*
X117500000Y-160625000D01*
X117500000Y-161914645D01*
X117498079Y-161934154D01*
X117483147Y-161970202D01*
X117455557Y-161997792D01*
X117419509Y-162012724D01*
X117380491Y-162012724D01*
X117344443Y-161997792D01*
X117316853Y-161970202D01*
X117301921Y-161934154D01*
X117300000Y-161914645D01*
X117300000Y-160625000D01*
X117301921Y-160605491D01*
X117316853Y-160569443D01*
X117344443Y-160541853D01*
X117380491Y-160526921D01*
X117419509Y-160526921D01*
X117455557Y-160541853D01*
G37*
X118955558Y-106691854D02*
X118983148Y-106719444D01*
X118998080Y-106755492D01*
X119000001Y-106775001D01*
X119000001Y-108325000D01*
X118998080Y-108344509D01*
X118983148Y-108380557D01*
X118955558Y-108408147D01*
X118919510Y-108423079D01*
X118880492Y-108423079D01*
X118844444Y-108408147D01*
X118816854Y-108380557D01*
X118801922Y-108344509D01*
X118800001Y-108325000D01*
X118800001Y-106775001D01*
X118801922Y-106755492D01*
X118816854Y-106719444D01*
X118844444Y-106691854D01*
X118880492Y-106676922D01*
X118919510Y-106676922D01*
X118955558Y-106691854D01*
G36*
X118955558Y-106691854D02*
G01*
X118983148Y-106719444D01*
X118998080Y-106755492D01*
X119000001Y-106775001D01*
X119000001Y-108325000D01*
X118998080Y-108344509D01*
X118983148Y-108380557D01*
X118955558Y-108408147D01*
X118919510Y-108423079D01*
X118880492Y-108423079D01*
X118844444Y-108408147D01*
X118816854Y-108380557D01*
X118801922Y-108344509D01*
X118800001Y-108325000D01*
X118800001Y-106775001D01*
X118801922Y-106755492D01*
X118816854Y-106719444D01*
X118844444Y-106691854D01*
X118880492Y-106676922D01*
X118919510Y-106676922D01*
X118955558Y-106691854D01*
G37*
X119055557Y-160541853D02*
X119083147Y-160569443D01*
X119098079Y-160605491D01*
X119100000Y-160625000D01*
X119100000Y-161914645D01*
X119098079Y-161934154D01*
X119083147Y-161970202D01*
X119055557Y-161997792D01*
X119019509Y-162012724D01*
X118980491Y-162012724D01*
X118944443Y-161997792D01*
X118916853Y-161970202D01*
X118901921Y-161934154D01*
X118900000Y-161914645D01*
X118900000Y-160625000D01*
X118901921Y-160605491D01*
X118916853Y-160569443D01*
X118944443Y-160541853D01*
X118980491Y-160526921D01*
X119019509Y-160526921D01*
X119055557Y-160541853D01*
G36*
X119055557Y-160541853D02*
G01*
X119083147Y-160569443D01*
X119098079Y-160605491D01*
X119100000Y-160625000D01*
X119100000Y-161914645D01*
X119098079Y-161934154D01*
X119083147Y-161970202D01*
X119055557Y-161997792D01*
X119019509Y-162012724D01*
X118980491Y-162012724D01*
X118944443Y-161997792D01*
X118916853Y-161970202D01*
X118901921Y-161934154D01*
X118900000Y-161914645D01*
X118900000Y-160625000D01*
X118901921Y-160605491D01*
X118916853Y-160569443D01*
X118944443Y-160541853D01*
X118980491Y-160526921D01*
X119019509Y-160526921D01*
X119055557Y-160541853D01*
G37*
X118719446Y-102046066D02*
X118753934Y-102080554D01*
X118772598Y-102125614D01*
X118775000Y-102150000D01*
X118775000Y-102950000D01*
X118772598Y-102974386D01*
X118753934Y-103019446D01*
X118719446Y-103053934D01*
X118674386Y-103072598D01*
X118625614Y-103072598D01*
X118580554Y-103053934D01*
X118546066Y-103019446D01*
X118527402Y-102974386D01*
X118525000Y-102950000D01*
X118525000Y-102150000D01*
X118527402Y-102125614D01*
X118546066Y-102080554D01*
X118580554Y-102046066D01*
X118625614Y-102027402D01*
X118674386Y-102027402D01*
X118719446Y-102046066D01*
G36*
X118719446Y-102046066D02*
G01*
X118753934Y-102080554D01*
X118772598Y-102125614D01*
X118775000Y-102150000D01*
X118775000Y-102950000D01*
X118772598Y-102974386D01*
X118753934Y-103019446D01*
X118719446Y-103053934D01*
X118674386Y-103072598D01*
X118625614Y-103072598D01*
X118580554Y-103053934D01*
X118546066Y-103019446D01*
X118527402Y-102974386D01*
X118525000Y-102950000D01*
X118525000Y-102150000D01*
X118527402Y-102125614D01*
X118546066Y-102080554D01*
X118580554Y-102046066D01*
X118625614Y-102027402D01*
X118674386Y-102027402D01*
X118719446Y-102046066D01*
G37*
D10*
X119755557Y-155141853D02*
X119783147Y-155169443D01*
X119798079Y-155205491D01*
X119800000Y-155225000D01*
X119800000Y-155532322D01*
X119799996Y-155532360D01*
X119800000Y-155532374D01*
X119799979Y-155532526D01*
X119798079Y-155551831D01*
X119797126Y-155554131D01*
X119795125Y-155569281D01*
X119780870Y-155603671D01*
X119775000Y-155611319D01*
X119775000Y-155798744D01*
X119774999Y-155798749D01*
X119775000Y-155798752D01*
X119774185Y-155807017D01*
X119773079Y-155818253D01*
X119773077Y-155818256D01*
X119762691Y-155923637D01*
X119726256Y-156043722D01*
X119667096Y-156154392D01*
X119599962Y-156236190D01*
X119599936Y-156236255D01*
X119587500Y-156251409D01*
X118862024Y-156976885D01*
X118861739Y-156977118D01*
X118800761Y-157038101D01*
X118695316Y-157175528D01*
X118608712Y-157325542D01*
X118542429Y-157485577D01*
X118497602Y-157652895D01*
X118474998Y-157824632D01*
X118475000Y-157911241D01*
X118475000Y-158093413D01*
X118474995Y-158093463D01*
X118474996Y-158162794D01*
X118496705Y-158299851D01*
X118539587Y-158431824D01*
X118602586Y-158555465D01*
X118684150Y-158667728D01*
X118991422Y-158975000D01*
X119000000Y-158975000D01*
X119019509Y-158976921D01*
X119055557Y-158991853D01*
X119083147Y-159019443D01*
X119098079Y-159055491D01*
X119098079Y-159094509D01*
X119083147Y-159130557D01*
X119055557Y-159158147D01*
X119019509Y-159173079D01*
X119000000Y-159175000D01*
X118975000Y-159175000D01*
X118955491Y-159173079D01*
X118953207Y-159172133D01*
X118933512Y-159169542D01*
X118894848Y-159153538D01*
X118879019Y-159141402D01*
X118876765Y-159140469D01*
X118862046Y-159128390D01*
X118861639Y-159128078D01*
X118861648Y-159128069D01*
X118861641Y-159128058D01*
X118861611Y-159128033D01*
X118591789Y-158858211D01*
X118591743Y-158858155D01*
X118481565Y-158729154D01*
X118392885Y-158584443D01*
X118327935Y-158427643D01*
X118288313Y-158262612D01*
X118274995Y-158093414D01*
X118275000Y-158093414D01*
X118275000Y-157911238D01*
X118288010Y-157712664D01*
X118326828Y-157517478D01*
X118390792Y-157329029D01*
X118478806Y-157150540D01*
X118589364Y-156985067D01*
X118720575Y-156835440D01*
X118720600Y-156835465D01*
X119446079Y-156109986D01*
X119446065Y-156109972D01*
X119476720Y-156079318D01*
X119524892Y-156007228D01*
X119558076Y-155927125D01*
X119574997Y-155842088D01*
X119575000Y-155798736D01*
X119575000Y-155592677D01*
X119575003Y-155592637D01*
X119575000Y-155592623D01*
X119575020Y-155592464D01*
X119576921Y-155573168D01*
X119577874Y-155570866D01*
X119579876Y-155555717D01*
X119594131Y-155521328D01*
X119600000Y-155513680D01*
X119600000Y-155225000D01*
X119601921Y-155205491D01*
X119616853Y-155169443D01*
X119644443Y-155141853D01*
X119680491Y-155126921D01*
X119719509Y-155126921D01*
X119755557Y-155141853D01*
G36*
X119755557Y-155141853D02*
G01*
X119783147Y-155169443D01*
X119798079Y-155205491D01*
X119800000Y-155225000D01*
X119800000Y-155532322D01*
X119799996Y-155532360D01*
X119800000Y-155532374D01*
X119799979Y-155532526D01*
X119798079Y-155551831D01*
X119797126Y-155554131D01*
X119795125Y-155569281D01*
X119780870Y-155603671D01*
X119775000Y-155611319D01*
X119775000Y-155798744D01*
X119774999Y-155798749D01*
X119775000Y-155798752D01*
X119774185Y-155807017D01*
X119773079Y-155818253D01*
X119773077Y-155818256D01*
X119762691Y-155923637D01*
X119726256Y-156043722D01*
X119667096Y-156154392D01*
X119599962Y-156236190D01*
X119599936Y-156236255D01*
X119587500Y-156251409D01*
X118862024Y-156976885D01*
X118861739Y-156977118D01*
X118800761Y-157038101D01*
X118695316Y-157175528D01*
X118608712Y-157325542D01*
X118542429Y-157485577D01*
X118497602Y-157652895D01*
X118474998Y-157824632D01*
X118475000Y-157911241D01*
X118475000Y-158093413D01*
X118474995Y-158093463D01*
X118474996Y-158162794D01*
X118496705Y-158299851D01*
X118539587Y-158431824D01*
X118602586Y-158555465D01*
X118684150Y-158667728D01*
X118991422Y-158975000D01*
X119000000Y-158975000D01*
X119019509Y-158976921D01*
X119055557Y-158991853D01*
X119083147Y-159019443D01*
X119098079Y-159055491D01*
X119098079Y-159094509D01*
X119083147Y-159130557D01*
X119055557Y-159158147D01*
X119019509Y-159173079D01*
X119000000Y-159175000D01*
X118975000Y-159175000D01*
X118955491Y-159173079D01*
X118953207Y-159172133D01*
X118933512Y-159169542D01*
X118894848Y-159153538D01*
X118879019Y-159141402D01*
X118876765Y-159140469D01*
X118862046Y-159128390D01*
X118861639Y-159128078D01*
X118861648Y-159128069D01*
X118861641Y-159128058D01*
X118861611Y-159128033D01*
X118591789Y-158858211D01*
X118591743Y-158858155D01*
X118481565Y-158729154D01*
X118392885Y-158584443D01*
X118327935Y-158427643D01*
X118288313Y-158262612D01*
X118274995Y-158093414D01*
X118275000Y-158093414D01*
X118275000Y-157911238D01*
X118288010Y-157712664D01*
X118326828Y-157517478D01*
X118390792Y-157329029D01*
X118478806Y-157150540D01*
X118589364Y-156985067D01*
X118720575Y-156835440D01*
X118720600Y-156835465D01*
X119446079Y-156109986D01*
X119446065Y-156109972D01*
X119476720Y-156079318D01*
X119524892Y-156007228D01*
X119558076Y-155927125D01*
X119574997Y-155842088D01*
X119575000Y-155798736D01*
X119575000Y-155592677D01*
X119575003Y-155592637D01*
X119575000Y-155592623D01*
X119575020Y-155592464D01*
X119576921Y-155573168D01*
X119577874Y-155570866D01*
X119579876Y-155555717D01*
X119594131Y-155521328D01*
X119600000Y-155513680D01*
X119600000Y-155225000D01*
X119601921Y-155205491D01*
X119616853Y-155169443D01*
X119644443Y-155141853D01*
X119680491Y-155126921D01*
X119719509Y-155126921D01*
X119755557Y-155141853D01*
G37*
D12*
%TO.C,C35*%
X126275000Y-145625000D03*
X126275000Y-147175000D03*
%TD*%
D13*
%TO.C,H1*%
X107650000Y-102275000D03*
X108133274Y-101108274D03*
X108133274Y-103441726D03*
X109300000Y-100625000D03*
D14*
X109300000Y-102275000D03*
D13*
X109300000Y-103925000D03*
X110466726Y-101108274D03*
X110466726Y-103441726D03*
X110950000Y-102275000D03*
%TD*%
D15*
%TO.C,L2*%
X133925000Y-134237500D03*
X133925000Y-136362500D03*
%TD*%
D16*
%TO.C,R15*%
X126287500Y-122399997D03*
X126287500Y-120749997D03*
%TD*%
D17*
%TO.C,R24*%
X132475000Y-150225000D03*
X132475000Y-151875000D03*
%TD*%
D12*
%TO.C,C6*%
X115100000Y-116275000D03*
X115100000Y-117825000D03*
%TD*%
D18*
%TO.C,C32*%
X115200000Y-146925000D03*
X113650000Y-146925000D03*
%TD*%
D16*
%TO.C,R16*%
X124737500Y-122399998D03*
X124737500Y-120749998D03*
%TD*%
D19*
%TO.C,D11*%
X132225000Y-124775000D03*
X132225000Y-121475000D03*
%TD*%
D20*
%TO.C,C24*%
X126275000Y-154900000D03*
X127825000Y-154900000D03*
%TD*%
D21*
%TO.C,U6*%
X127900000Y-144675000D03*
D22*
X129250000Y-144675000D03*
X129250000Y-145775000D03*
X127900000Y-145775000D03*
%TD*%
D23*
%TO.C,D2*%
X106512500Y-126525000D03*
X108087500Y-126525000D03*
%TD*%
D20*
%TO.C,C34*%
X126275000Y-153350000D03*
X127825000Y-153350000D03*
%TD*%
D17*
%TO.C,R25*%
X130925000Y-150225000D03*
X130925000Y-151875000D03*
%TD*%
D12*
%TO.C,C42*%
X109025000Y-145650000D03*
X109025000Y-147200000D03*
%TD*%
D24*
%TO.C,F1*%
X129825000Y-121800000D03*
X129825000Y-124599998D03*
%TD*%
D16*
%TO.C,R5*%
X110325000Y-141650000D03*
X110325000Y-140000000D03*
%TD*%
D25*
%TO.C,BT1*%
X124525000Y-130249999D03*
D26*
X127065000Y-130249999D03*
%TD*%
D12*
%TO.C,C31*%
X123025000Y-157525000D03*
X123025000Y-159075000D03*
%TD*%
D27*
%TO.C,D9*%
X126287499Y-119287498D03*
X126287499Y-117712496D03*
%TD*%
D28*
%TO.C,AE2*%
X120300000Y-168325000D03*
X122100000Y-176225000D03*
X122100000Y-168325000D03*
X120300000Y-176225000D03*
X118500000Y-176225000D03*
X118500000Y-168325000D03*
%TD*%
D13*
%TO.C,H3*%
X107650000Y-162275000D03*
X108133274Y-161108274D03*
X108133274Y-163441726D03*
X109300000Y-160625000D03*
D14*
X109300000Y-162275000D03*
D13*
X109300000Y-163925000D03*
X110466726Y-161108274D03*
X110466726Y-163441726D03*
X110950000Y-162275000D03*
%TD*%
D27*
%TO.C,D12*%
X134025000Y-154887501D03*
X134025000Y-153312499D03*
%TD*%
D23*
%TO.C,D3*%
X106512500Y-128075000D03*
X108087500Y-128075000D03*
%TD*%
D17*
%TO.C,TH1*%
X123106250Y-125918748D03*
X123106250Y-127568748D03*
%TD*%
D29*
%TO.C,C22*%
X118300000Y-146925000D03*
X118300000Y-145375000D03*
%TD*%
D30*
%TO.C,U4*%
X132300000Y-136300000D03*
X132300000Y-135800000D03*
X132300000Y-135300000D03*
X132300000Y-134800000D03*
X132300000Y-134300000D03*
D31*
X131350000Y-133350000D03*
X130850000Y-133350000D03*
X130350000Y-133350000D03*
X129850000Y-133350000D03*
X129350000Y-133350000D03*
D30*
X128400000Y-134300000D03*
X128400000Y-134800000D03*
X128400000Y-135300000D03*
X128400000Y-135800000D03*
X128400000Y-136300000D03*
D31*
X129350000Y-137250000D03*
X129850000Y-137250000D03*
X130350000Y-137250000D03*
X130850000Y-137250000D03*
X131350000Y-137250000D03*
D32*
X130350000Y-135300000D03*
%TD*%
D17*
%TO.C,R4*%
X110325000Y-133900000D03*
X110325000Y-135550000D03*
%TD*%
D20*
%TO.C,C19*%
X130700000Y-138775000D03*
X132250000Y-138775000D03*
%TD*%
D16*
%TO.C,R14*%
X127837500Y-122399998D03*
X127837500Y-120749998D03*
%TD*%
D33*
%TO.C,R22*%
X110525000Y-152025000D03*
X112175000Y-152025000D03*
%TD*%
D17*
%TO.C,R23*%
X134025000Y-150225000D03*
X134025000Y-151875000D03*
%TD*%
D29*
%TO.C,C23*%
X116750000Y-146925000D03*
X116750000Y-145375000D03*
%TD*%
D18*
%TO.C,C13*%
X111775000Y-111600000D03*
X110225000Y-111600000D03*
%TD*%
D34*
%TO.C,U2*%
X118650000Y-102950000D03*
X119150000Y-102950000D03*
X118650000Y-103527000D03*
X119150000Y-103527000D03*
X118650000Y-104104000D03*
X119150000Y-104104000D03*
%TD*%
D35*
%TO.C,JP1*%
X113200000Y-125074999D03*
D36*
X113200000Y-123625001D03*
%TD*%
D37*
%TO.C,Y2*%
X111700000Y-109925000D03*
X113900000Y-109925000D03*
X113900000Y-108225000D03*
X111700000Y-108225000D03*
%TD*%
D12*
%TO.C,C11*%
X115800000Y-111800000D03*
X115800000Y-113350000D03*
%TD*%
D33*
%TO.C,R13*%
X117250000Y-101875000D03*
X118900000Y-101875000D03*
%TD*%
D38*
%TO.C,SW3*%
X108725000Y-138600000D03*
X108725000Y-142750000D03*
X106575000Y-138600000D03*
X106575000Y-142750000D03*
%TD*%
D29*
%TO.C,C21*%
X119850000Y-146925000D03*
X119850000Y-145375000D03*
%TD*%
%TO.C,C2*%
X120450000Y-105225000D03*
X120450000Y-103675000D03*
%TD*%
D18*
%TO.C,C14*%
X111775000Y-113175000D03*
X110225000Y-113175000D03*
%TD*%
D29*
%TO.C,C10*%
X110325000Y-138550000D03*
X110325000Y-137000000D03*
%TD*%
D13*
%TO.C,H2*%
X129650000Y-102275000D03*
X130133274Y-101108274D03*
X130133274Y-103441726D03*
X131300000Y-100625000D03*
D14*
X131300000Y-102275000D03*
D13*
X131300000Y-103925000D03*
X132466726Y-101108274D03*
X132466726Y-103441726D03*
X132950000Y-102275000D03*
%TD*%
D18*
%TO.C,C36*%
X129350000Y-147175000D03*
X127800000Y-147175000D03*
%TD*%
D20*
%TO.C,C20*%
X126275000Y-150250000D03*
X127825000Y-150250000D03*
%TD*%
D18*
%TO.C,C45*%
X115200000Y-152025000D03*
X113650000Y-152025000D03*
%TD*%
D27*
%TO.C,D14*%
X130925000Y-154887501D03*
X130925000Y-153312499D03*
%TD*%
D29*
%TO.C,C17*%
X126600000Y-134400000D03*
X126600000Y-132850000D03*
%TD*%
D39*
%TO.C,Y3*%
X110650000Y-145475000D03*
X110650000Y-147225000D03*
X112050000Y-147225000D03*
X112050000Y-145475000D03*
%TD*%
D23*
%TO.C,D6*%
X106512500Y-123425000D03*
X108087500Y-123425000D03*
%TD*%
D18*
%TO.C,C33*%
X115200000Y-145375000D03*
X113650000Y-145375000D03*
%TD*%
D29*
%TO.C,C3*%
X115800000Y-109850000D03*
X115800000Y-108300000D03*
%TD*%
D17*
%TO.C,R20*%
X130875000Y-145525000D03*
X130875000Y-147175000D03*
%TD*%
D23*
%TO.C,D1*%
X106512500Y-124975000D03*
X108087500Y-124975000D03*
%TD*%
D40*
%TO.C,R3*%
X127925000Y-116200000D03*
X126275000Y-116200000D03*
%TD*%
D12*
%TO.C,C15*%
X132225000Y-126350000D03*
X132225000Y-127900000D03*
%TD*%
D40*
%TO.C,R17*%
X126312499Y-123899998D03*
X124662499Y-123899998D03*
%TD*%
D33*
%TO.C,R8*%
X109525000Y-129625000D03*
X111175000Y-129625000D03*
%TD*%
D41*
%TO.C,TP5*%
X113425000Y-140400000D03*
%TD*%
D40*
%TO.C,R11*%
X111175000Y-123425000D03*
X109525000Y-123425000D03*
%TD*%
D12*
%TO.C,C37*%
X119000000Y-159075000D03*
X119000000Y-160625000D03*
%TD*%
D25*
%TO.C,SW1*%
X112975000Y-133800000D03*
D26*
X115515000Y-133800000D03*
%TD*%
D33*
%TO.C,R19*%
X113600000Y-148900000D03*
X115250000Y-148900000D03*
%TD*%
D42*
%TO.C,Y1*%
X113750000Y-111625000D03*
X113750000Y-114124998D03*
%TD*%
D27*
%TO.C,D7*%
X127837500Y-119287498D03*
X127837500Y-117712496D03*
%TD*%
D43*
%TO.C,TP3*%
X131100000Y-143450000D03*
%TD*%
D12*
%TO.C,C8*%
X119825000Y-116275000D03*
X119825000Y-117825000D03*
%TD*%
D18*
%TO.C,C43*%
X112125000Y-148900000D03*
X110575000Y-148900000D03*
%TD*%
D44*
%TO.C,J2*%
X123200000Y-101875000D03*
D45*
X124700000Y-100399999D03*
D44*
X126200000Y-101875000D03*
D45*
X124700000Y-103350001D03*
%TD*%
D20*
%TO.C,C16*%
X123525000Y-132875000D03*
X125075000Y-132875000D03*
%TD*%
D18*
%TO.C,C38*%
X112125000Y-153600000D03*
X110575000Y-153600000D03*
%TD*%
%TO.C,C40*%
X112125000Y-150450000D03*
X110575000Y-150450000D03*
%TD*%
D20*
%TO.C,C25*%
X126275000Y-151800000D03*
X127825000Y-151800000D03*
%TD*%
D27*
%TO.C,D10*%
X124737500Y-119287499D03*
X124737500Y-117712497D03*
%TD*%
D46*
%TO.C,D8*%
X131975000Y-131574999D03*
X131975000Y-129674999D03*
X130099999Y-130624999D03*
%TD*%
D29*
%TO.C,C7*%
X117350000Y-106775000D03*
X117350000Y-105225000D03*
%TD*%
D23*
%TO.C,D4*%
X106512500Y-129625000D03*
X108087500Y-129625000D03*
%TD*%
D12*
%TO.C,C5*%
X118250000Y-116275000D03*
X118250000Y-117825000D03*
%TD*%
D18*
%TO.C,C26*%
X115200000Y-155175000D03*
X113650000Y-155175000D03*
%TD*%
D47*
%TO.C,U5*%
X117350000Y-150075000D03*
X117350000Y-150475000D03*
X117350000Y-150875000D03*
X117350000Y-151275000D03*
X117350000Y-151675000D03*
X117350000Y-152075000D03*
X117350000Y-152475000D03*
X117350000Y-152875000D03*
X117350000Y-153275000D03*
X117350000Y-153675000D03*
X117350000Y-154075000D03*
X117350000Y-154475000D03*
D48*
X118100000Y-155225000D03*
X118500000Y-155225000D03*
X118900000Y-155225000D03*
X119300000Y-155225000D03*
X119700000Y-155225000D03*
X120100000Y-155225000D03*
X120500000Y-155225000D03*
X120900000Y-155225000D03*
X121300000Y-155225000D03*
X121700000Y-155225000D03*
X122100000Y-155225000D03*
X122500000Y-155225000D03*
D47*
X123250000Y-154475000D03*
X123250000Y-154075000D03*
X123250000Y-153675000D03*
X123250000Y-153275000D03*
X123250000Y-152875000D03*
X123250000Y-152475000D03*
X123250000Y-152075000D03*
X123250000Y-151675000D03*
X123250000Y-151275000D03*
X123250000Y-150875000D03*
X123250000Y-150475000D03*
X123250000Y-150075000D03*
D48*
X122500000Y-149325000D03*
X122100000Y-149325000D03*
X121700000Y-149325000D03*
X121300000Y-149325000D03*
X120900000Y-149325000D03*
X120500000Y-149325000D03*
X120100000Y-149325000D03*
X119700000Y-149325000D03*
X119300000Y-149325000D03*
X118900000Y-149325000D03*
X118500000Y-149325000D03*
X118100000Y-149325000D03*
D49*
X120300000Y-152275000D03*
%TD*%
D33*
%TO.C,R6*%
X109525000Y-126525000D03*
X111175000Y-126525000D03*
%TD*%
D50*
%TO.C,U1*%
X123250000Y-113475000D03*
X123250000Y-113075000D03*
X123250000Y-112674999D03*
X123250000Y-112275000D03*
X123250000Y-111875000D03*
X123250000Y-111474999D03*
X123250000Y-111075001D03*
X123250000Y-110675000D03*
X123250000Y-110275000D03*
X123250000Y-109875001D03*
X123250000Y-109475000D03*
X123250000Y-109075000D03*
D51*
X122500000Y-108325000D03*
X122100000Y-108325000D03*
X121699999Y-108325000D03*
X121300000Y-108325000D03*
X120900000Y-108325000D03*
X120499999Y-108325000D03*
X120100001Y-108325000D03*
X119700000Y-108325000D03*
X119300000Y-108325000D03*
X118900001Y-108325000D03*
X118500000Y-108325000D03*
X118100000Y-108325000D03*
D50*
X117350000Y-109075000D03*
X117350000Y-109475000D03*
X117350000Y-109875001D03*
X117350000Y-110275000D03*
X117350000Y-110675000D03*
X117350000Y-111075001D03*
X117350000Y-111474999D03*
X117350000Y-111875000D03*
X117350000Y-112275000D03*
X117350000Y-112674999D03*
X117350000Y-113075000D03*
X117350000Y-113475000D03*
D51*
X118100000Y-114225000D03*
X118500000Y-114225000D03*
X118900001Y-114225000D03*
X119300000Y-114225000D03*
X119700000Y-114225000D03*
X120100001Y-114225000D03*
X120499999Y-114225000D03*
X120900000Y-114225000D03*
X121300000Y-114225000D03*
X121699999Y-114225000D03*
X122100000Y-114225000D03*
X122500000Y-114225000D03*
D52*
X120300000Y-111275000D03*
%TD*%
D38*
%TO.C,SW4*%
X108725000Y-132800000D03*
X108725000Y-136950000D03*
X106575000Y-132800000D03*
X106575000Y-136950000D03*
%TD*%
D53*
%TO.C,U7*%
X118950000Y-163299999D03*
X118950000Y-162650000D03*
X118950000Y-162000001D03*
X117450000Y-162000001D03*
X117450000Y-162650000D03*
X117450000Y-163299999D03*
%TD*%
D25*
%TO.C,J1*%
X131200000Y-117950000D03*
D26*
X131200000Y-115410000D03*
X131200000Y-112870001D03*
X131200000Y-110330000D03*
X131200000Y-107790000D03*
%TD*%
D29*
%TO.C,C39*%
X109025000Y-155150000D03*
X109025000Y-153600000D03*
%TD*%
D27*
%TO.C,D15*%
X129375000Y-154887501D03*
X129375000Y-153312499D03*
%TD*%
D29*
%TO.C,C18*%
X126600000Y-137450000D03*
X126600000Y-135900000D03*
%TD*%
D40*
%TO.C,R10*%
X111175000Y-124975000D03*
X109525000Y-124975000D03*
%TD*%
D43*
%TO.C,TP1*%
X123575000Y-135925000D03*
%TD*%
D33*
%TO.C,R9*%
X109525000Y-131175000D03*
X111175000Y-131175000D03*
%TD*%
D13*
%TO.C,H4*%
X129650000Y-162275000D03*
X130133274Y-161108274D03*
X130133274Y-163441726D03*
X131300000Y-160625000D03*
D14*
X131300000Y-162275000D03*
D13*
X131300000Y-163925000D03*
X132466726Y-161108274D03*
X132466726Y-163441726D03*
X132950000Y-162275000D03*
%TD*%
D33*
%TO.C,R18*%
X118200000Y-143850000D03*
X119850000Y-143850000D03*
%TD*%
D43*
%TO.C,TP2*%
X130000000Y-126975000D03*
%TD*%
D20*
%TO.C,C1*%
X115075000Y-136475000D03*
X116625000Y-136475000D03*
%TD*%
D18*
%TO.C,C46*%
X115200000Y-153600000D03*
X113650000Y-153600000D03*
%TD*%
D41*
%TO.C,TP7*%
X124275000Y-140400000D03*
%TD*%
D54*
%TO.C,L1*%
X117737500Y-119475000D03*
X119862500Y-119475000D03*
%TD*%
D12*
%TO.C,C28*%
X124550000Y-157525000D03*
X124550000Y-159075000D03*
%TD*%
D23*
%TO.C,D5*%
X106512500Y-131175000D03*
X108087500Y-131175000D03*
%TD*%
D33*
%TO.C,R12*%
X118900000Y-101875000D03*
X120550000Y-101875000D03*
%TD*%
D55*
%TO.C,U3*%
X127537499Y-127474998D03*
X127537499Y-126974997D03*
X127537499Y-126474998D03*
X127537499Y-125974999D03*
X127537499Y-125474998D03*
X124662499Y-125474998D03*
X124662499Y-125974999D03*
X124662499Y-126474998D03*
X124662499Y-126974997D03*
X124662499Y-127474998D03*
D56*
X126099999Y-126474998D03*
%TD*%
D33*
%TO.C,R21*%
X110525000Y-155175000D03*
X112175000Y-155175000D03*
%TD*%
D27*
%TO.C,D13*%
X132475000Y-154887501D03*
X132475000Y-153312499D03*
%TD*%
D12*
%TO.C,C30*%
X126075000Y-157525000D03*
X126075000Y-159075000D03*
%TD*%
%TO.C,C29*%
X121490000Y-157525000D03*
X121490000Y-159075000D03*
%TD*%
%TO.C,C27*%
X127600000Y-157525000D03*
X127600000Y-159075000D03*
%TD*%
D29*
%TO.C,C12*%
X118900000Y-106775000D03*
X118900000Y-105225000D03*
%TD*%
D12*
%TO.C,C4*%
X116675000Y-116275000D03*
X116675000Y-117825000D03*
%TD*%
D41*
%TO.C,TP4*%
X117175000Y-140400000D03*
%TD*%
D18*
%TO.C,C44*%
X115200000Y-150450000D03*
X113650000Y-150450000D03*
%TD*%
D12*
%TO.C,C47*%
X107450000Y-153600000D03*
X107450000Y-155150000D03*
%TD*%
D33*
%TO.C,R7*%
X109525000Y-128075000D03*
X111175000Y-128075000D03*
%TD*%
D41*
%TO.C,TP6*%
X120925000Y-140400000D03*
%TD*%
D29*
%TO.C,C41*%
X109025000Y-152025000D03*
X109025000Y-150475000D03*
%TD*%
D12*
%TO.C,C48*%
X107450000Y-150475000D03*
X107450000Y-152025000D03*
%TD*%
D40*
%TO.C,R1*%
X113475000Y-136475000D03*
X111825000Y-136475000D03*
%TD*%
D12*
%TO.C,C49*%
X117400000Y-159075000D03*
X117400000Y-160625000D03*
%TD*%
D17*
%TO.C,R26*%
X129375000Y-150225000D03*
X129375000Y-151875000D03*
%TD*%
M02*
