%TF.GenerationSoftware,KiCad,Pcbnew,8.0.6*%
%TF.CreationDate,2024-12-19T09:16:50+01:00*%
%TF.ProjectId,Clicker_PCB,436c6963-6b65-4725-9f50-43422e6b6963,rev?*%
%TF.SameCoordinates,Original*%
%TF.FileFunction,Legend,Bot*%
%TF.FilePolarity,Positive*%
%FSLAX46Y46*%
G04 Gerber Fmt 4.6, Leading zero omitted, Abs format (unit mm)*
G04 Created by KiCad (PCBNEW 8.0.6) date 2024-12-19 09:16:50*
%MOMM*%
%LPD*%
G01*
G04 APERTURE LIST*
%ADD10C,0.150000*%
%ADD11C,0.350000*%
G04 APERTURE END LIST*
D10*
G36*
X121902506Y-142900152D02*
G01*
X119931188Y-142900152D01*
X119931188Y-142746070D01*
X120006188Y-142746070D01*
X120010327Y-142775039D01*
X120025236Y-142800220D01*
X120048647Y-142817778D01*
X120076995Y-142825041D01*
X120105964Y-142820902D01*
X120131145Y-142805993D01*
X120141077Y-142795152D01*
X120367763Y-142492903D01*
X120377506Y-142502646D01*
X120377506Y-142750152D01*
X120378947Y-142764784D01*
X120390146Y-142791820D01*
X120410838Y-142812512D01*
X120437874Y-142823711D01*
X120467138Y-142823711D01*
X120494174Y-142812512D01*
X120514866Y-142791820D01*
X120526065Y-142764784D01*
X120527506Y-142750152D01*
X120527506Y-142147427D01*
X120657518Y-142147427D01*
X120657518Y-142176690D01*
X120668717Y-142203726D01*
X120689410Y-142224418D01*
X120716447Y-142235616D01*
X120745710Y-142235616D01*
X120772746Y-142224417D01*
X120784111Y-142215089D01*
X120802543Y-142196655D01*
X120867057Y-142175152D01*
X120904621Y-142175152D01*
X120969134Y-142196656D01*
X121009914Y-142237436D01*
X121031741Y-142281090D01*
X121058458Y-142387956D01*
X121058458Y-142462346D01*
X121031741Y-142569213D01*
X121009914Y-142612867D01*
X120969134Y-142653647D01*
X120904621Y-142675152D01*
X120867057Y-142675152D01*
X120802543Y-142653648D01*
X120784111Y-142635215D01*
X120772746Y-142625887D01*
X120745710Y-142614688D01*
X120716447Y-142614688D01*
X120689410Y-142625886D01*
X120668717Y-142646578D01*
X120657518Y-142673614D01*
X120657518Y-142702877D01*
X120668716Y-142729914D01*
X120678043Y-142741279D01*
X120708995Y-142772232D01*
X120720360Y-142781559D01*
X120722850Y-142782590D01*
X120724887Y-142784357D01*
X120738312Y-142790351D01*
X120831171Y-142821303D01*
X120838422Y-142822952D01*
X120840255Y-142823711D01*
X120842910Y-142823972D01*
X120845507Y-142824563D01*
X120847481Y-142824422D01*
X120854887Y-142825152D01*
X120916791Y-142825152D01*
X120924196Y-142824422D01*
X120926171Y-142824563D01*
X120928768Y-142823972D01*
X120931423Y-142823711D01*
X120933254Y-142822952D01*
X120940508Y-142821303D01*
X121033365Y-142790351D01*
X121046791Y-142784357D01*
X121048827Y-142782590D01*
X121051316Y-142781560D01*
X121062681Y-142772233D01*
X121124586Y-142710328D01*
X121129308Y-142704574D01*
X121130802Y-142703279D01*
X121132218Y-142701028D01*
X121133914Y-142698963D01*
X121134673Y-142697128D01*
X121138635Y-142690836D01*
X121169588Y-142628932D01*
X121169998Y-142627860D01*
X121170320Y-142627426D01*
X121172510Y-142621295D01*
X121174843Y-142615200D01*
X121174881Y-142614659D01*
X121175267Y-142613580D01*
X121187552Y-142564438D01*
X121306077Y-142564438D01*
X121306077Y-142626342D01*
X121307518Y-142640974D01*
X121308548Y-142643462D01*
X121308740Y-142646152D01*
X121313995Y-142659883D01*
X121344948Y-142721788D01*
X121348910Y-142728082D01*
X121349669Y-142729914D01*
X121351362Y-142731977D01*
X121352781Y-142734231D01*
X121354275Y-142735527D01*
X121358996Y-142741279D01*
X121389948Y-142772232D01*
X121395700Y-142776953D01*
X121396999Y-142778450D01*
X121399255Y-142779870D01*
X121401313Y-142781559D01*
X121403140Y-142782316D01*
X121409441Y-142786282D01*
X121471347Y-142817234D01*
X121485078Y-142822489D01*
X121487765Y-142822679D01*
X121490255Y-142823711D01*
X121504887Y-142825152D01*
X121659649Y-142825152D01*
X121667054Y-142824422D01*
X121669029Y-142824563D01*
X121671626Y-142823972D01*
X121674281Y-142823711D01*
X121676112Y-142822952D01*
X121683366Y-142821303D01*
X121776223Y-142790351D01*
X121789649Y-142784357D01*
X121811756Y-142765183D01*
X121824843Y-142739010D01*
X121826917Y-142709820D01*
X121817663Y-142682058D01*
X121798490Y-142659950D01*
X121772316Y-142646864D01*
X121743126Y-142644789D01*
X121728789Y-142648049D01*
X121647479Y-142675152D01*
X121522592Y-142675152D01*
X121487409Y-142657561D01*
X121473669Y-142643821D01*
X121456077Y-142608636D01*
X121456077Y-142582143D01*
X121473669Y-142546958D01*
X121487409Y-142533218D01*
X121531062Y-142511392D01*
X121646886Y-142482437D01*
X121647965Y-142482051D01*
X121648506Y-142482013D01*
X121654602Y-142479679D01*
X121660731Y-142477490D01*
X121661165Y-142477168D01*
X121662237Y-142476758D01*
X121724142Y-142445805D01*
X121730436Y-142441842D01*
X121732268Y-142441084D01*
X121734331Y-142439390D01*
X121736585Y-142437972D01*
X121737881Y-142436477D01*
X121743633Y-142431757D01*
X121774586Y-142400805D01*
X121779307Y-142395052D01*
X121780804Y-142393754D01*
X121782224Y-142391497D01*
X121783913Y-142389440D01*
X121784670Y-142387612D01*
X121788636Y-142381312D01*
X121819588Y-142319406D01*
X121824843Y-142305675D01*
X121825033Y-142302987D01*
X121826065Y-142300498D01*
X121827506Y-142285866D01*
X121827506Y-142223961D01*
X121826065Y-142209329D01*
X121825033Y-142206839D01*
X121824843Y-142204152D01*
X121819588Y-142190420D01*
X121788636Y-142128516D01*
X121784671Y-142122216D01*
X121783914Y-142120389D01*
X121782225Y-142118332D01*
X121780804Y-142116073D01*
X121779305Y-142114773D01*
X121774587Y-142109024D01*
X121743634Y-142078071D01*
X121737884Y-142073352D01*
X121736585Y-142071854D01*
X121734325Y-142070432D01*
X121732269Y-142068744D01*
X121730441Y-142067986D01*
X121724142Y-142064022D01*
X121662237Y-142033070D01*
X121648505Y-142027815D01*
X121645817Y-142027624D01*
X121643328Y-142026593D01*
X121628696Y-142025152D01*
X121473935Y-142025152D01*
X121466529Y-142025881D01*
X121464555Y-142025741D01*
X121461958Y-142026331D01*
X121459303Y-142026593D01*
X121457470Y-142027351D01*
X121450219Y-142029001D01*
X121357360Y-142059953D01*
X121343935Y-142065947D01*
X121321828Y-142085120D01*
X121308741Y-142111294D01*
X121306666Y-142140484D01*
X121315920Y-142168246D01*
X121335093Y-142190353D01*
X121361267Y-142203440D01*
X121390457Y-142205515D01*
X121404794Y-142202255D01*
X121486105Y-142175152D01*
X121610992Y-142175152D01*
X121646173Y-142192742D01*
X121659915Y-142206484D01*
X121677506Y-142241666D01*
X121677506Y-142268161D01*
X121659915Y-142303343D01*
X121646175Y-142317083D01*
X121602519Y-142338911D01*
X121486697Y-142367867D01*
X121485617Y-142368252D01*
X121485078Y-142368291D01*
X121479002Y-142370615D01*
X121472851Y-142372814D01*
X121472414Y-142373137D01*
X121471347Y-142373546D01*
X121409441Y-142404498D01*
X121403140Y-142408463D01*
X121401313Y-142409221D01*
X121399255Y-142410909D01*
X121396999Y-142412330D01*
X121395700Y-142413826D01*
X121389948Y-142418548D01*
X121358996Y-142449501D01*
X121354275Y-142455252D01*
X121352781Y-142456549D01*
X121351362Y-142458802D01*
X121349669Y-142460866D01*
X121348910Y-142462697D01*
X121344948Y-142468992D01*
X121313995Y-142530897D01*
X121308740Y-142544628D01*
X121308548Y-142547317D01*
X121307518Y-142549806D01*
X121306077Y-142564438D01*
X121187552Y-142564438D01*
X121206219Y-142489770D01*
X121206594Y-142487233D01*
X121207017Y-142486212D01*
X121207559Y-142480699D01*
X121208369Y-142475226D01*
X121208206Y-142474133D01*
X121208458Y-142471580D01*
X121208458Y-142378723D01*
X121208206Y-142376169D01*
X121208369Y-142375077D01*
X121207559Y-142369603D01*
X121207017Y-142364091D01*
X121206594Y-142363069D01*
X121206219Y-142360533D01*
X121175267Y-142236724D01*
X121174881Y-142235644D01*
X121174843Y-142235104D01*
X121172510Y-142229008D01*
X121170320Y-142222878D01*
X121169998Y-142222443D01*
X121169588Y-142221372D01*
X121138635Y-142159468D01*
X121134673Y-142153175D01*
X121133914Y-142151341D01*
X121132218Y-142149275D01*
X121130802Y-142147025D01*
X121129308Y-142145729D01*
X121124586Y-142139976D01*
X121062681Y-142078071D01*
X121051316Y-142068744D01*
X121048827Y-142067713D01*
X121046791Y-142065947D01*
X121033365Y-142059953D01*
X120940508Y-142029001D01*
X120933254Y-142027351D01*
X120931423Y-142026593D01*
X120928768Y-142026331D01*
X120926171Y-142025741D01*
X120924196Y-142025881D01*
X120916791Y-142025152D01*
X120854887Y-142025152D01*
X120847481Y-142025881D01*
X120845507Y-142025741D01*
X120842910Y-142026331D01*
X120840255Y-142026593D01*
X120838422Y-142027351D01*
X120831171Y-142029001D01*
X120738312Y-142059953D01*
X120724887Y-142065947D01*
X120722850Y-142067713D01*
X120720360Y-142068745D01*
X120708995Y-142078072D01*
X120678043Y-142109025D01*
X120668716Y-142120390D01*
X120657518Y-142147427D01*
X120527506Y-142147427D01*
X120527506Y-142100152D01*
X120526065Y-142085520D01*
X120514866Y-142058484D01*
X120494174Y-142037792D01*
X120467138Y-142026593D01*
X120437874Y-142026593D01*
X120410838Y-142037792D01*
X120390146Y-142058484D01*
X120378947Y-142085520D01*
X120377506Y-142100152D01*
X120377506Y-142290514D01*
X120134110Y-142047119D01*
X120122745Y-142037791D01*
X120095708Y-142026593D01*
X120066445Y-142026593D01*
X120039409Y-142037792D01*
X120018716Y-142058484D01*
X120007518Y-142085521D01*
X120007518Y-142114784D01*
X120018717Y-142141820D01*
X120028044Y-142153185D01*
X120260620Y-142385760D01*
X120021077Y-142705152D01*
X120013451Y-142717722D01*
X120006188Y-142746070D01*
X119931188Y-142746070D01*
X119931188Y-141950152D01*
X121902506Y-141950152D01*
X121902506Y-142900152D01*
G37*
G36*
X112693792Y-142205242D02*
G01*
X112732402Y-142243852D01*
X112756077Y-142338552D01*
X112756077Y-142536751D01*
X112732402Y-142631451D01*
X112693792Y-142670061D01*
X112658611Y-142687652D01*
X112570211Y-142687652D01*
X112535027Y-142670060D01*
X112496418Y-142631451D01*
X112472744Y-142536751D01*
X112472744Y-142338552D01*
X112496418Y-142243852D01*
X112535027Y-142205243D01*
X112570211Y-142187652D01*
X112658611Y-142187652D01*
X112693792Y-142205242D01*
G37*
G36*
X114621554Y-142912652D02*
G01*
X112247744Y-142912652D01*
X112247744Y-142329319D01*
X112322744Y-142329319D01*
X112322744Y-142545985D01*
X112322995Y-142548534D01*
X112322832Y-142549630D01*
X112323643Y-142555114D01*
X112324185Y-142560617D01*
X112324607Y-142561637D01*
X112324983Y-142564175D01*
X112355935Y-142687985D01*
X112360882Y-142701830D01*
X112364201Y-142706310D01*
X112366336Y-142711463D01*
X112375663Y-142722828D01*
X112437568Y-142784733D01*
X112443321Y-142789455D01*
X112444618Y-142790950D01*
X112446869Y-142792367D01*
X112448933Y-142794061D01*
X112450766Y-142794820D01*
X112457060Y-142798782D01*
X112518966Y-142829734D01*
X112532697Y-142834989D01*
X112535384Y-142835179D01*
X112537874Y-142836211D01*
X112552506Y-142837652D01*
X112676315Y-142837652D01*
X112690947Y-142836211D01*
X112693436Y-142835179D01*
X112696124Y-142834989D01*
X112709856Y-142829734D01*
X112771761Y-142798782D01*
X112778060Y-142794817D01*
X112779888Y-142794060D01*
X112781944Y-142792371D01*
X112784204Y-142790950D01*
X112785503Y-142789451D01*
X112791253Y-142784733D01*
X112853158Y-142722828D01*
X112862486Y-142711463D01*
X112864620Y-142706309D01*
X112867939Y-142701831D01*
X112872886Y-142687985D01*
X112900647Y-142576938D01*
X113003696Y-142576938D01*
X113003696Y-142638842D01*
X113005137Y-142653474D01*
X113006167Y-142655962D01*
X113006359Y-142658652D01*
X113011614Y-142672383D01*
X113042567Y-142734288D01*
X113046529Y-142740582D01*
X113047288Y-142742414D01*
X113048981Y-142744477D01*
X113050400Y-142746731D01*
X113051894Y-142748027D01*
X113056615Y-142753779D01*
X113087567Y-142784732D01*
X113093319Y-142789453D01*
X113094618Y-142790950D01*
X113096874Y-142792370D01*
X113098932Y-142794059D01*
X113100759Y-142794816D01*
X113107060Y-142798782D01*
X113168966Y-142829734D01*
X113182697Y-142834989D01*
X113185384Y-142835179D01*
X113187874Y-142836211D01*
X113202506Y-142837652D01*
X113357268Y-142837652D01*
X113364673Y-142836922D01*
X113366648Y-142837063D01*
X113369245Y-142836472D01*
X113371900Y-142836211D01*
X113373731Y-142835452D01*
X113380985Y-142833803D01*
X113473842Y-142802851D01*
X113487268Y-142796857D01*
X113509375Y-142777683D01*
X113522462Y-142751510D01*
X113524536Y-142722320D01*
X113515282Y-142694558D01*
X113496109Y-142672450D01*
X113469935Y-142659364D01*
X113440745Y-142657289D01*
X113426408Y-142660549D01*
X113345098Y-142687652D01*
X113220211Y-142687652D01*
X113185028Y-142670061D01*
X113171288Y-142656321D01*
X113153696Y-142621136D01*
X113153696Y-142594643D01*
X113171288Y-142559458D01*
X113185028Y-142545718D01*
X113228681Y-142523892D01*
X113344505Y-142494937D01*
X113345584Y-142494551D01*
X113346125Y-142494513D01*
X113352221Y-142492179D01*
X113358350Y-142489990D01*
X113358784Y-142489668D01*
X113359856Y-142489258D01*
X113421761Y-142458305D01*
X113428055Y-142454342D01*
X113429887Y-142453584D01*
X113431950Y-142451890D01*
X113434204Y-142450472D01*
X113435500Y-142448977D01*
X113441252Y-142444257D01*
X113472205Y-142413305D01*
X113476926Y-142407552D01*
X113478423Y-142406254D01*
X113479843Y-142403997D01*
X113481532Y-142401940D01*
X113482289Y-142400112D01*
X113486255Y-142393812D01*
X113517207Y-142331906D01*
X113522462Y-142318175D01*
X113522652Y-142315487D01*
X113523684Y-142312998D01*
X113525125Y-142298366D01*
X113525125Y-142236461D01*
X113523684Y-142221829D01*
X113522652Y-142219339D01*
X113522462Y-142216652D01*
X113517207Y-142202920D01*
X113486255Y-142141016D01*
X113482290Y-142134716D01*
X113481533Y-142132889D01*
X113479844Y-142130832D01*
X113478423Y-142128573D01*
X113476924Y-142127273D01*
X113472206Y-142121524D01*
X113463334Y-142112652D01*
X113653697Y-142112652D01*
X113653697Y-142762652D01*
X113655138Y-142777284D01*
X113666337Y-142804320D01*
X113687029Y-142825012D01*
X113714065Y-142836211D01*
X113743329Y-142836211D01*
X113770365Y-142825012D01*
X113791057Y-142804320D01*
X113802256Y-142777284D01*
X113803697Y-142762652D01*
X113803697Y-142112652D01*
X113963220Y-142112652D01*
X113963220Y-142762652D01*
X113964661Y-142777284D01*
X113975860Y-142804320D01*
X113996552Y-142825012D01*
X114023588Y-142836211D01*
X114052852Y-142836211D01*
X114079888Y-142825012D01*
X114100580Y-142804320D01*
X114111779Y-142777284D01*
X114113220Y-142762652D01*
X114113220Y-142450719D01*
X114186923Y-142608654D01*
X114190096Y-142614011D01*
X114190757Y-142615827D01*
X114191933Y-142617111D01*
X114194417Y-142621304D01*
X114202822Y-142629002D01*
X114210521Y-142637408D01*
X114213540Y-142638816D01*
X114215998Y-142641068D01*
X114226707Y-142644962D01*
X114237039Y-142649784D01*
X114240370Y-142649930D01*
X114243499Y-142651068D01*
X114254882Y-142650567D01*
X114266275Y-142651068D01*
X114269406Y-142649929D01*
X114272735Y-142649783D01*
X114283061Y-142644964D01*
X114293776Y-142641068D01*
X114296234Y-142638816D01*
X114299253Y-142637408D01*
X114306948Y-142629004D01*
X114315357Y-142621304D01*
X114317842Y-142617108D01*
X114319017Y-142615826D01*
X114319676Y-142614013D01*
X114322851Y-142608654D01*
X114396554Y-142450719D01*
X114396554Y-142762652D01*
X114397995Y-142777284D01*
X114409194Y-142804320D01*
X114429886Y-142825012D01*
X114456922Y-142836211D01*
X114486186Y-142836211D01*
X114513222Y-142825012D01*
X114533914Y-142804320D01*
X114545113Y-142777284D01*
X114546554Y-142762652D01*
X114546554Y-142112652D01*
X114545606Y-142103030D01*
X114545684Y-142101265D01*
X114545339Y-142100316D01*
X114545113Y-142098020D01*
X114540128Y-142085985D01*
X114535684Y-142073764D01*
X114534554Y-142072530D01*
X114533914Y-142070984D01*
X114524704Y-142061774D01*
X114515920Y-142052182D01*
X114514405Y-142051475D01*
X114513222Y-142050292D01*
X114501190Y-142045308D01*
X114489402Y-142039807D01*
X114487732Y-142039733D01*
X114486186Y-142039093D01*
X114473157Y-142039093D01*
X114460166Y-142038522D01*
X114458596Y-142039093D01*
X114456922Y-142039093D01*
X114444895Y-142044074D01*
X114432665Y-142048522D01*
X114431431Y-142049651D01*
X114429886Y-142050292D01*
X114420680Y-142059497D01*
X114411084Y-142068286D01*
X114409909Y-142070268D01*
X114409194Y-142070984D01*
X114408515Y-142072620D01*
X114403590Y-142080936D01*
X114254887Y-142399584D01*
X114106184Y-142080936D01*
X114101258Y-142072620D01*
X114100580Y-142070984D01*
X114099864Y-142070268D01*
X114098690Y-142068286D01*
X114089093Y-142059497D01*
X114079888Y-142050292D01*
X114078342Y-142049651D01*
X114077109Y-142048522D01*
X114064878Y-142044074D01*
X114052852Y-142039093D01*
X114051178Y-142039093D01*
X114049608Y-142038522D01*
X114036607Y-142039093D01*
X114023588Y-142039093D01*
X114022043Y-142039732D01*
X114020372Y-142039806D01*
X114008573Y-142045312D01*
X113996552Y-142050292D01*
X113995369Y-142051474D01*
X113993854Y-142052182D01*
X113985065Y-142061778D01*
X113975860Y-142070984D01*
X113975219Y-142072529D01*
X113974090Y-142073763D01*
X113969642Y-142085993D01*
X113964661Y-142098020D01*
X113964434Y-142100315D01*
X113964090Y-142101264D01*
X113964167Y-142103030D01*
X113963220Y-142112652D01*
X113803697Y-142112652D01*
X113802256Y-142098020D01*
X113791057Y-142070984D01*
X113770365Y-142050292D01*
X113743329Y-142039093D01*
X113714065Y-142039093D01*
X113687029Y-142050292D01*
X113666337Y-142070984D01*
X113655138Y-142098020D01*
X113653697Y-142112652D01*
X113463334Y-142112652D01*
X113441253Y-142090571D01*
X113435503Y-142085852D01*
X113434204Y-142084354D01*
X113431944Y-142082932D01*
X113429888Y-142081244D01*
X113428060Y-142080486D01*
X113421761Y-142076522D01*
X113359856Y-142045570D01*
X113346124Y-142040315D01*
X113343436Y-142040124D01*
X113340947Y-142039093D01*
X113326315Y-142037652D01*
X113171554Y-142037652D01*
X113164148Y-142038381D01*
X113162174Y-142038241D01*
X113159577Y-142038831D01*
X113156922Y-142039093D01*
X113155089Y-142039851D01*
X113147838Y-142041501D01*
X113054979Y-142072453D01*
X113041554Y-142078447D01*
X113019447Y-142097620D01*
X113006360Y-142123794D01*
X113004285Y-142152984D01*
X113013539Y-142180746D01*
X113032712Y-142202853D01*
X113058886Y-142215940D01*
X113088076Y-142218015D01*
X113102413Y-142214755D01*
X113183724Y-142187652D01*
X113308611Y-142187652D01*
X113343792Y-142205242D01*
X113357534Y-142218984D01*
X113375125Y-142254166D01*
X113375125Y-142280661D01*
X113357534Y-142315843D01*
X113343794Y-142329583D01*
X113300138Y-142351411D01*
X113184316Y-142380367D01*
X113183236Y-142380752D01*
X113182697Y-142380791D01*
X113176621Y-142383115D01*
X113170470Y-142385314D01*
X113170033Y-142385637D01*
X113168966Y-142386046D01*
X113107060Y-142416998D01*
X113100759Y-142420963D01*
X113098932Y-142421721D01*
X113096874Y-142423409D01*
X113094618Y-142424830D01*
X113093319Y-142426326D01*
X113087567Y-142431048D01*
X113056615Y-142462001D01*
X113051894Y-142467752D01*
X113050400Y-142469049D01*
X113048981Y-142471302D01*
X113047288Y-142473366D01*
X113046529Y-142475197D01*
X113042567Y-142481492D01*
X113011614Y-142543397D01*
X113006359Y-142557128D01*
X113006167Y-142559817D01*
X113005137Y-142562306D01*
X113003696Y-142576938D01*
X112900647Y-142576938D01*
X112903838Y-142564175D01*
X112904213Y-142561638D01*
X112904636Y-142560617D01*
X112905178Y-142555104D01*
X112905988Y-142549631D01*
X112905825Y-142548538D01*
X112906077Y-142545985D01*
X112906077Y-142329319D01*
X112905825Y-142326765D01*
X112905988Y-142325673D01*
X112905178Y-142320199D01*
X112904636Y-142314687D01*
X112904213Y-142313665D01*
X112903838Y-142311129D01*
X112872886Y-142187319D01*
X112867939Y-142173473D01*
X112864620Y-142168994D01*
X112862486Y-142163841D01*
X112853158Y-142152476D01*
X112791253Y-142090571D01*
X112785503Y-142085852D01*
X112784204Y-142084354D01*
X112781944Y-142082932D01*
X112779888Y-142081244D01*
X112778060Y-142080486D01*
X112771761Y-142076522D01*
X112709856Y-142045570D01*
X112696124Y-142040315D01*
X112693436Y-142040124D01*
X112690947Y-142039093D01*
X112676315Y-142037652D01*
X112552506Y-142037652D01*
X112537874Y-142039093D01*
X112535384Y-142040124D01*
X112532697Y-142040315D01*
X112518966Y-142045570D01*
X112457060Y-142076522D01*
X112450766Y-142080483D01*
X112448933Y-142081243D01*
X112446869Y-142082936D01*
X112444618Y-142084354D01*
X112443321Y-142085848D01*
X112437568Y-142090571D01*
X112375663Y-142152476D01*
X112366336Y-142163841D01*
X112364201Y-142168993D01*
X112360882Y-142173474D01*
X112355935Y-142187319D01*
X112324983Y-142311129D01*
X112324607Y-142313666D01*
X112324185Y-142314687D01*
X112323643Y-142320189D01*
X112322832Y-142325674D01*
X112322995Y-142326769D01*
X112322744Y-142329319D01*
X112247744Y-142329319D01*
X112247744Y-141962652D01*
X114621554Y-141962652D01*
X114621554Y-142912652D01*
G37*
G36*
X125259054Y-142887652D02*
G01*
X123318577Y-142887652D01*
X123318577Y-142551938D01*
X123393577Y-142551938D01*
X123393577Y-142613842D01*
X123395018Y-142628474D01*
X123396048Y-142630962D01*
X123396240Y-142633652D01*
X123401495Y-142647383D01*
X123432448Y-142709288D01*
X123436410Y-142715582D01*
X123437169Y-142717414D01*
X123438862Y-142719477D01*
X123440281Y-142721731D01*
X123441775Y-142723027D01*
X123446496Y-142728779D01*
X123477448Y-142759732D01*
X123483200Y-142764453D01*
X123484499Y-142765950D01*
X123486755Y-142767370D01*
X123488813Y-142769059D01*
X123490640Y-142769816D01*
X123496941Y-142773782D01*
X123558847Y-142804734D01*
X123572578Y-142809989D01*
X123575265Y-142810179D01*
X123577755Y-142811211D01*
X123592387Y-142812652D01*
X123747149Y-142812652D01*
X123754554Y-142811922D01*
X123756529Y-142812063D01*
X123759126Y-142811472D01*
X123761781Y-142811211D01*
X123763612Y-142810452D01*
X123770866Y-142808803D01*
X123863723Y-142777851D01*
X123877149Y-142771857D01*
X123899256Y-142752683D01*
X123912343Y-142726510D01*
X123914417Y-142697320D01*
X123905163Y-142669558D01*
X123885990Y-142647450D01*
X123859816Y-142634364D01*
X123830626Y-142632289D01*
X123816289Y-142635549D01*
X123734979Y-142662652D01*
X123610092Y-142662652D01*
X123574909Y-142645061D01*
X123561169Y-142631321D01*
X123543577Y-142596136D01*
X123543577Y-142569643D01*
X123552429Y-142551938D01*
X124012625Y-142551938D01*
X124012625Y-142613842D01*
X124014066Y-142628474D01*
X124015096Y-142630962D01*
X124015288Y-142633652D01*
X124020543Y-142647383D01*
X124051496Y-142709288D01*
X124055458Y-142715582D01*
X124056217Y-142717414D01*
X124057910Y-142719477D01*
X124059329Y-142721731D01*
X124060823Y-142723027D01*
X124065544Y-142728779D01*
X124096496Y-142759732D01*
X124102248Y-142764453D01*
X124103547Y-142765950D01*
X124105803Y-142767370D01*
X124107861Y-142769059D01*
X124109688Y-142769816D01*
X124115989Y-142773782D01*
X124177895Y-142804734D01*
X124191626Y-142809989D01*
X124194313Y-142810179D01*
X124196803Y-142811211D01*
X124211435Y-142812652D01*
X124366197Y-142812652D01*
X124373602Y-142811922D01*
X124375577Y-142812063D01*
X124378174Y-142811472D01*
X124380829Y-142811211D01*
X124382660Y-142810452D01*
X124389914Y-142808803D01*
X124482771Y-142777851D01*
X124496197Y-142771857D01*
X124518304Y-142752683D01*
X124531391Y-142726510D01*
X124533465Y-142697320D01*
X124524211Y-142669558D01*
X124505038Y-142647450D01*
X124478864Y-142634364D01*
X124449674Y-142632289D01*
X124435337Y-142635549D01*
X124354027Y-142662652D01*
X124229140Y-142662652D01*
X124193957Y-142645061D01*
X124180217Y-142631321D01*
X124162625Y-142596136D01*
X124162625Y-142569643D01*
X124180217Y-142534458D01*
X124193957Y-142520718D01*
X124237610Y-142498892D01*
X124353434Y-142469937D01*
X124354513Y-142469551D01*
X124355054Y-142469513D01*
X124361150Y-142467179D01*
X124367279Y-142464990D01*
X124367713Y-142464668D01*
X124368785Y-142464258D01*
X124430690Y-142433305D01*
X124436984Y-142429342D01*
X124438816Y-142428584D01*
X124440879Y-142426890D01*
X124443133Y-142425472D01*
X124444429Y-142423977D01*
X124450181Y-142419257D01*
X124481134Y-142388305D01*
X124485855Y-142382552D01*
X124487352Y-142381254D01*
X124488772Y-142378997D01*
X124490461Y-142376940D01*
X124491218Y-142375112D01*
X124495184Y-142368812D01*
X124526136Y-142306906D01*
X124531391Y-142293175D01*
X124531581Y-142290487D01*
X124532613Y-142287998D01*
X124534054Y-142273366D01*
X124534054Y-142211461D01*
X124532613Y-142196829D01*
X124531581Y-142194339D01*
X124531391Y-142191652D01*
X124526136Y-142177920D01*
X124495184Y-142116016D01*
X124491219Y-142109716D01*
X124490462Y-142107889D01*
X124488773Y-142105832D01*
X124487352Y-142103573D01*
X124485853Y-142102273D01*
X124481135Y-142096524D01*
X124472263Y-142087652D01*
X124662625Y-142087652D01*
X124662625Y-142737652D01*
X124662995Y-142741415D01*
X124662808Y-142742891D01*
X124663329Y-142744801D01*
X124664066Y-142752284D01*
X124667883Y-142761500D01*
X124670508Y-142771122D01*
X124673434Y-142774901D01*
X124675265Y-142779320D01*
X124682316Y-142786371D01*
X124688425Y-142794260D01*
X124692578Y-142796633D01*
X124695957Y-142800012D01*
X124705169Y-142803828D01*
X124713834Y-142808779D01*
X124718577Y-142809381D01*
X124722993Y-142811211D01*
X124732967Y-142811211D01*
X124742864Y-142812469D01*
X124747476Y-142811211D01*
X124752257Y-142811211D01*
X124761473Y-142807393D01*
X124771095Y-142804769D01*
X124774874Y-142801842D01*
X124779293Y-142800012D01*
X124786344Y-142792960D01*
X124794233Y-142786852D01*
X124798585Y-142780719D01*
X124799985Y-142779320D01*
X124800554Y-142777945D01*
X124802743Y-142774862D01*
X125034054Y-142370068D01*
X125034054Y-142737652D01*
X125035495Y-142752284D01*
X125046694Y-142779320D01*
X125067386Y-142800012D01*
X125094422Y-142811211D01*
X125123686Y-142811211D01*
X125150722Y-142800012D01*
X125171414Y-142779320D01*
X125182613Y-142752284D01*
X125184054Y-142737652D01*
X125184054Y-142087652D01*
X125183683Y-142083889D01*
X125183871Y-142082414D01*
X125183350Y-142080503D01*
X125182613Y-142073020D01*
X125178794Y-142063802D01*
X125176171Y-142054182D01*
X125173244Y-142050403D01*
X125171414Y-142045984D01*
X125164357Y-142038927D01*
X125158253Y-142031045D01*
X125154104Y-142028674D01*
X125150722Y-142025292D01*
X125141501Y-142021472D01*
X125132845Y-142016526D01*
X125128105Y-142015923D01*
X125123686Y-142014093D01*
X125113704Y-142014093D01*
X125103815Y-142012836D01*
X125099206Y-142014093D01*
X125094422Y-142014093D01*
X125085204Y-142017911D01*
X125075583Y-142020535D01*
X125071802Y-142023462D01*
X125067386Y-142025292D01*
X125060332Y-142032345D01*
X125052446Y-142038453D01*
X125048094Y-142044583D01*
X125046694Y-142045984D01*
X125046124Y-142047358D01*
X125043936Y-142050442D01*
X124812625Y-142455235D01*
X124812625Y-142087652D01*
X124811184Y-142073020D01*
X124799985Y-142045984D01*
X124779293Y-142025292D01*
X124752257Y-142014093D01*
X124722993Y-142014093D01*
X124695957Y-142025292D01*
X124675265Y-142045984D01*
X124664066Y-142073020D01*
X124662625Y-142087652D01*
X124472263Y-142087652D01*
X124450182Y-142065571D01*
X124444432Y-142060852D01*
X124443133Y-142059354D01*
X124440873Y-142057932D01*
X124438817Y-142056244D01*
X124436989Y-142055486D01*
X124430690Y-142051522D01*
X124368785Y-142020570D01*
X124355053Y-142015315D01*
X124352365Y-142015124D01*
X124349876Y-142014093D01*
X124335244Y-142012652D01*
X124180483Y-142012652D01*
X124173077Y-142013381D01*
X124171103Y-142013241D01*
X124168506Y-142013831D01*
X124165851Y-142014093D01*
X124164018Y-142014851D01*
X124156767Y-142016501D01*
X124063908Y-142047453D01*
X124050483Y-142053447D01*
X124028376Y-142072620D01*
X124015289Y-142098794D01*
X124013214Y-142127984D01*
X124022468Y-142155746D01*
X124041641Y-142177853D01*
X124067815Y-142190940D01*
X124097005Y-142193015D01*
X124111342Y-142189755D01*
X124192653Y-142162652D01*
X124317540Y-142162652D01*
X124352721Y-142180242D01*
X124366463Y-142193984D01*
X124384054Y-142229166D01*
X124384054Y-142255661D01*
X124366463Y-142290843D01*
X124352723Y-142304583D01*
X124309067Y-142326411D01*
X124193245Y-142355367D01*
X124192165Y-142355752D01*
X124191626Y-142355791D01*
X124185550Y-142358115D01*
X124179399Y-142360314D01*
X124178962Y-142360637D01*
X124177895Y-142361046D01*
X124115989Y-142391998D01*
X124109688Y-142395963D01*
X124107861Y-142396721D01*
X124105803Y-142398409D01*
X124103547Y-142399830D01*
X124102248Y-142401326D01*
X124096496Y-142406048D01*
X124065544Y-142437001D01*
X124060823Y-142442752D01*
X124059329Y-142444049D01*
X124057910Y-142446302D01*
X124056217Y-142448366D01*
X124055458Y-142450197D01*
X124051496Y-142456492D01*
X124020543Y-142518397D01*
X124015288Y-142532128D01*
X124015096Y-142534817D01*
X124014066Y-142537306D01*
X124012625Y-142551938D01*
X123552429Y-142551938D01*
X123561169Y-142534458D01*
X123574909Y-142520718D01*
X123618562Y-142498892D01*
X123734386Y-142469937D01*
X123735465Y-142469551D01*
X123736006Y-142469513D01*
X123742102Y-142467179D01*
X123748231Y-142464990D01*
X123748665Y-142464668D01*
X123749737Y-142464258D01*
X123811642Y-142433305D01*
X123817936Y-142429342D01*
X123819768Y-142428584D01*
X123821831Y-142426890D01*
X123824085Y-142425472D01*
X123825381Y-142423977D01*
X123831133Y-142419257D01*
X123862086Y-142388305D01*
X123866807Y-142382552D01*
X123868304Y-142381254D01*
X123869724Y-142378997D01*
X123871413Y-142376940D01*
X123872170Y-142375112D01*
X123876136Y-142368812D01*
X123907088Y-142306906D01*
X123912343Y-142293175D01*
X123912533Y-142290487D01*
X123913565Y-142287998D01*
X123915006Y-142273366D01*
X123915006Y-142211461D01*
X123913565Y-142196829D01*
X123912533Y-142194339D01*
X123912343Y-142191652D01*
X123907088Y-142177920D01*
X123876136Y-142116016D01*
X123872171Y-142109716D01*
X123871414Y-142107889D01*
X123869725Y-142105832D01*
X123868304Y-142103573D01*
X123866805Y-142102273D01*
X123862087Y-142096524D01*
X123831134Y-142065571D01*
X123825384Y-142060852D01*
X123824085Y-142059354D01*
X123821825Y-142057932D01*
X123819769Y-142056244D01*
X123817941Y-142055486D01*
X123811642Y-142051522D01*
X123749737Y-142020570D01*
X123736005Y-142015315D01*
X123733317Y-142015124D01*
X123730828Y-142014093D01*
X123716196Y-142012652D01*
X123561435Y-142012652D01*
X123554029Y-142013381D01*
X123552055Y-142013241D01*
X123549458Y-142013831D01*
X123546803Y-142014093D01*
X123544970Y-142014851D01*
X123537719Y-142016501D01*
X123444860Y-142047453D01*
X123431435Y-142053447D01*
X123409328Y-142072620D01*
X123396241Y-142098794D01*
X123394166Y-142127984D01*
X123403420Y-142155746D01*
X123422593Y-142177853D01*
X123448767Y-142190940D01*
X123477957Y-142193015D01*
X123492294Y-142189755D01*
X123573605Y-142162652D01*
X123698492Y-142162652D01*
X123733673Y-142180242D01*
X123747415Y-142193984D01*
X123765006Y-142229166D01*
X123765006Y-142255661D01*
X123747415Y-142290843D01*
X123733675Y-142304583D01*
X123690019Y-142326411D01*
X123574197Y-142355367D01*
X123573117Y-142355752D01*
X123572578Y-142355791D01*
X123566502Y-142358115D01*
X123560351Y-142360314D01*
X123559914Y-142360637D01*
X123558847Y-142361046D01*
X123496941Y-142391998D01*
X123490640Y-142395963D01*
X123488813Y-142396721D01*
X123486755Y-142398409D01*
X123484499Y-142399830D01*
X123483200Y-142401326D01*
X123477448Y-142406048D01*
X123446496Y-142437001D01*
X123441775Y-142442752D01*
X123440281Y-142444049D01*
X123438862Y-142446302D01*
X123437169Y-142448366D01*
X123436410Y-142450197D01*
X123432448Y-142456492D01*
X123401495Y-142518397D01*
X123396240Y-142532128D01*
X123396048Y-142534817D01*
X123395018Y-142537306D01*
X123393577Y-142551938D01*
X123318577Y-142551938D01*
X123318577Y-141937652D01*
X125259054Y-141937652D01*
X125259054Y-142887652D01*
G37*
G36*
X117347364Y-142192742D02*
G01*
X117385974Y-142231352D01*
X117409649Y-142326052D01*
X117409649Y-142524251D01*
X117385974Y-142618951D01*
X117347364Y-142657561D01*
X117312183Y-142675152D01*
X117223783Y-142675152D01*
X117188599Y-142657560D01*
X117149990Y-142618951D01*
X117126316Y-142524251D01*
X117126316Y-142326052D01*
X117149990Y-142231352D01*
X117188599Y-142192743D01*
X117223783Y-142175152D01*
X117312183Y-142175152D01*
X117347364Y-142192742D01*
G37*
G36*
X118346554Y-142900152D02*
G01*
X116003697Y-142900152D01*
X116003697Y-142100152D01*
X116078697Y-142100152D01*
X116078697Y-142750152D01*
X116080138Y-142764784D01*
X116091337Y-142791820D01*
X116112029Y-142812512D01*
X116139065Y-142823711D01*
X116168329Y-142823711D01*
X116195365Y-142812512D01*
X116216057Y-142791820D01*
X116227256Y-142764784D01*
X116228697Y-142750152D01*
X116228697Y-142564438D01*
X116357268Y-142564438D01*
X116357268Y-142626342D01*
X116358709Y-142640974D01*
X116359739Y-142643462D01*
X116359931Y-142646152D01*
X116365186Y-142659883D01*
X116396139Y-142721788D01*
X116400101Y-142728082D01*
X116400860Y-142729914D01*
X116402553Y-142731977D01*
X116403972Y-142734231D01*
X116405466Y-142735527D01*
X116410187Y-142741279D01*
X116441139Y-142772232D01*
X116446891Y-142776953D01*
X116448190Y-142778450D01*
X116450446Y-142779870D01*
X116452504Y-142781559D01*
X116454331Y-142782316D01*
X116460632Y-142786282D01*
X116522538Y-142817234D01*
X116536269Y-142822489D01*
X116538956Y-142822679D01*
X116541446Y-142823711D01*
X116556078Y-142825152D01*
X116710840Y-142825152D01*
X116718245Y-142824422D01*
X116720220Y-142824563D01*
X116722817Y-142823972D01*
X116725472Y-142823711D01*
X116727303Y-142822952D01*
X116734557Y-142821303D01*
X116827414Y-142790351D01*
X116840840Y-142784357D01*
X116862947Y-142765183D01*
X116876034Y-142739010D01*
X116878108Y-142709820D01*
X116868854Y-142682058D01*
X116849681Y-142659950D01*
X116823507Y-142646864D01*
X116794317Y-142644789D01*
X116779980Y-142648049D01*
X116698670Y-142675152D01*
X116573783Y-142675152D01*
X116538600Y-142657561D01*
X116524860Y-142643821D01*
X116507268Y-142608636D01*
X116507268Y-142582143D01*
X116524860Y-142546958D01*
X116538600Y-142533218D01*
X116582253Y-142511392D01*
X116698077Y-142482437D01*
X116699156Y-142482051D01*
X116699697Y-142482013D01*
X116705793Y-142479679D01*
X116711922Y-142477490D01*
X116712356Y-142477168D01*
X116713428Y-142476758D01*
X116775333Y-142445805D01*
X116781627Y-142441842D01*
X116783459Y-142441084D01*
X116785522Y-142439390D01*
X116787776Y-142437972D01*
X116789072Y-142436477D01*
X116794824Y-142431757D01*
X116825777Y-142400805D01*
X116830498Y-142395052D01*
X116831995Y-142393754D01*
X116833415Y-142391497D01*
X116835104Y-142389440D01*
X116835861Y-142387612D01*
X116839827Y-142381312D01*
X116870779Y-142319406D01*
X116871769Y-142316819D01*
X116976316Y-142316819D01*
X116976316Y-142533485D01*
X116976567Y-142536034D01*
X116976404Y-142537130D01*
X116977215Y-142542614D01*
X116977757Y-142548117D01*
X116978179Y-142549137D01*
X116978555Y-142551675D01*
X117009507Y-142675485D01*
X117014454Y-142689330D01*
X117017773Y-142693810D01*
X117019908Y-142698963D01*
X117029235Y-142710328D01*
X117091140Y-142772233D01*
X117096893Y-142776955D01*
X117098190Y-142778450D01*
X117100441Y-142779867D01*
X117102505Y-142781561D01*
X117104338Y-142782320D01*
X117110632Y-142786282D01*
X117172538Y-142817234D01*
X117186269Y-142822489D01*
X117188956Y-142822679D01*
X117191446Y-142823711D01*
X117206078Y-142825152D01*
X117329887Y-142825152D01*
X117344519Y-142823711D01*
X117347008Y-142822679D01*
X117349696Y-142822489D01*
X117363428Y-142817234D01*
X117425333Y-142786282D01*
X117431632Y-142782317D01*
X117433460Y-142781560D01*
X117435516Y-142779871D01*
X117437776Y-142778450D01*
X117439075Y-142776951D01*
X117444825Y-142772233D01*
X117506730Y-142710328D01*
X117516058Y-142698963D01*
X117518192Y-142693809D01*
X117521511Y-142689331D01*
X117526458Y-142675485D01*
X117557410Y-142551675D01*
X117557785Y-142549138D01*
X117558208Y-142548117D01*
X117558750Y-142542604D01*
X117559560Y-142537131D01*
X117559397Y-142536038D01*
X117559649Y-142533485D01*
X117559649Y-142316819D01*
X117559397Y-142314265D01*
X117559560Y-142313173D01*
X117558750Y-142307699D01*
X117558208Y-142302187D01*
X117557785Y-142301165D01*
X117557410Y-142298629D01*
X117526458Y-142174819D01*
X117521511Y-142160973D01*
X117518192Y-142156494D01*
X117516058Y-142151341D01*
X117506730Y-142139976D01*
X117466906Y-142100152D01*
X117688220Y-142100152D01*
X117688220Y-142750152D01*
X117689661Y-142764784D01*
X117700860Y-142791820D01*
X117721552Y-142812512D01*
X117748588Y-142823711D01*
X117777852Y-142823711D01*
X117804888Y-142812512D01*
X117825580Y-142791820D01*
X117836779Y-142764784D01*
X117838220Y-142750152D01*
X117838220Y-142438219D01*
X117911923Y-142596154D01*
X117915096Y-142601511D01*
X117915757Y-142603327D01*
X117916933Y-142604611D01*
X117919417Y-142608804D01*
X117927822Y-142616502D01*
X117935521Y-142624908D01*
X117938540Y-142626316D01*
X117940998Y-142628568D01*
X117951707Y-142632462D01*
X117962039Y-142637284D01*
X117965370Y-142637430D01*
X117968499Y-142638568D01*
X117979882Y-142638067D01*
X117991275Y-142638568D01*
X117994406Y-142637429D01*
X117997735Y-142637283D01*
X118008061Y-142632464D01*
X118018776Y-142628568D01*
X118021234Y-142626316D01*
X118024253Y-142624908D01*
X118031948Y-142616504D01*
X118040357Y-142608804D01*
X118042842Y-142604608D01*
X118044017Y-142603326D01*
X118044676Y-142601513D01*
X118047851Y-142596154D01*
X118121554Y-142438219D01*
X118121554Y-142750152D01*
X118122995Y-142764784D01*
X118134194Y-142791820D01*
X118154886Y-142812512D01*
X118181922Y-142823711D01*
X118211186Y-142823711D01*
X118238222Y-142812512D01*
X118258914Y-142791820D01*
X118270113Y-142764784D01*
X118271554Y-142750152D01*
X118271554Y-142100152D01*
X118270606Y-142090530D01*
X118270684Y-142088765D01*
X118270339Y-142087816D01*
X118270113Y-142085520D01*
X118265128Y-142073485D01*
X118260684Y-142061264D01*
X118259554Y-142060030D01*
X118258914Y-142058484D01*
X118249704Y-142049274D01*
X118240920Y-142039682D01*
X118239405Y-142038975D01*
X118238222Y-142037792D01*
X118226190Y-142032808D01*
X118214402Y-142027307D01*
X118212732Y-142027233D01*
X118211186Y-142026593D01*
X118198157Y-142026593D01*
X118185166Y-142026022D01*
X118183596Y-142026593D01*
X118181922Y-142026593D01*
X118169895Y-142031574D01*
X118157665Y-142036022D01*
X118156431Y-142037151D01*
X118154886Y-142037792D01*
X118145680Y-142046997D01*
X118136084Y-142055786D01*
X118134909Y-142057768D01*
X118134194Y-142058484D01*
X118133515Y-142060120D01*
X118128590Y-142068436D01*
X117979887Y-142387084D01*
X117831184Y-142068436D01*
X117826258Y-142060120D01*
X117825580Y-142058484D01*
X117824864Y-142057768D01*
X117823690Y-142055786D01*
X117814093Y-142046997D01*
X117804888Y-142037792D01*
X117803342Y-142037151D01*
X117802109Y-142036022D01*
X117789878Y-142031574D01*
X117777852Y-142026593D01*
X117776178Y-142026593D01*
X117774608Y-142026022D01*
X117761607Y-142026593D01*
X117748588Y-142026593D01*
X117747043Y-142027232D01*
X117745372Y-142027306D01*
X117733573Y-142032812D01*
X117721552Y-142037792D01*
X117720369Y-142038974D01*
X117718854Y-142039682D01*
X117710065Y-142049278D01*
X117700860Y-142058484D01*
X117700219Y-142060029D01*
X117699090Y-142061263D01*
X117694642Y-142073493D01*
X117689661Y-142085520D01*
X117689434Y-142087815D01*
X117689090Y-142088764D01*
X117689167Y-142090530D01*
X117688220Y-142100152D01*
X117466906Y-142100152D01*
X117444825Y-142078071D01*
X117439075Y-142073352D01*
X117437776Y-142071854D01*
X117435516Y-142070432D01*
X117433460Y-142068744D01*
X117431632Y-142067986D01*
X117425333Y-142064022D01*
X117363428Y-142033070D01*
X117349696Y-142027815D01*
X117347008Y-142027624D01*
X117344519Y-142026593D01*
X117329887Y-142025152D01*
X117206078Y-142025152D01*
X117191446Y-142026593D01*
X117188956Y-142027624D01*
X117186269Y-142027815D01*
X117172538Y-142033070D01*
X117110632Y-142064022D01*
X117104338Y-142067983D01*
X117102505Y-142068743D01*
X117100441Y-142070436D01*
X117098190Y-142071854D01*
X117096893Y-142073348D01*
X117091140Y-142078071D01*
X117029235Y-142139976D01*
X117019908Y-142151341D01*
X117017773Y-142156493D01*
X117014454Y-142160974D01*
X117009507Y-142174819D01*
X116978555Y-142298629D01*
X116978179Y-142301166D01*
X116977757Y-142302187D01*
X116977215Y-142307689D01*
X116976404Y-142313174D01*
X116976567Y-142314269D01*
X116976316Y-142316819D01*
X116871769Y-142316819D01*
X116876034Y-142305675D01*
X116876224Y-142302987D01*
X116877256Y-142300498D01*
X116878697Y-142285866D01*
X116878697Y-142223961D01*
X116877256Y-142209329D01*
X116876224Y-142206839D01*
X116876034Y-142204152D01*
X116870779Y-142190420D01*
X116839827Y-142128516D01*
X116835862Y-142122216D01*
X116835105Y-142120389D01*
X116833416Y-142118332D01*
X116831995Y-142116073D01*
X116830496Y-142114773D01*
X116825778Y-142109024D01*
X116794825Y-142078071D01*
X116789075Y-142073352D01*
X116787776Y-142071854D01*
X116785516Y-142070432D01*
X116783460Y-142068744D01*
X116781632Y-142067986D01*
X116775333Y-142064022D01*
X116713428Y-142033070D01*
X116699696Y-142027815D01*
X116697008Y-142027624D01*
X116694519Y-142026593D01*
X116679887Y-142025152D01*
X116525126Y-142025152D01*
X116517720Y-142025881D01*
X116515746Y-142025741D01*
X116513149Y-142026331D01*
X116510494Y-142026593D01*
X116508661Y-142027351D01*
X116501410Y-142029001D01*
X116408551Y-142059953D01*
X116395126Y-142065947D01*
X116373019Y-142085120D01*
X116359932Y-142111294D01*
X116357857Y-142140484D01*
X116367111Y-142168246D01*
X116386284Y-142190353D01*
X116412458Y-142203440D01*
X116441648Y-142205515D01*
X116455985Y-142202255D01*
X116537296Y-142175152D01*
X116662183Y-142175152D01*
X116697364Y-142192742D01*
X116711106Y-142206484D01*
X116728697Y-142241666D01*
X116728697Y-142268161D01*
X116711106Y-142303343D01*
X116697366Y-142317083D01*
X116653710Y-142338911D01*
X116537888Y-142367867D01*
X116536808Y-142368252D01*
X116536269Y-142368291D01*
X116530193Y-142370615D01*
X116524042Y-142372814D01*
X116523605Y-142373137D01*
X116522538Y-142373546D01*
X116460632Y-142404498D01*
X116454331Y-142408463D01*
X116452504Y-142409221D01*
X116450446Y-142410909D01*
X116448190Y-142412330D01*
X116446891Y-142413826D01*
X116441139Y-142418548D01*
X116410187Y-142449501D01*
X116405466Y-142455252D01*
X116403972Y-142456549D01*
X116402553Y-142458802D01*
X116400860Y-142460866D01*
X116400101Y-142462697D01*
X116396139Y-142468992D01*
X116365186Y-142530897D01*
X116359931Y-142544628D01*
X116359739Y-142547317D01*
X116358709Y-142549806D01*
X116357268Y-142564438D01*
X116228697Y-142564438D01*
X116228697Y-142100152D01*
X116227256Y-142085520D01*
X116216057Y-142058484D01*
X116195365Y-142037792D01*
X116168329Y-142026593D01*
X116139065Y-142026593D01*
X116112029Y-142037792D01*
X116091337Y-142058484D01*
X116080138Y-142085520D01*
X116078697Y-142100152D01*
X116003697Y-142100152D01*
X116003697Y-141950152D01*
X118346554Y-141950152D01*
X118346554Y-142900152D01*
G37*
G36*
X115080531Y-96844172D02*
G01*
X115109052Y-96901214D01*
X115109052Y-96982499D01*
X114782862Y-96917261D01*
X114782862Y-96901214D01*
X114811382Y-96844172D01*
X114868424Y-96815652D01*
X115023490Y-96815652D01*
X115080531Y-96844172D01*
G37*
G36*
X120651961Y-96844172D02*
G01*
X120680482Y-96901214D01*
X120680482Y-96982499D01*
X120354292Y-96917261D01*
X120354292Y-96901214D01*
X120382812Y-96844172D01*
X120439854Y-96815652D01*
X120594920Y-96815652D01*
X120651961Y-96844172D01*
G37*
G36*
X125354720Y-97098703D02*
G01*
X125357409Y-97098894D01*
X125359898Y-97099925D01*
X125374530Y-97101366D01*
X125594920Y-97101366D01*
X125651961Y-97129886D01*
X125680482Y-97186928D01*
X125680482Y-97246756D01*
X125651961Y-97303798D01*
X125594920Y-97332319D01*
X125392235Y-97332319D01*
X125354292Y-97313347D01*
X125354292Y-97098539D01*
X125354720Y-97098703D01*
G37*
G36*
X127036831Y-97926763D02*
G01*
X113664608Y-97926763D01*
X113664608Y-96883509D01*
X113775719Y-96883509D01*
X113775719Y-97407319D01*
X113777160Y-97421951D01*
X113788359Y-97448987D01*
X113809051Y-97469679D01*
X113836087Y-97480878D01*
X113865351Y-97480878D01*
X113892387Y-97469679D01*
X113913079Y-97448987D01*
X113924278Y-97421951D01*
X113925719Y-97407319D01*
X113925719Y-96901214D01*
X113954239Y-96844172D01*
X114011281Y-96815652D01*
X114118728Y-96815652D01*
X114187244Y-96849910D01*
X114204290Y-96866956D01*
X114204290Y-97407319D01*
X114205731Y-97421951D01*
X114216930Y-97448987D01*
X114237622Y-97469679D01*
X114264658Y-97480878D01*
X114293922Y-97480878D01*
X114320958Y-97469679D01*
X114341650Y-97448987D01*
X114352849Y-97421951D01*
X114354290Y-97407319D01*
X114354290Y-96883509D01*
X114632862Y-96883509D01*
X114632862Y-96978747D01*
X114634303Y-96993379D01*
X114637114Y-97000167D01*
X114638541Y-97007376D01*
X114642660Y-97013555D01*
X114645502Y-97020415D01*
X114650697Y-97025610D01*
X114654773Y-97031724D01*
X114660943Y-97035856D01*
X114666194Y-97041107D01*
X114672982Y-97043918D01*
X114679088Y-97048008D01*
X114693153Y-97052291D01*
X115109052Y-97135469D01*
X115109052Y-97246756D01*
X115080531Y-97303798D01*
X115023490Y-97332319D01*
X114868424Y-97332319D01*
X114789022Y-97292618D01*
X114775290Y-97287363D01*
X114746100Y-97285289D01*
X114718339Y-97294543D01*
X114696231Y-97313716D01*
X114683144Y-97339891D01*
X114681070Y-97369081D01*
X114690324Y-97396842D01*
X114709497Y-97418950D01*
X114721940Y-97426782D01*
X114817178Y-97474401D01*
X114830909Y-97479656D01*
X114833598Y-97479847D01*
X114836087Y-97480878D01*
X114850719Y-97482319D01*
X115041195Y-97482319D01*
X115055827Y-97480878D01*
X115058316Y-97479846D01*
X115061004Y-97479656D01*
X115074736Y-97474401D01*
X115169974Y-97426782D01*
X115172421Y-97425241D01*
X115173575Y-97424857D01*
X115175011Y-97423611D01*
X115182417Y-97418950D01*
X115188578Y-97411845D01*
X115195683Y-97405684D01*
X115200344Y-97398278D01*
X115201590Y-97396842D01*
X115201974Y-97395688D01*
X115203515Y-97393241D01*
X115251134Y-97298002D01*
X115256389Y-97284270D01*
X115256579Y-97281582D01*
X115257611Y-97279093D01*
X115259052Y-97264461D01*
X115259052Y-96883509D01*
X115257611Y-96868877D01*
X115256580Y-96866388D01*
X115256389Y-96863699D01*
X115251134Y-96849968D01*
X115203515Y-96754730D01*
X115201974Y-96752282D01*
X115201590Y-96751129D01*
X115200344Y-96749692D01*
X115195683Y-96742287D01*
X115188578Y-96736125D01*
X115182417Y-96729021D01*
X115177650Y-96726020D01*
X115396208Y-96726020D01*
X115396208Y-96755284D01*
X115407407Y-96782320D01*
X115428099Y-96803012D01*
X115455135Y-96814211D01*
X115469767Y-96815652D01*
X115547300Y-96815652D01*
X115615816Y-96849910D01*
X115646223Y-96880317D01*
X115680481Y-96948833D01*
X115680481Y-97407319D01*
X115681922Y-97421951D01*
X115693121Y-97448987D01*
X115713813Y-97469679D01*
X115740849Y-97480878D01*
X115770113Y-97480878D01*
X115797149Y-97469679D01*
X115817841Y-97448987D01*
X115829040Y-97421951D01*
X115830481Y-97407319D01*
X115830481Y-96740652D01*
X116156672Y-96740652D01*
X116156672Y-97407319D01*
X116158113Y-97421951D01*
X116169312Y-97448987D01*
X116190004Y-97469679D01*
X116217040Y-97480878D01*
X116246304Y-97480878D01*
X116273340Y-97469679D01*
X116292741Y-97450277D01*
X116340988Y-97474401D01*
X116354719Y-97479656D01*
X116357408Y-97479847D01*
X116359897Y-97480878D01*
X116374529Y-97482319D01*
X116517386Y-97482319D01*
X116532018Y-97480878D01*
X116534507Y-97479846D01*
X116537195Y-97479656D01*
X116550927Y-97474401D01*
X116646165Y-97426782D01*
X116648612Y-97425241D01*
X116649766Y-97424857D01*
X116651202Y-97423611D01*
X116658608Y-97418950D01*
X116664769Y-97411845D01*
X116671874Y-97405684D01*
X116676535Y-97398278D01*
X116677781Y-97396842D01*
X116678165Y-97395688D01*
X116679706Y-97393241D01*
X116727325Y-97298002D01*
X116732580Y-97284270D01*
X116732770Y-97281582D01*
X116733802Y-97279093D01*
X116735243Y-97264461D01*
X116735243Y-96883509D01*
X117061434Y-96883509D01*
X117061434Y-97407319D01*
X117062875Y-97421951D01*
X117074074Y-97448987D01*
X117094766Y-97469679D01*
X117121802Y-97480878D01*
X117151066Y-97480878D01*
X117178102Y-97469679D01*
X117198794Y-97448987D01*
X117209993Y-97421951D01*
X117211434Y-97407319D01*
X117211434Y-96901214D01*
X117239954Y-96844172D01*
X117296996Y-96815652D01*
X117404443Y-96815652D01*
X117472959Y-96849910D01*
X117490005Y-96866956D01*
X117490005Y-97407319D01*
X117491446Y-97421951D01*
X117502645Y-97448987D01*
X117523337Y-97469679D01*
X117550373Y-97480878D01*
X117579637Y-97480878D01*
X117606673Y-97469679D01*
X117627365Y-97448987D01*
X117638564Y-97421951D01*
X117640005Y-97407319D01*
X117640005Y-96778890D01*
X117919166Y-96778890D01*
X117921240Y-96808080D01*
X117934327Y-96834255D01*
X117956435Y-96853428D01*
X117984196Y-96862682D01*
X118013386Y-96860608D01*
X118027118Y-96855353D01*
X118106520Y-96815652D01*
X118261586Y-96815652D01*
X118330102Y-96849910D01*
X118360509Y-96880317D01*
X118394767Y-96948833D01*
X118394767Y-97199137D01*
X118360508Y-97267653D01*
X118330101Y-97298061D01*
X118261586Y-97332319D01*
X118106520Y-97332319D01*
X118027118Y-97292618D01*
X118013386Y-97287363D01*
X117984196Y-97285289D01*
X117956435Y-97294543D01*
X117934327Y-97313716D01*
X117921240Y-97339891D01*
X117919166Y-97369081D01*
X117928420Y-97396842D01*
X117947593Y-97418950D01*
X117960036Y-97426782D01*
X118055274Y-97474401D01*
X118069005Y-97479656D01*
X118071694Y-97479847D01*
X118074183Y-97480878D01*
X118088815Y-97482319D01*
X118279291Y-97482319D01*
X118293923Y-97480878D01*
X118296412Y-97479846D01*
X118299100Y-97479656D01*
X118312832Y-97474401D01*
X118408070Y-97426782D01*
X118414369Y-97422817D01*
X118416197Y-97422060D01*
X118418253Y-97420372D01*
X118420513Y-97418950D01*
X118421813Y-97417450D01*
X118427563Y-97412732D01*
X118475181Y-97365113D01*
X118479899Y-97359363D01*
X118481398Y-97358064D01*
X118482819Y-97355805D01*
X118484509Y-97353747D01*
X118485266Y-97351917D01*
X118489230Y-97345621D01*
X118536849Y-97250383D01*
X118542104Y-97236652D01*
X118542295Y-97233962D01*
X118543326Y-97231474D01*
X118544767Y-97216842D01*
X118775720Y-97216842D01*
X118775720Y-97264461D01*
X118777161Y-97279093D01*
X118778192Y-97281582D01*
X118778383Y-97284270D01*
X118783638Y-97298002D01*
X118831257Y-97393241D01*
X118832797Y-97395687D01*
X118833182Y-97396842D01*
X118834428Y-97398279D01*
X118839089Y-97405683D01*
X118846191Y-97411842D01*
X118852355Y-97418950D01*
X118859760Y-97423611D01*
X118861197Y-97424857D01*
X118862350Y-97425241D01*
X118864798Y-97426782D01*
X118960036Y-97474401D01*
X118973767Y-97479656D01*
X118976456Y-97479847D01*
X118978945Y-97480878D01*
X118993577Y-97482319D01*
X119184053Y-97482319D01*
X119198685Y-97480878D01*
X119201174Y-97479846D01*
X119203862Y-97479656D01*
X119217594Y-97474401D01*
X119312832Y-97426782D01*
X119325275Y-97418950D01*
X119344448Y-97396842D01*
X119353702Y-97369081D01*
X119351628Y-97339891D01*
X119338540Y-97313716D01*
X119316433Y-97294543D01*
X119288671Y-97285289D01*
X119259481Y-97287363D01*
X119245750Y-97292618D01*
X119166348Y-97332319D01*
X119011282Y-97332319D01*
X118954240Y-97303798D01*
X118925720Y-97246756D01*
X118925720Y-97234547D01*
X118954240Y-97177505D01*
X119011282Y-97148985D01*
X119136434Y-97148985D01*
X119151066Y-97147544D01*
X119153555Y-97146512D01*
X119156243Y-97146322D01*
X119169975Y-97141067D01*
X119265213Y-97093448D01*
X119267660Y-97091907D01*
X119268814Y-97091523D01*
X119270250Y-97090277D01*
X119277656Y-97085616D01*
X119283817Y-97078511D01*
X119290922Y-97072350D01*
X119295583Y-97064944D01*
X119296829Y-97063508D01*
X119297213Y-97062354D01*
X119298754Y-97059907D01*
X119346373Y-96964669D01*
X119351628Y-96950938D01*
X119351819Y-96948248D01*
X119352850Y-96945760D01*
X119354291Y-96931128D01*
X119354291Y-96883509D01*
X119352850Y-96868877D01*
X119351819Y-96866388D01*
X119351628Y-96863699D01*
X119346373Y-96849968D01*
X119298754Y-96754730D01*
X119297213Y-96752282D01*
X119296829Y-96751129D01*
X119295583Y-96749692D01*
X119290922Y-96742287D01*
X119283817Y-96736125D01*
X119277656Y-96729021D01*
X119272889Y-96726020D01*
X119491447Y-96726020D01*
X119491447Y-96755284D01*
X119502646Y-96782320D01*
X119523338Y-96803012D01*
X119550374Y-96814211D01*
X119565006Y-96815652D01*
X119642539Y-96815652D01*
X119711055Y-96849910D01*
X119741462Y-96880317D01*
X119775720Y-96948833D01*
X119775720Y-97407319D01*
X119777161Y-97421951D01*
X119788360Y-97448987D01*
X119809052Y-97469679D01*
X119836088Y-97480878D01*
X119865352Y-97480878D01*
X119892388Y-97469679D01*
X119913080Y-97448987D01*
X119924279Y-97421951D01*
X119925720Y-97407319D01*
X119925720Y-96883509D01*
X120204292Y-96883509D01*
X120204292Y-96978747D01*
X120205733Y-96993379D01*
X120208544Y-97000167D01*
X120209971Y-97007376D01*
X120214090Y-97013555D01*
X120216932Y-97020415D01*
X120222127Y-97025610D01*
X120226203Y-97031724D01*
X120232373Y-97035856D01*
X120237624Y-97041107D01*
X120244412Y-97043918D01*
X120250518Y-97048008D01*
X120264583Y-97052291D01*
X120680482Y-97135469D01*
X120680482Y-97246756D01*
X120651961Y-97303798D01*
X120594920Y-97332319D01*
X120439854Y-97332319D01*
X120360452Y-97292618D01*
X120346720Y-97287363D01*
X120317530Y-97285289D01*
X120289769Y-97294543D01*
X120267661Y-97313716D01*
X120254574Y-97339891D01*
X120252500Y-97369081D01*
X120261754Y-97396842D01*
X120280927Y-97418950D01*
X120293370Y-97426782D01*
X120388608Y-97474401D01*
X120402339Y-97479656D01*
X120405028Y-97479847D01*
X120407517Y-97480878D01*
X120422149Y-97482319D01*
X120612625Y-97482319D01*
X120627257Y-97480878D01*
X120629746Y-97479846D01*
X120632434Y-97479656D01*
X120646166Y-97474401D01*
X120741404Y-97426782D01*
X120743851Y-97425241D01*
X120745005Y-97424857D01*
X120746441Y-97423611D01*
X120753847Y-97418950D01*
X120760008Y-97411845D01*
X120767113Y-97405684D01*
X120771774Y-97398278D01*
X120773020Y-97396842D01*
X120773404Y-97395688D01*
X120774945Y-97393241D01*
X120822564Y-97298002D01*
X120827819Y-97284270D01*
X120828009Y-97281582D01*
X120829041Y-97279093D01*
X120830482Y-97264461D01*
X120830482Y-96883509D01*
X120829041Y-96868877D01*
X120828010Y-96866388D01*
X120827819Y-96863699D01*
X120822564Y-96849968D01*
X120774945Y-96754730D01*
X120773404Y-96752282D01*
X120773020Y-96751129D01*
X120771774Y-96749692D01*
X120767113Y-96742287D01*
X120760008Y-96736125D01*
X120753847Y-96729021D01*
X120746441Y-96724359D01*
X120745005Y-96723114D01*
X120743851Y-96722729D01*
X120741404Y-96721189D01*
X120646166Y-96673570D01*
X120632434Y-96668315D01*
X120629746Y-96668124D01*
X120627257Y-96667093D01*
X120612625Y-96665652D01*
X120422149Y-96665652D01*
X120407517Y-96667093D01*
X120405028Y-96668123D01*
X120402339Y-96668315D01*
X120388608Y-96673570D01*
X120293370Y-96721189D01*
X120290922Y-96722729D01*
X120289769Y-96723114D01*
X120288332Y-96724359D01*
X120280927Y-96729021D01*
X120274765Y-96736125D01*
X120267661Y-96742287D01*
X120262999Y-96749692D01*
X120261754Y-96751129D01*
X120261369Y-96752282D01*
X120259829Y-96754730D01*
X120212210Y-96849968D01*
X120206955Y-96863700D01*
X120206764Y-96866387D01*
X120205733Y-96868877D01*
X120204292Y-96883509D01*
X119925720Y-96883509D01*
X119925720Y-96740652D01*
X119924279Y-96726020D01*
X119913080Y-96698984D01*
X119892388Y-96678292D01*
X119865352Y-96667093D01*
X119836088Y-96667093D01*
X119809052Y-96678292D01*
X119788360Y-96698984D01*
X119780854Y-96717104D01*
X119693785Y-96673570D01*
X119680053Y-96668315D01*
X119677365Y-96668124D01*
X119674876Y-96667093D01*
X119660244Y-96665652D01*
X119565006Y-96665652D01*
X119550374Y-96667093D01*
X119523338Y-96678292D01*
X119502646Y-96698984D01*
X119491447Y-96726020D01*
X119272889Y-96726020D01*
X119270250Y-96724359D01*
X119268814Y-96723114D01*
X119267660Y-96722729D01*
X119265213Y-96721189D01*
X119169975Y-96673570D01*
X119156243Y-96668315D01*
X119153555Y-96668124D01*
X119151066Y-96667093D01*
X119136434Y-96665652D01*
X118993577Y-96665652D01*
X118978945Y-96667093D01*
X118976456Y-96668123D01*
X118973767Y-96668315D01*
X118960036Y-96673570D01*
X118864798Y-96721189D01*
X118852355Y-96729021D01*
X118833182Y-96751129D01*
X118823928Y-96778890D01*
X118826002Y-96808080D01*
X118839089Y-96834255D01*
X118861197Y-96853428D01*
X118888958Y-96862682D01*
X118918148Y-96860608D01*
X118931880Y-96855353D01*
X119011282Y-96815652D01*
X119118729Y-96815652D01*
X119175770Y-96844172D01*
X119204291Y-96901214D01*
X119204291Y-96913423D01*
X119175770Y-96970464D01*
X119118729Y-96998985D01*
X118993577Y-96998985D01*
X118978945Y-97000426D01*
X118976456Y-97001456D01*
X118973767Y-97001648D01*
X118960036Y-97006903D01*
X118864798Y-97054522D01*
X118862350Y-97056062D01*
X118861197Y-97056447D01*
X118859760Y-97057692D01*
X118852355Y-97062354D01*
X118846193Y-97069458D01*
X118839089Y-97075620D01*
X118834427Y-97083025D01*
X118833182Y-97084462D01*
X118832797Y-97085615D01*
X118831257Y-97088063D01*
X118783638Y-97183301D01*
X118778383Y-97197033D01*
X118778192Y-97199720D01*
X118777161Y-97202210D01*
X118775720Y-97216842D01*
X118544767Y-97216842D01*
X118544767Y-96931128D01*
X118543326Y-96916496D01*
X118542295Y-96914007D01*
X118542104Y-96911318D01*
X118536849Y-96897587D01*
X118489230Y-96802349D01*
X118485265Y-96796049D01*
X118484508Y-96794222D01*
X118482819Y-96792165D01*
X118481398Y-96789906D01*
X118479899Y-96788606D01*
X118475181Y-96782857D01*
X118427562Y-96735238D01*
X118421812Y-96730519D01*
X118420513Y-96729021D01*
X118418253Y-96727599D01*
X118416197Y-96725911D01*
X118414369Y-96725153D01*
X118408070Y-96721189D01*
X118312832Y-96673570D01*
X118299100Y-96668315D01*
X118296412Y-96668124D01*
X118293923Y-96667093D01*
X118279291Y-96665652D01*
X118088815Y-96665652D01*
X118074183Y-96667093D01*
X118071694Y-96668123D01*
X118069005Y-96668315D01*
X118055274Y-96673570D01*
X117960036Y-96721189D01*
X117947593Y-96729021D01*
X117928420Y-96751129D01*
X117919166Y-96778890D01*
X117640005Y-96778890D01*
X117640005Y-96416699D01*
X120966786Y-96416699D01*
X120970046Y-96431036D01*
X121303379Y-97431036D01*
X121309373Y-97444461D01*
X121312883Y-97448508D01*
X121315280Y-97453302D01*
X121322388Y-97459467D01*
X121328547Y-97466568D01*
X121333336Y-97468962D01*
X121337387Y-97472476D01*
X121346312Y-97475450D01*
X121354720Y-97479655D01*
X121360064Y-97480034D01*
X121365150Y-97481730D01*
X121374530Y-97481063D01*
X121383910Y-97481730D01*
X121388995Y-97480034D01*
X121394340Y-97479655D01*
X121402750Y-97475449D01*
X121411672Y-97472476D01*
X121415719Y-97468965D01*
X121420513Y-97466569D01*
X121426676Y-97459463D01*
X121433780Y-97453302D01*
X121436175Y-97448510D01*
X121439687Y-97444462D01*
X121445681Y-97431036D01*
X121628190Y-96883509D01*
X122728102Y-96883509D01*
X122728102Y-97407319D01*
X122729543Y-97421951D01*
X122740742Y-97448987D01*
X122761434Y-97469679D01*
X122788470Y-97480878D01*
X122817734Y-97480878D01*
X122844770Y-97469679D01*
X122865462Y-97448987D01*
X122876661Y-97421951D01*
X122878102Y-97407319D01*
X122878102Y-96901214D01*
X122906622Y-96844172D01*
X122963664Y-96815652D01*
X123071111Y-96815652D01*
X123139627Y-96849910D01*
X123156673Y-96866956D01*
X123156673Y-97407319D01*
X123158114Y-97421951D01*
X123169313Y-97448987D01*
X123190005Y-97469679D01*
X123217041Y-97480878D01*
X123246305Y-97480878D01*
X123273341Y-97469679D01*
X123294033Y-97448987D01*
X123305232Y-97421951D01*
X123306673Y-97407319D01*
X123306673Y-96740652D01*
X123632863Y-96740652D01*
X123632863Y-97597795D01*
X123634304Y-97612427D01*
X123635335Y-97614916D01*
X123635526Y-97617604D01*
X123640781Y-97631336D01*
X123688400Y-97726574D01*
X123689940Y-97729021D01*
X123690325Y-97730175D01*
X123691570Y-97731611D01*
X123696232Y-97739017D01*
X123703336Y-97745178D01*
X123709498Y-97752283D01*
X123716903Y-97756944D01*
X123718340Y-97758190D01*
X123719493Y-97758574D01*
X123721941Y-97760115D01*
X123817179Y-97807734D01*
X123830910Y-97812989D01*
X123833599Y-97813180D01*
X123836088Y-97814211D01*
X123850720Y-97815652D01*
X123898339Y-97815652D01*
X123912971Y-97814211D01*
X123940007Y-97803012D01*
X123960699Y-97782320D01*
X123971898Y-97755284D01*
X123971898Y-97726020D01*
X123960699Y-97698984D01*
X123940007Y-97678292D01*
X123912971Y-97667093D01*
X123898339Y-97665652D01*
X123868425Y-97665652D01*
X123811383Y-97637131D01*
X123782863Y-97580090D01*
X123782863Y-96740652D01*
X124109053Y-96740652D01*
X124109053Y-97407319D01*
X124110494Y-97421951D01*
X124121693Y-97448987D01*
X124142385Y-97469679D01*
X124169421Y-97480878D01*
X124198685Y-97480878D01*
X124225721Y-97469679D01*
X124246413Y-97448987D01*
X124257612Y-97421951D01*
X124259053Y-97407319D01*
X124259053Y-96740652D01*
X124257612Y-96726020D01*
X124443828Y-96726020D01*
X124443828Y-96755284D01*
X124455027Y-96782320D01*
X124475719Y-96803012D01*
X124502755Y-96814211D01*
X124517387Y-96815652D01*
X124594920Y-96815652D01*
X124663436Y-96849910D01*
X124693843Y-96880317D01*
X124728101Y-96948833D01*
X124728101Y-97407319D01*
X124729542Y-97421951D01*
X124740741Y-97448987D01*
X124761433Y-97469679D01*
X124788469Y-97480878D01*
X124817733Y-97480878D01*
X124844769Y-97469679D01*
X124865461Y-97448987D01*
X124876660Y-97421951D01*
X124878101Y-97407319D01*
X124878101Y-96883509D01*
X125204292Y-96883509D01*
X125204292Y-97407319D01*
X125205733Y-97421951D01*
X125216932Y-97448987D01*
X125237624Y-97469679D01*
X125264660Y-97480878D01*
X125293924Y-97480878D01*
X125320960Y-97469679D01*
X125324488Y-97466150D01*
X125340989Y-97474401D01*
X125354720Y-97479656D01*
X125357409Y-97479847D01*
X125359898Y-97480878D01*
X125374530Y-97482319D01*
X125612625Y-97482319D01*
X125627257Y-97480878D01*
X125629746Y-97479846D01*
X125632434Y-97479656D01*
X125646166Y-97474401D01*
X125741404Y-97426782D01*
X125743851Y-97425241D01*
X125745005Y-97424857D01*
X125746441Y-97423611D01*
X125753847Y-97418950D01*
X125760008Y-97411845D01*
X125767113Y-97405684D01*
X125771774Y-97398278D01*
X125773020Y-97396842D01*
X125773404Y-97395688D01*
X125774945Y-97393241D01*
X125822564Y-97298002D01*
X125827819Y-97284270D01*
X125828009Y-97281582D01*
X125829041Y-97279093D01*
X125830482Y-97264461D01*
X125830482Y-97169223D01*
X125829041Y-97154591D01*
X125828010Y-97152102D01*
X125827819Y-97149413D01*
X125822564Y-97135682D01*
X125774945Y-97040444D01*
X125773404Y-97037996D01*
X125773020Y-97036843D01*
X125771774Y-97035406D01*
X125767113Y-97028001D01*
X125760008Y-97021839D01*
X125753847Y-97014735D01*
X125746441Y-97010073D01*
X125745005Y-97008828D01*
X125743851Y-97008443D01*
X125741404Y-97006903D01*
X125646166Y-96959284D01*
X125632434Y-96954029D01*
X125629746Y-96953838D01*
X125627257Y-96952807D01*
X125612625Y-96951366D01*
X125392235Y-96951366D01*
X125354292Y-96932394D01*
X125354292Y-96901214D01*
X125382812Y-96844172D01*
X125439854Y-96815652D01*
X125594920Y-96815652D01*
X125674322Y-96855353D01*
X125688053Y-96860608D01*
X125717243Y-96862682D01*
X125745005Y-96853428D01*
X125767112Y-96834255D01*
X125780200Y-96808080D01*
X125782274Y-96778890D01*
X125773020Y-96751129D01*
X125753847Y-96729021D01*
X125741404Y-96721189D01*
X125646166Y-96673570D01*
X125632434Y-96668315D01*
X125629746Y-96668124D01*
X125627257Y-96667093D01*
X125612625Y-96665652D01*
X125422149Y-96665652D01*
X125407517Y-96667093D01*
X125405028Y-96668123D01*
X125402339Y-96668315D01*
X125388608Y-96673570D01*
X125293370Y-96721189D01*
X125290922Y-96722729D01*
X125289769Y-96723114D01*
X125288332Y-96724359D01*
X125280927Y-96729021D01*
X125274765Y-96736125D01*
X125267661Y-96742287D01*
X125262999Y-96749692D01*
X125261754Y-96751129D01*
X125261369Y-96752282D01*
X125259829Y-96754730D01*
X125212210Y-96849968D01*
X125206955Y-96863700D01*
X125206764Y-96866387D01*
X125205733Y-96868877D01*
X125204292Y-96883509D01*
X124878101Y-96883509D01*
X124878101Y-96740652D01*
X124876660Y-96726020D01*
X124865461Y-96698984D01*
X124844769Y-96678292D01*
X124817733Y-96667093D01*
X124788469Y-96667093D01*
X124761433Y-96678292D01*
X124740741Y-96698984D01*
X124733235Y-96717104D01*
X124646166Y-96673570D01*
X124632434Y-96668315D01*
X124629746Y-96668124D01*
X124627257Y-96667093D01*
X124612625Y-96665652D01*
X124517387Y-96665652D01*
X124502755Y-96667093D01*
X124475719Y-96678292D01*
X124455027Y-96698984D01*
X124443828Y-96726020D01*
X124257612Y-96726020D01*
X124246413Y-96698984D01*
X124225721Y-96678292D01*
X124198685Y-96667093D01*
X124169421Y-96667093D01*
X124142385Y-96678292D01*
X124121693Y-96698984D01*
X124110494Y-96726020D01*
X124109053Y-96740652D01*
X123782863Y-96740652D01*
X123781422Y-96726020D01*
X123770223Y-96698984D01*
X123749531Y-96678292D01*
X123722495Y-96667093D01*
X123693231Y-96667093D01*
X123666195Y-96678292D01*
X123645503Y-96698984D01*
X123634304Y-96726020D01*
X123632863Y-96740652D01*
X123306673Y-96740652D01*
X123305232Y-96726020D01*
X123294033Y-96698984D01*
X123273341Y-96678292D01*
X123246305Y-96667093D01*
X123217041Y-96667093D01*
X123190005Y-96678292D01*
X123170603Y-96697693D01*
X123122357Y-96673570D01*
X123108625Y-96668315D01*
X123105937Y-96668124D01*
X123103448Y-96667093D01*
X123088816Y-96665652D01*
X122945959Y-96665652D01*
X122931327Y-96667093D01*
X122928838Y-96668123D01*
X122926149Y-96668315D01*
X122912418Y-96673570D01*
X122817180Y-96721189D01*
X122814732Y-96722729D01*
X122813579Y-96723114D01*
X122812142Y-96724359D01*
X122804737Y-96729021D01*
X122798575Y-96736125D01*
X122791471Y-96742287D01*
X122786809Y-96749692D01*
X122785564Y-96751129D01*
X122785179Y-96752282D01*
X122783639Y-96754730D01*
X122736020Y-96849968D01*
X122730765Y-96863700D01*
X122730574Y-96866387D01*
X122729543Y-96868877D01*
X122728102Y-96883509D01*
X121628190Y-96883509D01*
X121775924Y-96440307D01*
X123586685Y-96440307D01*
X123586685Y-96469569D01*
X123597884Y-96496606D01*
X123607211Y-96507971D01*
X123654830Y-96555590D01*
X123666195Y-96564917D01*
X123693231Y-96576116D01*
X123693232Y-96576116D01*
X123722494Y-96576116D01*
X123722495Y-96576116D01*
X123749531Y-96564917D01*
X123760896Y-96555590D01*
X123808515Y-96507971D01*
X123817842Y-96496606D01*
X123829041Y-96469570D01*
X123829041Y-96440307D01*
X124062875Y-96440307D01*
X124062875Y-96469569D01*
X124074074Y-96496606D01*
X124083401Y-96507971D01*
X124131020Y-96555590D01*
X124142385Y-96564917D01*
X124169421Y-96576116D01*
X124169422Y-96576116D01*
X124198684Y-96576116D01*
X124198685Y-96576116D01*
X124225721Y-96564917D01*
X124237086Y-96555590D01*
X124284705Y-96507971D01*
X124294032Y-96496606D01*
X124305231Y-96469570D01*
X124305231Y-96440307D01*
X124304705Y-96439035D01*
X124294032Y-96413270D01*
X124289148Y-96407319D01*
X126109054Y-96407319D01*
X126109054Y-97407319D01*
X126110495Y-97421951D01*
X126121694Y-97448987D01*
X126142386Y-97469679D01*
X126169422Y-97480878D01*
X126198686Y-97480878D01*
X126225722Y-97469679D01*
X126246414Y-97448987D01*
X126257613Y-97421951D01*
X126259054Y-97407319D01*
X126259054Y-96745386D01*
X126449423Y-97153321D01*
X126452597Y-97158680D01*
X126453257Y-97160493D01*
X126454431Y-97161775D01*
X126456917Y-97165971D01*
X126465326Y-97173671D01*
X126473021Y-97182074D01*
X126476039Y-97183482D01*
X126478498Y-97185734D01*
X126489210Y-97189629D01*
X126499539Y-97194450D01*
X126502867Y-97194596D01*
X126505999Y-97195735D01*
X126517393Y-97195234D01*
X126528775Y-97195734D01*
X126531903Y-97194596D01*
X126535235Y-97194450D01*
X126545570Y-97189626D01*
X126556276Y-97185734D01*
X126558731Y-97183484D01*
X126561753Y-97182075D01*
X126569454Y-97173664D01*
X126577857Y-97165970D01*
X126580340Y-97161777D01*
X126581517Y-97160493D01*
X126582177Y-97158677D01*
X126585351Y-97153320D01*
X126775720Y-96745386D01*
X126775720Y-97407319D01*
X126777161Y-97421951D01*
X126788360Y-97448987D01*
X126809052Y-97469679D01*
X126836088Y-97480878D01*
X126865352Y-97480878D01*
X126892388Y-97469679D01*
X126913080Y-97448987D01*
X126924279Y-97421951D01*
X126925720Y-97407319D01*
X126925720Y-96407319D01*
X126924772Y-96397697D01*
X126924850Y-96395931D01*
X126924505Y-96394982D01*
X126924279Y-96392687D01*
X126919297Y-96380660D01*
X126914850Y-96368430D01*
X126913720Y-96367196D01*
X126913080Y-96365651D01*
X126903880Y-96356451D01*
X126895086Y-96346848D01*
X126893569Y-96346140D01*
X126892388Y-96344959D01*
X126880375Y-96339982D01*
X126868568Y-96334473D01*
X126866895Y-96334399D01*
X126865352Y-96333760D01*
X126852346Y-96333760D01*
X126839332Y-96333188D01*
X126837759Y-96333760D01*
X126836088Y-96333760D01*
X126824069Y-96338738D01*
X126811831Y-96343189D01*
X126810597Y-96344319D01*
X126809052Y-96344959D01*
X126799853Y-96354157D01*
X126790250Y-96362952D01*
X126789074Y-96364936D01*
X126788360Y-96365651D01*
X126787683Y-96367284D01*
X126782756Y-96375602D01*
X126517386Y-96944250D01*
X126252018Y-96375603D01*
X126247092Y-96367287D01*
X126246414Y-96365651D01*
X126245698Y-96364935D01*
X126244524Y-96362953D01*
X126234927Y-96354164D01*
X126225722Y-96344959D01*
X126224176Y-96344318D01*
X126222943Y-96343189D01*
X126210712Y-96338741D01*
X126198686Y-96333760D01*
X126197012Y-96333760D01*
X126195442Y-96333189D01*
X126182441Y-96333760D01*
X126169422Y-96333760D01*
X126167877Y-96334399D01*
X126166206Y-96334473D01*
X126154407Y-96339979D01*
X126142386Y-96344959D01*
X126141203Y-96346141D01*
X126139688Y-96346849D01*
X126130899Y-96356445D01*
X126121694Y-96365651D01*
X126121053Y-96367196D01*
X126119924Y-96368430D01*
X126115476Y-96380660D01*
X126110495Y-96392687D01*
X126110268Y-96394982D01*
X126109924Y-96395931D01*
X126110001Y-96397697D01*
X126109054Y-96407319D01*
X124289148Y-96407319D01*
X124284705Y-96401905D01*
X124237086Y-96354286D01*
X124225721Y-96344959D01*
X124221448Y-96343189D01*
X124198685Y-96333760D01*
X124198684Y-96333760D01*
X124169421Y-96333760D01*
X124142385Y-96344959D01*
X124131020Y-96354286D01*
X124083401Y-96401905D01*
X124074074Y-96413270D01*
X124062875Y-96440307D01*
X123829041Y-96440307D01*
X123828515Y-96439035D01*
X123817842Y-96413270D01*
X123808515Y-96401905D01*
X123760896Y-96354286D01*
X123749531Y-96344959D01*
X123745258Y-96343189D01*
X123722495Y-96333760D01*
X123722494Y-96333760D01*
X123693231Y-96333760D01*
X123666195Y-96344959D01*
X123654830Y-96354286D01*
X123607211Y-96401905D01*
X123597884Y-96413270D01*
X123586685Y-96440307D01*
X121775924Y-96440307D01*
X121779014Y-96431036D01*
X121782274Y-96416700D01*
X121780199Y-96387510D01*
X121767113Y-96361336D01*
X121745005Y-96342162D01*
X121717243Y-96332908D01*
X121688053Y-96334983D01*
X121661880Y-96348070D01*
X121642706Y-96370177D01*
X121636712Y-96383602D01*
X121374530Y-97170148D01*
X121112348Y-96383602D01*
X121106354Y-96370176D01*
X121087180Y-96348069D01*
X121061007Y-96334983D01*
X121031817Y-96332908D01*
X121004054Y-96342162D01*
X120981947Y-96361336D01*
X120968861Y-96387509D01*
X120966786Y-96416699D01*
X117640005Y-96416699D01*
X117640005Y-96407319D01*
X117638564Y-96392687D01*
X117627365Y-96365651D01*
X117606673Y-96344959D01*
X117579637Y-96333760D01*
X117550373Y-96333760D01*
X117523337Y-96344959D01*
X117502645Y-96365651D01*
X117491446Y-96392687D01*
X117490005Y-96407319D01*
X117490005Y-96690728D01*
X117455689Y-96673570D01*
X117441957Y-96668315D01*
X117439269Y-96668124D01*
X117436780Y-96667093D01*
X117422148Y-96665652D01*
X117279291Y-96665652D01*
X117264659Y-96667093D01*
X117262170Y-96668123D01*
X117259481Y-96668315D01*
X117245750Y-96673570D01*
X117150512Y-96721189D01*
X117148064Y-96722729D01*
X117146911Y-96723114D01*
X117145474Y-96724359D01*
X117138069Y-96729021D01*
X117131907Y-96736125D01*
X117124803Y-96742287D01*
X117120141Y-96749692D01*
X117118896Y-96751129D01*
X117118511Y-96752282D01*
X117116971Y-96754730D01*
X117069352Y-96849968D01*
X117064097Y-96863700D01*
X117063906Y-96866387D01*
X117062875Y-96868877D01*
X117061434Y-96883509D01*
X116735243Y-96883509D01*
X116735243Y-96740652D01*
X116733802Y-96726020D01*
X116722603Y-96698984D01*
X116701911Y-96678292D01*
X116674875Y-96667093D01*
X116645611Y-96667093D01*
X116618575Y-96678292D01*
X116597883Y-96698984D01*
X116586684Y-96726020D01*
X116585243Y-96740652D01*
X116585243Y-97246756D01*
X116556722Y-97303798D01*
X116499681Y-97332319D01*
X116392234Y-97332319D01*
X116323718Y-97298061D01*
X116306672Y-97281014D01*
X116306672Y-96740652D01*
X116305231Y-96726020D01*
X116294032Y-96698984D01*
X116273340Y-96678292D01*
X116246304Y-96667093D01*
X116217040Y-96667093D01*
X116190004Y-96678292D01*
X116169312Y-96698984D01*
X116158113Y-96726020D01*
X116156672Y-96740652D01*
X115830481Y-96740652D01*
X115829040Y-96726020D01*
X115817841Y-96698984D01*
X115797149Y-96678292D01*
X115770113Y-96667093D01*
X115740849Y-96667093D01*
X115713813Y-96678292D01*
X115693121Y-96698984D01*
X115685615Y-96717104D01*
X115598546Y-96673570D01*
X115584814Y-96668315D01*
X115582126Y-96668124D01*
X115579637Y-96667093D01*
X115565005Y-96665652D01*
X115469767Y-96665652D01*
X115455135Y-96667093D01*
X115428099Y-96678292D01*
X115407407Y-96698984D01*
X115396208Y-96726020D01*
X115177650Y-96726020D01*
X115175011Y-96724359D01*
X115173575Y-96723114D01*
X115172421Y-96722729D01*
X115169974Y-96721189D01*
X115074736Y-96673570D01*
X115061004Y-96668315D01*
X115058316Y-96668124D01*
X115055827Y-96667093D01*
X115041195Y-96665652D01*
X114850719Y-96665652D01*
X114836087Y-96667093D01*
X114833598Y-96668123D01*
X114830909Y-96668315D01*
X114817178Y-96673570D01*
X114721940Y-96721189D01*
X114719492Y-96722729D01*
X114718339Y-96723114D01*
X114716902Y-96724359D01*
X114709497Y-96729021D01*
X114703335Y-96736125D01*
X114696231Y-96742287D01*
X114691569Y-96749692D01*
X114690324Y-96751129D01*
X114689939Y-96752282D01*
X114688399Y-96754730D01*
X114640780Y-96849968D01*
X114635525Y-96863700D01*
X114635334Y-96866387D01*
X114634303Y-96868877D01*
X114632862Y-96883509D01*
X114354290Y-96883509D01*
X114354290Y-96740652D01*
X114352849Y-96726020D01*
X114341650Y-96698984D01*
X114320958Y-96678292D01*
X114293922Y-96667093D01*
X114264658Y-96667093D01*
X114237622Y-96678292D01*
X114218220Y-96697693D01*
X114169974Y-96673570D01*
X114156242Y-96668315D01*
X114153554Y-96668124D01*
X114151065Y-96667093D01*
X114136433Y-96665652D01*
X113993576Y-96665652D01*
X113978944Y-96667093D01*
X113976455Y-96668123D01*
X113973766Y-96668315D01*
X113960035Y-96673570D01*
X113864797Y-96721189D01*
X113862349Y-96722729D01*
X113861196Y-96723114D01*
X113859759Y-96724359D01*
X113852354Y-96729021D01*
X113846192Y-96736125D01*
X113839088Y-96742287D01*
X113834426Y-96749692D01*
X113833181Y-96751129D01*
X113832796Y-96752282D01*
X113831256Y-96754730D01*
X113783637Y-96849968D01*
X113778382Y-96863700D01*
X113778191Y-96866387D01*
X113777160Y-96868877D01*
X113775719Y-96883509D01*
X113664608Y-96883509D01*
X113664608Y-96221797D01*
X127036831Y-96221797D01*
X127036831Y-97926763D01*
G37*
G36*
X128146554Y-128500152D02*
G01*
X127991640Y-128500152D01*
X127956456Y-128482560D01*
X127942715Y-128468819D01*
X127925125Y-128433637D01*
X127925125Y-128376189D01*
X127942715Y-128341008D01*
X127952543Y-128331180D01*
X128017057Y-128309676D01*
X128146554Y-128309676D01*
X128146554Y-128500152D01*
G37*
G36*
X128146554Y-128159676D02*
G01*
X128022592Y-128159676D01*
X127987409Y-128142084D01*
X127973669Y-128128344D01*
X127956077Y-128093160D01*
X127956077Y-128066667D01*
X127973669Y-128031482D01*
X127987409Y-128017742D01*
X128022592Y-128000152D01*
X128146554Y-128000152D01*
X128146554Y-128159676D01*
G37*
G36*
X127498450Y-128314438D02*
G01*
X127397038Y-128314438D01*
X127447744Y-128162321D01*
X127498450Y-128314438D01*
G37*
G36*
X128371554Y-128725152D02*
G01*
X125875376Y-128725152D01*
X125875376Y-128312901D01*
X125950376Y-128312901D01*
X125950376Y-128342165D01*
X125961575Y-128369201D01*
X125982267Y-128389893D01*
X126009303Y-128401092D01*
X126023935Y-128402533D01*
X126519173Y-128402533D01*
X126533805Y-128401092D01*
X126560841Y-128389893D01*
X126581533Y-128369201D01*
X126592732Y-128342165D01*
X126592732Y-128312901D01*
X126581533Y-128285865D01*
X126560841Y-128265173D01*
X126533805Y-128253974D01*
X126519173Y-128252533D01*
X126023935Y-128252533D01*
X126009303Y-128253974D01*
X125982267Y-128265173D01*
X125961575Y-128285865D01*
X125950376Y-128312901D01*
X125875376Y-128312901D01*
X125875376Y-127910520D01*
X126662280Y-127910520D01*
X126662280Y-127939784D01*
X126673479Y-127966820D01*
X126694171Y-127987512D01*
X126721207Y-127998711D01*
X126735839Y-128000152D01*
X126846553Y-128000152D01*
X126846553Y-128575152D01*
X126847994Y-128589784D01*
X126859193Y-128616820D01*
X126879885Y-128637512D01*
X126906921Y-128648711D01*
X126936185Y-128648711D01*
X126963221Y-128637512D01*
X126983913Y-128616820D01*
X126995112Y-128589784D01*
X126996553Y-128575152D01*
X126996553Y-128565772D01*
X127156666Y-128565772D01*
X127158741Y-128594962D01*
X127171827Y-128621135D01*
X127193934Y-128640309D01*
X127221697Y-128649563D01*
X127250887Y-128647488D01*
X127277060Y-128634402D01*
X127296234Y-128612295D01*
X127302228Y-128598869D01*
X127347038Y-128464438D01*
X127548450Y-128464438D01*
X127593260Y-128598869D01*
X127599254Y-128612294D01*
X127618428Y-128634401D01*
X127644601Y-128647488D01*
X127673791Y-128649563D01*
X127701553Y-128640309D01*
X127723661Y-128621135D01*
X127736747Y-128594961D01*
X127738822Y-128565771D01*
X127735562Y-128551435D01*
X127671245Y-128358485D01*
X127775125Y-128358485D01*
X127775125Y-128451342D01*
X127776566Y-128465974D01*
X127777597Y-128468463D01*
X127777788Y-128471151D01*
X127783043Y-128484883D01*
X127813995Y-128546788D01*
X127817959Y-128553087D01*
X127818717Y-128554915D01*
X127820405Y-128556971D01*
X127821827Y-128559231D01*
X127823325Y-128560530D01*
X127828044Y-128566280D01*
X127858997Y-128597233D01*
X127864749Y-128601953D01*
X127866047Y-128603450D01*
X127868302Y-128604869D01*
X127870362Y-128606560D01*
X127872191Y-128607317D01*
X127878489Y-128611282D01*
X127940395Y-128642234D01*
X127954126Y-128647489D01*
X127956813Y-128647679D01*
X127959303Y-128648711D01*
X127973935Y-128650152D01*
X128221554Y-128650152D01*
X128236186Y-128648711D01*
X128263222Y-128637512D01*
X128283914Y-128616820D01*
X128295113Y-128589784D01*
X128296554Y-128575152D01*
X128296554Y-127925152D01*
X128295113Y-127910520D01*
X128283914Y-127883484D01*
X128263222Y-127862792D01*
X128236186Y-127851593D01*
X128221554Y-127850152D01*
X128004887Y-127850152D01*
X127990255Y-127851593D01*
X127987765Y-127852624D01*
X127985078Y-127852815D01*
X127971347Y-127858070D01*
X127909441Y-127889022D01*
X127903140Y-127892987D01*
X127901313Y-127893745D01*
X127899255Y-127895433D01*
X127896999Y-127896854D01*
X127895700Y-127898350D01*
X127889948Y-127903072D01*
X127858996Y-127934025D01*
X127854275Y-127939776D01*
X127852781Y-127941073D01*
X127851361Y-127943327D01*
X127849669Y-127945390D01*
X127848911Y-127947220D01*
X127844948Y-127953515D01*
X127813995Y-128015419D01*
X127808740Y-128029151D01*
X127808548Y-128031840D01*
X127807518Y-128034329D01*
X127806077Y-128048961D01*
X127806077Y-128110866D01*
X127807518Y-128125498D01*
X127808548Y-128127986D01*
X127808740Y-128130676D01*
X127813995Y-128144407D01*
X127844948Y-128206312D01*
X127848911Y-128212608D01*
X127849670Y-128214439D01*
X127851361Y-128216500D01*
X127852781Y-128218755D01*
X127852810Y-128218780D01*
X127828045Y-128243546D01*
X127823324Y-128249297D01*
X127821827Y-128250596D01*
X127820407Y-128252851D01*
X127818717Y-128254911D01*
X127817958Y-128256741D01*
X127813995Y-128263039D01*
X127783043Y-128324944D01*
X127777788Y-128338676D01*
X127777597Y-128341363D01*
X127776566Y-128343853D01*
X127775125Y-128358485D01*
X127671245Y-128358485D01*
X127518895Y-127901435D01*
X127512901Y-127888009D01*
X127509389Y-127883960D01*
X127506994Y-127879169D01*
X127499890Y-127873007D01*
X127493727Y-127865902D01*
X127488933Y-127863505D01*
X127484886Y-127859995D01*
X127475964Y-127857021D01*
X127467554Y-127852816D01*
X127462209Y-127852436D01*
X127457124Y-127850741D01*
X127447744Y-127851407D01*
X127438364Y-127850741D01*
X127433278Y-127852436D01*
X127427934Y-127852816D01*
X127419526Y-127857020D01*
X127410601Y-127859995D01*
X127406550Y-127863508D01*
X127401761Y-127865903D01*
X127395602Y-127873003D01*
X127388494Y-127879169D01*
X127386097Y-127883962D01*
X127382587Y-127888010D01*
X127376593Y-127901435D01*
X127159926Y-128551435D01*
X127156666Y-128565772D01*
X126996553Y-128565772D01*
X126996553Y-128000152D01*
X127107268Y-128000152D01*
X127121900Y-127998711D01*
X127148936Y-127987512D01*
X127169628Y-127966820D01*
X127180827Y-127939784D01*
X127180827Y-127910520D01*
X127169628Y-127883484D01*
X127148936Y-127862792D01*
X127121900Y-127851593D01*
X127107268Y-127850152D01*
X126735839Y-127850152D01*
X126721207Y-127851593D01*
X126694171Y-127862792D01*
X126673479Y-127883484D01*
X126662280Y-127910520D01*
X125875376Y-127910520D01*
X125875376Y-127775152D01*
X128371554Y-127775152D01*
X128371554Y-128725152D01*
G37*
G36*
X114903102Y-136112652D02*
G01*
X114835510Y-136112652D01*
X114770996Y-136091147D01*
X114730217Y-136050368D01*
X114708389Y-136006713D01*
X114681673Y-135899846D01*
X114681673Y-135825456D01*
X114708389Y-135718590D01*
X114730217Y-135674935D01*
X114770996Y-135634156D01*
X114835510Y-135612652D01*
X114903102Y-135612652D01*
X114903102Y-136112652D01*
G37*
G36*
X116490006Y-136337652D02*
G01*
X114456673Y-136337652D01*
X114456673Y-135816223D01*
X114531673Y-135816223D01*
X114531673Y-135909080D01*
X114531924Y-135911629D01*
X114531761Y-135912725D01*
X114532572Y-135918209D01*
X114533114Y-135923712D01*
X114533536Y-135924732D01*
X114533912Y-135927270D01*
X114564864Y-136051080D01*
X114565249Y-136052159D01*
X114565288Y-136052700D01*
X114567621Y-136058796D01*
X114569811Y-136064925D01*
X114570132Y-136065359D01*
X114570543Y-136066431D01*
X114601496Y-136128336D01*
X114605459Y-136134632D01*
X114606218Y-136136463D01*
X114607909Y-136138524D01*
X114609329Y-136140779D01*
X114610824Y-136142075D01*
X114615545Y-136147828D01*
X114677450Y-136209733D01*
X114688815Y-136219061D01*
X114691307Y-136220093D01*
X114693341Y-136221857D01*
X114706766Y-136227851D01*
X114799623Y-136258803D01*
X114806876Y-136260452D01*
X114808708Y-136261211D01*
X114811362Y-136261472D01*
X114813960Y-136262063D01*
X114815934Y-136261922D01*
X114823340Y-136262652D01*
X114978102Y-136262652D01*
X114992734Y-136261211D01*
X115019770Y-136250012D01*
X115040462Y-136229320D01*
X115051661Y-136202284D01*
X115053102Y-136187652D01*
X115053102Y-135537652D01*
X115212625Y-135537652D01*
X115212625Y-136187652D01*
X115212995Y-136191415D01*
X115212808Y-136192891D01*
X115213329Y-136194801D01*
X115214066Y-136202284D01*
X115217883Y-136211500D01*
X115220508Y-136221122D01*
X115223434Y-136224901D01*
X115225265Y-136229320D01*
X115232316Y-136236371D01*
X115238425Y-136244260D01*
X115242578Y-136246633D01*
X115245957Y-136250012D01*
X115255169Y-136253828D01*
X115263834Y-136258779D01*
X115268577Y-136259381D01*
X115272993Y-136261211D01*
X115282967Y-136261211D01*
X115292864Y-136262469D01*
X115297476Y-136261211D01*
X115302257Y-136261211D01*
X115311473Y-136257393D01*
X115321095Y-136254769D01*
X115324874Y-136251842D01*
X115329293Y-136250012D01*
X115336344Y-136242960D01*
X115344233Y-136236852D01*
X115348585Y-136230719D01*
X115349985Y-136229320D01*
X115350554Y-136227945D01*
X115352743Y-136224862D01*
X115584054Y-135820068D01*
X115584054Y-136187652D01*
X115585495Y-136202284D01*
X115596694Y-136229320D01*
X115617386Y-136250012D01*
X115644422Y-136261211D01*
X115673686Y-136261211D01*
X115700722Y-136250012D01*
X115721414Y-136229320D01*
X115732613Y-136202284D01*
X115734054Y-136187652D01*
X115734054Y-135909080D01*
X115862625Y-135909080D01*
X115862625Y-136125747D01*
X115864066Y-136140379D01*
X115870625Y-136156215D01*
X115875264Y-136167414D01*
X115884591Y-136178779D01*
X115915543Y-136209732D01*
X115926908Y-136219059D01*
X115929398Y-136220090D01*
X115931435Y-136221857D01*
X115944860Y-136227851D01*
X116037719Y-136258803D01*
X116044970Y-136260452D01*
X116046803Y-136261211D01*
X116049458Y-136261472D01*
X116052055Y-136262063D01*
X116054029Y-136261922D01*
X116061435Y-136262652D01*
X116123339Y-136262652D01*
X116130744Y-136261922D01*
X116132719Y-136262063D01*
X116135316Y-136261472D01*
X116137971Y-136261211D01*
X116139802Y-136260452D01*
X116147056Y-136258803D01*
X116239913Y-136227851D01*
X116253339Y-136221857D01*
X116255375Y-136220090D01*
X116257864Y-136219060D01*
X116269229Y-136209733D01*
X116331134Y-136147828D01*
X116335856Y-136142074D01*
X116337350Y-136140779D01*
X116338766Y-136138528D01*
X116340462Y-136136463D01*
X116341221Y-136134628D01*
X116345183Y-136128336D01*
X116376136Y-136066432D01*
X116376546Y-136065360D01*
X116376868Y-136064926D01*
X116379058Y-136058795D01*
X116381391Y-136052700D01*
X116381429Y-136052159D01*
X116381815Y-136051080D01*
X116412767Y-135927270D01*
X116413142Y-135924733D01*
X116413565Y-135923712D01*
X116414107Y-135918199D01*
X116414917Y-135912726D01*
X116414754Y-135911633D01*
X116415006Y-135909080D01*
X116415006Y-135816223D01*
X116414754Y-135813669D01*
X116414917Y-135812577D01*
X116414107Y-135807103D01*
X116413565Y-135801591D01*
X116413142Y-135800569D01*
X116412767Y-135798033D01*
X116381815Y-135674224D01*
X116381429Y-135673144D01*
X116381391Y-135672604D01*
X116379058Y-135666508D01*
X116376868Y-135660378D01*
X116376546Y-135659943D01*
X116376136Y-135658872D01*
X116345183Y-135596968D01*
X116341221Y-135590675D01*
X116340462Y-135588841D01*
X116338766Y-135586775D01*
X116337350Y-135584525D01*
X116335856Y-135583229D01*
X116331134Y-135577476D01*
X116269229Y-135515571D01*
X116257864Y-135506244D01*
X116255375Y-135505213D01*
X116253339Y-135503447D01*
X116239913Y-135497453D01*
X116147056Y-135466501D01*
X116139802Y-135464851D01*
X116137971Y-135464093D01*
X116135316Y-135463831D01*
X116132719Y-135463241D01*
X116130744Y-135463381D01*
X116123339Y-135462652D01*
X116030482Y-135462652D01*
X116015850Y-135464093D01*
X116013360Y-135465124D01*
X116010673Y-135465315D01*
X115996942Y-135470570D01*
X115935036Y-135501522D01*
X115922594Y-135509354D01*
X115903420Y-135531462D01*
X115894166Y-135559223D01*
X115896240Y-135588413D01*
X115909327Y-135614587D01*
X115931435Y-135633761D01*
X115959196Y-135643015D01*
X115988386Y-135640941D01*
X116002118Y-135635686D01*
X116048187Y-135612652D01*
X116111169Y-135612652D01*
X116175682Y-135634156D01*
X116216462Y-135674936D01*
X116238289Y-135718590D01*
X116265006Y-135825456D01*
X116265006Y-135899846D01*
X116238289Y-136006713D01*
X116216462Y-136050367D01*
X116175682Y-136091147D01*
X116111169Y-136112652D01*
X116073605Y-136112652D01*
X116012625Y-136092325D01*
X116012625Y-135984080D01*
X116061435Y-135984080D01*
X116076067Y-135982639D01*
X116103103Y-135971440D01*
X116123795Y-135950748D01*
X116134994Y-135923712D01*
X116134994Y-135894448D01*
X116123795Y-135867412D01*
X116103103Y-135846720D01*
X116076067Y-135835521D01*
X116061435Y-135834080D01*
X115937625Y-135834080D01*
X115922993Y-135835521D01*
X115895957Y-135846720D01*
X115875265Y-135867412D01*
X115864066Y-135894448D01*
X115862625Y-135909080D01*
X115734054Y-135909080D01*
X115734054Y-135537652D01*
X115733683Y-135533889D01*
X115733871Y-135532414D01*
X115733350Y-135530503D01*
X115732613Y-135523020D01*
X115728794Y-135513802D01*
X115726171Y-135504182D01*
X115723244Y-135500403D01*
X115721414Y-135495984D01*
X115714357Y-135488927D01*
X115708253Y-135481045D01*
X115704104Y-135478674D01*
X115700722Y-135475292D01*
X115691501Y-135471472D01*
X115682845Y-135466526D01*
X115678105Y-135465923D01*
X115673686Y-135464093D01*
X115663704Y-135464093D01*
X115653815Y-135462836D01*
X115649206Y-135464093D01*
X115644422Y-135464093D01*
X115635204Y-135467911D01*
X115625583Y-135470535D01*
X115621802Y-135473462D01*
X115617386Y-135475292D01*
X115610332Y-135482345D01*
X115602446Y-135488453D01*
X115598094Y-135494583D01*
X115596694Y-135495984D01*
X115596124Y-135497358D01*
X115593936Y-135500442D01*
X115362625Y-135905235D01*
X115362625Y-135537652D01*
X115361184Y-135523020D01*
X115349985Y-135495984D01*
X115329293Y-135475292D01*
X115302257Y-135464093D01*
X115272993Y-135464093D01*
X115245957Y-135475292D01*
X115225265Y-135495984D01*
X115214066Y-135523020D01*
X115212625Y-135537652D01*
X115053102Y-135537652D01*
X115051661Y-135523020D01*
X115040462Y-135495984D01*
X115019770Y-135475292D01*
X114992734Y-135464093D01*
X114978102Y-135462652D01*
X114823340Y-135462652D01*
X114815934Y-135463381D01*
X114813960Y-135463241D01*
X114811362Y-135463831D01*
X114808708Y-135464093D01*
X114806876Y-135464851D01*
X114799623Y-135466501D01*
X114706766Y-135497453D01*
X114693341Y-135503447D01*
X114691307Y-135505210D01*
X114688815Y-135506243D01*
X114677450Y-135515571D01*
X114615545Y-135577476D01*
X114610824Y-135583228D01*
X114609329Y-135584525D01*
X114607909Y-135586779D01*
X114606218Y-135588841D01*
X114605459Y-135590671D01*
X114601496Y-135596968D01*
X114570543Y-135658873D01*
X114570132Y-135659944D01*
X114569811Y-135660379D01*
X114567621Y-135666507D01*
X114565288Y-135672604D01*
X114565249Y-135673144D01*
X114564864Y-135674224D01*
X114533912Y-135798033D01*
X114533536Y-135800570D01*
X114533114Y-135801591D01*
X114532572Y-135807093D01*
X114531761Y-135812578D01*
X114531924Y-135813673D01*
X114531673Y-135816223D01*
X114456673Y-135816223D01*
X114456673Y-135387652D01*
X116490006Y-135387652D01*
X116490006Y-136337652D01*
G37*
G36*
X129390006Y-110762652D02*
G01*
X126149641Y-110762652D01*
X126149641Y-110608570D01*
X126224641Y-110608570D01*
X126228780Y-110637539D01*
X126243689Y-110662720D01*
X126267100Y-110680278D01*
X126295448Y-110687541D01*
X126324417Y-110683402D01*
X126349598Y-110668493D01*
X126359530Y-110657652D01*
X126586216Y-110355403D01*
X126595959Y-110365146D01*
X126595959Y-110612652D01*
X126597400Y-110627284D01*
X126608599Y-110654320D01*
X126629291Y-110675012D01*
X126656327Y-110686211D01*
X126685591Y-110686211D01*
X126712627Y-110675012D01*
X126733319Y-110654320D01*
X126744518Y-110627284D01*
X126745959Y-110612652D01*
X126745959Y-110598020D01*
X126814066Y-110598020D01*
X126814066Y-110627284D01*
X126825265Y-110654320D01*
X126845957Y-110675012D01*
X126872993Y-110686211D01*
X126887625Y-110687652D01*
X127197149Y-110687652D01*
X127211781Y-110686211D01*
X127238817Y-110675012D01*
X127259509Y-110654320D01*
X127270708Y-110627284D01*
X127272149Y-110612652D01*
X127272149Y-110009927D01*
X127402161Y-110009927D01*
X127402161Y-110039190D01*
X127413360Y-110066226D01*
X127434053Y-110086918D01*
X127461090Y-110098116D01*
X127490353Y-110098116D01*
X127517389Y-110086917D01*
X127528754Y-110077589D01*
X127547186Y-110059155D01*
X127611700Y-110037652D01*
X127649264Y-110037652D01*
X127713777Y-110059156D01*
X127754557Y-110099936D01*
X127776384Y-110143590D01*
X127803101Y-110250456D01*
X127803101Y-110324846D01*
X127776384Y-110431713D01*
X127754557Y-110475367D01*
X127713777Y-110516147D01*
X127649264Y-110537652D01*
X127611700Y-110537652D01*
X127547186Y-110516148D01*
X127528754Y-110497715D01*
X127517389Y-110488387D01*
X127490353Y-110477188D01*
X127461090Y-110477188D01*
X127434053Y-110488386D01*
X127413360Y-110509078D01*
X127402161Y-110536114D01*
X127402161Y-110565377D01*
X127413359Y-110592414D01*
X127422686Y-110603779D01*
X127453638Y-110634732D01*
X127465003Y-110644059D01*
X127467493Y-110645090D01*
X127469530Y-110646857D01*
X127482955Y-110652851D01*
X127575814Y-110683803D01*
X127583065Y-110685452D01*
X127584898Y-110686211D01*
X127587553Y-110686472D01*
X127590150Y-110687063D01*
X127592124Y-110686922D01*
X127599530Y-110687652D01*
X127661434Y-110687652D01*
X127668839Y-110686922D01*
X127670814Y-110687063D01*
X127673411Y-110686472D01*
X127676066Y-110686211D01*
X127677897Y-110685452D01*
X127685151Y-110683803D01*
X127778008Y-110652851D01*
X127791434Y-110646857D01*
X127793470Y-110645090D01*
X127795959Y-110644060D01*
X127807324Y-110634733D01*
X127869229Y-110572828D01*
X127873951Y-110567074D01*
X127875445Y-110565779D01*
X127876861Y-110563528D01*
X127878557Y-110561463D01*
X127879316Y-110559628D01*
X127883278Y-110553336D01*
X127914231Y-110491432D01*
X127914641Y-110490360D01*
X127914963Y-110489926D01*
X127917153Y-110483795D01*
X127919486Y-110477700D01*
X127919524Y-110477159D01*
X127919910Y-110476080D01*
X127950862Y-110352270D01*
X127951237Y-110349733D01*
X127951660Y-110348712D01*
X127952202Y-110343199D01*
X127953012Y-110337726D01*
X127952849Y-110336633D01*
X127953101Y-110334080D01*
X127953101Y-110241223D01*
X127952849Y-110238669D01*
X127953012Y-110237577D01*
X127952202Y-110232103D01*
X127951660Y-110226591D01*
X127951237Y-110225569D01*
X127950862Y-110223033D01*
X127919910Y-110099224D01*
X127919524Y-110098144D01*
X127919486Y-110097604D01*
X127917153Y-110091508D01*
X127914963Y-110085378D01*
X127914641Y-110084943D01*
X127914231Y-110083872D01*
X127883278Y-110021968D01*
X127879316Y-110015675D01*
X127878557Y-110013841D01*
X127876861Y-110011775D01*
X127875445Y-110009525D01*
X127873951Y-110008229D01*
X127869229Y-110002476D01*
X127832209Y-109965456D01*
X128019820Y-109965456D01*
X128021808Y-109980023D01*
X128176569Y-110630024D01*
X128178298Y-110635043D01*
X128178538Y-110636845D01*
X128179480Y-110638473D01*
X128181359Y-110643924D01*
X128187745Y-110652748D01*
X128193200Y-110662170D01*
X128196257Y-110664510D01*
X128198516Y-110667631D01*
X128207791Y-110673338D01*
X128216438Y-110679957D01*
X128220159Y-110680949D01*
X128223438Y-110682967D01*
X128234190Y-110684691D01*
X128244713Y-110687497D01*
X128248528Y-110686990D01*
X128252333Y-110687600D01*
X128262931Y-110685076D01*
X128273722Y-110683643D01*
X128277053Y-110681714D01*
X128280801Y-110680822D01*
X128289625Y-110674435D01*
X128299047Y-110668981D01*
X128301387Y-110665923D01*
X128304508Y-110663665D01*
X128310215Y-110654389D01*
X128316834Y-110645743D01*
X128318859Y-110640343D01*
X128319844Y-110638743D01*
X128320131Y-110636951D01*
X128321997Y-110631977D01*
X128373338Y-110439445D01*
X128424680Y-110631976D01*
X128426545Y-110636950D01*
X128426833Y-110638743D01*
X128427818Y-110640344D01*
X128429843Y-110645743D01*
X128436461Y-110654389D01*
X128442169Y-110663665D01*
X128445289Y-110665923D01*
X128447630Y-110668981D01*
X128457048Y-110674433D01*
X128465876Y-110680822D01*
X128469626Y-110681714D01*
X128472955Y-110683642D01*
X128483739Y-110685075D01*
X128494344Y-110687600D01*
X128498148Y-110686990D01*
X128501963Y-110687497D01*
X128512484Y-110684691D01*
X128523239Y-110682967D01*
X128526518Y-110680949D01*
X128530239Y-110679957D01*
X128538885Y-110673338D01*
X128548161Y-110667631D01*
X128550419Y-110664510D01*
X128553477Y-110662170D01*
X128558931Y-110652748D01*
X128565318Y-110643924D01*
X128567196Y-110638473D01*
X128568139Y-110636845D01*
X128568378Y-110635043D01*
X128570108Y-110630024D01*
X128618462Y-110426938D01*
X128793577Y-110426938D01*
X128793577Y-110488842D01*
X128795018Y-110503474D01*
X128796048Y-110505962D01*
X128796240Y-110508652D01*
X128801495Y-110522383D01*
X128832448Y-110584288D01*
X128836410Y-110590582D01*
X128837169Y-110592414D01*
X128838862Y-110594477D01*
X128840281Y-110596731D01*
X128841775Y-110598027D01*
X128846496Y-110603779D01*
X128877448Y-110634732D01*
X128883200Y-110639453D01*
X128884499Y-110640950D01*
X128886755Y-110642370D01*
X128888813Y-110644059D01*
X128890640Y-110644816D01*
X128896941Y-110648782D01*
X128958847Y-110679734D01*
X128972578Y-110684989D01*
X128975265Y-110685179D01*
X128977755Y-110686211D01*
X128992387Y-110687652D01*
X129147149Y-110687652D01*
X129154554Y-110686922D01*
X129156529Y-110687063D01*
X129159126Y-110686472D01*
X129161781Y-110686211D01*
X129163612Y-110685452D01*
X129170866Y-110683803D01*
X129263723Y-110652851D01*
X129277149Y-110646857D01*
X129299256Y-110627683D01*
X129312343Y-110601510D01*
X129314417Y-110572320D01*
X129305163Y-110544558D01*
X129285990Y-110522450D01*
X129259816Y-110509364D01*
X129230626Y-110507289D01*
X129216289Y-110510549D01*
X129134979Y-110537652D01*
X129010092Y-110537652D01*
X128974909Y-110520061D01*
X128961169Y-110506321D01*
X128943577Y-110471136D01*
X128943577Y-110444643D01*
X128961169Y-110409458D01*
X128974909Y-110395718D01*
X129018562Y-110373892D01*
X129134386Y-110344937D01*
X129135465Y-110344551D01*
X129136006Y-110344513D01*
X129142102Y-110342179D01*
X129148231Y-110339990D01*
X129148665Y-110339668D01*
X129149737Y-110339258D01*
X129211642Y-110308305D01*
X129217936Y-110304342D01*
X129219768Y-110303584D01*
X129221831Y-110301890D01*
X129224085Y-110300472D01*
X129225381Y-110298977D01*
X129231133Y-110294257D01*
X129262086Y-110263305D01*
X129266807Y-110257552D01*
X129268304Y-110256254D01*
X129269724Y-110253997D01*
X129271413Y-110251940D01*
X129272170Y-110250112D01*
X129276136Y-110243812D01*
X129307088Y-110181906D01*
X129312343Y-110168175D01*
X129312533Y-110165487D01*
X129313565Y-110162998D01*
X129315006Y-110148366D01*
X129315006Y-110086461D01*
X129313565Y-110071829D01*
X129312533Y-110069339D01*
X129312343Y-110066652D01*
X129307088Y-110052920D01*
X129276136Y-109991016D01*
X129272171Y-109984716D01*
X129271414Y-109982889D01*
X129269725Y-109980832D01*
X129268304Y-109978573D01*
X129266805Y-109977273D01*
X129262087Y-109971524D01*
X129231134Y-109940571D01*
X129225384Y-109935852D01*
X129224085Y-109934354D01*
X129221825Y-109932932D01*
X129219769Y-109931244D01*
X129217941Y-109930486D01*
X129211642Y-109926522D01*
X129149737Y-109895570D01*
X129136005Y-109890315D01*
X129133317Y-109890124D01*
X129130828Y-109889093D01*
X129116196Y-109887652D01*
X128961435Y-109887652D01*
X128954029Y-109888381D01*
X128952055Y-109888241D01*
X128949458Y-109888831D01*
X128946803Y-109889093D01*
X128944970Y-109889851D01*
X128937719Y-109891501D01*
X128844860Y-109922453D01*
X128831435Y-109928447D01*
X128809328Y-109947620D01*
X128796241Y-109973794D01*
X128794166Y-110002984D01*
X128803420Y-110030746D01*
X128822593Y-110052853D01*
X128848767Y-110065940D01*
X128877957Y-110068015D01*
X128892294Y-110064755D01*
X128973605Y-110037652D01*
X129098492Y-110037652D01*
X129133673Y-110055242D01*
X129147415Y-110068984D01*
X129165006Y-110104166D01*
X129165006Y-110130661D01*
X129147415Y-110165843D01*
X129133675Y-110179583D01*
X129090019Y-110201411D01*
X128974197Y-110230367D01*
X128973117Y-110230752D01*
X128972578Y-110230791D01*
X128966502Y-110233115D01*
X128960351Y-110235314D01*
X128959914Y-110235637D01*
X128958847Y-110236046D01*
X128896941Y-110266998D01*
X128890640Y-110270963D01*
X128888813Y-110271721D01*
X128886755Y-110273409D01*
X128884499Y-110274830D01*
X128883200Y-110276326D01*
X128877448Y-110281048D01*
X128846496Y-110312001D01*
X128841775Y-110317752D01*
X128840281Y-110319049D01*
X128838862Y-110321302D01*
X128837169Y-110323366D01*
X128836410Y-110325197D01*
X128832448Y-110331492D01*
X128801495Y-110393397D01*
X128796240Y-110407128D01*
X128796048Y-110409817D01*
X128795018Y-110412306D01*
X128793577Y-110426938D01*
X128618462Y-110426938D01*
X128724870Y-109980024D01*
X128726858Y-109965456D01*
X128722225Y-109936561D01*
X128706889Y-109911639D01*
X128683182Y-109894483D01*
X128654714Y-109887704D01*
X128625819Y-109892337D01*
X128600897Y-109907673D01*
X128583740Y-109931380D01*
X128578950Y-109945281D01*
X128493032Y-110306135D01*
X128445807Y-110129041D01*
X128444521Y-110125613D01*
X128444330Y-110124172D01*
X128443338Y-110122459D01*
X128440644Y-110115275D01*
X128434629Y-110107416D01*
X128429668Y-110098848D01*
X128425809Y-110095894D01*
X128422857Y-110092037D01*
X128414295Y-110087080D01*
X128406431Y-110081060D01*
X128401733Y-110079807D01*
X128397532Y-110077375D01*
X128387725Y-110076072D01*
X128378155Y-110073520D01*
X128373336Y-110074160D01*
X128368524Y-110073521D01*
X128358963Y-110076070D01*
X128349146Y-110077375D01*
X128344940Y-110079809D01*
X128340248Y-110081061D01*
X128332388Y-110087076D01*
X128323821Y-110092037D01*
X128320867Y-110095895D01*
X128317010Y-110098848D01*
X128312051Y-110107413D01*
X128306034Y-110115274D01*
X128303339Y-110122460D01*
X128302348Y-110124173D01*
X128302156Y-110125615D01*
X128300872Y-110129041D01*
X128253646Y-110306136D01*
X128167728Y-109945281D01*
X128162938Y-109931380D01*
X128145781Y-109907673D01*
X128120859Y-109892337D01*
X128091964Y-109887704D01*
X128063496Y-109894482D01*
X128039789Y-109911639D01*
X128024453Y-109936561D01*
X128019820Y-109965456D01*
X127832209Y-109965456D01*
X127807324Y-109940571D01*
X127795959Y-109931244D01*
X127793470Y-109930213D01*
X127791434Y-109928447D01*
X127778008Y-109922453D01*
X127685151Y-109891501D01*
X127677897Y-109889851D01*
X127676066Y-109889093D01*
X127673411Y-109888831D01*
X127670814Y-109888241D01*
X127668839Y-109888381D01*
X127661434Y-109887652D01*
X127599530Y-109887652D01*
X127592124Y-109888381D01*
X127590150Y-109888241D01*
X127587553Y-109888831D01*
X127584898Y-109889093D01*
X127583065Y-109889851D01*
X127575814Y-109891501D01*
X127482955Y-109922453D01*
X127469530Y-109928447D01*
X127467493Y-109930213D01*
X127465003Y-109931245D01*
X127453638Y-109940572D01*
X127422686Y-109971525D01*
X127413359Y-109982890D01*
X127402161Y-110009927D01*
X127272149Y-110009927D01*
X127272149Y-109962652D01*
X127270708Y-109948020D01*
X127259509Y-109920984D01*
X127238817Y-109900292D01*
X127211781Y-109889093D01*
X127182517Y-109889093D01*
X127155481Y-109900292D01*
X127134789Y-109920984D01*
X127123590Y-109948020D01*
X127122149Y-109962652D01*
X127122149Y-110537652D01*
X126887625Y-110537652D01*
X126872993Y-110539093D01*
X126845957Y-110550292D01*
X126825265Y-110570984D01*
X126814066Y-110598020D01*
X126745959Y-110598020D01*
X126745959Y-109962652D01*
X126744518Y-109948020D01*
X126733319Y-109920984D01*
X126712627Y-109900292D01*
X126685591Y-109889093D01*
X126656327Y-109889093D01*
X126629291Y-109900292D01*
X126608599Y-109920984D01*
X126597400Y-109948020D01*
X126595959Y-109962652D01*
X126595959Y-110153014D01*
X126352563Y-109909619D01*
X126341198Y-109900291D01*
X126314161Y-109889093D01*
X126284898Y-109889093D01*
X126257862Y-109900292D01*
X126237169Y-109920984D01*
X126225971Y-109948021D01*
X126225971Y-109977284D01*
X126237170Y-110004320D01*
X126246497Y-110015685D01*
X126479073Y-110248260D01*
X126239530Y-110567652D01*
X126231904Y-110580222D01*
X126224641Y-110608570D01*
X126149641Y-110608570D01*
X126149641Y-109812652D01*
X129390006Y-109812652D01*
X129390006Y-110762652D01*
G37*
G36*
X125609054Y-128500152D02*
G01*
X125454140Y-128500152D01*
X125418956Y-128482560D01*
X125405215Y-128468819D01*
X125387625Y-128433637D01*
X125387625Y-128376189D01*
X125405215Y-128341008D01*
X125415043Y-128331180D01*
X125479557Y-128309676D01*
X125609054Y-128309676D01*
X125609054Y-128500152D01*
G37*
G36*
X125609054Y-128159676D02*
G01*
X125485092Y-128159676D01*
X125449909Y-128142084D01*
X125436169Y-128128344D01*
X125418577Y-128093160D01*
X125418577Y-128066667D01*
X125436169Y-128031482D01*
X125449909Y-128017742D01*
X125485092Y-128000152D01*
X125609054Y-128000152D01*
X125609054Y-128159676D01*
G37*
G36*
X124960950Y-128314438D02*
G01*
X124859538Y-128314438D01*
X124910244Y-128162321D01*
X124960950Y-128314438D01*
G37*
G36*
X125834054Y-128725152D02*
G01*
X123337876Y-128725152D01*
X123337876Y-128312901D01*
X123412876Y-128312901D01*
X123412876Y-128342165D01*
X123424075Y-128369201D01*
X123444767Y-128389893D01*
X123471803Y-128401092D01*
X123486435Y-128402533D01*
X123659054Y-128402533D01*
X123659054Y-128575152D01*
X123660495Y-128589784D01*
X123671694Y-128616820D01*
X123692386Y-128637512D01*
X123719422Y-128648711D01*
X123748686Y-128648711D01*
X123775722Y-128637512D01*
X123796414Y-128616820D01*
X123807613Y-128589784D01*
X123809054Y-128575152D01*
X123809054Y-128402533D01*
X123981673Y-128402533D01*
X123996305Y-128401092D01*
X124023341Y-128389893D01*
X124044033Y-128369201D01*
X124055232Y-128342165D01*
X124055232Y-128312901D01*
X124044033Y-128285865D01*
X124023341Y-128265173D01*
X123996305Y-128253974D01*
X123981673Y-128252533D01*
X123809054Y-128252533D01*
X123809054Y-128079914D01*
X123807613Y-128065282D01*
X123796414Y-128038246D01*
X123775722Y-128017554D01*
X123748686Y-128006355D01*
X123719422Y-128006355D01*
X123692386Y-128017554D01*
X123671694Y-128038246D01*
X123660495Y-128065282D01*
X123659054Y-128079914D01*
X123659054Y-128252533D01*
X123486435Y-128252533D01*
X123471803Y-128253974D01*
X123444767Y-128265173D01*
X123424075Y-128285865D01*
X123412876Y-128312901D01*
X123337876Y-128312901D01*
X123337876Y-127910520D01*
X124124780Y-127910520D01*
X124124780Y-127939784D01*
X124135979Y-127966820D01*
X124156671Y-127987512D01*
X124183707Y-127998711D01*
X124198339Y-128000152D01*
X124309053Y-128000152D01*
X124309053Y-128575152D01*
X124310494Y-128589784D01*
X124321693Y-128616820D01*
X124342385Y-128637512D01*
X124369421Y-128648711D01*
X124398685Y-128648711D01*
X124425721Y-128637512D01*
X124446413Y-128616820D01*
X124457612Y-128589784D01*
X124459053Y-128575152D01*
X124459053Y-128565772D01*
X124619166Y-128565772D01*
X124621241Y-128594962D01*
X124634327Y-128621135D01*
X124656434Y-128640309D01*
X124684197Y-128649563D01*
X124713387Y-128647488D01*
X124739560Y-128634402D01*
X124758734Y-128612295D01*
X124764728Y-128598869D01*
X124809538Y-128464438D01*
X125010950Y-128464438D01*
X125055760Y-128598869D01*
X125061754Y-128612294D01*
X125080928Y-128634401D01*
X125107101Y-128647488D01*
X125136291Y-128649563D01*
X125164053Y-128640309D01*
X125186161Y-128621135D01*
X125199247Y-128594961D01*
X125201322Y-128565771D01*
X125198062Y-128551435D01*
X125133745Y-128358485D01*
X125237625Y-128358485D01*
X125237625Y-128451342D01*
X125239066Y-128465974D01*
X125240097Y-128468463D01*
X125240288Y-128471151D01*
X125245543Y-128484883D01*
X125276495Y-128546788D01*
X125280459Y-128553087D01*
X125281217Y-128554915D01*
X125282905Y-128556971D01*
X125284327Y-128559231D01*
X125285825Y-128560530D01*
X125290544Y-128566280D01*
X125321497Y-128597233D01*
X125327249Y-128601953D01*
X125328547Y-128603450D01*
X125330802Y-128604869D01*
X125332862Y-128606560D01*
X125334691Y-128607317D01*
X125340989Y-128611282D01*
X125402895Y-128642234D01*
X125416626Y-128647489D01*
X125419313Y-128647679D01*
X125421803Y-128648711D01*
X125436435Y-128650152D01*
X125684054Y-128650152D01*
X125698686Y-128648711D01*
X125725722Y-128637512D01*
X125746414Y-128616820D01*
X125757613Y-128589784D01*
X125759054Y-128575152D01*
X125759054Y-127925152D01*
X125757613Y-127910520D01*
X125746414Y-127883484D01*
X125725722Y-127862792D01*
X125698686Y-127851593D01*
X125684054Y-127850152D01*
X125467387Y-127850152D01*
X125452755Y-127851593D01*
X125450265Y-127852624D01*
X125447578Y-127852815D01*
X125433847Y-127858070D01*
X125371941Y-127889022D01*
X125365640Y-127892987D01*
X125363813Y-127893745D01*
X125361755Y-127895433D01*
X125359499Y-127896854D01*
X125358200Y-127898350D01*
X125352448Y-127903072D01*
X125321496Y-127934025D01*
X125316775Y-127939776D01*
X125315281Y-127941073D01*
X125313861Y-127943327D01*
X125312169Y-127945390D01*
X125311411Y-127947220D01*
X125307448Y-127953515D01*
X125276495Y-128015419D01*
X125271240Y-128029151D01*
X125271048Y-128031840D01*
X125270018Y-128034329D01*
X125268577Y-128048961D01*
X125268577Y-128110866D01*
X125270018Y-128125498D01*
X125271048Y-128127986D01*
X125271240Y-128130676D01*
X125276495Y-128144407D01*
X125307448Y-128206312D01*
X125311411Y-128212608D01*
X125312170Y-128214439D01*
X125313861Y-128216500D01*
X125315281Y-128218755D01*
X125315310Y-128218780D01*
X125290545Y-128243546D01*
X125285824Y-128249297D01*
X125284327Y-128250596D01*
X125282907Y-128252851D01*
X125281217Y-128254911D01*
X125280458Y-128256741D01*
X125276495Y-128263039D01*
X125245543Y-128324944D01*
X125240288Y-128338676D01*
X125240097Y-128341363D01*
X125239066Y-128343853D01*
X125237625Y-128358485D01*
X125133745Y-128358485D01*
X124981395Y-127901435D01*
X124975401Y-127888009D01*
X124971889Y-127883960D01*
X124969494Y-127879169D01*
X124962390Y-127873007D01*
X124956227Y-127865902D01*
X124951433Y-127863505D01*
X124947386Y-127859995D01*
X124938464Y-127857021D01*
X124930054Y-127852816D01*
X124924709Y-127852436D01*
X124919624Y-127850741D01*
X124910244Y-127851407D01*
X124900864Y-127850741D01*
X124895778Y-127852436D01*
X124890434Y-127852816D01*
X124882026Y-127857020D01*
X124873101Y-127859995D01*
X124869050Y-127863508D01*
X124864261Y-127865903D01*
X124858102Y-127873003D01*
X124850994Y-127879169D01*
X124848597Y-127883962D01*
X124845087Y-127888010D01*
X124839093Y-127901435D01*
X124622426Y-128551435D01*
X124619166Y-128565772D01*
X124459053Y-128565772D01*
X124459053Y-128000152D01*
X124569768Y-128000152D01*
X124584400Y-127998711D01*
X124611436Y-127987512D01*
X124632128Y-127966820D01*
X124643327Y-127939784D01*
X124643327Y-127910520D01*
X124632128Y-127883484D01*
X124611436Y-127862792D01*
X124584400Y-127851593D01*
X124569768Y-127850152D01*
X124198339Y-127850152D01*
X124183707Y-127851593D01*
X124156671Y-127862792D01*
X124135979Y-127883484D01*
X124124780Y-127910520D01*
X123337876Y-127910520D01*
X123337876Y-127775152D01*
X125834054Y-127775152D01*
X125834054Y-128725152D01*
G37*
G36*
X129159054Y-114865628D02*
G01*
X129004140Y-114865628D01*
X128968956Y-114848036D01*
X128955216Y-114834296D01*
X128937625Y-114799114D01*
X128937625Y-114741666D01*
X128955216Y-114706484D01*
X128968956Y-114692743D01*
X129004140Y-114675152D01*
X129159054Y-114675152D01*
X129159054Y-114865628D01*
G37*
G36*
X129384054Y-115400152D02*
G01*
X128062625Y-115400152D01*
X128062625Y-114600073D01*
X128137625Y-114600073D01*
X128143304Y-114628781D01*
X128150221Y-114641754D01*
X128339152Y-114925152D01*
X128150221Y-115208550D01*
X128143304Y-115221523D01*
X128137625Y-115250231D01*
X128143364Y-115278925D01*
X128159647Y-115303240D01*
X128183996Y-115319473D01*
X128212704Y-115325152D01*
X128241398Y-115319413D01*
X128265713Y-115303130D01*
X128275029Y-115291754D01*
X128429291Y-115060360D01*
X128583554Y-115291755D01*
X128592870Y-115303130D01*
X128617185Y-115319413D01*
X128645879Y-115325152D01*
X128674587Y-115319474D01*
X128698936Y-115303241D01*
X128715219Y-115278926D01*
X128720958Y-115250231D01*
X128715279Y-115221524D01*
X128708362Y-115208550D01*
X128519430Y-114925152D01*
X128653557Y-114723961D01*
X128787625Y-114723961D01*
X128787625Y-114816819D01*
X128789066Y-114831451D01*
X128790097Y-114833940D01*
X128790288Y-114836628D01*
X128795543Y-114850360D01*
X128826495Y-114912264D01*
X128830458Y-114918560D01*
X128831217Y-114920391D01*
X128832908Y-114922452D01*
X128834328Y-114924707D01*
X128835823Y-114926003D01*
X128840544Y-114931756D01*
X128871497Y-114962709D01*
X128877249Y-114967429D01*
X128878547Y-114968926D01*
X128880802Y-114970345D01*
X128882862Y-114972036D01*
X128884691Y-114972793D01*
X128890989Y-114976758D01*
X128943924Y-115003225D01*
X128801183Y-115207142D01*
X128793972Y-115219956D01*
X128787643Y-115248527D01*
X128792728Y-115277344D01*
X128808455Y-115302023D01*
X128832429Y-115318805D01*
X128861000Y-115325134D01*
X128889817Y-115320049D01*
X128914496Y-115304322D01*
X128924067Y-115293162D01*
X129118341Y-115015628D01*
X129159054Y-115015628D01*
X129159054Y-115250152D01*
X129160495Y-115264784D01*
X129171694Y-115291820D01*
X129192386Y-115312512D01*
X129219422Y-115323711D01*
X129248686Y-115323711D01*
X129275722Y-115312512D01*
X129296414Y-115291820D01*
X129307613Y-115264784D01*
X129309054Y-115250152D01*
X129309054Y-114600152D01*
X129307613Y-114585520D01*
X129296414Y-114558484D01*
X129275722Y-114537792D01*
X129248686Y-114526593D01*
X129234054Y-114525152D01*
X128986435Y-114525152D01*
X128971803Y-114526593D01*
X128969313Y-114527624D01*
X128966626Y-114527815D01*
X128952895Y-114533070D01*
X128890989Y-114564022D01*
X128884691Y-114567986D01*
X128882862Y-114568744D01*
X128880802Y-114570434D01*
X128878547Y-114571854D01*
X128877249Y-114573350D01*
X128871497Y-114578071D01*
X128840544Y-114609024D01*
X128835823Y-114614776D01*
X128834328Y-114616073D01*
X128832908Y-114618327D01*
X128831217Y-114620389D01*
X128830458Y-114622219D01*
X128826495Y-114628516D01*
X128795543Y-114690420D01*
X128790288Y-114704152D01*
X128790097Y-114706839D01*
X128789066Y-114709329D01*
X128787625Y-114723961D01*
X128653557Y-114723961D01*
X128708362Y-114641754D01*
X128715279Y-114628780D01*
X128720958Y-114600073D01*
X128715219Y-114571378D01*
X128698936Y-114547063D01*
X128674587Y-114530830D01*
X128645879Y-114525152D01*
X128617185Y-114530891D01*
X128592870Y-114547174D01*
X128583554Y-114558549D01*
X128429291Y-114789943D01*
X128275029Y-114558550D01*
X128265713Y-114547174D01*
X128241398Y-114530891D01*
X128212704Y-114525152D01*
X128183996Y-114530831D01*
X128159647Y-114547064D01*
X128143364Y-114571379D01*
X128137625Y-114600073D01*
X128062625Y-114600073D01*
X128062625Y-114450152D01*
X129384054Y-114450152D01*
X129384054Y-115400152D01*
G37*
G36*
X129382613Y-118298711D02*
G01*
X128590257Y-118298711D01*
X128590257Y-117887901D01*
X128665257Y-117887901D01*
X128665257Y-117917165D01*
X128676456Y-117944201D01*
X128697148Y-117964893D01*
X128724184Y-117976092D01*
X128738816Y-117977533D01*
X128911435Y-117977533D01*
X128911435Y-118150152D01*
X128912876Y-118164784D01*
X128924075Y-118191820D01*
X128944767Y-118212512D01*
X128971803Y-118223711D01*
X129001067Y-118223711D01*
X129028103Y-118212512D01*
X129048795Y-118191820D01*
X129059994Y-118164784D01*
X129061435Y-118150152D01*
X129061435Y-117977533D01*
X129234054Y-117977533D01*
X129248686Y-117976092D01*
X129275722Y-117964893D01*
X129296414Y-117944201D01*
X129307613Y-117917165D01*
X129307613Y-117887901D01*
X129296414Y-117860865D01*
X129275722Y-117840173D01*
X129248686Y-117828974D01*
X129234054Y-117827533D01*
X129061435Y-117827533D01*
X129061435Y-117654914D01*
X129059994Y-117640282D01*
X129048795Y-117613246D01*
X129028103Y-117592554D01*
X129001067Y-117581355D01*
X128971803Y-117581355D01*
X128944767Y-117592554D01*
X128924075Y-117613246D01*
X128912876Y-117640282D01*
X128911435Y-117654914D01*
X128911435Y-117827533D01*
X128738816Y-117827533D01*
X128724184Y-117828974D01*
X128697148Y-117840173D01*
X128676456Y-117860865D01*
X128665257Y-117887901D01*
X128590257Y-117887901D01*
X128590257Y-117506355D01*
X129382613Y-117506355D01*
X129382613Y-118298711D01*
G37*
G36*
X126756292Y-111880242D02*
G01*
X126794902Y-111918852D01*
X126818577Y-112013552D01*
X126818577Y-112211751D01*
X126794902Y-112306451D01*
X126756292Y-112345061D01*
X126721111Y-112362652D01*
X126632711Y-112362652D01*
X126597527Y-112345060D01*
X126558918Y-112306451D01*
X126535244Y-112211751D01*
X126535244Y-112013552D01*
X126558918Y-111918852D01*
X126597527Y-111880243D01*
X126632711Y-111862652D01*
X126721111Y-111862652D01*
X126756292Y-111880242D01*
G37*
G36*
X127747149Y-112362652D02*
G01*
X127679557Y-112362652D01*
X127615043Y-112341147D01*
X127574264Y-112300368D01*
X127552436Y-112256713D01*
X127525720Y-112149846D01*
X127525720Y-112075456D01*
X127552436Y-111968590D01*
X127574264Y-111924935D01*
X127615043Y-111884156D01*
X127679557Y-111862652D01*
X127747149Y-111862652D01*
X127747149Y-112362652D01*
G37*
G36*
X129365006Y-112587652D02*
G01*
X126310244Y-112587652D01*
X126310244Y-112004319D01*
X126385244Y-112004319D01*
X126385244Y-112220985D01*
X126385495Y-112223534D01*
X126385332Y-112224630D01*
X126386143Y-112230114D01*
X126386685Y-112235617D01*
X126387107Y-112236637D01*
X126387483Y-112239175D01*
X126418435Y-112362985D01*
X126423382Y-112376830D01*
X126426701Y-112381310D01*
X126428836Y-112386463D01*
X126438163Y-112397828D01*
X126500068Y-112459733D01*
X126505821Y-112464455D01*
X126507118Y-112465950D01*
X126509369Y-112467367D01*
X126511433Y-112469061D01*
X126513266Y-112469820D01*
X126519560Y-112473782D01*
X126581466Y-112504734D01*
X126595197Y-112509989D01*
X126597884Y-112510179D01*
X126600374Y-112511211D01*
X126615006Y-112512652D01*
X126738815Y-112512652D01*
X126753447Y-112511211D01*
X126755936Y-112510179D01*
X126758624Y-112509989D01*
X126772356Y-112504734D01*
X126834261Y-112473782D01*
X126840560Y-112469817D01*
X126842388Y-112469060D01*
X126844444Y-112467371D01*
X126846704Y-112465950D01*
X126848003Y-112464451D01*
X126853753Y-112459733D01*
X126915658Y-112397828D01*
X126924986Y-112386463D01*
X126927120Y-112381309D01*
X126930439Y-112376831D01*
X126935386Y-112362985D01*
X126966338Y-112239175D01*
X126966713Y-112236638D01*
X126967136Y-112235617D01*
X126967678Y-112230104D01*
X126968488Y-112224631D01*
X126968325Y-112223538D01*
X126968577Y-112220985D01*
X126968577Y-112004319D01*
X126968325Y-112001765D01*
X126968488Y-112000673D01*
X126967678Y-111995199D01*
X126967136Y-111989687D01*
X126966713Y-111988665D01*
X126966338Y-111986129D01*
X126935386Y-111862319D01*
X126930439Y-111848473D01*
X126927120Y-111843994D01*
X126924986Y-111838841D01*
X126915658Y-111827476D01*
X126875834Y-111787652D01*
X127097149Y-111787652D01*
X127097149Y-112437652D01*
X127098590Y-112452284D01*
X127109789Y-112479320D01*
X127130481Y-112500012D01*
X127157517Y-112511211D01*
X127186781Y-112511211D01*
X127213817Y-112500012D01*
X127234509Y-112479320D01*
X127245708Y-112452284D01*
X127247149Y-112437652D01*
X127247149Y-112066223D01*
X127375720Y-112066223D01*
X127375720Y-112159080D01*
X127375971Y-112161629D01*
X127375808Y-112162725D01*
X127376619Y-112168209D01*
X127377161Y-112173712D01*
X127377583Y-112174732D01*
X127377959Y-112177270D01*
X127408911Y-112301080D01*
X127409296Y-112302159D01*
X127409335Y-112302700D01*
X127411668Y-112308796D01*
X127413858Y-112314925D01*
X127414179Y-112315359D01*
X127414590Y-112316431D01*
X127445543Y-112378336D01*
X127449506Y-112384632D01*
X127450265Y-112386463D01*
X127451956Y-112388524D01*
X127453376Y-112390779D01*
X127454871Y-112392075D01*
X127459592Y-112397828D01*
X127521497Y-112459733D01*
X127532862Y-112469061D01*
X127535354Y-112470093D01*
X127537388Y-112471857D01*
X127550813Y-112477851D01*
X127643670Y-112508803D01*
X127650923Y-112510452D01*
X127652755Y-112511211D01*
X127655409Y-112511472D01*
X127658007Y-112512063D01*
X127659981Y-112511922D01*
X127667387Y-112512652D01*
X127822149Y-112512652D01*
X127836781Y-112511211D01*
X127863817Y-112500012D01*
X127884509Y-112479320D01*
X127895708Y-112452284D01*
X127897149Y-112437652D01*
X127897149Y-111790456D01*
X127994820Y-111790456D01*
X127996808Y-111805023D01*
X128151569Y-112455024D01*
X128153298Y-112460043D01*
X128153538Y-112461845D01*
X128154480Y-112463473D01*
X128156359Y-112468924D01*
X128162745Y-112477748D01*
X128168200Y-112487170D01*
X128171257Y-112489510D01*
X128173516Y-112492631D01*
X128182791Y-112498338D01*
X128191438Y-112504957D01*
X128195159Y-112505949D01*
X128198438Y-112507967D01*
X128209190Y-112509691D01*
X128219713Y-112512497D01*
X128223528Y-112511990D01*
X128227333Y-112512600D01*
X128237931Y-112510076D01*
X128248722Y-112508643D01*
X128252053Y-112506714D01*
X128255801Y-112505822D01*
X128264625Y-112499435D01*
X128274047Y-112493981D01*
X128276387Y-112490923D01*
X128279508Y-112488665D01*
X128285215Y-112479389D01*
X128291834Y-112470743D01*
X128293859Y-112465343D01*
X128294844Y-112463743D01*
X128295131Y-112461951D01*
X128296997Y-112456977D01*
X128348338Y-112264445D01*
X128399680Y-112456976D01*
X128401545Y-112461950D01*
X128401833Y-112463743D01*
X128402818Y-112465344D01*
X128404843Y-112470743D01*
X128411461Y-112479389D01*
X128417169Y-112488665D01*
X128420289Y-112490923D01*
X128422630Y-112493981D01*
X128432048Y-112499433D01*
X128440876Y-112505822D01*
X128444626Y-112506714D01*
X128447955Y-112508642D01*
X128458739Y-112510075D01*
X128469344Y-112512600D01*
X128473148Y-112511990D01*
X128476963Y-112512497D01*
X128487484Y-112509691D01*
X128498239Y-112507967D01*
X128501518Y-112505949D01*
X128505239Y-112504957D01*
X128513885Y-112498338D01*
X128523161Y-112492631D01*
X128525419Y-112489510D01*
X128528477Y-112487170D01*
X128533931Y-112477748D01*
X128540318Y-112468924D01*
X128542196Y-112463473D01*
X128543139Y-112461845D01*
X128543378Y-112460043D01*
X128545108Y-112455024D01*
X128593462Y-112251938D01*
X128768577Y-112251938D01*
X128768577Y-112313842D01*
X128770018Y-112328474D01*
X128771048Y-112330962D01*
X128771240Y-112333652D01*
X128776495Y-112347383D01*
X128807448Y-112409288D01*
X128811410Y-112415582D01*
X128812169Y-112417414D01*
X128813862Y-112419477D01*
X128815281Y-112421731D01*
X128816775Y-112423027D01*
X128821496Y-112428779D01*
X128852448Y-112459732D01*
X128858200Y-112464453D01*
X128859499Y-112465950D01*
X128861755Y-112467370D01*
X128863813Y-112469059D01*
X128865640Y-112469816D01*
X128871941Y-112473782D01*
X128933847Y-112504734D01*
X128947578Y-112509989D01*
X128950265Y-112510179D01*
X128952755Y-112511211D01*
X128967387Y-112512652D01*
X129122149Y-112512652D01*
X129129554Y-112511922D01*
X129131529Y-112512063D01*
X129134126Y-112511472D01*
X129136781Y-112511211D01*
X129138612Y-112510452D01*
X129145866Y-112508803D01*
X129238723Y-112477851D01*
X129252149Y-112471857D01*
X129274256Y-112452683D01*
X129287343Y-112426510D01*
X129289417Y-112397320D01*
X129280163Y-112369558D01*
X129260990Y-112347450D01*
X129234816Y-112334364D01*
X129205626Y-112332289D01*
X129191289Y-112335549D01*
X129109979Y-112362652D01*
X128985092Y-112362652D01*
X128949909Y-112345061D01*
X128936169Y-112331321D01*
X128918577Y-112296136D01*
X128918577Y-112269643D01*
X128936169Y-112234458D01*
X128949909Y-112220718D01*
X128993562Y-112198892D01*
X129109386Y-112169937D01*
X129110465Y-112169551D01*
X129111006Y-112169513D01*
X129117102Y-112167179D01*
X129123231Y-112164990D01*
X129123665Y-112164668D01*
X129124737Y-112164258D01*
X129186642Y-112133305D01*
X129192936Y-112129342D01*
X129194768Y-112128584D01*
X129196831Y-112126890D01*
X129199085Y-112125472D01*
X129200381Y-112123977D01*
X129206133Y-112119257D01*
X129237086Y-112088305D01*
X129241807Y-112082552D01*
X129243304Y-112081254D01*
X129244724Y-112078997D01*
X129246413Y-112076940D01*
X129247170Y-112075112D01*
X129251136Y-112068812D01*
X129282088Y-112006906D01*
X129287343Y-111993175D01*
X129287533Y-111990487D01*
X129288565Y-111987998D01*
X129290006Y-111973366D01*
X129290006Y-111911461D01*
X129288565Y-111896829D01*
X129287533Y-111894339D01*
X129287343Y-111891652D01*
X129282088Y-111877920D01*
X129251136Y-111816016D01*
X129247171Y-111809716D01*
X129246414Y-111807889D01*
X129244725Y-111805832D01*
X129243304Y-111803573D01*
X129241805Y-111802273D01*
X129237087Y-111796524D01*
X129206134Y-111765571D01*
X129200384Y-111760852D01*
X129199085Y-111759354D01*
X129196825Y-111757932D01*
X129194769Y-111756244D01*
X129192941Y-111755486D01*
X129186642Y-111751522D01*
X129124737Y-111720570D01*
X129111005Y-111715315D01*
X129108317Y-111715124D01*
X129105828Y-111714093D01*
X129091196Y-111712652D01*
X128936435Y-111712652D01*
X128929029Y-111713381D01*
X128927055Y-111713241D01*
X128924458Y-111713831D01*
X128921803Y-111714093D01*
X128919970Y-111714851D01*
X128912719Y-111716501D01*
X128819860Y-111747453D01*
X128806435Y-111753447D01*
X128784328Y-111772620D01*
X128771241Y-111798794D01*
X128769166Y-111827984D01*
X128778420Y-111855746D01*
X128797593Y-111877853D01*
X128823767Y-111890940D01*
X128852957Y-111893015D01*
X128867294Y-111889755D01*
X128948605Y-111862652D01*
X129073492Y-111862652D01*
X129108673Y-111880242D01*
X129122415Y-111893984D01*
X129140006Y-111929166D01*
X129140006Y-111955661D01*
X129122415Y-111990843D01*
X129108675Y-112004583D01*
X129065019Y-112026411D01*
X128949197Y-112055367D01*
X128948117Y-112055752D01*
X128947578Y-112055791D01*
X128941502Y-112058115D01*
X128935351Y-112060314D01*
X128934914Y-112060637D01*
X128933847Y-112061046D01*
X128871941Y-112091998D01*
X128865640Y-112095963D01*
X128863813Y-112096721D01*
X128861755Y-112098409D01*
X128859499Y-112099830D01*
X128858200Y-112101326D01*
X128852448Y-112106048D01*
X128821496Y-112137001D01*
X128816775Y-112142752D01*
X128815281Y-112144049D01*
X128813862Y-112146302D01*
X128812169Y-112148366D01*
X128811410Y-112150197D01*
X128807448Y-112156492D01*
X128776495Y-112218397D01*
X128771240Y-112232128D01*
X128771048Y-112234817D01*
X128770018Y-112237306D01*
X128768577Y-112251938D01*
X128593462Y-112251938D01*
X128699870Y-111805024D01*
X128701858Y-111790456D01*
X128697225Y-111761561D01*
X128681889Y-111736639D01*
X128658182Y-111719483D01*
X128629714Y-111712704D01*
X128600819Y-111717337D01*
X128575897Y-111732673D01*
X128558740Y-111756380D01*
X128553950Y-111770281D01*
X128468032Y-112131135D01*
X128420807Y-111954041D01*
X128419521Y-111950613D01*
X128419330Y-111949172D01*
X128418338Y-111947459D01*
X128415644Y-111940275D01*
X128409629Y-111932416D01*
X128404668Y-111923848D01*
X128400809Y-111920894D01*
X128397857Y-111917037D01*
X128389295Y-111912080D01*
X128381431Y-111906060D01*
X128376733Y-111904807D01*
X128372532Y-111902375D01*
X128362725Y-111901072D01*
X128353155Y-111898520D01*
X128348336Y-111899160D01*
X128343524Y-111898521D01*
X128333963Y-111901070D01*
X128324146Y-111902375D01*
X128319940Y-111904809D01*
X128315248Y-111906061D01*
X128307388Y-111912076D01*
X128298821Y-111917037D01*
X128295867Y-111920895D01*
X128292010Y-111923848D01*
X128287051Y-111932413D01*
X128281034Y-111940274D01*
X128278339Y-111947460D01*
X128277348Y-111949173D01*
X128277156Y-111950615D01*
X128275872Y-111954041D01*
X128228646Y-112131136D01*
X128142728Y-111770281D01*
X128137938Y-111756380D01*
X128120781Y-111732673D01*
X128095859Y-111717337D01*
X128066964Y-111712704D01*
X128038496Y-111719482D01*
X128014789Y-111736639D01*
X127999453Y-111761561D01*
X127994820Y-111790456D01*
X127897149Y-111790456D01*
X127897149Y-111787652D01*
X127895708Y-111773020D01*
X127884509Y-111745984D01*
X127863817Y-111725292D01*
X127836781Y-111714093D01*
X127822149Y-111712652D01*
X127667387Y-111712652D01*
X127659981Y-111713381D01*
X127658007Y-111713241D01*
X127655409Y-111713831D01*
X127652755Y-111714093D01*
X127650923Y-111714851D01*
X127643670Y-111716501D01*
X127550813Y-111747453D01*
X127537388Y-111753447D01*
X127535354Y-111755210D01*
X127532862Y-111756243D01*
X127521497Y-111765571D01*
X127459592Y-111827476D01*
X127454871Y-111833228D01*
X127453376Y-111834525D01*
X127451956Y-111836779D01*
X127450265Y-111838841D01*
X127449506Y-111840671D01*
X127445543Y-111846968D01*
X127414590Y-111908873D01*
X127414179Y-111909944D01*
X127413858Y-111910379D01*
X127411668Y-111916507D01*
X127409335Y-111922604D01*
X127409296Y-111923144D01*
X127408911Y-111924224D01*
X127377959Y-112048033D01*
X127377583Y-112050570D01*
X127377161Y-112051591D01*
X127376619Y-112057093D01*
X127375808Y-112062578D01*
X127375971Y-112063673D01*
X127375720Y-112066223D01*
X127247149Y-112066223D01*
X127247149Y-111787652D01*
X127245708Y-111773020D01*
X127234509Y-111745984D01*
X127213817Y-111725292D01*
X127186781Y-111714093D01*
X127157517Y-111714093D01*
X127130481Y-111725292D01*
X127109789Y-111745984D01*
X127098590Y-111773020D01*
X127097149Y-111787652D01*
X126875834Y-111787652D01*
X126853753Y-111765571D01*
X126848003Y-111760852D01*
X126846704Y-111759354D01*
X126844444Y-111757932D01*
X126842388Y-111756244D01*
X126840560Y-111755486D01*
X126834261Y-111751522D01*
X126772356Y-111720570D01*
X126758624Y-111715315D01*
X126755936Y-111715124D01*
X126753447Y-111714093D01*
X126738815Y-111712652D01*
X126615006Y-111712652D01*
X126600374Y-111714093D01*
X126597884Y-111715124D01*
X126595197Y-111715315D01*
X126581466Y-111720570D01*
X126519560Y-111751522D01*
X126513266Y-111755483D01*
X126511433Y-111756243D01*
X126509369Y-111757936D01*
X126507118Y-111759354D01*
X126505821Y-111760848D01*
X126500068Y-111765571D01*
X126438163Y-111827476D01*
X126428836Y-111838841D01*
X126426701Y-111843993D01*
X126423382Y-111848474D01*
X126418435Y-111862319D01*
X126387483Y-111986129D01*
X126387107Y-111988666D01*
X126386685Y-111989687D01*
X126386143Y-111995189D01*
X126385332Y-112000674D01*
X126385495Y-112001769D01*
X126385244Y-112004319D01*
X126310244Y-112004319D01*
X126310244Y-111637652D01*
X129365006Y-111637652D01*
X129365006Y-112587652D01*
G37*
D11*
G36*
X112592273Y-94754379D02*
G01*
X112642949Y-94855730D01*
X112642949Y-94981905D01*
X112040568Y-94861428D01*
X112040568Y-94855730D01*
X112091243Y-94754379D01*
X112192595Y-94703704D01*
X112490923Y-94703704D01*
X112592273Y-94754379D01*
G37*
G36*
X130548506Y-96259260D02*
G01*
X110043137Y-96259260D01*
X110043137Y-94494563D01*
X110265359Y-94494563D01*
X110265359Y-94562845D01*
X110291489Y-94625929D01*
X110339771Y-94674211D01*
X110402855Y-94700341D01*
X110436996Y-94703704D01*
X110586161Y-94703704D01*
X110714285Y-94767766D01*
X110769362Y-94822843D01*
X110833425Y-94950968D01*
X110833425Y-95862038D01*
X110836788Y-95896179D01*
X110862918Y-95959263D01*
X110911200Y-96007545D01*
X110974284Y-96033675D01*
X111042566Y-96033675D01*
X111105650Y-96007545D01*
X111153932Y-95959263D01*
X111180062Y-95896179D01*
X111183425Y-95862038D01*
X111183425Y-94814419D01*
X111690568Y-94814419D01*
X111690568Y-95004895D01*
X111693931Y-95039036D01*
X111700491Y-95054873D01*
X111703819Y-95071696D01*
X111713431Y-95086113D01*
X111720061Y-95102120D01*
X111732184Y-95114243D01*
X111741695Y-95128509D01*
X111756090Y-95138149D01*
X111768343Y-95150402D01*
X111784184Y-95156963D01*
X111798429Y-95166503D01*
X111831248Y-95176497D01*
X112642949Y-95338837D01*
X112642949Y-95535011D01*
X112592273Y-95636362D01*
X112490923Y-95687038D01*
X112192595Y-95687038D01*
X112039068Y-95610275D01*
X112007028Y-95598015D01*
X111938918Y-95593174D01*
X111874141Y-95614767D01*
X111822558Y-95659505D01*
X111792021Y-95720578D01*
X111787180Y-95788688D01*
X111808773Y-95853465D01*
X111853511Y-95905048D01*
X111882544Y-95923325D01*
X112073020Y-96018563D01*
X112105061Y-96030823D01*
X112111331Y-96031268D01*
X112117141Y-96033675D01*
X112151282Y-96037038D01*
X112532235Y-96037038D01*
X112566376Y-96033675D01*
X112572185Y-96031268D01*
X112578457Y-96030823D01*
X112610497Y-96018563D01*
X112800974Y-95923325D01*
X112806683Y-95919730D01*
X112809376Y-95918833D01*
X112812730Y-95915923D01*
X112830006Y-95905048D01*
X112844381Y-95888472D01*
X112860960Y-95874095D01*
X112871832Y-95856822D01*
X112874745Y-95853465D01*
X112875062Y-95852514D01*
X113405113Y-95852514D01*
X113414770Y-95920109D01*
X113449559Y-95978863D01*
X113504185Y-96019832D01*
X113570330Y-96036779D01*
X113637925Y-96027122D01*
X113696679Y-95992333D01*
X113719854Y-95967038D01*
X114166759Y-95371164D01*
X114166759Y-95862038D01*
X114170122Y-95896179D01*
X114196252Y-95959263D01*
X114244534Y-96007545D01*
X114307618Y-96033675D01*
X114375900Y-96033675D01*
X114438984Y-96007545D01*
X114487266Y-95959263D01*
X114513396Y-95896179D01*
X114516759Y-95862038D01*
X114516759Y-94602054D01*
X115025276Y-94602054D01*
X115030117Y-94670164D01*
X115060654Y-94731237D01*
X115112237Y-94775975D01*
X115177014Y-94797568D01*
X115245124Y-94792727D01*
X115277164Y-94780467D01*
X115430691Y-94703704D01*
X115729019Y-94703704D01*
X115857143Y-94767766D01*
X115912220Y-94822843D01*
X115976283Y-94950968D01*
X115976283Y-95439772D01*
X115912219Y-95567899D01*
X115857144Y-95622975D01*
X115729019Y-95687038D01*
X115430691Y-95687038D01*
X115277164Y-95610275D01*
X115245124Y-95598015D01*
X115177014Y-95593174D01*
X115112237Y-95614767D01*
X115060654Y-95659505D01*
X115030117Y-95720578D01*
X115025276Y-95788688D01*
X115046869Y-95853465D01*
X115091607Y-95905048D01*
X115120640Y-95923325D01*
X115311116Y-96018563D01*
X115343157Y-96030823D01*
X115349427Y-96031268D01*
X115355237Y-96033675D01*
X115389378Y-96037038D01*
X115770331Y-96037038D01*
X115804472Y-96033675D01*
X115810281Y-96031268D01*
X115816553Y-96030823D01*
X115848593Y-96018563D01*
X116039070Y-95923325D01*
X116053762Y-95914075D01*
X116058032Y-95912307D01*
X116062842Y-95908359D01*
X116068102Y-95905048D01*
X116071127Y-95901559D01*
X116084551Y-95890543D01*
X116179790Y-95795304D01*
X116190805Y-95781880D01*
X116194293Y-95778856D01*
X116197604Y-95773595D01*
X116201553Y-95768784D01*
X116203321Y-95764513D01*
X116212570Y-95749823D01*
X116307808Y-95559347D01*
X116320068Y-95527306D01*
X116320513Y-95521035D01*
X116322920Y-95515226D01*
X116326283Y-95481085D01*
X116326283Y-94909657D01*
X116322920Y-94875516D01*
X116320513Y-94869706D01*
X116320068Y-94863436D01*
X116307808Y-94831395D01*
X116212570Y-94640918D01*
X116203319Y-94626222D01*
X116201552Y-94621956D01*
X116197608Y-94617151D01*
X116194294Y-94611885D01*
X116190802Y-94608856D01*
X116179789Y-94595436D01*
X116113057Y-94528704D01*
X116833426Y-94528704D01*
X116833426Y-95862038D01*
X116836789Y-95896179D01*
X116862919Y-95959263D01*
X116911201Y-96007545D01*
X116974285Y-96033675D01*
X117042567Y-96033675D01*
X117105651Y-96007545D01*
X117153933Y-95959263D01*
X117180063Y-95896179D01*
X117183426Y-95862038D01*
X117183426Y-95840150D01*
X117596705Y-95840150D01*
X117601546Y-95908260D01*
X117632083Y-95969333D01*
X117683666Y-96014071D01*
X117748443Y-96035664D01*
X117816553Y-96030823D01*
X117848593Y-96018563D01*
X118039070Y-95923325D01*
X118044779Y-95919730D01*
X118047472Y-95918833D01*
X118050826Y-95915923D01*
X118068102Y-95905048D01*
X118082477Y-95888472D01*
X118099056Y-95874095D01*
X118109928Y-95856822D01*
X118112841Y-95853465D01*
X118113739Y-95850768D01*
X118117332Y-95845062D01*
X118187012Y-95705701D01*
X118741550Y-95705701D01*
X118767680Y-95768785D01*
X118789444Y-95795304D01*
X118884682Y-95890543D01*
X118911201Y-95912307D01*
X118917011Y-95914713D01*
X118921761Y-95918833D01*
X118953086Y-95932820D01*
X119238800Y-96028058D01*
X119255730Y-96031906D01*
X119259999Y-96033675D01*
X119266191Y-96034284D01*
X119272253Y-96035663D01*
X119276858Y-96035335D01*
X119294140Y-96037038D01*
X119484616Y-96037038D01*
X119501891Y-96035336D01*
X119506503Y-96035664D01*
X119512571Y-96034284D01*
X119518757Y-96033675D01*
X119523023Y-96031907D01*
X119539956Y-96028058D01*
X119825671Y-95932820D01*
X119856996Y-95918833D01*
X119861745Y-95914713D01*
X119867556Y-95912307D01*
X119894075Y-95890543D01*
X120051958Y-95732660D01*
X122265360Y-95732660D01*
X122265361Y-95800941D01*
X122291491Y-95864025D01*
X122291495Y-95864029D01*
X122313254Y-95890544D01*
X122408492Y-95985782D01*
X122435006Y-96007540D01*
X122435011Y-96007545D01*
X122450769Y-96014072D01*
X122498096Y-96033676D01*
X122566377Y-96033676D01*
X122613706Y-96014071D01*
X122629461Y-96007545D01*
X122629465Y-96007540D01*
X122655980Y-95985782D01*
X122751218Y-95890544D01*
X122772976Y-95864029D01*
X122772981Y-95864025D01*
X122799112Y-95800942D01*
X122799112Y-95732661D01*
X122799112Y-95732660D01*
X122799112Y-95732659D01*
X122782870Y-95693449D01*
X122772982Y-95669577D01*
X122751219Y-95643057D01*
X122655980Y-95547818D01*
X122629461Y-95526054D01*
X122629460Y-95526053D01*
X122566376Y-95499923D01*
X122498095Y-95499923D01*
X122471965Y-95510746D01*
X122435012Y-95526053D01*
X122435011Y-95526054D01*
X122408492Y-95547818D01*
X122313254Y-95643057D01*
X122291490Y-95669576D01*
X122265360Y-95732660D01*
X120051958Y-95732660D01*
X120084551Y-95700067D01*
X120095566Y-95686643D01*
X120099055Y-95683618D01*
X120102367Y-95678356D01*
X120106314Y-95673547D01*
X120108082Y-95669278D01*
X120117332Y-95654585D01*
X120212570Y-95464109D01*
X120213525Y-95461610D01*
X120214277Y-95460597D01*
X120219399Y-95446260D01*
X120224830Y-95432068D01*
X120224919Y-95430811D01*
X120225820Y-95428291D01*
X120260241Y-95290609D01*
X123214379Y-95290609D01*
X123214379Y-95481085D01*
X123217742Y-95515226D01*
X123220148Y-95521035D01*
X123220594Y-95527307D01*
X123232854Y-95559347D01*
X123328092Y-95749824D01*
X123337339Y-95764513D01*
X123339109Y-95768785D01*
X123343058Y-95773597D01*
X123346369Y-95778856D01*
X123349856Y-95781881D01*
X123360873Y-95795304D01*
X123456111Y-95890543D01*
X123469534Y-95901559D01*
X123472560Y-95905048D01*
X123477819Y-95908358D01*
X123482630Y-95912307D01*
X123486901Y-95914076D01*
X123501593Y-95923325D01*
X123692069Y-96018563D01*
X123724110Y-96030823D01*
X123730380Y-96031268D01*
X123736190Y-96033675D01*
X123770331Y-96037038D01*
X124246522Y-96037038D01*
X124263803Y-96035335D01*
X124268409Y-96035663D01*
X124274470Y-96034284D01*
X124280663Y-96033675D01*
X124284931Y-96031906D01*
X124301862Y-96028058D01*
X124587576Y-95932820D01*
X124618901Y-95918833D01*
X124670485Y-95874095D01*
X124701021Y-95813022D01*
X124705861Y-95744913D01*
X124701777Y-95732660D01*
X125122503Y-95732660D01*
X125122504Y-95800941D01*
X125148634Y-95864025D01*
X125148638Y-95864029D01*
X125170397Y-95890544D01*
X125265635Y-95985782D01*
X125292149Y-96007540D01*
X125292154Y-96007545D01*
X125307912Y-96014072D01*
X125355239Y-96033676D01*
X125423520Y-96033676D01*
X125470849Y-96014071D01*
X125486604Y-96007545D01*
X125486608Y-96007540D01*
X125513123Y-95985782D01*
X125608361Y-95890544D01*
X125630119Y-95864029D01*
X125630124Y-95864025D01*
X125656255Y-95800942D01*
X125656255Y-95732661D01*
X125656255Y-95732660D01*
X125656255Y-95732659D01*
X125640013Y-95693449D01*
X125630125Y-95669577D01*
X125608362Y-95643057D01*
X125513123Y-95547818D01*
X125486604Y-95526054D01*
X125486603Y-95526053D01*
X125423519Y-95499923D01*
X125355238Y-95499923D01*
X125329108Y-95510746D01*
X125292155Y-95526053D01*
X125292154Y-95526054D01*
X125265635Y-95547818D01*
X125170397Y-95643057D01*
X125148633Y-95669576D01*
X125122503Y-95732660D01*
X124701777Y-95732660D01*
X124684269Y-95680135D01*
X124639531Y-95628551D01*
X124578458Y-95598015D01*
X124510349Y-95593175D01*
X124476896Y-95600780D01*
X124218122Y-95687038D01*
X123811644Y-95687038D01*
X123683518Y-95622975D01*
X123628442Y-95567899D01*
X123564379Y-95439773D01*
X123564379Y-95331921D01*
X123628441Y-95203797D01*
X123683518Y-95148719D01*
X123831412Y-95074772D01*
X124193727Y-94984194D01*
X124196247Y-94983293D01*
X124197506Y-94983204D01*
X124211709Y-94977768D01*
X124226033Y-94972651D01*
X124227047Y-94971899D01*
X124229547Y-94970943D01*
X124420023Y-94875704D01*
X124434716Y-94866454D01*
X124438984Y-94864687D01*
X124443790Y-94860742D01*
X124449056Y-94857428D01*
X124452083Y-94853937D01*
X124465504Y-94842924D01*
X124560742Y-94747686D01*
X124571757Y-94734262D01*
X124575246Y-94731237D01*
X124578558Y-94725975D01*
X124582505Y-94721166D01*
X124584273Y-94716897D01*
X124593523Y-94702204D01*
X124688761Y-94511728D01*
X124701021Y-94479687D01*
X124701466Y-94473416D01*
X124703873Y-94467607D01*
X124707236Y-94433466D01*
X124707236Y-94242990D01*
X124703873Y-94208849D01*
X124701466Y-94203039D01*
X124701021Y-94196769D01*
X124688761Y-94164728D01*
X124593523Y-93974252D01*
X124584273Y-93959558D01*
X124582505Y-93955290D01*
X124578558Y-93950480D01*
X124575246Y-93945219D01*
X124571757Y-93942193D01*
X124560742Y-93928770D01*
X124465504Y-93833532D01*
X124458637Y-93827897D01*
X126074885Y-93827897D01*
X126074885Y-93896179D01*
X126101015Y-93959263D01*
X126149297Y-94007545D01*
X126212381Y-94033675D01*
X126246522Y-94037038D01*
X127023903Y-94037038D01*
X127023903Y-94639419D01*
X126532236Y-94639419D01*
X126498095Y-94642782D01*
X126435011Y-94668912D01*
X126386729Y-94717194D01*
X126360599Y-94780278D01*
X126360599Y-94848560D01*
X126386729Y-94911644D01*
X126435011Y-94959926D01*
X126498095Y-94986056D01*
X126532236Y-94989419D01*
X127023903Y-94989419D01*
X127023903Y-95687038D01*
X126246522Y-95687038D01*
X126212381Y-95690401D01*
X126149297Y-95716531D01*
X126101015Y-95764813D01*
X126074885Y-95827897D01*
X126074885Y-95896179D01*
X126101015Y-95959263D01*
X126149297Y-96007545D01*
X126212381Y-96033675D01*
X126246522Y-96037038D01*
X127198903Y-96037038D01*
X127233044Y-96033675D01*
X127296128Y-96007545D01*
X127344410Y-95959263D01*
X127370540Y-95896179D01*
X127373903Y-95862038D01*
X127373903Y-95732660D01*
X127884408Y-95732660D01*
X127884409Y-95800941D01*
X127910539Y-95864025D01*
X127910543Y-95864029D01*
X127932302Y-95890544D01*
X128027540Y-95985782D01*
X128054054Y-96007540D01*
X128054059Y-96007545D01*
X128069817Y-96014072D01*
X128117144Y-96033676D01*
X128185425Y-96033676D01*
X128232754Y-96014071D01*
X128248509Y-96007545D01*
X128248513Y-96007540D01*
X128275028Y-95985782D01*
X128370266Y-95890544D01*
X128392024Y-95864029D01*
X128392029Y-95864025D01*
X128418160Y-95800942D01*
X128418160Y-95732661D01*
X128418160Y-95732660D01*
X128418160Y-95732659D01*
X128401918Y-95693449D01*
X128392030Y-95669577D01*
X128370267Y-95643057D01*
X128275028Y-95547818D01*
X128248509Y-95526054D01*
X128248508Y-95526053D01*
X128185424Y-95499923D01*
X128117143Y-95499923D01*
X128091013Y-95510746D01*
X128054060Y-95526053D01*
X128054059Y-95526054D01*
X128027540Y-95547818D01*
X127932302Y-95643057D01*
X127910538Y-95669576D01*
X127884408Y-95732660D01*
X127373903Y-95732660D01*
X127373903Y-95290609D01*
X128833427Y-95290609D01*
X128833427Y-95481085D01*
X128836790Y-95515226D01*
X128839196Y-95521035D01*
X128839642Y-95527307D01*
X128851902Y-95559347D01*
X128947140Y-95749824D01*
X128956387Y-95764513D01*
X128958157Y-95768785D01*
X128962106Y-95773597D01*
X128965417Y-95778856D01*
X128968904Y-95781881D01*
X128979921Y-95795304D01*
X129075159Y-95890543D01*
X129088582Y-95901559D01*
X129091608Y-95905048D01*
X129096867Y-95908358D01*
X129101678Y-95912307D01*
X129105949Y-95914076D01*
X129120641Y-95923325D01*
X129311117Y-96018563D01*
X129343158Y-96030823D01*
X129349428Y-96031268D01*
X129355238Y-96033675D01*
X129389379Y-96037038D01*
X129865570Y-96037038D01*
X129882851Y-96035335D01*
X129887457Y-96035663D01*
X129893518Y-96034284D01*
X129899711Y-96033675D01*
X129903979Y-96031906D01*
X129920910Y-96028058D01*
X130206624Y-95932820D01*
X130237949Y-95918833D01*
X130289533Y-95874095D01*
X130320069Y-95813022D01*
X130324909Y-95744913D01*
X130303317Y-95680135D01*
X130258579Y-95628551D01*
X130197506Y-95598015D01*
X130129397Y-95593175D01*
X130095944Y-95600780D01*
X129837170Y-95687038D01*
X129430692Y-95687038D01*
X129302566Y-95622975D01*
X129247490Y-95567899D01*
X129183427Y-95439773D01*
X129183427Y-95331921D01*
X129247489Y-95203797D01*
X129302566Y-95148719D01*
X129450460Y-95074772D01*
X129812775Y-94984194D01*
X129815295Y-94983293D01*
X129816554Y-94983204D01*
X129830757Y-94977768D01*
X129845081Y-94972651D01*
X129846095Y-94971899D01*
X129848595Y-94970943D01*
X130039071Y-94875704D01*
X130053764Y-94866454D01*
X130058032Y-94864687D01*
X130062838Y-94860742D01*
X130068104Y-94857428D01*
X130071131Y-94853937D01*
X130084552Y-94842924D01*
X130179790Y-94747686D01*
X130190805Y-94734262D01*
X130194294Y-94731237D01*
X130197606Y-94725975D01*
X130201553Y-94721166D01*
X130203321Y-94716897D01*
X130212571Y-94702204D01*
X130307809Y-94511728D01*
X130320069Y-94479687D01*
X130320514Y-94473416D01*
X130322921Y-94467607D01*
X130326284Y-94433466D01*
X130326284Y-94242990D01*
X130322921Y-94208849D01*
X130320514Y-94203039D01*
X130320069Y-94196769D01*
X130307809Y-94164728D01*
X130212571Y-93974252D01*
X130203321Y-93959558D01*
X130201553Y-93955290D01*
X130197606Y-93950480D01*
X130194294Y-93945219D01*
X130190805Y-93942193D01*
X130179790Y-93928770D01*
X130084552Y-93833532D01*
X130071128Y-93822516D01*
X130068103Y-93819028D01*
X130062840Y-93815715D01*
X130058032Y-93811769D01*
X130053764Y-93810001D01*
X130039071Y-93800751D01*
X129848594Y-93705513D01*
X129816554Y-93693253D01*
X129810282Y-93692807D01*
X129804473Y-93690401D01*
X129770332Y-93687038D01*
X129294141Y-93687038D01*
X129276859Y-93688740D01*
X129272254Y-93688413D01*
X129266192Y-93689791D01*
X129260000Y-93690401D01*
X129255731Y-93692169D01*
X129238801Y-93696018D01*
X128953087Y-93791256D01*
X128921762Y-93805243D01*
X128870178Y-93849981D01*
X128839642Y-93911054D01*
X128834802Y-93979163D01*
X128856394Y-94043941D01*
X128901132Y-94095525D01*
X128962205Y-94126061D01*
X129030314Y-94130901D01*
X129063767Y-94123296D01*
X129322541Y-94037038D01*
X129729020Y-94037038D01*
X129857144Y-94101100D01*
X129912221Y-94156177D01*
X129976284Y-94284302D01*
X129976284Y-94392153D01*
X129912221Y-94520278D01*
X129857142Y-94575357D01*
X129709253Y-94649302D01*
X129346935Y-94739882D01*
X129344414Y-94740782D01*
X129343158Y-94740872D01*
X129328965Y-94746302D01*
X129314629Y-94751425D01*
X129313615Y-94752176D01*
X129311117Y-94753132D01*
X129120641Y-94848370D01*
X129105947Y-94857619D01*
X129101679Y-94859388D01*
X129096869Y-94863334D01*
X129091608Y-94866647D01*
X129088582Y-94870135D01*
X129075159Y-94881151D01*
X128979921Y-94976389D01*
X128968905Y-94989812D01*
X128965417Y-94992838D01*
X128962104Y-94998100D01*
X128958158Y-95002909D01*
X128956390Y-95007176D01*
X128947140Y-95021870D01*
X128851902Y-95212347D01*
X128839642Y-95244387D01*
X128839196Y-95250658D01*
X128836790Y-95256468D01*
X128833427Y-95290609D01*
X127373903Y-95290609D01*
X127373903Y-93862038D01*
X127370540Y-93827897D01*
X127344410Y-93764813D01*
X127296128Y-93716531D01*
X127233044Y-93690401D01*
X127198903Y-93687038D01*
X126246522Y-93687038D01*
X126212381Y-93690401D01*
X126149297Y-93716531D01*
X126101015Y-93764813D01*
X126074885Y-93827897D01*
X124458637Y-93827897D01*
X124452080Y-93822516D01*
X124449055Y-93819028D01*
X124443792Y-93815715D01*
X124438984Y-93811769D01*
X124434716Y-93810001D01*
X124420023Y-93800751D01*
X124229546Y-93705513D01*
X124197506Y-93693253D01*
X124191234Y-93692807D01*
X124185425Y-93690401D01*
X124151284Y-93687038D01*
X123675093Y-93687038D01*
X123657811Y-93688740D01*
X123653206Y-93688413D01*
X123647144Y-93689791D01*
X123640952Y-93690401D01*
X123636683Y-93692169D01*
X123619753Y-93696018D01*
X123334039Y-93791256D01*
X123302714Y-93805243D01*
X123251130Y-93849981D01*
X123220594Y-93911054D01*
X123215754Y-93979163D01*
X123237346Y-94043941D01*
X123282084Y-94095525D01*
X123343157Y-94126061D01*
X123411266Y-94130901D01*
X123444719Y-94123296D01*
X123703493Y-94037038D01*
X124109972Y-94037038D01*
X124238096Y-94101100D01*
X124293173Y-94156177D01*
X124357236Y-94284302D01*
X124357236Y-94392153D01*
X124293173Y-94520278D01*
X124238094Y-94575357D01*
X124090205Y-94649302D01*
X123727887Y-94739882D01*
X123725366Y-94740782D01*
X123724110Y-94740872D01*
X123709917Y-94746302D01*
X123695581Y-94751425D01*
X123694567Y-94752176D01*
X123692069Y-94753132D01*
X123501593Y-94848370D01*
X123486899Y-94857619D01*
X123482631Y-94859388D01*
X123477821Y-94863334D01*
X123472560Y-94866647D01*
X123469534Y-94870135D01*
X123456111Y-94881151D01*
X123360873Y-94976389D01*
X123349857Y-94989812D01*
X123346369Y-94992838D01*
X123343056Y-94998100D01*
X123339110Y-95002909D01*
X123337342Y-95007176D01*
X123328092Y-95021870D01*
X123232854Y-95212347D01*
X123220594Y-95244387D01*
X123220148Y-95250658D01*
X123217742Y-95256468D01*
X123214379Y-95290609D01*
X120260241Y-95290609D01*
X120321058Y-95047339D01*
X120321933Y-95041417D01*
X120322920Y-95039036D01*
X120324185Y-95026185D01*
X120326076Y-95013402D01*
X120325696Y-95010850D01*
X120326283Y-95004895D01*
X120326283Y-94719180D01*
X120325696Y-94713224D01*
X120326076Y-94710673D01*
X120324185Y-94697889D01*
X120322920Y-94685039D01*
X120321933Y-94682657D01*
X120321058Y-94676736D01*
X120225820Y-94295784D01*
X120224919Y-94293263D01*
X120224830Y-94292007D01*
X120219399Y-94277814D01*
X120214277Y-94263478D01*
X120213525Y-94262464D01*
X120212570Y-94259966D01*
X120117332Y-94069490D01*
X120108082Y-94054796D01*
X120106314Y-94050528D01*
X120102367Y-94045718D01*
X120099055Y-94040457D01*
X120095566Y-94037431D01*
X120084551Y-94024008D01*
X119894075Y-93833532D01*
X119867555Y-93811769D01*
X119861746Y-93809363D01*
X119856996Y-93805243D01*
X119825671Y-93791256D01*
X119539956Y-93696018D01*
X119523023Y-93692168D01*
X119518757Y-93690401D01*
X119512571Y-93689791D01*
X119506503Y-93688412D01*
X119501891Y-93688739D01*
X119484616Y-93687038D01*
X119294140Y-93687038D01*
X119276858Y-93688740D01*
X119272253Y-93688413D01*
X119266191Y-93689791D01*
X119259999Y-93690401D01*
X119255730Y-93692169D01*
X119238800Y-93696018D01*
X118953086Y-93791256D01*
X118921761Y-93805243D01*
X118917010Y-93809362D01*
X118911202Y-93811769D01*
X118884682Y-93833532D01*
X118789444Y-93928770D01*
X118767681Y-93955290D01*
X118741551Y-94018373D01*
X118741551Y-94086655D01*
X118767681Y-94149738D01*
X118815964Y-94198021D01*
X118879047Y-94224151D01*
X118947329Y-94224151D01*
X119010412Y-94198021D01*
X119036932Y-94176258D01*
X119102958Y-94110232D01*
X119322540Y-94037038D01*
X119456216Y-94037038D01*
X119675799Y-94110232D01*
X119816982Y-94251415D01*
X119890929Y-94399309D01*
X119976283Y-94740723D01*
X119976283Y-94983351D01*
X119890929Y-95324765D01*
X119816981Y-95472661D01*
X119675800Y-95613843D01*
X119456216Y-95687038D01*
X119322540Y-95687038D01*
X119102958Y-95613844D01*
X119036932Y-95547818D01*
X119010413Y-95526054D01*
X118947329Y-95499924D01*
X118879048Y-95499923D01*
X118815964Y-95526053D01*
X118767681Y-95574336D01*
X118741551Y-95637420D01*
X118741550Y-95705701D01*
X118187012Y-95705701D01*
X118212570Y-95654585D01*
X118224830Y-95622544D01*
X118225275Y-95616273D01*
X118227682Y-95610464D01*
X118231045Y-95576323D01*
X118231045Y-93862038D01*
X118227682Y-93827897D01*
X118201552Y-93764813D01*
X118153270Y-93716531D01*
X118090186Y-93690401D01*
X118021904Y-93690401D01*
X117958820Y-93716531D01*
X117910538Y-93764813D01*
X117884408Y-93827897D01*
X117881045Y-93862038D01*
X117881045Y-95535011D01*
X117830369Y-95636362D01*
X117692069Y-95705513D01*
X117663036Y-95723790D01*
X117618298Y-95775373D01*
X117596705Y-95840150D01*
X117183426Y-95840150D01*
X117183426Y-94528704D01*
X117180063Y-94494563D01*
X117153933Y-94431479D01*
X117105651Y-94383197D01*
X117042567Y-94357067D01*
X116974285Y-94357067D01*
X116911201Y-94383197D01*
X116862919Y-94431479D01*
X116836789Y-94494563D01*
X116833426Y-94528704D01*
X116113057Y-94528704D01*
X116084551Y-94500198D01*
X116071127Y-94489182D01*
X116068102Y-94485694D01*
X116062839Y-94482381D01*
X116058031Y-94478435D01*
X116053763Y-94476667D01*
X116039070Y-94467417D01*
X115848593Y-94372179D01*
X115816553Y-94359919D01*
X115810281Y-94359473D01*
X115804472Y-94357067D01*
X115770331Y-94353704D01*
X115389378Y-94353704D01*
X115355237Y-94357067D01*
X115349427Y-94359473D01*
X115343157Y-94359919D01*
X115311116Y-94372179D01*
X115120640Y-94467417D01*
X115091607Y-94485694D01*
X115046869Y-94537277D01*
X115025276Y-94602054D01*
X114516759Y-94602054D01*
X114516759Y-93923135D01*
X116741551Y-93923135D01*
X116741551Y-93991417D01*
X116767681Y-94054500D01*
X116789444Y-94081020D01*
X116884682Y-94176258D01*
X116911196Y-94198016D01*
X116911201Y-94198021D01*
X116936777Y-94208615D01*
X116974286Y-94224152D01*
X117042567Y-94224152D01*
X117087173Y-94205674D01*
X117105651Y-94198021D01*
X117105655Y-94198016D01*
X117132170Y-94176258D01*
X117227408Y-94081020D01*
X117249171Y-94054500D01*
X117264057Y-94018563D01*
X117275302Y-93991417D01*
X117275302Y-93923136D01*
X117270297Y-93911054D01*
X117249171Y-93860052D01*
X117227408Y-93833532D01*
X117132170Y-93738294D01*
X117105655Y-93716535D01*
X117105651Y-93716531D01*
X117079051Y-93705513D01*
X117042567Y-93690400D01*
X116974286Y-93690400D01*
X116937801Y-93705513D01*
X116911201Y-93716531D01*
X116911196Y-93716535D01*
X116884682Y-93738294D01*
X116789444Y-93833532D01*
X116767681Y-93860052D01*
X116741551Y-93923135D01*
X114516759Y-93923135D01*
X114516759Y-93862038D01*
X114513396Y-93827897D01*
X114487266Y-93764813D01*
X114438984Y-93716531D01*
X114375900Y-93690401D01*
X114307618Y-93690401D01*
X114244534Y-93716531D01*
X114196252Y-93764813D01*
X114170122Y-93827897D01*
X114166759Y-93862038D01*
X114166759Y-94868121D01*
X113703598Y-94404960D01*
X113677078Y-94383197D01*
X113613995Y-94357067D01*
X113545713Y-94357067D01*
X113482630Y-94383197D01*
X113434347Y-94431480D01*
X113408217Y-94494563D01*
X113408217Y-94562845D01*
X113434347Y-94625928D01*
X113456110Y-94652448D01*
X113920216Y-95116554D01*
X113439854Y-95757038D01*
X113422060Y-95786369D01*
X113405113Y-95852514D01*
X112875062Y-95852514D01*
X112875643Y-95850768D01*
X112879236Y-95845062D01*
X112974474Y-95654585D01*
X112986734Y-95622544D01*
X112987179Y-95616273D01*
X112989586Y-95610464D01*
X112992949Y-95576323D01*
X112992949Y-94814419D01*
X112989586Y-94780278D01*
X112987179Y-94774468D01*
X112986734Y-94768198D01*
X112974474Y-94736157D01*
X112879236Y-94545680D01*
X112875643Y-94539973D01*
X112874745Y-94537277D01*
X112871832Y-94533919D01*
X112860960Y-94516647D01*
X112844381Y-94502269D01*
X112830006Y-94485694D01*
X112812730Y-94474818D01*
X112809376Y-94471909D01*
X112806683Y-94471011D01*
X112800974Y-94467417D01*
X112610497Y-94372179D01*
X112578457Y-94359919D01*
X112572185Y-94359473D01*
X112566376Y-94357067D01*
X112532235Y-94353704D01*
X112151282Y-94353704D01*
X112117141Y-94357067D01*
X112111331Y-94359473D01*
X112105061Y-94359919D01*
X112073020Y-94372179D01*
X111882544Y-94467417D01*
X111876838Y-94471008D01*
X111874141Y-94471908D01*
X111870781Y-94474821D01*
X111853511Y-94485694D01*
X111839135Y-94502269D01*
X111822558Y-94516647D01*
X111811683Y-94533921D01*
X111808773Y-94537277D01*
X111807874Y-94539970D01*
X111804281Y-94545680D01*
X111709043Y-94736157D01*
X111696783Y-94768198D01*
X111696337Y-94774468D01*
X111693931Y-94780278D01*
X111690568Y-94814419D01*
X111183425Y-94814419D01*
X111183425Y-94528704D01*
X111180062Y-94494563D01*
X111153932Y-94431479D01*
X111105650Y-94383197D01*
X111042566Y-94357067D01*
X110974284Y-94357067D01*
X110911200Y-94383197D01*
X110862918Y-94431479D01*
X110856298Y-94447460D01*
X110705735Y-94372179D01*
X110673695Y-94359919D01*
X110667423Y-94359473D01*
X110661614Y-94357067D01*
X110627473Y-94353704D01*
X110436996Y-94353704D01*
X110402855Y-94357067D01*
X110339771Y-94383197D01*
X110291489Y-94431479D01*
X110265359Y-94494563D01*
X110043137Y-94494563D01*
X110043137Y-93464816D01*
X130548506Y-93464816D01*
X130548506Y-96259260D01*
G37*
D10*
G36*
X127803102Y-108062652D02*
G01*
X127735510Y-108062652D01*
X127670996Y-108041147D01*
X127630217Y-108000368D01*
X127608389Y-107956713D01*
X127581673Y-107849846D01*
X127581673Y-107775456D01*
X127608389Y-107668590D01*
X127630217Y-107624935D01*
X127670996Y-107584156D01*
X127735510Y-107562652D01*
X127803102Y-107562652D01*
X127803102Y-108062652D01*
G37*
G36*
X129390006Y-108287652D02*
G01*
X127356673Y-108287652D01*
X127356673Y-107766223D01*
X127431673Y-107766223D01*
X127431673Y-107859080D01*
X127431924Y-107861629D01*
X127431761Y-107862725D01*
X127432572Y-107868209D01*
X127433114Y-107873712D01*
X127433536Y-107874732D01*
X127433912Y-107877270D01*
X127464864Y-108001080D01*
X127465249Y-108002159D01*
X127465288Y-108002700D01*
X127467621Y-108008796D01*
X127469811Y-108014925D01*
X127470132Y-108015359D01*
X127470543Y-108016431D01*
X127501496Y-108078336D01*
X127505459Y-108084632D01*
X127506218Y-108086463D01*
X127507909Y-108088524D01*
X127509329Y-108090779D01*
X127510824Y-108092075D01*
X127515545Y-108097828D01*
X127577450Y-108159733D01*
X127588815Y-108169061D01*
X127591307Y-108170093D01*
X127593341Y-108171857D01*
X127606766Y-108177851D01*
X127699623Y-108208803D01*
X127706876Y-108210452D01*
X127708708Y-108211211D01*
X127711362Y-108211472D01*
X127713960Y-108212063D01*
X127715934Y-108211922D01*
X127723340Y-108212652D01*
X127878102Y-108212652D01*
X127892734Y-108211211D01*
X127919770Y-108200012D01*
X127940462Y-108179320D01*
X127951661Y-108152284D01*
X127953102Y-108137652D01*
X127953102Y-107487652D01*
X128112625Y-107487652D01*
X128112625Y-108137652D01*
X128112995Y-108141415D01*
X128112808Y-108142891D01*
X128113329Y-108144801D01*
X128114066Y-108152284D01*
X128117883Y-108161500D01*
X128120508Y-108171122D01*
X128123434Y-108174901D01*
X128125265Y-108179320D01*
X128132316Y-108186371D01*
X128138425Y-108194260D01*
X128142578Y-108196633D01*
X128145957Y-108200012D01*
X128155169Y-108203828D01*
X128163834Y-108208779D01*
X128168577Y-108209381D01*
X128172993Y-108211211D01*
X128182967Y-108211211D01*
X128192864Y-108212469D01*
X128197476Y-108211211D01*
X128202257Y-108211211D01*
X128211473Y-108207393D01*
X128221095Y-108204769D01*
X128224874Y-108201842D01*
X128229293Y-108200012D01*
X128236344Y-108192960D01*
X128244233Y-108186852D01*
X128248585Y-108180719D01*
X128249985Y-108179320D01*
X128250554Y-108177945D01*
X128252743Y-108174862D01*
X128484054Y-107770068D01*
X128484054Y-108137652D01*
X128485495Y-108152284D01*
X128496694Y-108179320D01*
X128517386Y-108200012D01*
X128544422Y-108211211D01*
X128573686Y-108211211D01*
X128600722Y-108200012D01*
X128621414Y-108179320D01*
X128632613Y-108152284D01*
X128634054Y-108137652D01*
X128634054Y-107859080D01*
X128762625Y-107859080D01*
X128762625Y-108075747D01*
X128764066Y-108090379D01*
X128770625Y-108106215D01*
X128775264Y-108117414D01*
X128784591Y-108128779D01*
X128815543Y-108159732D01*
X128826908Y-108169059D01*
X128829398Y-108170090D01*
X128831435Y-108171857D01*
X128844860Y-108177851D01*
X128937719Y-108208803D01*
X128944970Y-108210452D01*
X128946803Y-108211211D01*
X128949458Y-108211472D01*
X128952055Y-108212063D01*
X128954029Y-108211922D01*
X128961435Y-108212652D01*
X129023339Y-108212652D01*
X129030744Y-108211922D01*
X129032719Y-108212063D01*
X129035316Y-108211472D01*
X129037971Y-108211211D01*
X129039802Y-108210452D01*
X129047056Y-108208803D01*
X129139913Y-108177851D01*
X129153339Y-108171857D01*
X129155375Y-108170090D01*
X129157864Y-108169060D01*
X129169229Y-108159733D01*
X129231134Y-108097828D01*
X129235856Y-108092074D01*
X129237350Y-108090779D01*
X129238766Y-108088528D01*
X129240462Y-108086463D01*
X129241221Y-108084628D01*
X129245183Y-108078336D01*
X129276136Y-108016432D01*
X129276546Y-108015360D01*
X129276868Y-108014926D01*
X129279058Y-108008795D01*
X129281391Y-108002700D01*
X129281429Y-108002159D01*
X129281815Y-108001080D01*
X129312767Y-107877270D01*
X129313142Y-107874733D01*
X129313565Y-107873712D01*
X129314107Y-107868199D01*
X129314917Y-107862726D01*
X129314754Y-107861633D01*
X129315006Y-107859080D01*
X129315006Y-107766223D01*
X129314754Y-107763669D01*
X129314917Y-107762577D01*
X129314107Y-107757103D01*
X129313565Y-107751591D01*
X129313142Y-107750569D01*
X129312767Y-107748033D01*
X129281815Y-107624224D01*
X129281429Y-107623144D01*
X129281391Y-107622604D01*
X129279058Y-107616508D01*
X129276868Y-107610378D01*
X129276546Y-107609943D01*
X129276136Y-107608872D01*
X129245183Y-107546968D01*
X129241221Y-107540675D01*
X129240462Y-107538841D01*
X129238766Y-107536775D01*
X129237350Y-107534525D01*
X129235856Y-107533229D01*
X129231134Y-107527476D01*
X129169229Y-107465571D01*
X129157864Y-107456244D01*
X129155375Y-107455213D01*
X129153339Y-107453447D01*
X129139913Y-107447453D01*
X129047056Y-107416501D01*
X129039802Y-107414851D01*
X129037971Y-107414093D01*
X129035316Y-107413831D01*
X129032719Y-107413241D01*
X129030744Y-107413381D01*
X129023339Y-107412652D01*
X128930482Y-107412652D01*
X128915850Y-107414093D01*
X128913360Y-107415124D01*
X128910673Y-107415315D01*
X128896942Y-107420570D01*
X128835036Y-107451522D01*
X128822594Y-107459354D01*
X128803420Y-107481462D01*
X128794166Y-107509223D01*
X128796240Y-107538413D01*
X128809327Y-107564587D01*
X128831435Y-107583761D01*
X128859196Y-107593015D01*
X128888386Y-107590941D01*
X128902118Y-107585686D01*
X128948187Y-107562652D01*
X129011169Y-107562652D01*
X129075682Y-107584156D01*
X129116462Y-107624936D01*
X129138289Y-107668590D01*
X129165006Y-107775456D01*
X129165006Y-107849846D01*
X129138289Y-107956713D01*
X129116462Y-108000367D01*
X129075682Y-108041147D01*
X129011169Y-108062652D01*
X128973605Y-108062652D01*
X128912625Y-108042325D01*
X128912625Y-107934080D01*
X128961435Y-107934080D01*
X128976067Y-107932639D01*
X129003103Y-107921440D01*
X129023795Y-107900748D01*
X129034994Y-107873712D01*
X129034994Y-107844448D01*
X129023795Y-107817412D01*
X129003103Y-107796720D01*
X128976067Y-107785521D01*
X128961435Y-107784080D01*
X128837625Y-107784080D01*
X128822993Y-107785521D01*
X128795957Y-107796720D01*
X128775265Y-107817412D01*
X128764066Y-107844448D01*
X128762625Y-107859080D01*
X128634054Y-107859080D01*
X128634054Y-107487652D01*
X128633683Y-107483889D01*
X128633871Y-107482414D01*
X128633350Y-107480503D01*
X128632613Y-107473020D01*
X128628794Y-107463802D01*
X128626171Y-107454182D01*
X128623244Y-107450403D01*
X128621414Y-107445984D01*
X128614357Y-107438927D01*
X128608253Y-107431045D01*
X128604104Y-107428674D01*
X128600722Y-107425292D01*
X128591501Y-107421472D01*
X128582845Y-107416526D01*
X128578105Y-107415923D01*
X128573686Y-107414093D01*
X128563704Y-107414093D01*
X128553815Y-107412836D01*
X128549206Y-107414093D01*
X128544422Y-107414093D01*
X128535204Y-107417911D01*
X128525583Y-107420535D01*
X128521802Y-107423462D01*
X128517386Y-107425292D01*
X128510332Y-107432345D01*
X128502446Y-107438453D01*
X128498094Y-107444583D01*
X128496694Y-107445984D01*
X128496124Y-107447358D01*
X128493936Y-107450442D01*
X128262625Y-107855235D01*
X128262625Y-107487652D01*
X128261184Y-107473020D01*
X128249985Y-107445984D01*
X128229293Y-107425292D01*
X128202257Y-107414093D01*
X128172993Y-107414093D01*
X128145957Y-107425292D01*
X128125265Y-107445984D01*
X128114066Y-107473020D01*
X128112625Y-107487652D01*
X127953102Y-107487652D01*
X127951661Y-107473020D01*
X127940462Y-107445984D01*
X127919770Y-107425292D01*
X127892734Y-107414093D01*
X127878102Y-107412652D01*
X127723340Y-107412652D01*
X127715934Y-107413381D01*
X127713960Y-107413241D01*
X127711362Y-107413831D01*
X127708708Y-107414093D01*
X127706876Y-107414851D01*
X127699623Y-107416501D01*
X127606766Y-107447453D01*
X127593341Y-107453447D01*
X127591307Y-107455210D01*
X127588815Y-107456243D01*
X127577450Y-107465571D01*
X127515545Y-107527476D01*
X127510824Y-107533228D01*
X127509329Y-107534525D01*
X127507909Y-107536779D01*
X127506218Y-107538841D01*
X127505459Y-107540671D01*
X127501496Y-107546968D01*
X127470543Y-107608873D01*
X127470132Y-107609944D01*
X127469811Y-107610379D01*
X127467621Y-107616507D01*
X127465288Y-107622604D01*
X127465249Y-107623144D01*
X127464864Y-107624224D01*
X127433912Y-107748033D01*
X127433536Y-107750570D01*
X127433114Y-107751591D01*
X127432572Y-107757093D01*
X127431761Y-107762578D01*
X127431924Y-107763673D01*
X127431673Y-107766223D01*
X127356673Y-107766223D01*
X127356673Y-107337652D01*
X129390006Y-107337652D01*
X129390006Y-108287652D01*
G37*
G36*
X117790628Y-135557168D02*
G01*
X117773036Y-135592351D01*
X117759296Y-135606092D01*
X117724114Y-135623683D01*
X117666666Y-135623683D01*
X117631484Y-135606092D01*
X117617742Y-135592350D01*
X117600152Y-135557168D01*
X117600152Y-135402254D01*
X117790628Y-135402254D01*
X117790628Y-135557168D01*
G37*
G36*
X118325152Y-135848683D02*
G01*
X117375152Y-135848683D01*
X117375152Y-135327254D01*
X117450152Y-135327254D01*
X117450152Y-135574873D01*
X117451593Y-135589505D01*
X117452624Y-135591994D01*
X117452815Y-135594682D01*
X117458070Y-135608414D01*
X117489022Y-135670319D01*
X117492986Y-135676618D01*
X117493744Y-135678446D01*
X117495432Y-135680502D01*
X117496854Y-135682762D01*
X117498352Y-135684061D01*
X117503071Y-135689811D01*
X117534024Y-135720764D01*
X117539773Y-135725482D01*
X117541073Y-135726981D01*
X117543332Y-135728402D01*
X117545389Y-135730091D01*
X117547216Y-135730848D01*
X117553516Y-135734813D01*
X117615420Y-135765765D01*
X117629152Y-135771020D01*
X117631839Y-135771210D01*
X117634329Y-135772242D01*
X117648961Y-135773683D01*
X117741819Y-135773683D01*
X117756451Y-135772242D01*
X117758940Y-135771210D01*
X117761628Y-135771020D01*
X117775360Y-135765765D01*
X117837264Y-135734813D01*
X117843560Y-135730849D01*
X117845391Y-135730091D01*
X117847452Y-135728399D01*
X117849707Y-135726980D01*
X117851003Y-135725484D01*
X117856756Y-135720764D01*
X117887709Y-135689811D01*
X117892429Y-135684058D01*
X117893926Y-135682761D01*
X117895345Y-135680505D01*
X117897036Y-135678446D01*
X117897793Y-135676616D01*
X117901758Y-135670319D01*
X117928225Y-135617383D01*
X118132142Y-135760125D01*
X118144955Y-135767336D01*
X118173526Y-135773665D01*
X118202344Y-135768580D01*
X118227023Y-135752853D01*
X118243805Y-135728879D01*
X118250134Y-135700308D01*
X118245049Y-135671491D01*
X118229322Y-135646812D01*
X118218161Y-135637240D01*
X117940628Y-135442966D01*
X117940628Y-135402254D01*
X118175152Y-135402254D01*
X118189784Y-135400813D01*
X118216820Y-135389614D01*
X118237512Y-135368922D01*
X118248711Y-135341886D01*
X118248711Y-135312622D01*
X118237512Y-135285586D01*
X118216820Y-135264894D01*
X118189784Y-135253695D01*
X118175152Y-135252254D01*
X117525152Y-135252254D01*
X117510520Y-135253695D01*
X117483484Y-135264894D01*
X117462792Y-135285586D01*
X117451593Y-135312622D01*
X117450152Y-135327254D01*
X117375152Y-135327254D01*
X117375152Y-134739159D01*
X117450152Y-134739159D01*
X117450152Y-135048683D01*
X117451593Y-135063315D01*
X117462792Y-135090351D01*
X117483484Y-135111043D01*
X117510520Y-135122242D01*
X117539784Y-135122242D01*
X117566820Y-135111043D01*
X117587512Y-135090351D01*
X117598711Y-135063315D01*
X117600152Y-135048683D01*
X117600152Y-134814159D01*
X117759676Y-134814159D01*
X117759676Y-134955826D01*
X117761117Y-134970458D01*
X117772316Y-134997494D01*
X117793008Y-135018186D01*
X117820044Y-135029385D01*
X117849308Y-135029385D01*
X117876344Y-135018186D01*
X117897036Y-134997494D01*
X117908235Y-134970458D01*
X117909676Y-134955826D01*
X117909676Y-134814159D01*
X118100152Y-134814159D01*
X118100152Y-135048683D01*
X118101593Y-135063315D01*
X118112792Y-135090351D01*
X118133484Y-135111043D01*
X118160520Y-135122242D01*
X118189784Y-135122242D01*
X118216820Y-135111043D01*
X118237512Y-135090351D01*
X118248711Y-135063315D01*
X118250152Y-135048683D01*
X118250152Y-134739159D01*
X118248711Y-134724527D01*
X118237512Y-134697491D01*
X118216820Y-134676799D01*
X118189784Y-134665600D01*
X118175152Y-134664159D01*
X117525152Y-134664159D01*
X117510520Y-134665600D01*
X117483484Y-134676799D01*
X117462792Y-134697491D01*
X117451593Y-134724527D01*
X117450152Y-134739159D01*
X117375152Y-134739159D01*
X117375152Y-134074527D01*
X117451593Y-134074527D01*
X117451593Y-134103791D01*
X117462792Y-134130827D01*
X117483484Y-134151519D01*
X117510520Y-134162718D01*
X117525152Y-134164159D01*
X117715514Y-134164159D01*
X117472119Y-134407555D01*
X117462791Y-134418920D01*
X117451593Y-134445957D01*
X117451593Y-134475220D01*
X117462792Y-134502256D01*
X117483484Y-134522949D01*
X117510521Y-134534147D01*
X117539784Y-134534147D01*
X117566820Y-134522948D01*
X117578185Y-134513621D01*
X117810760Y-134281044D01*
X118130152Y-134520588D01*
X118142722Y-134528215D01*
X118171071Y-134535477D01*
X118200039Y-134531338D01*
X118225220Y-134516429D01*
X118242779Y-134493018D01*
X118250041Y-134464670D01*
X118245903Y-134435701D01*
X118230993Y-134410520D01*
X118220152Y-134400588D01*
X117917903Y-134173901D01*
X117927646Y-134164159D01*
X118175152Y-134164159D01*
X118189784Y-134162718D01*
X118216820Y-134151519D01*
X118237512Y-134130827D01*
X118248711Y-134103791D01*
X118248711Y-134074527D01*
X118237512Y-134047491D01*
X118216820Y-134026799D01*
X118189784Y-134015600D01*
X118175152Y-134014159D01*
X117525152Y-134014159D01*
X117510520Y-134015600D01*
X117483484Y-134026799D01*
X117462792Y-134047491D01*
X117451593Y-134074527D01*
X117375152Y-134074527D01*
X117375152Y-133624874D01*
X117450152Y-133624874D01*
X117450152Y-133686778D01*
X117450881Y-133694183D01*
X117450741Y-133696158D01*
X117451331Y-133698755D01*
X117451593Y-133701410D01*
X117452351Y-133703241D01*
X117454001Y-133710495D01*
X117484953Y-133803353D01*
X117490947Y-133816778D01*
X117492711Y-133818812D01*
X117493744Y-133821305D01*
X117503072Y-133832670D01*
X117534025Y-133863622D01*
X117545390Y-133872949D01*
X117572426Y-133884147D01*
X117601689Y-133884146D01*
X117628725Y-133872947D01*
X117649418Y-133852254D01*
X117660616Y-133825218D01*
X117660615Y-133795955D01*
X117649416Y-133768919D01*
X117640089Y-133757554D01*
X117621655Y-133739121D01*
X117600152Y-133674608D01*
X117600152Y-133637043D01*
X117621656Y-133572530D01*
X117662436Y-133531750D01*
X117706090Y-133509923D01*
X117812957Y-133483207D01*
X117887346Y-133483207D01*
X117994213Y-133509923D01*
X118037868Y-133531751D01*
X118078647Y-133572530D01*
X118100152Y-133637043D01*
X118100152Y-133674608D01*
X118078648Y-133739121D01*
X118060215Y-133757554D01*
X118050887Y-133768919D01*
X118039688Y-133795955D01*
X118039688Y-133825218D01*
X118050886Y-133852255D01*
X118071578Y-133872948D01*
X118098614Y-133884147D01*
X118127877Y-133884147D01*
X118154914Y-133872949D01*
X118166279Y-133863622D01*
X118197232Y-133832670D01*
X118206559Y-133821305D01*
X118207590Y-133818814D01*
X118209357Y-133816778D01*
X118215351Y-133803353D01*
X118246303Y-133710494D01*
X118247952Y-133703242D01*
X118248711Y-133701410D01*
X118248972Y-133698754D01*
X118249563Y-133696158D01*
X118249422Y-133694183D01*
X118250152Y-133686778D01*
X118250152Y-133624874D01*
X118249422Y-133617468D01*
X118249563Y-133615494D01*
X118248972Y-133612896D01*
X118248711Y-133610242D01*
X118247952Y-133608410D01*
X118246303Y-133601157D01*
X118215351Y-133508300D01*
X118209357Y-133494875D01*
X118207593Y-133492841D01*
X118206561Y-133490349D01*
X118197233Y-133478984D01*
X118135328Y-133417079D01*
X118129575Y-133412358D01*
X118128279Y-133410863D01*
X118126024Y-133409443D01*
X118123963Y-133407752D01*
X118122132Y-133406993D01*
X118115836Y-133403030D01*
X118053931Y-133372077D01*
X118052859Y-133371666D01*
X118052425Y-133371345D01*
X118046296Y-133369155D01*
X118040200Y-133366822D01*
X118039659Y-133366783D01*
X118038580Y-133366398D01*
X117914770Y-133335446D01*
X117912232Y-133335070D01*
X117911212Y-133334648D01*
X117905709Y-133334106D01*
X117900225Y-133333295D01*
X117899129Y-133333458D01*
X117896580Y-133333207D01*
X117803723Y-133333207D01*
X117801169Y-133333458D01*
X117800077Y-133333296D01*
X117794603Y-133334105D01*
X117789091Y-133334648D01*
X117788069Y-133335070D01*
X117785533Y-133335446D01*
X117661724Y-133366398D01*
X117660644Y-133366783D01*
X117660104Y-133366822D01*
X117654008Y-133369154D01*
X117647878Y-133371345D01*
X117647443Y-133371666D01*
X117646372Y-133372077D01*
X117584468Y-133403030D01*
X117578175Y-133406991D01*
X117576341Y-133407751D01*
X117574275Y-133409446D01*
X117572025Y-133410863D01*
X117570729Y-133412356D01*
X117564976Y-133417079D01*
X117503071Y-133478984D01*
X117493744Y-133490349D01*
X117492713Y-133492837D01*
X117490947Y-133494874D01*
X117484953Y-133508300D01*
X117454001Y-133601157D01*
X117452351Y-133608410D01*
X117451593Y-133610242D01*
X117451331Y-133612896D01*
X117450741Y-133615494D01*
X117450881Y-133617468D01*
X117450152Y-133624874D01*
X117375152Y-133624874D01*
X117375152Y-133115003D01*
X117451593Y-133115003D01*
X117451593Y-133144267D01*
X117462792Y-133171303D01*
X117483484Y-133191995D01*
X117510520Y-133203194D01*
X117525152Y-133204635D01*
X118175152Y-133204635D01*
X118189784Y-133203194D01*
X118216820Y-133191995D01*
X118237512Y-133171303D01*
X118248711Y-133144267D01*
X118248711Y-133115003D01*
X118237512Y-133087967D01*
X118216820Y-133067275D01*
X118189784Y-133056076D01*
X118175152Y-133054635D01*
X117525152Y-133054635D01*
X117510520Y-133056076D01*
X117483484Y-133067275D01*
X117462792Y-133087967D01*
X117451593Y-133115003D01*
X117375152Y-133115003D01*
X117375152Y-132588813D01*
X117451593Y-132588813D01*
X117451593Y-132618077D01*
X117462792Y-132645113D01*
X117483484Y-132665805D01*
X117510520Y-132677004D01*
X117525152Y-132678445D01*
X118100152Y-132678445D01*
X118100152Y-132912969D01*
X118101593Y-132927601D01*
X118112792Y-132954637D01*
X118133484Y-132975329D01*
X118160520Y-132986528D01*
X118189784Y-132986528D01*
X118216820Y-132975329D01*
X118237512Y-132954637D01*
X118248711Y-132927601D01*
X118250152Y-132912969D01*
X118250152Y-132603445D01*
X118248711Y-132588813D01*
X118237512Y-132561777D01*
X118216820Y-132541085D01*
X118189784Y-132529886D01*
X118175152Y-132528445D01*
X117525152Y-132528445D01*
X117510520Y-132529886D01*
X117483484Y-132541085D01*
X117462792Y-132561777D01*
X117451593Y-132588813D01*
X117375152Y-132588813D01*
X117375152Y-132139160D01*
X117450152Y-132139160D01*
X117450152Y-132201064D01*
X117450881Y-132208469D01*
X117450741Y-132210444D01*
X117451331Y-132213041D01*
X117451593Y-132215696D01*
X117452351Y-132217527D01*
X117454001Y-132224781D01*
X117484953Y-132317639D01*
X117490947Y-132331064D01*
X117492711Y-132333098D01*
X117493744Y-132335591D01*
X117503072Y-132346956D01*
X117534025Y-132377908D01*
X117545390Y-132387235D01*
X117572426Y-132398433D01*
X117601689Y-132398432D01*
X117628725Y-132387233D01*
X117649418Y-132366540D01*
X117660616Y-132339504D01*
X117660615Y-132310241D01*
X117649416Y-132283205D01*
X117640089Y-132271840D01*
X117621655Y-132253407D01*
X117600152Y-132188894D01*
X117600152Y-132151329D01*
X117621656Y-132086816D01*
X117662436Y-132046036D01*
X117706090Y-132024209D01*
X117812957Y-131997493D01*
X117887346Y-131997493D01*
X117994213Y-132024209D01*
X118037868Y-132046037D01*
X118078647Y-132086816D01*
X118100152Y-132151329D01*
X118100152Y-132188894D01*
X118078648Y-132253407D01*
X118060215Y-132271840D01*
X118050887Y-132283205D01*
X118039688Y-132310241D01*
X118039688Y-132339504D01*
X118050886Y-132366541D01*
X118071578Y-132387234D01*
X118098614Y-132398433D01*
X118127877Y-132398433D01*
X118154914Y-132387235D01*
X118166279Y-132377908D01*
X118197232Y-132346956D01*
X118206559Y-132335591D01*
X118207590Y-132333100D01*
X118209357Y-132331064D01*
X118215351Y-132317639D01*
X118246303Y-132224780D01*
X118247952Y-132217528D01*
X118248711Y-132215696D01*
X118248972Y-132213040D01*
X118249563Y-132210444D01*
X118249422Y-132208469D01*
X118250152Y-132201064D01*
X118250152Y-132139160D01*
X118249422Y-132131754D01*
X118249563Y-132129780D01*
X118248972Y-132127182D01*
X118248711Y-132124528D01*
X118247952Y-132122696D01*
X118246303Y-132115443D01*
X118215351Y-132022586D01*
X118209357Y-132009161D01*
X118207593Y-132007127D01*
X118206561Y-132004635D01*
X118197233Y-131993270D01*
X118135328Y-131931365D01*
X118129575Y-131926644D01*
X118128279Y-131925149D01*
X118126024Y-131923729D01*
X118123963Y-131922038D01*
X118122132Y-131921279D01*
X118115836Y-131917316D01*
X118053931Y-131886363D01*
X118052859Y-131885952D01*
X118052425Y-131885631D01*
X118046296Y-131883441D01*
X118040200Y-131881108D01*
X118039659Y-131881069D01*
X118038580Y-131880684D01*
X117914770Y-131849732D01*
X117912232Y-131849356D01*
X117911212Y-131848934D01*
X117905709Y-131848392D01*
X117900225Y-131847581D01*
X117899129Y-131847744D01*
X117896580Y-131847493D01*
X117803723Y-131847493D01*
X117801169Y-131847744D01*
X117800077Y-131847582D01*
X117794603Y-131848391D01*
X117789091Y-131848934D01*
X117788069Y-131849356D01*
X117785533Y-131849732D01*
X117661724Y-131880684D01*
X117660644Y-131881069D01*
X117660104Y-131881108D01*
X117654008Y-131883440D01*
X117647878Y-131885631D01*
X117647443Y-131885952D01*
X117646372Y-131886363D01*
X117584468Y-131917316D01*
X117578175Y-131921277D01*
X117576341Y-131922037D01*
X117574275Y-131923732D01*
X117572025Y-131925149D01*
X117570729Y-131926642D01*
X117564976Y-131931365D01*
X117503071Y-131993270D01*
X117493744Y-132004635D01*
X117492713Y-132007123D01*
X117490947Y-132009160D01*
X117484953Y-132022586D01*
X117454001Y-132115443D01*
X117452351Y-132122696D01*
X117451593Y-132124528D01*
X117451331Y-132127182D01*
X117450741Y-132129780D01*
X117450881Y-132131754D01*
X117450152Y-132139160D01*
X117375152Y-132139160D01*
X117375152Y-131772493D01*
X118325152Y-131772493D01*
X118325152Y-135848683D01*
G37*
G36*
X133587677Y-112332268D02*
G01*
X133435561Y-112382973D01*
X133435561Y-112281562D01*
X133587677Y-112332268D01*
G37*
G36*
X133974847Y-113657017D02*
G01*
X133024847Y-113657017D01*
X133024847Y-113446554D01*
X133099847Y-113446554D01*
X133099847Y-113508458D01*
X133101288Y-113523090D01*
X133112487Y-113550126D01*
X133133179Y-113570818D01*
X133160215Y-113582017D01*
X133189479Y-113582017D01*
X133216515Y-113570818D01*
X133237207Y-113550126D01*
X133248406Y-113523090D01*
X133249847Y-113508458D01*
X133249847Y-113458724D01*
X133271351Y-113394210D01*
X133308217Y-113357344D01*
X133372731Y-113335839D01*
X133824847Y-113335839D01*
X133839479Y-113334398D01*
X133866515Y-113323199D01*
X133887207Y-113302507D01*
X133898406Y-113275471D01*
X133898406Y-113246207D01*
X133887207Y-113219171D01*
X133866515Y-113198479D01*
X133839479Y-113187280D01*
X133824847Y-113185839D01*
X133360561Y-113185839D01*
X133353155Y-113186568D01*
X133351180Y-113186428D01*
X133348582Y-113187018D01*
X133345929Y-113187280D01*
X133344098Y-113188038D01*
X133336843Y-113189688D01*
X133243986Y-113220641D01*
X133230561Y-113226635D01*
X133228524Y-113228401D01*
X133226036Y-113229432D01*
X133214671Y-113238759D01*
X133152767Y-113300663D01*
X133143440Y-113312028D01*
X133142409Y-113314516D01*
X133140643Y-113316553D01*
X133134649Y-113329979D01*
X133103696Y-113422837D01*
X133102046Y-113430091D01*
X133101288Y-113431922D01*
X133101026Y-113434575D01*
X133100436Y-113437173D01*
X133100576Y-113439148D01*
X133099847Y-113446554D01*
X133024847Y-113446554D01*
X133024847Y-112843826D01*
X133101288Y-112843826D01*
X133101288Y-112873090D01*
X133112487Y-112900126D01*
X133133179Y-112920818D01*
X133160215Y-112932017D01*
X133174847Y-112933458D01*
X133749847Y-112933458D01*
X133749847Y-113044173D01*
X133751288Y-113058805D01*
X133762487Y-113085841D01*
X133783179Y-113106533D01*
X133810215Y-113117732D01*
X133839479Y-113117732D01*
X133866515Y-113106533D01*
X133887207Y-113085841D01*
X133898406Y-113058805D01*
X133899847Y-113044173D01*
X133899847Y-112672744D01*
X133898406Y-112658112D01*
X133887207Y-112631076D01*
X133866515Y-112610384D01*
X133839479Y-112599185D01*
X133810215Y-112599185D01*
X133783179Y-112610384D01*
X133762487Y-112631076D01*
X133751288Y-112658112D01*
X133749847Y-112672744D01*
X133749847Y-112783458D01*
X133174847Y-112783458D01*
X133160215Y-112784899D01*
X133133179Y-112796098D01*
X133112487Y-112816790D01*
X133101288Y-112843826D01*
X133024847Y-112843826D01*
X133024847Y-112106221D01*
X133100436Y-112106221D01*
X133102511Y-112135411D01*
X133115597Y-112161584D01*
X133137704Y-112180758D01*
X133151130Y-112186752D01*
X133285561Y-112231562D01*
X133285561Y-112432973D01*
X133151130Y-112477784D01*
X133137704Y-112483778D01*
X133115597Y-112502952D01*
X133102511Y-112529125D01*
X133100436Y-112558315D01*
X133109690Y-112586078D01*
X133128864Y-112608185D01*
X133155037Y-112621271D01*
X133184227Y-112623346D01*
X133198564Y-112620086D01*
X133848564Y-112403419D01*
X133861989Y-112397425D01*
X133866036Y-112393914D01*
X133870830Y-112391518D01*
X133876994Y-112384410D01*
X133884096Y-112378251D01*
X133886491Y-112373459D01*
X133890004Y-112369410D01*
X133892978Y-112360487D01*
X133897183Y-112352078D01*
X133897562Y-112346733D01*
X133899258Y-112341648D01*
X133898591Y-112332268D01*
X133899258Y-112322888D01*
X133897562Y-112317802D01*
X133897183Y-112312458D01*
X133892978Y-112304048D01*
X133890004Y-112295126D01*
X133886491Y-112291076D01*
X133884096Y-112286285D01*
X133876994Y-112280125D01*
X133870830Y-112273018D01*
X133866036Y-112270621D01*
X133861989Y-112267111D01*
X133848564Y-112261117D01*
X133198564Y-112044450D01*
X133184227Y-112041190D01*
X133155037Y-112043265D01*
X133128864Y-112056351D01*
X133109690Y-112078458D01*
X133100436Y-112106221D01*
X133024847Y-112106221D01*
X133024847Y-111651316D01*
X133099847Y-111651316D01*
X133099847Y-111713220D01*
X133100576Y-111720625D01*
X133100436Y-111722601D01*
X133101026Y-111725198D01*
X133101288Y-111727852D01*
X133102046Y-111729682D01*
X133103696Y-111736938D01*
X133134649Y-111829794D01*
X133140643Y-111843220D01*
X133142408Y-111845255D01*
X133143439Y-111847744D01*
X133152767Y-111859110D01*
X133214670Y-111921014D01*
X133220422Y-111925735D01*
X133221720Y-111927231D01*
X133223974Y-111928650D01*
X133226036Y-111930342D01*
X133227866Y-111931100D01*
X133234163Y-111935064D01*
X133296067Y-111966017D01*
X133297138Y-111966427D01*
X133297573Y-111966749D01*
X133303703Y-111968939D01*
X133309799Y-111971272D01*
X133310339Y-111971310D01*
X133311419Y-111971696D01*
X133435229Y-112002648D01*
X133437765Y-112003023D01*
X133438787Y-112003446D01*
X133444299Y-112003988D01*
X133449773Y-112004798D01*
X133450865Y-112004635D01*
X133453419Y-112004887D01*
X133546276Y-112004887D01*
X133548825Y-112004635D01*
X133549921Y-112004799D01*
X133555405Y-112003987D01*
X133560908Y-112003446D01*
X133561928Y-112003023D01*
X133564466Y-112002648D01*
X133688275Y-111971696D01*
X133689354Y-111971310D01*
X133689895Y-111971272D01*
X133695991Y-111968938D01*
X133702120Y-111966749D01*
X133702554Y-111966427D01*
X133703626Y-111966017D01*
X133765531Y-111935064D01*
X133771827Y-111931100D01*
X133773658Y-111930342D01*
X133775719Y-111928650D01*
X133777974Y-111927231D01*
X133779270Y-111925735D01*
X133785023Y-111921015D01*
X133846928Y-111859110D01*
X133856256Y-111847745D01*
X133857288Y-111845252D01*
X133859052Y-111843219D01*
X133865046Y-111829794D01*
X133895998Y-111736937D01*
X133897647Y-111729683D01*
X133898406Y-111727852D01*
X133898667Y-111725197D01*
X133899258Y-111722600D01*
X133899117Y-111720625D01*
X133899847Y-111713220D01*
X133899847Y-111620363D01*
X133898406Y-111605731D01*
X133897374Y-111603241D01*
X133897184Y-111600554D01*
X133891929Y-111586823D01*
X133860977Y-111524917D01*
X133853145Y-111512475D01*
X133831037Y-111493301D01*
X133803276Y-111484047D01*
X133774086Y-111486121D01*
X133747912Y-111499208D01*
X133728738Y-111521316D01*
X133719484Y-111549077D01*
X133721558Y-111578267D01*
X133726813Y-111591999D01*
X133749847Y-111638067D01*
X133749847Y-111701050D01*
X133728342Y-111765563D01*
X133687563Y-111806342D01*
X133643908Y-111828170D01*
X133537042Y-111854887D01*
X133462653Y-111854887D01*
X133355785Y-111828170D01*
X133312131Y-111806343D01*
X133271352Y-111765563D01*
X133249847Y-111701048D01*
X133249847Y-111663486D01*
X133270174Y-111602506D01*
X133378419Y-111602506D01*
X133378419Y-111651316D01*
X133379860Y-111665948D01*
X133391059Y-111692984D01*
X133411751Y-111713676D01*
X133438787Y-111724875D01*
X133468051Y-111724875D01*
X133495087Y-111713676D01*
X133515779Y-111692984D01*
X133526978Y-111665948D01*
X133528419Y-111651316D01*
X133528419Y-111527506D01*
X133526978Y-111512874D01*
X133515779Y-111485838D01*
X133495087Y-111465146D01*
X133468051Y-111453947D01*
X133453419Y-111452506D01*
X133236752Y-111452506D01*
X133222120Y-111453947D01*
X133210922Y-111458585D01*
X133195085Y-111465145D01*
X133183719Y-111474473D01*
X133152767Y-111505425D01*
X133143440Y-111516790D01*
X133142409Y-111519278D01*
X133140643Y-111521315D01*
X133134649Y-111534741D01*
X133103696Y-111627599D01*
X133102046Y-111634853D01*
X133101288Y-111636684D01*
X133101026Y-111639337D01*
X133100436Y-111641935D01*
X133100576Y-111643910D01*
X133099847Y-111651316D01*
X133024847Y-111651316D01*
X133024847Y-111377506D01*
X133974847Y-111377506D01*
X133974847Y-113657017D01*
G37*
G36*
X114052506Y-136337652D02*
G01*
X111865852Y-136337652D01*
X111865852Y-135925401D01*
X111940852Y-135925401D01*
X111940852Y-135954665D01*
X111952051Y-135981701D01*
X111972743Y-136002393D01*
X111999779Y-136013592D01*
X112014411Y-136015033D01*
X112187030Y-136015033D01*
X112187030Y-136187652D01*
X112188471Y-136202284D01*
X112199670Y-136229320D01*
X112220362Y-136250012D01*
X112247398Y-136261211D01*
X112276662Y-136261211D01*
X112303698Y-136250012D01*
X112324390Y-136229320D01*
X112335589Y-136202284D01*
X112337030Y-136187652D01*
X112337030Y-136015033D01*
X112509649Y-136015033D01*
X112524281Y-136013592D01*
X112551317Y-136002393D01*
X112572009Y-135981701D01*
X112583208Y-135954665D01*
X112583208Y-135925401D01*
X112572009Y-135898365D01*
X112551317Y-135877673D01*
X112524281Y-135866474D01*
X112509649Y-135865033D01*
X112337030Y-135865033D01*
X112337030Y-135692414D01*
X112335589Y-135677782D01*
X112324390Y-135650746D01*
X112303698Y-135630054D01*
X112276662Y-135618855D01*
X112247398Y-135618855D01*
X112220362Y-135630054D01*
X112199670Y-135650746D01*
X112188471Y-135677782D01*
X112187030Y-135692414D01*
X112187030Y-135865033D01*
X112014411Y-135865033D01*
X111999779Y-135866474D01*
X111972743Y-135877673D01*
X111952051Y-135898365D01*
X111940852Y-135925401D01*
X111865852Y-135925401D01*
X111865852Y-135540456D01*
X112682320Y-135540456D01*
X112684308Y-135555023D01*
X112839069Y-136205024D01*
X112840798Y-136210043D01*
X112841038Y-136211845D01*
X112841980Y-136213473D01*
X112843859Y-136218924D01*
X112850245Y-136227748D01*
X112855700Y-136237170D01*
X112858757Y-136239510D01*
X112861016Y-136242631D01*
X112870291Y-136248338D01*
X112878938Y-136254957D01*
X112882659Y-136255949D01*
X112885938Y-136257967D01*
X112896690Y-136259691D01*
X112907213Y-136262497D01*
X112911028Y-136261990D01*
X112914833Y-136262600D01*
X112925431Y-136260076D01*
X112936222Y-136258643D01*
X112939553Y-136256714D01*
X112943301Y-136255822D01*
X112952125Y-136249435D01*
X112961547Y-136243981D01*
X112963887Y-136240923D01*
X112967008Y-136238665D01*
X112972715Y-136229389D01*
X112979334Y-136220743D01*
X112981359Y-136215343D01*
X112982344Y-136213743D01*
X112982631Y-136211951D01*
X112984497Y-136206977D01*
X113035838Y-136014445D01*
X113087180Y-136206976D01*
X113089045Y-136211950D01*
X113089333Y-136213743D01*
X113090318Y-136215344D01*
X113092343Y-136220743D01*
X113098961Y-136229389D01*
X113104669Y-136238665D01*
X113107789Y-136240923D01*
X113110130Y-136243981D01*
X113119548Y-136249433D01*
X113128376Y-136255822D01*
X113132126Y-136256714D01*
X113135455Y-136258642D01*
X113146239Y-136260075D01*
X113156844Y-136262600D01*
X113160648Y-136261990D01*
X113164463Y-136262497D01*
X113174984Y-136259691D01*
X113185739Y-136257967D01*
X113189018Y-136255949D01*
X113192739Y-136254957D01*
X113201385Y-136248338D01*
X113210661Y-136242631D01*
X113212919Y-136239510D01*
X113215977Y-136237170D01*
X113221431Y-136227748D01*
X113227818Y-136218924D01*
X113229696Y-136213473D01*
X113230639Y-136211845D01*
X113230878Y-136210043D01*
X113232608Y-136205024D01*
X113280962Y-136001938D01*
X113456077Y-136001938D01*
X113456077Y-136063842D01*
X113457518Y-136078474D01*
X113458548Y-136080962D01*
X113458740Y-136083652D01*
X113463995Y-136097383D01*
X113494948Y-136159288D01*
X113498910Y-136165582D01*
X113499669Y-136167414D01*
X113501362Y-136169477D01*
X113502781Y-136171731D01*
X113504275Y-136173027D01*
X113508996Y-136178779D01*
X113539948Y-136209732D01*
X113545700Y-136214453D01*
X113546999Y-136215950D01*
X113549255Y-136217370D01*
X113551313Y-136219059D01*
X113553140Y-136219816D01*
X113559441Y-136223782D01*
X113621347Y-136254734D01*
X113635078Y-136259989D01*
X113637765Y-136260179D01*
X113640255Y-136261211D01*
X113654887Y-136262652D01*
X113809649Y-136262652D01*
X113817054Y-136261922D01*
X113819029Y-136262063D01*
X113821626Y-136261472D01*
X113824281Y-136261211D01*
X113826112Y-136260452D01*
X113833366Y-136258803D01*
X113926223Y-136227851D01*
X113939649Y-136221857D01*
X113961756Y-136202683D01*
X113974843Y-136176510D01*
X113976917Y-136147320D01*
X113967663Y-136119558D01*
X113948490Y-136097450D01*
X113922316Y-136084364D01*
X113893126Y-136082289D01*
X113878789Y-136085549D01*
X113797479Y-136112652D01*
X113672592Y-136112652D01*
X113637409Y-136095061D01*
X113623669Y-136081321D01*
X113606077Y-136046136D01*
X113606077Y-136019643D01*
X113623669Y-135984458D01*
X113637409Y-135970718D01*
X113681062Y-135948892D01*
X113796886Y-135919937D01*
X113797965Y-135919551D01*
X113798506Y-135919513D01*
X113804602Y-135917179D01*
X113810731Y-135914990D01*
X113811165Y-135914668D01*
X113812237Y-135914258D01*
X113874142Y-135883305D01*
X113880436Y-135879342D01*
X113882268Y-135878584D01*
X113884331Y-135876890D01*
X113886585Y-135875472D01*
X113887881Y-135873977D01*
X113893633Y-135869257D01*
X113924586Y-135838305D01*
X113929307Y-135832552D01*
X113930804Y-135831254D01*
X113932224Y-135828997D01*
X113933913Y-135826940D01*
X113934670Y-135825112D01*
X113938636Y-135818812D01*
X113969588Y-135756906D01*
X113974843Y-135743175D01*
X113975033Y-135740487D01*
X113976065Y-135737998D01*
X113977506Y-135723366D01*
X113977506Y-135661461D01*
X113976065Y-135646829D01*
X113975033Y-135644339D01*
X113974843Y-135641652D01*
X113969588Y-135627920D01*
X113938636Y-135566016D01*
X113934671Y-135559716D01*
X113933914Y-135557889D01*
X113932225Y-135555832D01*
X113930804Y-135553573D01*
X113929305Y-135552273D01*
X113924587Y-135546524D01*
X113893634Y-135515571D01*
X113887884Y-135510852D01*
X113886585Y-135509354D01*
X113884325Y-135507932D01*
X113882269Y-135506244D01*
X113880441Y-135505486D01*
X113874142Y-135501522D01*
X113812237Y-135470570D01*
X113798505Y-135465315D01*
X113795817Y-135465124D01*
X113793328Y-135464093D01*
X113778696Y-135462652D01*
X113623935Y-135462652D01*
X113616529Y-135463381D01*
X113614555Y-135463241D01*
X113611958Y-135463831D01*
X113609303Y-135464093D01*
X113607470Y-135464851D01*
X113600219Y-135466501D01*
X113507360Y-135497453D01*
X113493935Y-135503447D01*
X113471828Y-135522620D01*
X113458741Y-135548794D01*
X113456666Y-135577984D01*
X113465920Y-135605746D01*
X113485093Y-135627853D01*
X113511267Y-135640940D01*
X113540457Y-135643015D01*
X113554794Y-135639755D01*
X113636105Y-135612652D01*
X113760992Y-135612652D01*
X113796173Y-135630242D01*
X113809915Y-135643984D01*
X113827506Y-135679166D01*
X113827506Y-135705661D01*
X113809915Y-135740843D01*
X113796175Y-135754583D01*
X113752519Y-135776411D01*
X113636697Y-135805367D01*
X113635617Y-135805752D01*
X113635078Y-135805791D01*
X113629002Y-135808115D01*
X113622851Y-135810314D01*
X113622414Y-135810637D01*
X113621347Y-135811046D01*
X113559441Y-135841998D01*
X113553140Y-135845963D01*
X113551313Y-135846721D01*
X113549255Y-135848409D01*
X113546999Y-135849830D01*
X113545700Y-135851326D01*
X113539948Y-135856048D01*
X113508996Y-135887001D01*
X113504275Y-135892752D01*
X113502781Y-135894049D01*
X113501362Y-135896302D01*
X113499669Y-135898366D01*
X113498910Y-135900197D01*
X113494948Y-135906492D01*
X113463995Y-135968397D01*
X113458740Y-135982128D01*
X113458548Y-135984817D01*
X113457518Y-135987306D01*
X113456077Y-136001938D01*
X113280962Y-136001938D01*
X113387370Y-135555024D01*
X113389358Y-135540456D01*
X113384725Y-135511561D01*
X113369389Y-135486639D01*
X113345682Y-135469483D01*
X113317214Y-135462704D01*
X113288319Y-135467337D01*
X113263397Y-135482673D01*
X113246240Y-135506380D01*
X113241450Y-135520281D01*
X113155532Y-135881135D01*
X113108307Y-135704041D01*
X113107021Y-135700613D01*
X113106830Y-135699172D01*
X113105838Y-135697459D01*
X113103144Y-135690275D01*
X113097129Y-135682416D01*
X113092168Y-135673848D01*
X113088309Y-135670894D01*
X113085357Y-135667037D01*
X113076795Y-135662080D01*
X113068931Y-135656060D01*
X113064233Y-135654807D01*
X113060032Y-135652375D01*
X113050225Y-135651072D01*
X113040655Y-135648520D01*
X113035836Y-135649160D01*
X113031024Y-135648521D01*
X113021463Y-135651070D01*
X113011646Y-135652375D01*
X113007440Y-135654809D01*
X113002748Y-135656061D01*
X112994888Y-135662076D01*
X112986321Y-135667037D01*
X112983367Y-135670895D01*
X112979510Y-135673848D01*
X112974551Y-135682413D01*
X112968534Y-135690274D01*
X112965839Y-135697460D01*
X112964848Y-135699173D01*
X112964656Y-135700615D01*
X112963372Y-135704041D01*
X112916146Y-135881136D01*
X112830228Y-135520281D01*
X112825438Y-135506380D01*
X112808281Y-135482673D01*
X112783359Y-135467337D01*
X112754464Y-135462704D01*
X112725996Y-135469482D01*
X112702289Y-135486639D01*
X112686953Y-135511561D01*
X112682320Y-135540456D01*
X111865852Y-135540456D01*
X111865852Y-135387652D01*
X114052506Y-135387652D01*
X114052506Y-136337652D01*
G37*
M02*
