M48
METRIC,TZ
T1C0.200
T2C0.300
T3C0.300
T4C0.400
T5C1.000
T6C2.200
%
G90
G05
T1
X129250Y-134200
X129250Y-136400
X131450Y-134200
X131450Y-136400
T2
X106100Y-100150
X106100Y-101150
X106100Y-102150
X106100Y-103150
X106100Y-104150
X106100Y-105150
X106100Y-106150
X106100Y-107150
X106100Y-108150
X106100Y-109150
X106100Y-110150
X106100Y-111150
X106100Y-112150
X106100Y-113150
X106100Y-114150
X106100Y-115150
X106100Y-116150
X106100Y-117150
X106100Y-118150
X106100Y-119150
X106100Y-120150
X106100Y-121150
X106100Y-122150
X106100Y-143900
X106100Y-144900
X106100Y-145900
X106100Y-146900
X106100Y-147900
X106100Y-148900
X106100Y-149900
X106100Y-150900
X106100Y-151900
X106100Y-152900
X106100Y-153900
X106100Y-154900
X106100Y-155900
X106100Y-156900
X106100Y-157900
X106100Y-158900
X106100Y-159900
X106100Y-160900
X106100Y-161900
X106100Y-162900
X106100Y-163900
X106300Y-165150
X106425Y-99400
X106513Y-127300
X106513Y-128825
X106513Y-130400
X106525Y-123950
X106525Y-125500
X106575Y-141775
X106575Y-132000
X106575Y-133775
X106575Y-134875
X106575Y-136025
X106575Y-139525
X106575Y-140675
X106800Y-164525
X106800Y-165650
X106925Y-98900
X106950Y-100025
X107300Y-165150
X107425Y-99425
X107425Y-138125
X107425Y-139125
X107425Y-140125
X107425Y-141125
X107425Y-142125
X107425Y-143150
X107800Y-165650
X107925Y-98900
X107925Y-133650
X107925Y-136150
X108000Y-152025
X108000Y-155150
X108300Y-165150
X108425Y-99400
X108725Y-134875
X108725Y-140675
X108800Y-120775
X108800Y-122250
X108800Y-165650
X108925Y-98900
X109025Y-146650
X109300Y-165150
X109425Y-99400
X109800Y-150450
X109800Y-165650
X109925Y-98900
X110225Y-112375
X110300Y-165150
X110325Y-134600
X110325Y-139300
X110425Y-99400
X110800Y-165650
X110925Y-98900
X111125Y-148900
X111300Y-165150
X111425Y-99400
X111800Y-165650
X111900Y-124975
X111925Y-98900
X111974Y-115724
X112125Y-154375
X112300Y-165150
X112425Y-99400
X112538Y-136913
X112550Y-108225
X112775Y-165650
X113050Y-109925
X113300Y-165150
X113650Y-149675
X113650Y-151225
X113800Y-165650
X114200Y-145375
X114200Y-146925
X114200Y-153600
X114200Y-155175
X114300Y-165150
X114800Y-98875
X114800Y-108225
X114800Y-165650
X114925Y-99900
X115150Y-100775
X115150Y-109850
X115300Y-165148
X115675Y-101525
X115800Y-107525
X115800Y-112800
X115800Y-165650
X115900Y-116275
X115900Y-117825
X115925Y-155175
X116075Y-136475
X116150Y-102275
X116175Y-153500
X116275Y-162675
X116300Y-161000
X116300Y-161850
X116300Y-165150
X116325Y-159025
X116325Y-160025
X116350Y-163450
X116550Y-103025
X116550Y-164250
X116675Y-98875
X116675Y-158025
X116800Y-165650
X116925Y-100150
X116950Y-157250
X117175Y-99400
X117225Y-165100
X117325Y-103025
X117325Y-104025
X117350Y-154900
X117450Y-108425
X117450Y-116275
X117450Y-156550
X117525Y-145375
X117525Y-146925
X117525Y-164275
X117547Y-114025
X117575Y-100725
X117675Y-98875
X117675Y-165650
X117875Y-106775
X117925Y-103525
X117975Y-165025
X118175Y-99400
X118350Y-100775
X118425Y-119475
X118500Y-154075
X118550Y-165650
X118650Y-150625
X118675Y-98875
X118697Y-110589
X118700Y-112875
X118900Y-144375
X118914Y-148311
X119075Y-117825
X119175Y-99400
X119250Y-100950
X119675Y-98875
X119675Y-158000
X119700Y-103675
X119850Y-144600
X119850Y-146375
X119950Y-157225
X120050Y-100950
X120147Y-138417
X120163Y-139167
X120175Y-158925
X120175Y-159925
X120175Y-160850
X120175Y-161800
X120176Y-106276
X120200Y-99400
X120200Y-162625
X120200Y-163450
X120350Y-164275
X120450Y-104675
X120675Y-98875
X120875Y-164850
X120925Y-129150
X120925Y-130400
X120925Y-131650
X120925Y-132900
X120925Y-134150
X120925Y-135400
X120925Y-136650
X120925Y-137900
X121025Y-102775
X121050Y-148157
X121050Y-100950
X121050Y-106275
X121050Y-107150
X121050Y-146657
X121050Y-147407
X121175Y-99400
X121425Y-165625
X121500Y-158075
X121538Y-143838
X121675Y-98875
X121900Y-110589
X121900Y-112875
X122000Y-165125
X122025Y-147425
X122050Y-100950
X122050Y-102775
X122100Y-150475
X122100Y-154075
X122126Y-115161
X122175Y-99400
X122250Y-159075
X122388Y-139317
X122550Y-165625
X122575Y-116275
X122675Y-98875
X123025Y-158075
X123050Y-100150
X123050Y-100900
X123050Y-102875
X123050Y-103650
X123050Y-155025
X123075Y-165150
X123175Y-99400
X123250Y-113900
X123425Y-107900
X123488Y-147550
X123575Y-165625
X123675Y-104400
X123700Y-98875
X123950Y-155525
X124050Y-108525
X124055Y-115780
X124075Y-165150
X124200Y-99400
X124238Y-143838
X124238Y-145400
X124238Y-146900
X124300Y-134150
X124300Y-138400
X124536Y-110039
X124550Y-111625
X124550Y-158525
X124550Y-165625
X124675Y-98875
X124675Y-104400
X124700Y-101875
X124716Y-155495
X124800Y-153275
X124906Y-112285
X125050Y-108025
X125050Y-165150
X125170Y-151905
X125175Y-99400
X125300Y-111625
X125300Y-110025
X125300Y-110775
X125300Y-155025
X125425Y-149700
X125425Y-151155
X125550Y-165625
X125675Y-98875
X125675Y-104400
X126050Y-165150
X126075Y-158075
X126106Y-125719
X126106Y-127244
X126175Y-99400
X126275Y-146175
X126300Y-100150
X126300Y-100900
X126300Y-102900
X126300Y-103675
X126550Y-165625
X126575Y-135400
X126675Y-98875
X126825Y-150250
X126825Y-153350
X126825Y-154900
X126850Y-159075
X127050Y-147175
X127050Y-165150
X127175Y-99400
X127175Y-101275
X127175Y-102525
X127300Y-108025
X127450Y-137450
X127450Y-138450
X127550Y-165625
X127600Y-158075
X127675Y-98875
X127825Y-154125
X127950Y-136950
X127950Y-137950
X128050Y-165150
X128175Y-99400
X128425Y-129675
X128450Y-137450
X128450Y-138450
X128550Y-165600
X128600Y-116200
X128675Y-98850
X128925Y-137975
X129050Y-165150
X129175Y-99400
X129250Y-144975
X129475Y-138450
X129550Y-165600
X129675Y-98850
X130050Y-165150
X130100Y-147175
X130150Y-154888
X130175Y-99400
X130550Y-165600
X130675Y-98850
X130875Y-146225
X131050Y-165150
X131175Y-99400
X131550Y-165600
X131675Y-98850
X131975Y-130950
X132050Y-165150
X132175Y-99400
X132225Y-122150
X132550Y-165600
X132675Y-98850
X133050Y-165150
X133175Y-99400
X133250Y-154888
X133550Y-164525
X133575Y-165600
X133700Y-98850
X134050Y-165150
X134175Y-99400
X134500Y-100150
X134500Y-101150
X134500Y-102150
X134500Y-103150
X134500Y-104150
X134500Y-105150
X134500Y-106150
X134500Y-107150
X134500Y-108150
X134500Y-109150
X134500Y-110150
X134500Y-111150
X134500Y-112150
X134500Y-113150
X134500Y-114150
X134500Y-115150
X134500Y-116150
X134500Y-117150
X134500Y-118150
X134500Y-119150
X134500Y-120150
X134500Y-121150
X134500Y-122150
X134500Y-123150
X134500Y-124150
X134500Y-125150
X134500Y-126150
X134500Y-127150
X134500Y-128150
X134500Y-129150
X134500Y-130150
X134500Y-131150
X134500Y-132150
X134500Y-133150
X134500Y-137650
X134500Y-138650
X134500Y-139650
X134500Y-140650
X134500Y-141650
X134500Y-142650
X134500Y-143650
X134500Y-144650
X134500Y-145650
X134500Y-146650
X134500Y-147650
X134500Y-148650
X134500Y-156150
X134500Y-157150
X134500Y-158150
X134500Y-159150
X134500Y-160150
X134500Y-161150
X134500Y-162150
X134500Y-163150
X134500Y-164150
X134550Y-165600
T3
X113650Y-98775
T4
X107650Y-102275
X107650Y-162275
X108133Y-101108
X108133Y-103442
X108133Y-161108
X108133Y-163442
X109300Y-100625
X109300Y-103925
X109300Y-160625
X109300Y-163925
X110467Y-101108
X110467Y-103442
X110467Y-161108
X110467Y-163442
X110950Y-102275
X110950Y-162275
X129650Y-102275
X129650Y-162275
X130133Y-101108
X130133Y-103442
X130133Y-161108
X130133Y-163442
X131300Y-100625
X131300Y-103925
X131300Y-160625
X131300Y-163925
X132467Y-101108
X132467Y-103442
X132467Y-161108
X132467Y-163442
X132950Y-102275
X132950Y-162275
T5
X112975Y-133800
X113425Y-140400
X115515Y-133800
X117175Y-140400
X120925Y-140400
X124275Y-140400
X124525Y-130250
X127065Y-130250
X131200Y-107790
X131200Y-110330
X131200Y-112870
X131200Y-115410
X131200Y-117950
T6
X109300Y-102275
X109300Y-162275
X131300Y-102275
X131300Y-162275
M30
