%TF.GenerationSoftware,KiCad,Pcbnew,8.0.6*%
%TF.CreationDate,2024-12-19T09:14:43+01:00*%
%TF.ProjectId,Clicker_PCB,436c6963-6b65-4725-9f50-43422e6b6963,rev?*%
%TF.SameCoordinates,Original*%
%TF.FileFunction,Profile,NP*%
%FSLAX46Y46*%
G04 Gerber Fmt 4.6, Leading zero omitted, Abs format (unit mm)*
G04 Created by KiCad (PCBNEW 8.0.6) date 2024-12-19 09:14:43*
%MOMM*%
%LPD*%
G01*
G04 APERTURE LIST*
%TA.AperFunction,Profile*%
%ADD10C,0.050000*%
%TD*%
%ADD11C,0.350000*%
%ADD12C,0.200000*%
%ADD13C,0.300000*%
G04 APERTURE END LIST*
D10*
X105300000Y-93025000D02*
X105300000Y-177025000D01*
X106050000Y-177775000D02*
X134550000Y-177775000D01*
X135300000Y-177025000D02*
G75*
G02*
X134550000Y-177775000I-750000J0D01*
G01*
X134550000Y-92275000D02*
X106050000Y-92275000D01*
X106050000Y-177775104D02*
G75*
G02*
X105299896Y-177025000I0J750104D01*
G01*
X105299896Y-93025000D02*
G75*
G02*
X106050000Y-92274896I750104J0D01*
G01*
X135300000Y-177025000D02*
X135300000Y-93025000D01*
X134550000Y-92275000D02*
G75*
G02*
X135300000Y-93025000I0J-750000D01*
G01*
D11*
X107650000Y-102275000D03*
X108133274Y-101108274D03*
X108133274Y-103441726D03*
X109300000Y-100625000D03*
X109300000Y-102275000D03*
X109300000Y-103925000D03*
X110466726Y-101108274D03*
X110466726Y-103441726D03*
X110950000Y-102275000D03*
X124525000Y-130249999D03*
X127065000Y-130249999D03*
X107650000Y-162275000D03*
X108133274Y-161108274D03*
X108133274Y-163441726D03*
X109300000Y-160625000D03*
X109300000Y-162275000D03*
X109300000Y-163925000D03*
X110466726Y-161108274D03*
X110466726Y-163441726D03*
X110950000Y-162275000D03*
D12*
X131450000Y-136400000D03*
X131450000Y-134200000D03*
X129250000Y-136400000D03*
X129250000Y-134200000D03*
D13*
X113650000Y-98775000D03*
D11*
X129650000Y-102275000D03*
X130133274Y-101108274D03*
X130133274Y-103441726D03*
X131300000Y-100625000D03*
X131300000Y-102275000D03*
X131300000Y-103925000D03*
X132466726Y-101108274D03*
X132466726Y-103441726D03*
X132950000Y-102275000D03*
X113425000Y-140400000D03*
X112975000Y-133800000D03*
X115515000Y-133800000D03*
X131200000Y-117950000D03*
X131200000Y-115410000D03*
X131200000Y-112870001D03*
X131200000Y-110330000D03*
X131200000Y-107790000D03*
X129650000Y-162275000D03*
X130133274Y-161108274D03*
X130133274Y-163441726D03*
X131300000Y-160625000D03*
X131300000Y-162275000D03*
X131300000Y-163925000D03*
X132466726Y-161108274D03*
X132466726Y-163441726D03*
X132950000Y-162275000D03*
X124275000Y-140400000D03*
X117175000Y-140400000D03*
X120925000Y-140400000D03*
M02*
